# Blender v3.4.1 OBJ File: 'Tiny_treats_Playful_Bedroom_1.1_ASSETS_EXPORT.blend'
# www.blender.org
mtllib curtains_green.mtl
o curtains_green
v -0.750000 -0.150000 0.050000
v -0.750000 -0.100000 0.100000
v -0.800000 -0.100000 0.050000
v -0.750000 0.100000 0.100000
v -0.750000 0.150000 0.050000
v -0.800000 0.100000 0.050000
v -0.750000 -0.150000 -0.000000
v -0.800000 -0.100000 0.000000
v -0.800000 0.100000 0.000000
v -0.750000 0.150000 0.000000
v 0.750000 -0.150000 0.050000
v 0.800000 -0.100000 0.050000
v 0.750000 -0.100000 0.100000
v 0.750000 0.150000 0.050000
v 0.750000 0.100000 0.100000
v 0.800000 0.100000 0.050000
v 0.800000 -0.100000 0.000000
v 0.750000 -0.150000 -0.000000
v 0.750000 0.150000 0.000000
v 0.800000 0.100000 0.000000
v 0.750000 0.000000 0.065000
v 0.750000 -0.037500 0.075048
v 0.750000 -0.064952 0.102500
v 0.750000 -0.075000 0.140000
v 0.750000 -0.064952 0.177500
v 0.750000 -0.037500 0.204952
v 0.750000 -0.000000 0.215000
v 0.750000 0.037500 0.204952
v 0.750000 0.064952 0.177500
v 0.750000 0.075000 0.140000
v 0.750000 0.064952 0.102500
v 0.750000 0.037500 0.075048
v 0.934250 -0.000000 0.140000
v 0.850250 0.120137 0.209361
v 0.850250 -0.069361 0.019863
v 0.850250 -0.000000 0.001278
v 0.850250 0.069361 0.019863
v 0.850250 -0.120137 0.209361
v 0.850250 0.069361 0.260137
v 0.850250 0.120137 0.070639
v 0.850250 0.138722 0.140000
v 0.850250 -0.138722 0.140000
v 0.850250 -0.120137 0.070639
v 0.850250 -0.000000 0.278722
v 0.850250 -0.069361 0.260137
v 0.910250 -0.057213 0.040904
v 0.910250 -0.000000 0.025574
v 0.910250 -0.099096 0.082787
v 0.910250 -0.114426 0.140000
v 0.910250 -0.099096 0.197213
v 0.910250 -0.057213 0.239096
v 0.910250 -0.000000 0.254426
v 0.910250 0.057213 0.239096
v 0.910250 0.099096 0.197213
v 0.910250 0.114426 0.140000
v 0.910250 0.099096 0.082787
v 0.910250 0.057213 0.040904
v 0.000000 -0.000000 0.065000
v 0.000000 -0.037500 0.075048
v 0.000000 -0.064952 0.102500
v 0.000000 -0.075000 0.140000
v 0.000000 0.075000 0.140000
v 0.000000 0.064952 0.102500
v 0.000000 0.037500 0.075048
v 0.934250 -0.032261 0.084122
v 0.934250 -0.000000 0.075477
v 0.934250 -0.055878 0.107739
v 0.934250 -0.064523 0.140000
v 0.934250 -0.055878 0.172261
v 0.934250 -0.032261 0.195878
v 0.934250 -0.000000 0.204523
v 0.934250 0.032261 0.195878
v 0.934250 0.055878 0.172261
v 0.934250 0.064523 0.140000
v 0.934250 0.055878 0.107739
v 0.934250 0.032261 0.084122
v -0.750000 0.000000 0.065000
v -0.750000 -0.037500 0.075048
v -0.750000 -0.064952 0.102500
v -0.750000 -0.075000 0.140000
v -0.750000 -0.064952 0.177500
v -0.750000 -0.037500 0.204952
v -0.750000 -0.000000 0.215000
v -0.750000 0.037500 0.204952
v -0.750000 0.064952 0.177500
v -0.750000 0.075000 0.140000
v -0.750000 0.064952 0.102500
v -0.750000 0.037500 0.075048
v -0.934250 -0.000000 0.140000
v -0.850250 0.120137 0.209361
v -0.850250 -0.069361 0.019863
v -0.850250 -0.000000 0.001278
v -0.850250 0.069361 0.019863
v -0.850250 -0.120137 0.209361
v -0.850250 0.069361 0.260137
v -0.850250 0.120137 0.070639
v -0.850250 0.138722 0.140000
v -0.850250 -0.138722 0.140000
v -0.850250 -0.120137 0.070639
v -0.850250 -0.000000 0.278722
v -0.850250 -0.069361 0.260137
v -0.910250 -0.057213 0.040904
v -0.910250 -0.000000 0.025574
v -0.910250 -0.099096 0.082787
v -0.910250 -0.114426 0.140000
v -0.910250 -0.099096 0.197213
v -0.910250 -0.057213 0.239096
v -0.910250 -0.000000 0.254426
v -0.910250 0.057213 0.239096
v -0.910250 0.099096 0.197213
v -0.910250 0.114426 0.140000
v -0.910250 0.099096 0.082787
v -0.910250 0.057213 0.040904
v -0.934250 -0.032261 0.084122
v -0.934250 -0.000000 0.075477
v -0.934250 -0.055878 0.107739
v -0.934250 -0.064523 0.140000
v -0.934250 -0.055878 0.172261
v -0.934250 -0.032261 0.195878
v -0.934250 -0.000000 0.204523
v -0.934250 0.032261 0.195878
v -0.934250 0.055878 0.172261
v -0.934250 0.064523 0.140000
v -0.934250 0.055878 0.107739
v -0.934250 0.032261 0.084122
v 0.250000 -1.850000 0.120000
v 0.750000 -1.850000 0.120000
v 0.250000 0.150000 0.120000
v 0.750000 0.150000 0.120000
v 0.419068 -1.850000 0.249490
v 0.330932 -1.850000 0.249490
v 0.375000 -1.850000 0.278696
v 0.544068 -1.850000 0.190509
v 0.455932 -1.850000 0.190509
v 0.500000 -1.850000 0.161303
v 0.669068 -1.850000 0.249490
v 0.580932 -1.850000 0.249490
v 0.625000 -1.850000 0.278696
v 0.580932 0.150000 0.249491
v 0.669068 0.150000 0.249491
v 0.625000 0.150000 0.278697
v 0.455932 0.150000 0.190509
v 0.544068 0.150000 0.190509
v 0.500000 0.150000 0.161304
v 0.330932 0.150000 0.249491
v 0.419068 0.150000 0.249491
v 0.375000 0.150000 0.278697
v 0.375000 -1.850000 0.159226
v 0.500000 -1.850000 0.080774
v 0.625000 -1.850000 0.159226
v 0.625000 0.150000 0.159226
v 0.500000 0.150000 0.080774
v 0.375000 0.150000 0.159226
v -0.750000 -1.850000 0.120000
v -0.250000 -1.850000 0.120000
v -0.750000 0.150000 0.120000
v -0.250000 0.150000 0.120000
v -0.580932 -1.850000 0.249490
v -0.669068 -1.850000 0.249490
v -0.625000 -1.850000 0.278696
v -0.455932 -1.850000 0.190509
v -0.544068 -1.850000 0.190509
v -0.500000 -1.850000 0.161303
v -0.330932 -1.850000 0.249490
v -0.419068 -1.850000 0.249490
v -0.375000 -1.850000 0.278696
v -0.419068 0.150000 0.249491
v -0.330932 0.150000 0.249491
v -0.375000 0.150000 0.278697
v -0.544068 0.150000 0.190509
v -0.455932 0.150000 0.190509
v -0.500000 0.150000 0.161304
v -0.669068 0.150000 0.249491
v -0.580932 0.150000 0.249491
v -0.625000 0.150000 0.278697
v -0.625000 -1.850000 0.159226
v -0.500000 -1.850000 0.080774
v -0.375000 -1.850000 0.159226
v -0.375000 0.150000 0.159226
v -0.500000 0.150000 0.080774
v -0.625000 0.150000 0.159226
vt 0.719822 0.889092
vt 0.719822 0.897183
vt 0.659081 0.897183
vt 0.659081 0.889092
vt 0.719822 0.899206
vt 0.659081 0.899206
vt 0.659081 0.899206
vt 0.719822 0.899206
vt 0.657056 0.889092
vt 0.657056 0.897183
vt 0.657056 0.897183
vt 0.657056 0.889092
vt 0.721847 0.889092
vt 0.721847 0.897183
vt 0.721847 0.897183
vt 0.721847 0.889092
vt 0.659081 0.887069
vt 0.719822 0.887069
vt 0.659081 0.887069
vt 0.719822 0.887069
vt 0.689451 0.893137
vt 0.719822 0.893137
vt 0.719822 0.891620
vt 0.689451 0.891620
vt 0.719822 0.890510
vt 0.689451 0.890510
vt 0.719822 0.890103
vt 0.689451 0.890103
vt 0.719822 0.890510
vt 0.659081 0.890510
vt 0.659081 0.890103
vt 0.719822 0.891620
vt 0.659081 0.891620
vt 0.719822 0.893137
vt 0.659081 0.893137
vt 0.719822 0.894655
vt 0.659081 0.894655
vt 0.719822 0.895765
vt 0.659081 0.895765
vt 0.689451 0.896172
vt 0.719822 0.896172
vt 0.719822 0.895765
vt 0.689451 0.895765
vt 0.723882 0.890331
vt 0.723882 0.893137
vt 0.719822 0.894655
vt 0.689451 0.894655
vt 0.723882 0.898749
vt 0.723882 0.897998
vt 0.723882 0.888277
vt 0.659081 0.891620
vt 0.655021 0.890331
vt 0.655021 0.893137
vt 0.659081 0.893137
vt 0.723882 0.890331
vt 0.723882 0.888277
vt 0.723882 0.887525
vt 0.723882 0.895943
vt 0.723882 0.893137
vt 0.723882 0.897998
vt 0.723882 0.895943
vt 0.726312 0.890823
vt 0.726312 0.893137
vt 0.726312 0.889129
vt 0.726312 0.888508
vt 0.726312 0.897767
vt 0.726312 0.897146
vt 0.726312 0.895452
vt 0.726312 0.889129
vt 0.726312 0.895452
vt 0.726312 0.893137
vt 0.726312 0.890823
vt 0.726312 0.897146
vt 0.727284 0.893137
vt 0.727284 0.891832
vt 0.727284 0.890877
vt 0.727284 0.890527
vt 0.727284 0.890877
vt 0.727284 0.891832
vt 0.727284 0.893137
vt 0.727284 0.894443
vt 0.727284 0.895398
vt 0.727284 0.895748
vt 0.727284 0.895398
vt 0.727284 0.894443
vt 0.727284 0.893137
vt 0.659081 0.890510
vt 0.659081 0.895765
vt 0.659081 0.896172
vt 0.655021 0.893137
vt 0.655021 0.890331
vt 0.659081 0.894655
vt 0.655021 0.897998
vt 0.655021 0.898749
vt 0.655021 0.888277
vt 0.655021 0.888277
vt 0.655021 0.887525
vt 0.655021 0.895943
vt 0.655021 0.897998
vt 0.655021 0.895943
vt 0.652591 0.893137
vt 0.652591 0.890823
vt 0.652591 0.888508
vt 0.652591 0.889129
vt 0.652591 0.897146
vt 0.652591 0.897767
vt 0.652591 0.895452
vt 0.652591 0.889129
vt 0.652591 0.895452
vt 0.652591 0.890823
vt 0.652591 0.893137
vt 0.652591 0.897146
vt 0.651619 0.893137
vt 0.651619 0.891832
vt 0.651619 0.890877
vt 0.651619 0.890527
vt 0.651619 0.890877
vt 0.651619 0.891832
vt 0.651619 0.893137
vt 0.651619 0.894443
vt 0.651619 0.895398
vt 0.651619 0.895748
vt 0.651619 0.895398
vt 0.651619 0.894443
vt 0.651619 0.893137
vt 0.186970 0.627119
vt 0.187785 0.627119
vt 0.187785 0.685384
vt 0.186970 0.685384
vt 0.189733 0.627119
vt 0.190548 0.627119
vt 0.190548 0.685384
vt 0.189733 0.685384
vt 0.192496 0.627119
vt 0.194285 0.627119
vt 0.194285 0.685384
vt 0.192496 0.685384
vt 0.185996 0.701009
vt 0.185996 0.642744
vt 0.185022 0.685384
vt 0.185022 0.627119
vt 0.188759 0.622884
vt 0.188759 0.564619
vt 0.191522 0.701009
vt 0.191522 0.642744
vt 0.183233 0.627119
vt 0.183233 0.685384
vt 0.185996 0.595869
vt 0.185996 0.654134
vt 0.188759 0.591634
vt 0.188759 0.533369
vt 0.191522 0.654134
vt 0.191522 0.595869
vt 0.194285 0.595869
vt 0.194285 0.654134
vt 0.191522 0.685384
vt 0.185996 0.627119
vt 0.191522 0.627119
vt 0.188759 0.564619
vt 0.185996 0.685384
vt 0.188759 0.622884
vt 0.183233 0.654134
vt 0.183233 0.595869
vt 0.164865 0.627119
vt 0.165680 0.627119
vt 0.165680 0.685384
vt 0.164865 0.685384
vt 0.167628 0.627119
vt 0.168443 0.627119
vt 0.168443 0.685384
vt 0.167628 0.685384
vt 0.170391 0.627119
vt 0.172180 0.627119
vt 0.172180 0.685384
vt 0.170391 0.685384
vt 0.163891 0.701009
vt 0.163891 0.642744
vt 0.162917 0.685384
vt 0.162917 0.627119
vt 0.166654 0.622884
vt 0.166654 0.564619
vt 0.169417 0.701009
vt 0.169417 0.642744
vt 0.161128 0.627119
vt 0.161128 0.685384
vt 0.163891 0.595869
vt 0.163891 0.654134
vt 0.166654 0.591634
vt 0.166654 0.533369
vt 0.169417 0.654134
vt 0.169417 0.595869
vt 0.172180 0.595869
vt 0.172180 0.654134
vt 0.169417 0.685384
vt 0.163891 0.627119
vt 0.169417 0.627119
vt 0.166654 0.564619
vt 0.163891 0.685384
vt 0.166654 0.622884
vt 0.161128 0.654134
vt 0.161128 0.595869
vn 0.3416 -0.3416 0.8756
vn 0.3416 0.3416 0.8756
vn -0.3416 0.3416 0.8756
vn -0.3416 -0.3416 0.8756
vn 0.3827 0.9239 0.0000
vn -0.3827 0.9239 0.0000
vn -0.3416 0.8756 0.3416
vn 0.3416 0.8756 0.3416
vn -0.8756 -0.3416 0.3416
vn -0.8756 0.3416 0.3416
vn -0.9239 0.3827 0.0000
vn -0.9239 -0.3827 -0.0000
vn 0.9239 -0.3827 0.0000
vn 0.9239 0.3827 0.0000
vn 0.8756 0.3416 0.3416
vn 0.8756 -0.3416 0.3416
vn -0.3416 -0.8756 0.3416
vn 0.3416 -0.8756 0.3416
vn -0.3827 -0.9239 -0.0000
vn 0.3827 -0.9239 0.0000
vn -0.0000 0.0000 -1.0000
vn -0.2925 0.0000 -0.9563
vn -0.2925 -0.4781 -0.8281
vn -0.0000 -0.5000 -0.8660
vn -0.2925 -0.8281 -0.4781
vn -0.0000 -0.8660 -0.5000
vn -0.2925 -0.9563 0.0000
vn -0.0000 -1.0000 -0.0000
vn -0.2925 -0.8281 0.4781
vn 0.2925 -0.8281 0.4781
vn 0.2925 -0.9563 0.0000
vn -0.2925 -0.4781 0.8281
vn 0.2925 -0.4781 0.8281
vn -0.2925 -0.0000 0.9563
vn 0.2925 -0.0000 0.9563
vn -0.2925 0.4781 0.8281
vn 0.2925 0.4781 0.8281
vn -0.2925 0.8281 0.4781
vn 0.2925 0.8281 0.4781
vn 0.0000 1.0000 0.0000
vn -0.2925 0.9563 0.0000
vn -0.2925 0.8281 -0.4781
vn -0.0000 0.8660 -0.5000
vn -0.0845 -0.4982 0.8629
vn -0.0845 -0.0000 0.9964
vn -0.2925 0.4781 -0.8281
vn -0.0000 0.5000 -0.8660
vn -0.0845 0.9964 0.0000
vn -0.0845 0.8629 -0.4982
vn -0.0845 -0.8629 0.4982
vn 0.2925 -0.4781 -0.8281
vn 0.0845 -0.4982 -0.8629
vn 0.0845 0.0000 -0.9964
vn 0.2925 0.0000 -0.9563
vn -0.0845 -0.4982 -0.8629
vn -0.0845 -0.8629 -0.4982
vn -0.0845 -0.9964 -0.0000
vn -0.0845 0.4982 -0.8629
vn -0.0845 0.0000 -0.9964
vn -0.0845 0.8629 0.4982
vn -0.0845 0.4982 0.8629
vn 0.6558 -0.3775 0.6538
vn 0.6558 0.0000 0.7549
vn 0.6558 -0.6538 -0.3775
vn 0.6558 -0.7549 -0.0000
vn 0.6558 0.7549 -0.0000
vn 0.6558 0.6538 -0.3775
vn 0.6558 0.3775 0.6538
vn 0.6558 -0.6538 0.3775
vn 0.6558 0.3775 -0.6538
vn 0.6558 0.0000 -0.7549
vn 0.6558 -0.3775 -0.6538
vn 0.6558 0.6538 0.3775
vn 0.9665 0.0000 -0.2569
vn 0.9665 -0.1284 -0.2224
vn 0.9665 -0.2224 -0.1284
vn 0.9665 -0.2569 -0.0000
vn 0.9665 -0.2224 0.1284
vn 0.9665 -0.1284 0.2224
vn 0.9665 0.0000 0.2569
vn 0.9665 0.1284 0.2224
vn 0.9665 0.2224 0.1284
vn 0.9665 0.2569 -0.0000
vn 0.9665 0.2224 -0.1284
vn 0.9664 0.1284 -0.2224
vn 1.0000 0.0000 -0.0000
vn 0.2925 -0.8281 -0.4781
vn 0.2925 0.8281 -0.4781
vn 0.2925 0.9563 0.0000
vn 0.0845 -0.0000 0.9964
vn 0.0845 -0.4982 0.8629
vn 0.2925 0.4781 -0.8281
vn 0.0845 0.8629 -0.4982
vn 0.0845 0.9964 0.0000
vn 0.0845 -0.8629 0.4982
vn 0.0845 -0.8629 -0.4982
vn 0.0845 -0.9964 0.0000
vn 0.0845 0.4982 -0.8629
vn 0.0845 0.8629 0.4982
vn 0.0845 0.4982 0.8629
vn -0.6558 0.0000 0.7549
vn -0.6558 -0.3775 0.6538
vn -0.6558 -0.7549 -0.0000
vn -0.6558 -0.6538 -0.3775
vn -0.6558 0.6538 -0.3775
vn -0.6558 0.7549 -0.0000
vn -0.6558 0.3775 0.6538
vn -0.6558 -0.6538 0.3775
vn -0.6558 0.3775 -0.6538
vn -0.6558 -0.3775 -0.6538
vn -0.6558 0.0000 -0.7549
vn -0.6558 0.6538 0.3775
vn -0.9665 0.0000 -0.2569
vn -0.9665 -0.1284 -0.2224
vn -0.9665 -0.2224 -0.1284
vn -0.9665 -0.2569 -0.0000
vn -0.9665 -0.2224 0.1284
vn -0.9665 -0.1284 0.2224
vn -0.9665 0.0000 0.2569
vn -0.9665 0.1284 0.2224
vn -0.9665 0.2224 0.1284
vn -0.9665 0.2569 -0.0000
vn -0.9664 0.2224 -0.1284
vn -0.9664 0.1284 -0.2224
vn -1.0000 0.0000 -0.0000
vn 0.7165 -0.0000 0.6976
vn -0.7165 -0.0000 0.6976
vn 0.8480 -0.0000 0.5300
vn 0.5524 -0.0000 0.8336
vn -0.5524 -0.0000 0.8336
vn -0.8480 -0.0000 0.5300
vn -0.1278 0.0000 -0.9918
vn -0.5316 0.0000 -0.8470
vn 0.5316 0.0000 -0.8470
vn 0.1278 0.0000 -0.9918
vn -0.2994 0.0000 -0.9541
vn 0.2994 0.0000 -0.9541
usemtl tiny_treats_1
s 1
f 13/1/1 15/2/2 4/3/3 2/4/4
f 19/5/5 10/6/6 5/7/7 14/8/8
f 3/9/9 6/10/10 9/11/11 8/12/12
f 17/13/13 20/14/14 16/15/15 12/16/16
f 1/17/17 2/4/4 3/9/9
f 4/3/3 5/7/7 6/10/10
f 11/18/18 12/16/16 13/1/1
f 14/8/8 15/2/2 16/15/15
f 7/19/19 1/17/17 3/9/9 8/12/12
f 2/4/4 4/3/3 6/10/10 3/9/9
f 5/7/7 10/6/6 9/11/11 6/10/10
f 11/18/18 18/20/20 17/13/13 12/16/16
f 19/5/5 14/8/8 16/15/15 20/14/14
f 15/2/2 13/1/1 12/16/16 16/15/15
f 1/17/17 11/18/18 13/1/1 2/4/4
f 14/8/8 5/7/7 4/3/3 15/2/2
f 7/19/19 18/20/20 11/18/18 1/17/17
f 58/21/21 21/22/22 22/23/23 59/24/24
f 59/24/24 22/23/23 23/25/25 60/26/26
f 60/26/26 23/25/25 24/27/27 61/28/28
f 25/29/29 81/30/30 80/31/31 61/28/28 24/27/27
f 26/32/32 82/33/33 81/30/30 25/29/29
f 27/34/34 83/35/35 82/33/33 26/32/32
f 28/36/36 84/37/37 83/35/35 27/34/34
f 29/38/38 85/39/39 84/37/37 28/36/36
f 62/40/40 30/41/41 31/42/42 63/43/43
f 26/32/32 45/44/44 44/45/45 27/34/34
f 63/43/43 31/42/42 32/46/46 64/47/47
f 64/47/47 32/46/46 21/22/22 58/21/21
f 30/41/41 41/48/48 40/49/49 31/42/42
f 25/29/29 38/50/50 45/44/44 26/32/32
f 78/51/51 91/52/52 92/53/53 77/54/54
f 22/23/23 35/55/55 43/56/56 23/25/25
f 24/27/27 42/57/57 38/50/50 25/29/29
f 32/46/46 37/58/58 36/59/59 21/22/22
f 23/25/25 43/56/56 42/57/57 24/27/27
f 31/42/42 40/49/49 37/58/58 32/46/46
f 30/41/41 29/38/38 34/60/60 41/48/48
f 28/36/36 39/61/61 34/60/60 29/38/38
f 27/34/34 44/45/45 39/61/61 28/36/36
f 44/45/45 45/44/44 51/62/62 52/63/63
f 42/57/57 43/56/56 48/64/64 49/65/65
f 40/49/49 41/48/48 55/66/66 56/67/67
f 39/61/61 44/45/45 52/63/63 53/68/68
f 38/50/50 42/57/57 49/65/65 50/69/69
f 37/58/58 40/49/49 56/67/67 57/70/70
f 35/55/55 36/59/59 47/71/71 46/72/72
f 34/60/60 39/61/61 53/68/68 54/73/73
f 45/44/44 38/50/50 50/69/69 51/62/62
f 36/59/59 37/58/58 57/70/70 47/71/71
f 43/56/56 35/55/55 46/72/72 48/64/64
f 41/48/48 34/60/60 54/73/73 55/66/66
f 66/74/74 65/75/75 46/72/72 47/71/71
f 65/75/75 67/76/76 48/64/64 46/72/72
f 67/76/76 68/77/77 49/65/65 48/64/64
f 68/77/77 69/78/78 50/69/69 49/65/65
f 69/78/78 70/79/79 51/62/62 50/69/69
f 70/79/79 71/80/80 52/63/63 51/62/62
f 71/80/80 72/81/81 53/68/68 52/63/63
f 72/81/81 73/82/82 54/73/73 53/68/68
f 73/82/82 74/83/83 55/66/66 54/73/73
f 74/83/83 75/84/84 56/67/67 55/66/66
f 75/84/84 76/85/85 57/70/70 56/67/67
f 76/85/85 66/74/74 47/71/71 57/70/70
f 33/86/86 65/75/75 66/74/74
f 33/86/86 67/76/76 65/75/75
f 33/86/86 68/77/77 67/76/76
f 33/86/86 69/78/78 68/77/77
f 33/86/86 70/79/79 69/78/78
f 33/86/86 71/80/80 70/79/79
f 33/86/86 72/81/81 71/80/80
f 33/86/86 73/82/82 72/81/81
f 33/86/86 74/83/83 73/82/82
f 33/86/86 75/84/84 74/83/83
f 33/86/86 76/85/85 75/84/84
f 33/86/86 66/74/74 76/85/85
f 58/21/21 59/24/24 78/51/51 77/54/54
f 59/24/24 60/26/26 79/87/87 78/51/51
f 60/26/26 61/28/28 80/31/31 79/87/87
f 62/40/40 63/43/43 87/88/88 86/89/89
f 83/35/35 100/90/90 101/91/91 82/33/33
f 63/43/43 64/47/47 88/92/92 87/88/88
f 64/47/47 58/21/21 77/54/54 88/92/92
f 87/88/88 96/93/93 97/94/94 86/89/89
f 82/33/33 101/91/91 94/95/95 81/30/30
f 79/87/87 99/96/96 91/52/52 78/51/51
f 81/30/30 94/95/95 98/97/97 80/31/31
f 77/54/54 92/53/53 93/98/98 88/92/92
f 80/31/31 98/97/97 99/96/96 79/87/87
f 88/92/92 93/98/98 96/93/93 87/88/88
f 86/89/89 97/94/94 90/99/99 85/39/39
f 85/39/39 90/99/99 95/100/100 84/37/37
f 84/37/37 95/100/100 100/90/90 83/35/35
f 100/90/90 108/101/101 107/102/102 101/91/91
f 98/97/97 105/103/103 104/104/104 99/96/96
f 96/93/93 112/105/105 111/106/106 97/94/94
f 95/100/100 109/107/107 108/101/101 100/90/90
f 94/95/95 106/108/108 105/103/103 98/97/97
f 93/98/98 113/109/109 112/105/105 96/93/93
f 91/52/52 102/110/110 103/111/111 92/53/53
f 90/99/99 110/112/112 109/107/107 95/100/100
f 101/91/91 107/102/102 106/108/108 94/95/95
f 92/53/53 103/111/111 113/109/109 93/98/98
f 99/96/96 104/104/104 102/110/110 91/52/52
f 97/94/94 111/106/106 110/112/112 90/99/99
f 115/113/113 103/111/111 102/110/110 114/114/114
f 114/114/114 102/110/110 104/104/104 116/115/115
f 116/115/115 104/104/104 105/103/103 117/116/116
f 117/116/116 105/103/103 106/108/108 118/117/117
f 118/117/117 106/108/108 107/102/102 119/118/118
f 119/118/118 107/102/102 108/101/101 120/119/119
f 120/119/119 108/101/101 109/107/107 121/120/120
f 121/120/120 109/107/107 110/112/112 122/121/121
f 122/121/121 110/112/112 111/106/106 123/122/122
f 123/122/122 111/106/106 112/105/105 124/123/123
f 124/123/123 112/105/105 113/109/109 125/124/124
f 125/124/124 113/109/109 103/111/111 115/113/113
f 89/125/125 115/113/113 114/114/114
f 89/125/125 114/114/114 116/115/115
f 89/125/125 116/115/115 117/116/116
f 89/125/125 117/116/116 118/117/117
f 89/125/125 118/117/117 119/118/118
f 89/125/125 119/118/118 120/119/119
f 89/125/125 120/119/119 121/120/120
f 89/125/125 121/120/120 122/121/121
f 89/125/125 122/121/121 123/122/122
f 89/125/125 123/122/122 124/123/123
f 89/125/125 124/123/123 125/124/124
f 89/125/125 125/124/124 115/113/113
f 62/40/40 86/89/89 85/39/39 29/38/38 30/41/41
f 21/22/22 36/59/59 35/55/55 22/23/23
f 130/126/126 134/127/126 142/128/126 146/129/126
f 133/130/127 137/131/127 139/132/127 143/133/127
f 136/134/126 127/135/128 129/136/128 140/137/126
f 130/126/126 146/129/126 147/138/129 132/139/129
f 132/139/130 147/138/130 145/140/127 131/141/127
f 133/130/127 143/133/127 144/142/130 135/143/130
f 135/143/129 144/142/129 142/128/126 134/127/126
f 136/134/126 140/137/126 141/144/129 138/145/129
f 138/145/130 141/144/130 139/132/127 137/131/127
f 126/146/131 131/141/127 145/140/127 128/147/131
f 148/148/132 153/149/132 152/150/133 149/151/133
f 149/151/134 152/150/134 151/152/135 150/153/135
f 127/154/136 150/153/135 151/152/135 129/155/136
f 129/136/40 151/156/40 140/137/40
f 126/146/28 148/157/28 131/141/28
f 138/145/28 150/158/28 136/134/28
f 135/143/28 149/159/28 133/130/28
f 145/140/40 153/160/40 128/147/40
f 132/139/28 148/157/28 130/126/28
f 130/126/28 148/157/28 149/159/28 134/127/28
f 140/137/40 151/156/40 141/144/40
f 143/133/40 152/161/40 144/142/40
f 142/128/40 152/161/40 153/160/40 146/129/40
f 146/129/40 153/160/40 147/138/40
f 133/130/28 149/159/28 150/158/28 137/131/28
f 137/131/28 150/158/28 138/145/28
f 134/127/28 149/159/28 135/143/28
f 139/132/40 151/156/40 152/161/40 143/133/40
f 131/141/28 148/157/28 132/139/28
f 141/144/40 151/156/40 139/132/40
f 144/142/40 152/161/40 142/128/40
f 136/134/28 150/158/28 127/135/28
f 147/138/40 153/160/40 145/140/40
f 128/162/137 153/149/132 148/148/132 126/163/137
f 158/164/126 162/165/126 170/166/126 174/167/126
f 161/168/127 165/169/127 167/170/127 171/171/127
f 164/172/126 155/173/128 157/174/128 168/175/126
f 158/164/126 174/167/126 175/176/129 160/177/129
f 160/177/130 175/176/130 173/178/127 159/179/127
f 161/168/127 171/171/127 172/180/130 163/181/130
f 163/181/129 172/180/129 170/166/126 162/165/126
f 164/172/126 168/175/126 169/182/129 166/183/129
f 166/183/130 169/182/130 167/170/127 165/169/127
f 154/184/131 159/179/127 173/178/127 156/185/131
f 176/186/132 181/187/132 180/188/133 177/189/133
f 177/189/134 180/188/134 179/190/135 178/191/135
f 155/192/136 178/191/135 179/190/135 157/193/136
f 157/174/40 179/194/40 168/175/40
f 154/184/28 176/195/28 159/179/28
f 166/183/28 178/196/28 164/172/28
f 163/181/28 177/197/28 161/168/28
f 173/178/40 181/198/40 156/185/40
f 160/177/28 176/195/28 158/164/28
f 158/164/28 176/195/28 177/197/28 162/165/28
f 168/175/40 179/194/40 169/182/40
f 171/171/40 180/199/40 172/180/40
f 170/166/40 180/199/40 181/198/40 174/167/40
f 174/167/40 181/198/40 175/176/40
f 161/168/28 177/197/28 178/196/28 165/169/28
f 165/169/28 178/196/28 166/183/28
f 162/165/28 177/197/28 163/181/28
f 167/170/40 179/194/40 180/199/40 171/171/40
f 159/179/28 176/195/28 160/177/28
f 169/182/40 179/194/40 167/170/40
f 172/180/40 180/199/40 170/166/40
f 164/172/28 178/196/28 155/173/28
f 175/176/40 181/198/40 173/178/40
f 156/200/137 181/187/132 176/186/132 154/201/137
