# Blender v3.4.1 OBJ File: 'Tiny_treats_Playful_Bedroom_1.1_ASSETS_EXPORT.blend'
# www.blender.org
mtllib mat.mtl
o mat
v -0.000000 0.000000 -0.000000
v 1.000000 0.050000 -0.000000
v 0.939693 0.050000 0.347296
v 0.766044 0.050000 0.652703
v 0.500000 0.050000 0.879385
v 0.173648 0.050000 1.000000
v -0.173648 0.050000 1.000000
v -0.500000 0.050000 0.879385
v -0.766044 0.050000 0.652703
v -0.939693 0.050000 0.347296
v -1.000000 0.050000 -0.000000
v -0.939693 0.050000 -0.347297
v -0.766044 0.050000 -0.652704
v -0.500000 0.050000 -0.879385
v -0.173648 0.050000 -1.000000
v 0.173648 0.050000 -1.000000
v 0.500000 0.050000 -0.879385
v 0.766044 0.050000 -0.652704
v 0.939692 0.050000 -0.347297
v -0.000000 0.100000 -0.000000
v 1.000000 0.000000 -0.000000
v 0.939693 -0.000000 0.347296
v 0.766044 -0.000000 0.652703
v 0.500000 -0.000000 0.879385
v 0.173648 -0.000000 1.000000
v -0.173648 -0.000000 1.000000
v -0.500000 -0.000000 0.879385
v -0.766044 -0.000000 0.652703
v -0.939693 -0.000000 0.347296
v -1.000000 0.000000 -0.000000
v -0.939693 0.000000 -0.347297
v -0.766044 0.000000 -0.652704
v -0.500000 0.000000 -0.879385
v -0.173648 0.000000 -1.000000
v 0.173648 0.000000 -1.000000
v 0.500000 0.000000 -0.879385
v 0.766044 0.000000 -0.652704
v 0.939692 0.000000 -0.347297
v 0.949252 0.100000 -0.000000
v 0.891921 0.100000 0.330157
v 0.726925 0.100000 0.620347
v 0.474334 0.100000 0.835565
v 0.164704 0.100000 0.950000
v -0.164704 0.100000 0.950000
v -0.474334 0.100000 0.835565
v -0.726925 0.100000 0.620347
v -0.891921 0.100000 0.330157
v -0.949252 0.100000 -0.000000
v -0.891921 0.100000 -0.330157
v -0.726925 0.100000 -0.620347
v -0.474334 0.100000 -0.835566
v -0.164704 0.100000 -0.950000
v 0.164704 0.100000 -0.950000
v 0.474334 0.100000 -0.835566
v 0.726924 0.100000 -0.620347
v 0.891920 0.100000 -0.330158
v 0.746259 0.100000 -0.000000
v 0.700832 0.100000 0.261600
v 0.570445 0.100000 0.490921
v 0.371671 0.100000 0.660286
v 0.128928 0.100000 0.750000
v -0.128928 0.100000 0.750000
v -0.371671 0.100000 0.660286
v -0.570445 0.100000 0.490921
v -0.700832 0.100000 0.261601
v -0.746259 0.100000 -0.000000
v -0.700832 0.100000 -0.261601
v -0.570446 0.100000 -0.490921
v -0.371671 0.100000 -0.660286
v -0.128928 0.100000 -0.750000
v 0.128928 0.100000 -0.750000
v 0.371671 0.100000 -0.660286
v 0.570445 0.100000 -0.490921
v 0.700832 0.100000 -0.261601
v 0.543266 0.100000 -0.000000
v 0.509744 0.100000 0.193044
v 0.413966 0.100000 0.361495
v 0.269008 0.100000 0.485006
v 0.093152 0.100000 0.550000
v -0.093153 0.100000 0.550000
v -0.269008 0.100000 0.485006
v -0.413966 0.100000 0.361495
v -0.509744 0.100000 0.193044
v -0.543266 0.100000 -0.000000
v -0.509744 0.100000 -0.193045
v -0.413966 0.100000 -0.361495
v -0.269008 0.100000 -0.485007
v -0.093152 0.100000 -0.550000
v 0.093152 0.100000 -0.550000
v 0.269008 0.100000 -0.485007
v 0.413966 0.100000 -0.361496
v 0.509744 0.100000 -0.193045
vt 0.230123 0.372734
vt 0.230123 0.375000
vt 0.232859 0.375000
vt 0.232859 0.372734
vt 0.222247 0.372734
vt 0.222247 0.375000
vt 0.210179 0.375000
vt 0.210179 0.372734
vt 0.195376 0.375000
vt 0.195376 0.372734
vt 0.179624 0.375000
vt 0.179624 0.372734
vt 0.164821 0.375000
vt 0.164821 0.372734
vt 0.152753 0.375000
vt 0.152753 0.372734
vt 0.144877 0.375000
vt 0.144877 0.372734
vt 0.142141 0.375000
vt 0.142141 0.372734
vt 0.144877 0.375000
vt 0.144877 0.372734
vt 0.152753 0.375000
vt 0.152753 0.372734
vt 0.164821 0.375000
vt 0.164821 0.372734
vt 0.179624 0.375000
vt 0.179624 0.372734
vt 0.195376 0.375000
vt 0.195376 0.372734
vt 0.210179 0.375000
vt 0.210179 0.372734
vt 0.222247 0.375000
vt 0.222247 0.372734
vt 0.230123 0.375000
vt 0.230123 0.372734
vt 0.230557 0.377266
vt 0.227956 0.377266
vt 0.220472 0.377266
vt 0.209015 0.377266
vt 0.194971 0.377266
vt 0.180029 0.377266
vt 0.165985 0.377266
vt 0.154528 0.377266
vt 0.147044 0.377266
vt 0.144443 0.377266
vt 0.147044 0.377266
vt 0.154528 0.377266
vt 0.165985 0.377266
vt 0.180029 0.377266
vt 0.194971 0.377266
vt 0.209015 0.377266
vt 0.220472 0.377266
vt 0.227956 0.377266
vt 0.187500 0.372734
vt 0.221349 0.408516
vt 0.219289 0.408516
vt 0.227956 0.408516
vt 0.230557 0.408516
vt 0.213375 0.408516
vt 0.220472 0.408516
vt 0.204359 0.408516
vt 0.209015 0.408516
vt 0.193348 0.408516
vt 0.194971 0.408516
vt 0.181652 0.408516
vt 0.180029 0.408516
vt 0.170641 0.408516
vt 0.165985 0.408516
vt 0.161625 0.408516
vt 0.154528 0.408516
vt 0.155711 0.408516
vt 0.147044 0.408516
vt 0.153651 0.408516
vt 0.144443 0.408516
vt 0.155711 0.408516
vt 0.147044 0.408516
vt 0.161625 0.408516
vt 0.154528 0.408516
vt 0.170641 0.408516
vt 0.165985 0.408516
vt 0.181652 0.408516
vt 0.180029 0.408516
vt 0.193348 0.408516
vt 0.194971 0.408516
vt 0.204359 0.408516
vt 0.209015 0.408516
vt 0.213375 0.408516
vt 0.220472 0.408516
vt 0.219289 0.408516
vt 0.227956 0.408516
vt 0.212142 0.455391
vt 0.210621 0.455391
vt 0.219289 0.455391
vt 0.221349 0.455391
vt 0.206277 0.455391
vt 0.213375 0.455391
vt 0.199702 0.455391
vt 0.204359 0.455391
vt 0.191725 0.455391
vt 0.193348 0.455391
vt 0.183275 0.455391
vt 0.181652 0.455391
vt 0.175298 0.455391
vt 0.170641 0.455391
vt 0.168723 0.455391
vt 0.161625 0.455391
vt 0.164379 0.455391
vt 0.155711 0.455391
vt 0.162858 0.455391
vt 0.153651 0.455391
vt 0.164379 0.455391
vt 0.155711 0.455391
vt 0.168723 0.455391
vt 0.161625 0.455391
vt 0.175298 0.455391
vt 0.170641 0.455391
vt 0.183275 0.455391
vt 0.181652 0.455391
vt 0.191725 0.455391
vt 0.193348 0.455391
vt 0.199702 0.455391
vt 0.204359 0.455391
vt 0.206277 0.455391
vt 0.213375 0.455391
vt 0.210621 0.455391
vt 0.219289 0.455391
vt 0.187500 0.408516
vt 0.210621 0.408516
vt 0.212142 0.408516
vt 0.206277 0.408516
vt 0.199702 0.408516
vt 0.191725 0.408516
vt 0.183275 0.408516
vt 0.175298 0.408516
vt 0.168723 0.408516
vt 0.164379 0.408516
vt 0.162858 0.408516
vt 0.164379 0.408516
vt 0.168723 0.408516
vt 0.175298 0.408516
vt 0.183275 0.408516
vt 0.191725 0.408516
vt 0.199702 0.408516
vt 0.206277 0.408516
vt 0.210621 0.408516
vn 0.9413 0.0000 -0.3377
vn 0.8738 0.3719 -0.3135
vn 0.9283 0.3719 -0.0000
vn 1.0000 0.0000 -0.0000
vn 0.7706 0.0000 0.6374
vn 0.7153 0.3718 0.5917
vn 0.4692 0.3717 0.8011
vn 0.5054 0.0000 0.8629
vn 0.1635 0.3717 0.9139
vn 0.1761 0.0000 0.9844
vn -0.1635 0.3717 0.9139
vn -0.1761 0.0000 0.9844
vn -0.4692 0.3717 0.8011
vn -0.5054 0.0000 0.8629
vn -0.7153 0.3718 0.5917
vn -0.7706 0.0000 0.6374
vn -0.8738 0.3719 0.3135
vn -0.9413 -0.0000 0.3377
vn -0.9283 0.3719 -0.0000
vn -1.0000 -0.0000 -0.0000
vn -0.8738 0.3719 -0.3135
vn -0.9413 0.0000 -0.3377
vn -0.7153 0.3718 -0.5917
vn -0.7706 0.0000 -0.6374
vn -0.4692 0.3717 -0.8011
vn -0.5054 0.0000 -0.8629
vn -0.1635 0.3717 -0.9139
vn -0.1761 0.0000 -0.9844
vn 0.1635 0.3717 -0.9139
vn 0.1761 0.0000 -0.9844
vn 0.4692 0.3717 -0.8011
vn 0.5054 0.0000 -0.8629
vn 0.7153 0.3718 -0.5917
vn 0.7706 0.0000 -0.6374
vn 0.8738 0.3719 0.3135
vn 0.9413 0.0000 0.3377
vn 0.4136 0.9104 0.0000
vn 0.3894 0.9104 0.1397
vn 0.3190 0.9103 0.2638
vn 0.2094 0.9102 0.3574
vn 0.0730 0.9101 0.4079
vn -0.0730 0.9101 0.4079
vn -0.2094 0.9102 0.3574
vn -0.3190 0.9103 0.2638
vn -0.3894 0.9104 0.1397
vn -0.4137 0.9104 0.0000
vn -0.3894 0.9104 -0.1397
vn -0.3190 0.9103 -0.2638
vn -0.2094 0.9102 -0.3574
vn -0.0730 0.9101 -0.4079
vn 0.0730 0.9101 -0.4079
vn 0.2094 0.9102 -0.3574
vn 0.3190 0.9103 -0.2638
vn 0.3894 0.9104 -0.1397
vn 0.0000 -1.0000 -0.0000
vn 0.0000 1.0000 0.0000
usemtl tiny_treats_1
s 1
f 38/1/1 19/2/2 2/3/3 21/4/4
f 23/5/5 4/6/6 5/7/7 24/8/8
f 24/8/8 5/7/7 6/9/9 25/10/10
f 25/10/10 6/9/9 7/11/11 26/12/12
f 26/12/12 7/11/11 8/13/13 27/14/14
f 27/14/14 8/13/13 9/15/15 28/16/16
f 28/16/16 9/15/15 10/17/17 29/18/18
f 29/18/18 10/17/17 11/19/19 30/20/20
f 30/20/20 11/19/19 12/21/21 31/22/22
f 31/22/22 12/21/21 13/23/23 32/24/24
f 32/24/24 13/23/23 14/25/25 33/26/26
f 33/26/26 14/25/25 15/27/27 34/28/28
f 34/28/28 15/27/27 16/29/29 35/30/30
f 35/30/30 16/29/29 17/31/31 36/32/32
f 36/32/32 17/31/31 18/33/33 37/34/34
f 37/34/34 18/33/33 19/2/2 38/1/1
f 21/4/4 2/3/3 3/35/35 22/36/36
f 22/36/36 3/35/35 4/6/6 23/5/5
f 3/35/35 2/3/3 39/37/37 40/38/38
f 4/6/6 3/35/35 40/38/38 41/39/39
f 5/7/7 4/6/6 41/39/39 42/40/40
f 6/9/9 5/7/7 42/40/40 43/41/41
f 7/11/11 6/9/9 43/41/41 44/42/42
f 8/13/13 7/11/11 44/42/42 45/43/43
f 9/15/15 8/13/13 45/43/43 46/44/44
f 10/17/17 9/15/15 46/44/44 47/45/45
f 11/19/19 10/17/17 47/45/45 48/46/46
f 12/21/21 11/19/19 48/46/46 49/47/47
f 13/23/23 12/21/21 49/47/47 50/48/48
f 14/25/25 13/23/23 50/48/48 51/49/49
f 15/27/27 14/25/25 51/49/49 52/50/50
f 16/29/29 15/27/27 52/50/50 53/51/51
f 17/31/31 16/29/29 53/51/51 54/52/52
f 18/33/33 17/31/31 54/52/52 55/53/53
f 19/2/2 18/33/33 55/53/53 56/54/54
f 2/3/3 19/2/2 56/54/54 39/37/37
f 1/55/55 21/4/55 22/36/55
f 1/55/55 22/36/55 23/5/55
f 1/55/55 23/5/55 24/8/55
f 1/55/55 24/8/55 25/10/55
f 1/55/55 25/10/55 26/12/55
f 1/55/55 26/12/55 27/14/55
f 1/55/55 27/14/55 28/16/55
f 1/55/55 28/16/55 29/18/55
f 1/55/55 29/18/55 30/20/55
f 1/55/55 30/20/55 31/22/55
f 1/55/55 31/22/55 32/24/55
f 1/55/55 32/24/55 33/26/55
f 1/55/55 33/26/55 34/28/55
f 1/55/55 34/28/55 35/30/55
f 1/55/55 35/30/55 36/32/55
f 1/55/55 36/32/55 37/34/55
f 1/55/55 37/34/55 38/1/55
f 1/55/55 38/1/55 21/4/55
f 57/56/56 58/57/56 40/58/38 39/59/37
f 58/57/56 59/60/56 41/61/39 40/58/38
f 59/60/56 60/62/56 42/63/40 41/61/39
f 60/62/56 61/64/56 43/65/41 42/63/40
f 61/64/56 62/66/56 44/67/42 43/65/41
f 62/66/56 63/68/56 45/69/43 44/67/42
f 63/68/56 64/70/56 46/71/44 45/69/43
f 64/70/56 65/72/56 47/73/45 46/71/44
f 65/72/56 66/74/56 48/75/46 47/73/45
f 66/74/56 67/76/56 49/77/47 48/75/46
f 67/76/56 68/78/56 50/79/48 49/77/47
f 68/78/56 69/80/56 51/81/49 50/79/48
f 69/80/56 70/82/56 52/83/50 51/81/49
f 70/82/56 71/84/56 53/85/51 52/83/50
f 71/84/56 72/86/56 54/87/52 53/85/51
f 72/86/56 73/88/56 55/89/53 54/87/52
f 73/88/56 74/90/56 56/91/54 55/89/53
f 74/90/56 57/56/56 39/59/37 56/91/54
f 75/92/56 76/93/56 58/94/56 57/95/56
f 76/93/56 77/96/56 59/97/56 58/94/56
f 77/96/56 78/98/56 60/99/56 59/97/56
f 78/98/56 79/100/56 61/101/56 60/99/56
f 79/100/56 80/102/56 62/103/56 61/101/56
f 80/102/56 81/104/56 63/105/56 62/103/56
f 81/104/56 82/106/56 64/107/56 63/105/56
f 82/106/56 83/108/56 65/109/56 64/107/56
f 83/108/56 84/110/56 66/111/56 65/109/56
f 84/110/56 85/112/56 67/113/56 66/111/56
f 85/112/56 86/114/56 68/115/56 67/113/56
f 86/114/56 87/116/56 69/117/56 68/115/56
f 87/116/56 88/118/56 70/119/56 69/117/56
f 88/118/56 89/120/56 71/121/56 70/119/56
f 89/120/56 90/122/56 72/123/56 71/121/56
f 90/122/56 91/124/56 73/125/56 72/123/56
f 91/124/56 92/126/56 74/127/56 73/125/56
f 92/126/56 75/92/56 57/95/56 74/127/56
f 20/128/56 76/129/56 75/130/56
f 20/128/56 77/131/56 76/129/56
f 20/128/56 78/132/56 77/131/56
f 20/128/56 79/133/56 78/132/56
f 20/128/56 80/134/56 79/133/56
f 20/128/56 81/135/56 80/134/56
f 20/128/56 82/136/56 81/135/56
f 20/128/56 83/137/56 82/136/56
f 20/128/56 84/138/56 83/137/56
f 20/128/56 85/139/56 84/138/56
f 20/128/56 86/140/56 85/139/56
f 20/128/56 87/141/56 86/140/56
f 20/128/56 88/142/56 87/141/56
f 20/128/56 89/143/56 88/142/56
f 20/128/56 90/144/56 89/143/56
f 20/128/56 91/145/56 90/144/56
f 20/128/56 92/146/56 91/145/56
f 20/128/56 75/130/56 92/146/56
