# Blender v3.4.1 OBJ File: 'Tiny_treats_Playful_Bedroom_1.1_ASSETS_EXPORT.blend'
# www.blender.org
mtllib mat_large.mtl
o mat_large
v -0.000000 0.000000 -0.000000
v 1.500000 0.050000 -0.000000
v 1.409539 0.050000 0.520944
v 1.149067 0.050000 0.979055
v 0.750000 0.050000 1.319077
v 0.260472 0.050000 1.500000
v -0.260472 0.050000 1.500000
v -0.750000 0.050000 1.319077
v -1.149067 0.050000 0.979055
v -1.409539 0.050000 0.520944
v -1.500000 0.050000 -0.000001
v -1.409539 0.050000 -0.520945
v -1.149067 0.050000 -0.979056
v -0.750000 0.050000 -1.319078
v -0.260472 0.050000 -1.500000
v 0.260472 0.050000 -1.500000
v 0.750000 0.050000 -1.319078
v 1.149066 0.050000 -0.979056
v 1.409539 0.050000 -0.520945
v -0.000000 0.100000 -0.000000
v 1.500000 0.000000 -0.000000
v 1.409539 -0.000000 0.520944
v 1.149067 -0.000000 0.979055
v 0.750000 -0.000000 1.319077
v 0.260472 -0.000000 1.500000
v -0.260472 -0.000000 1.500000
v -0.750000 -0.000000 1.319077
v -1.149067 -0.000000 0.979055
v -1.409539 -0.000000 0.520944
v -1.500000 0.000000 -0.000001
v -1.409539 0.000000 -0.520945
v -1.149067 0.000000 -0.979056
v -0.750000 0.000000 -1.319078
v -0.260472 0.000000 -1.500000
v 0.260472 0.000000 -1.500000
v 0.750000 0.000000 -1.319078
v 1.149066 0.000000 -0.979056
v 1.409539 0.000000 -0.520945
v 1.423878 0.100000 -0.000000
v 1.337881 0.100000 0.495235
v 1.090387 0.100000 0.930521
v 0.711501 0.100000 1.253348
v 0.247056 0.100000 1.424999
v -0.247056 0.100000 1.424999
v -0.711502 0.100000 1.253348
v -1.090387 0.100000 0.930520
v -1.337881 0.100000 0.495235
v -1.423878 0.100000 -0.000001
v -1.337881 0.100000 -0.495236
v -1.090387 0.100000 -0.930521
v -0.711501 0.100000 -1.253348
v -0.247056 0.100000 -1.425000
v 0.247056 0.100000 -1.425000
v 0.711501 0.100000 -1.253348
v 1.090387 0.100000 -0.930521
v 1.337881 0.100000 -0.495236
v 1.119388 0.100000 -0.000000
v 1.051248 0.100000 0.392401
v 0.855668 0.100000 0.736382
v 0.557507 0.100000 0.990428
v 0.193392 0.100000 1.124999
v -0.193393 0.100000 1.125000
v -0.557507 0.100000 0.990428
v -0.855668 0.100000 0.736382
v -1.051248 0.100000 0.392401
v -1.119388 0.100000 -0.000000
v -1.051248 0.100000 -0.392401
v -0.855668 0.100000 -0.736382
v -0.557506 0.100000 -0.990429
v -0.193392 0.100000 -1.125000
v 0.193392 0.100000 -1.125000
v 0.557507 0.100000 -0.990429
v 0.855668 0.100000 -0.736382
v 1.051248 0.100000 -0.392402
v 0.814899 0.100000 -0.000000
v 0.764616 0.100000 0.289566
v 0.620949 0.100000 0.542243
v 0.403512 0.100000 0.727509
v 0.139729 0.100000 0.824999
v -0.139729 0.100000 0.824999
v -0.403512 0.100000 0.727509
v -0.620949 0.100000 0.542243
v -0.764616 0.100000 0.289566
v -0.814899 0.100000 -0.000000
v -0.764616 0.100000 -0.289567
v -0.620950 0.100000 -0.542243
v -0.403511 0.100000 -0.727510
v -0.139728 0.100000 -0.825000
v 0.139729 0.100000 -0.825000
v 0.403512 0.100000 -0.727510
v 0.620949 0.100000 -0.542243
v 0.764616 0.100000 -0.289567
vt 0.230123 0.372734
vt 0.230123 0.375000
vt 0.232859 0.375000
vt 0.232859 0.372734
vt 0.222247 0.372734
vt 0.222247 0.375000
vt 0.210179 0.375000
vt 0.210179 0.372734
vt 0.195376 0.375000
vt 0.195376 0.372734
vt 0.179624 0.375000
vt 0.179624 0.372734
vt 0.164821 0.375000
vt 0.164821 0.372734
vt 0.152753 0.375000
vt 0.152753 0.372734
vt 0.144877 0.375000
vt 0.144877 0.372734
vt 0.142141 0.375000
vt 0.142141 0.372734
vt 0.144877 0.375000
vt 0.144877 0.372734
vt 0.152753 0.375000
vt 0.152753 0.372734
vt 0.164821 0.375000
vt 0.164821 0.372734
vt 0.179624 0.375000
vt 0.179624 0.372734
vt 0.195376 0.375000
vt 0.195376 0.372734
vt 0.210179 0.375000
vt 0.210179 0.372734
vt 0.222247 0.375000
vt 0.222247 0.372734
vt 0.230123 0.375000
vt 0.230123 0.372734
vt 0.230557 0.377266
vt 0.227956 0.377266
vt 0.220472 0.377266
vt 0.209015 0.377266
vt 0.194971 0.377266
vt 0.180029 0.377266
vt 0.165985 0.377266
vt 0.154528 0.377266
vt 0.147044 0.377266
vt 0.144443 0.377266
vt 0.147044 0.377266
vt 0.154528 0.377266
vt 0.165985 0.377266
vt 0.180029 0.377266
vt 0.194971 0.377266
vt 0.209015 0.377266
vt 0.220472 0.377266
vt 0.227956 0.377266
vt 0.187500 0.372734
vt 0.221349 0.408516
vt 0.219289 0.408516
vt 0.227956 0.408516
vt 0.230557 0.408516
vt 0.213375 0.408516
vt 0.220472 0.408516
vt 0.204359 0.408516
vt 0.209015 0.408516
vt 0.193348 0.408516
vt 0.194971 0.408516
vt 0.181652 0.408516
vt 0.180029 0.408516
vt 0.170641 0.408516
vt 0.165985 0.408516
vt 0.161625 0.408516
vt 0.154528 0.408516
vt 0.155711 0.408516
vt 0.147044 0.408516
vt 0.153651 0.408516
vt 0.144443 0.408516
vt 0.155711 0.408516
vt 0.147044 0.408516
vt 0.161625 0.408516
vt 0.154528 0.408516
vt 0.170641 0.408516
vt 0.165985 0.408516
vt 0.181652 0.408516
vt 0.180029 0.408516
vt 0.193348 0.408516
vt 0.194971 0.408516
vt 0.204359 0.408516
vt 0.209015 0.408516
vt 0.213375 0.408516
vt 0.220472 0.408516
vt 0.219289 0.408516
vt 0.227956 0.408516
vt 0.212142 0.455391
vt 0.210621 0.455391
vt 0.219289 0.455391
vt 0.221349 0.455391
vt 0.206277 0.455391
vt 0.213375 0.455391
vt 0.199702 0.455391
vt 0.204359 0.455391
vt 0.191725 0.455391
vt 0.193348 0.455391
vt 0.183275 0.455391
vt 0.181652 0.455391
vt 0.175298 0.455391
vt 0.170641 0.455391
vt 0.168723 0.455391
vt 0.161625 0.455391
vt 0.164379 0.455391
vt 0.155711 0.455391
vt 0.162858 0.455391
vt 0.153651 0.455391
vt 0.164379 0.455391
vt 0.155711 0.455391
vt 0.168723 0.455391
vt 0.161625 0.455391
vt 0.175298 0.455391
vt 0.170641 0.455391
vt 0.183275 0.455391
vt 0.181652 0.455391
vt 0.191725 0.455391
vt 0.193348 0.455391
vt 0.199702 0.455391
vt 0.204359 0.455391
vt 0.206277 0.455391
vt 0.213375 0.455391
vt 0.210621 0.455391
vt 0.219289 0.455391
vt 0.187500 0.408516
vt 0.210621 0.408516
vt 0.212142 0.408516
vt 0.206277 0.408516
vt 0.199702 0.408516
vt 0.191725 0.408516
vt 0.183275 0.408516
vt 0.175298 0.408516
vt 0.168723 0.408516
vt 0.164379 0.408516
vt 0.162858 0.408516
vt 0.164379 0.408516
vt 0.168723 0.408516
vt 0.175298 0.408516
vt 0.183275 0.408516
vt 0.191725 0.408516
vt 0.199702 0.408516
vt 0.206277 0.408516
vt 0.210621 0.408516
vn 0.9413 0.0000 -0.3377
vn 0.8385 0.4544 -0.3008
vn 0.8908 0.4545 -0.0000
vn 1.0000 0.0000 -0.0000
vn 0.7706 0.0000 0.6374
vn 0.6865 0.4543 0.5678
vn 0.4503 0.4542 0.7688
vn 0.5054 0.0000 0.8629
vn 0.1569 0.4541 0.8770
vn 0.1761 0.0000 0.9844
vn -0.1569 0.4541 0.8770
vn -0.1761 0.0000 0.9844
vn -0.4503 0.4542 0.7688
vn -0.5054 0.0000 0.8629
vn -0.6865 0.4543 0.5678
vn -0.7706 0.0000 0.6374
vn -0.8385 0.4544 0.3008
vn -0.9413 -0.0000 0.3377
vn -0.8908 0.4545 -0.0000
vn -1.0000 -0.0000 -0.0000
vn -0.8385 0.4544 -0.3008
vn -0.9413 0.0000 -0.3377
vn -0.6865 0.4543 -0.5678
vn -0.7706 0.0000 -0.6374
vn -0.4503 0.4542 -0.7688
vn -0.5054 0.0000 -0.8629
vn -0.1569 0.4541 -0.8770
vn -0.1761 0.0000 -0.9844
vn 0.1569 0.4541 -0.8770
vn 0.1761 0.0000 -0.9844
vn 0.4503 0.4542 -0.7688
vn 0.5054 0.0000 -0.8629
vn 0.6865 0.4543 -0.5678
vn 0.7706 0.0000 -0.6374
vn 0.8385 0.4544 0.3008
vn 0.9413 0.0000 0.3377
vn 0.3148 0.9492 0.0000
vn 0.2963 0.9491 0.1063
vn 0.2427 0.9491 0.2008
vn 0.1593 0.9490 0.2720
vn 0.0555 0.9490 0.3104
vn -0.0555 0.9490 0.3104
vn -0.1593 0.9490 0.2720
vn -0.2427 0.9491 0.2008
vn -0.2963 0.9491 0.1063
vn -0.3148 0.9492 0.0000
vn -0.2963 0.9491 -0.1063
vn -0.2427 0.9491 -0.2008
vn -0.1593 0.9490 -0.2720
vn -0.0555 0.9490 -0.3104
vn 0.0555 0.9490 -0.3104
vn 0.1593 0.9490 -0.2720
vn 0.2427 0.9491 -0.2008
vn 0.2963 0.9491 -0.1063
vn -0.0000 -1.0000 -0.0000
vn 0.0000 1.0000 0.0000
usemtl tiny_treats_1
s 1
f 38/1/1 19/2/2 2/3/3 21/4/4
f 23/5/5 4/6/6 5/7/7 24/8/8
f 24/8/8 5/7/7 6/9/9 25/10/10
f 25/10/10 6/9/9 7/11/11 26/12/12
f 26/12/12 7/11/11 8/13/13 27/14/14
f 27/14/14 8/13/13 9/15/15 28/16/16
f 28/16/16 9/15/15 10/17/17 29/18/18
f 29/18/18 10/17/17 11/19/19 30/20/20
f 30/20/20 11/19/19 12/21/21 31/22/22
f 31/22/22 12/21/21 13/23/23 32/24/24
f 32/24/24 13/23/23 14/25/25 33/26/26
f 33/26/26 14/25/25 15/27/27 34/28/28
f 34/28/28 15/27/27 16/29/29 35/30/30
f 35/30/30 16/29/29 17/31/31 36/32/32
f 36/32/32 17/31/31 18/33/33 37/34/34
f 37/34/34 18/33/33 19/2/2 38/1/1
f 21/4/4 2/3/3 3/35/35 22/36/36
f 22/36/36 3/35/35 4/6/6 23/5/5
f 3/35/35 2/3/3 39/37/37 40/38/38
f 4/6/6 3/35/35 40/38/38 41/39/39
f 5/7/7 4/6/6 41/39/39 42/40/40
f 6/9/9 5/7/7 42/40/40 43/41/41
f 7/11/11 6/9/9 43/41/41 44/42/42
f 8/13/13 7/11/11 44/42/42 45/43/43
f 9/15/15 8/13/13 45/43/43 46/44/44
f 10/17/17 9/15/15 46/44/44 47/45/45
f 11/19/19 10/17/17 47/45/45 48/46/46
f 12/21/21 11/19/19 48/46/46 49/47/47
f 13/23/23 12/21/21 49/47/47 50/48/48
f 14/25/25 13/23/23 50/48/48 51/49/49
f 15/27/27 14/25/25 51/49/49 52/50/50
f 16/29/29 15/27/27 52/50/50 53/51/51
f 17/31/31 16/29/29 53/51/51 54/52/52
f 18/33/33 17/31/31 54/52/52 55/53/53
f 19/2/2 18/33/33 55/53/53 56/54/54
f 2/3/3 19/2/2 56/54/54 39/37/37
f 1/55/55 21/4/55 22/36/55
f 1/55/55 22/36/55 23/5/55
f 1/55/55 23/5/55 24/8/55
f 1/55/55 24/8/55 25/10/55
f 1/55/55 25/10/55 26/12/55
f 1/55/55 26/12/55 27/14/55
f 1/55/55 27/14/55 28/16/55
f 1/55/55 28/16/55 29/18/55
f 1/55/55 29/18/55 30/20/55
f 1/55/55 30/20/55 31/22/55
f 1/55/55 31/22/55 32/24/55
f 1/55/55 32/24/55 33/26/55
f 1/55/55 33/26/55 34/28/55
f 1/55/55 34/28/55 35/30/55
f 1/55/55 35/30/55 36/32/55
f 1/55/55 36/32/55 37/34/55
f 1/55/55 37/34/55 38/1/55
f 1/55/55 38/1/55 21/4/55
f 57/56/56 58/57/56 40/58/38 39/59/37
f 58/57/56 59/60/56 41/61/39 40/58/38
f 59/60/56 60/62/56 42/63/40 41/61/39
f 60/62/56 61/64/56 43/65/41 42/63/40
f 61/64/56 62/66/56 44/67/42 43/65/41
f 62/66/56 63/68/56 45/69/43 44/67/42
f 63/68/56 64/70/56 46/71/44 45/69/43
f 64/70/56 65/72/56 47/73/45 46/71/44
f 65/72/56 66/74/56 48/75/46 47/73/45
f 66/74/56 67/76/56 49/77/47 48/75/46
f 67/76/56 68/78/56 50/79/48 49/77/47
f 68/78/56 69/80/56 51/81/49 50/79/48
f 69/80/56 70/82/56 52/83/50 51/81/49
f 70/82/56 71/84/56 53/85/51 52/83/50
f 71/84/56 72/86/56 54/87/52 53/85/51
f 72/86/56 73/88/56 55/89/53 54/87/52
f 73/88/56 74/90/56 56/91/54 55/89/53
f 74/90/56 57/56/56 39/59/37 56/91/54
f 75/92/56 76/93/56 58/94/56 57/95/56
f 76/93/56 77/96/56 59/97/56 58/94/56
f 77/96/56 78/98/56 60/99/56 59/97/56
f 78/98/56 79/100/56 61/101/56 60/99/56
f 79/100/56 80/102/56 62/103/56 61/101/56
f 80/102/56 81/104/56 63/105/56 62/103/56
f 81/104/56 82/106/56 64/107/56 63/105/56
f 82/106/56 83/108/56 65/109/56 64/107/56
f 83/108/56 84/110/56 66/111/56 65/109/56
f 84/110/56 85/112/56 67/113/56 66/111/56
f 85/112/56 86/114/56 68/115/56 67/113/56
f 86/114/56 87/116/56 69/117/56 68/115/56
f 87/116/56 88/118/56 70/119/56 69/117/56
f 88/118/56 89/120/56 71/121/56 70/119/56
f 89/120/56 90/122/56 72/123/56 71/121/56
f 90/122/56 91/124/56 73/125/56 72/123/56
f 91/124/56 92/126/56 74/127/56 73/125/56
f 92/126/56 75/92/56 57/95/56 74/127/56
f 20/128/56 76/129/56 75/130/56
f 20/128/56 77/131/56 76/129/56
f 20/128/56 78/132/56 77/131/56
f 20/128/56 79/133/56 78/132/56
f 20/128/56 80/134/56 79/133/56
f 20/128/56 81/135/56 80/134/56
f 20/128/56 82/136/56 81/135/56
f 20/128/56 83/137/56 82/136/56
f 20/128/56 84/138/56 83/137/56
f 20/128/56 85/139/56 84/138/56
f 20/128/56 86/140/56 85/139/56
f 20/128/56 87/141/56 86/140/56
f 20/128/56 88/142/56 87/141/56
f 20/128/56 89/143/56 88/142/56
f 20/128/56 90/144/56 89/143/56
f 20/128/56 91/145/56 90/144/56
f 20/128/56 92/146/56 91/145/56
f 20/128/56 75/130/56 92/146/56
