# Blender v3.4.1 OBJ File: 'Tiny_treats_Playful_Bedroom_1.1_ASSETS_EXPORT.blend'
# www.blender.org
mtllib play_block_C.mtl
o play_block_C
v -0.128000 -0.000000 0.128000
v -0.128000 0.072000 0.200000
v -0.200000 0.072000 0.128000
v -0.128000 0.327999 0.200000
v -0.128000 0.399999 0.128000
v -0.200000 0.327999 0.128000
v -0.128000 0.000000 -0.128000
v -0.200000 0.072000 -0.128000
v -0.128000 0.072000 -0.199999
v -0.128000 0.399999 -0.128000
v -0.128000 0.327999 -0.199999
v -0.200000 0.327999 -0.128000
v 0.128000 -0.000000 0.128000
v 0.200000 0.072000 0.128000
v 0.128000 0.072000 0.200000
v 0.128000 0.399999 0.128000
v 0.128000 0.327999 0.200000
v 0.200000 0.327999 0.128000
v 0.128000 0.000000 -0.128000
v 0.128000 0.072000 -0.199999
v 0.200000 0.072000 -0.128000
v 0.128000 0.399999 -0.128000
v 0.200000 0.327999 -0.128000
v 0.128000 0.327999 -0.199999
v -0.160000 0.000000 -0.160000
v -0.160000 -0.000000 0.160000
v -0.200000 0.040000 0.160000
v -0.200000 0.040000 -0.160000
v -0.160000 0.040000 0.200000
v -0.160000 0.359999 0.200000
v -0.200000 0.359999 0.160000
v -0.160000 0.399999 0.160000
v -0.160000 0.399999 -0.160000
v -0.200000 0.359999 -0.160000
v -0.160000 0.359999 -0.199999
v -0.160000 0.040000 -0.200000
v 0.160000 0.000000 -0.160000
v 0.160000 0.040000 -0.200000
v 0.160000 0.399999 -0.160000
v 0.160000 0.359999 -0.199999
v 0.200000 0.359999 -0.160000
v 0.200000 0.040000 -0.160000
v 0.160000 -0.000000 0.160000
v 0.200000 0.040000 0.160000
v 0.160000 0.399999 0.160000
v 0.200000 0.359999 0.160000
v 0.160000 0.359999 0.200000
v 0.160000 0.040000 0.200000
v -0.116000 0.040000 -0.116000
v -0.116000 0.040000 0.116000
v -0.160000 0.084000 0.116000
v -0.160000 0.084000 -0.116000
v -0.116000 0.084000 0.160000
v -0.116000 0.315999 0.160000
v -0.160000 0.315999 0.116000
v -0.116000 0.359999 0.116000
v -0.116000 0.359999 -0.116000
v -0.160000 0.315999 -0.116000
v -0.116000 0.315999 -0.160000
v -0.116000 0.084000 -0.160000
v 0.116000 0.040000 -0.116000
v 0.116000 0.084000 -0.160000
v 0.116000 0.359999 -0.116000
v 0.116000 0.315999 -0.160000
v 0.160000 0.315999 -0.116000
v 0.160000 0.084000 -0.116000
v 0.116000 0.040000 0.116000
v 0.160000 0.084000 0.116000
v 0.116000 0.359999 0.116000
v 0.160000 0.315999 0.116000
v 0.116000 0.315999 0.160000
v 0.116000 0.084000 0.160000
v -0.002247 0.199999 0.191810
v 0.042262 0.185538 0.191810
v 0.048867 0.183931 0.159810
v 0.086771 0.228923 0.191810
v 0.098322 0.232137 0.159810
v 0.025261 0.237861 0.191810
v 0.029977 0.242068 0.159810
v -0.002247 0.293599 0.191810
v -0.000588 0.303999 0.159810
v -0.029756 0.237861 0.191810
v -0.031153 0.242068 0.159810
v -0.091266 0.228923 0.191810
v -0.099497 0.232137 0.159810
v -0.046757 0.185538 0.191810
v -0.050043 0.183931 0.159810
v -0.057264 0.124276 0.191810
v -0.061717 0.115862 0.159810
v -0.002247 0.153200 0.191810
v -0.000588 0.148000 0.159810
v 0.052769 0.124276 0.191810
v 0.060542 0.115862 0.159810
v 0.191809 0.200000 0.002247
v 0.191809 0.185538 -0.042262
v 0.159809 0.183931 -0.048867
v 0.191809 0.228923 -0.086771
v 0.159809 0.232137 -0.098322
v 0.191809 0.237861 -0.025261
v 0.159809 0.242068 -0.029977
v 0.191809 0.293599 0.002247
v 0.159809 0.303999 0.000588
v 0.191809 0.237861 0.029756
v 0.159809 0.242068 0.031153
v 0.191809 0.228923 0.091266
v 0.159809 0.232137 0.099497
v 0.191809 0.185538 0.046757
v 0.159809 0.183931 0.050043
v 0.191809 0.124276 0.057264
v 0.159809 0.115862 0.061717
v 0.191809 0.153200 0.002247
v 0.159809 0.148000 0.000588
v 0.191809 0.124276 -0.052769
v 0.159809 0.115862 -0.060542
v 0.002247 0.200000 -0.191809
v -0.042262 0.185538 -0.191809
v -0.048867 0.183931 -0.159809
v -0.086771 0.228923 -0.191809
v -0.098322 0.232137 -0.159809
v -0.025261 0.237861 -0.191809
v -0.029977 0.242068 -0.159809
v 0.002247 0.293599 -0.191809
v 0.000588 0.303999 -0.159809
v 0.029756 0.237861 -0.191809
v 0.031153 0.242068 -0.159809
v 0.091266 0.228923 -0.191809
v 0.099497 0.232137 -0.159809
v 0.046757 0.185538 -0.191809
v 0.050043 0.183931 -0.159809
v 0.057264 0.124276 -0.191809
v 0.061717 0.115862 -0.159809
v 0.002247 0.153200 -0.191809
v 0.000588 0.148000 -0.159809
v -0.052769 0.124276 -0.191809
v -0.060542 0.115862 -0.159809
v -0.191809 0.200000 -0.002247
v -0.191809 0.185538 0.042262
v -0.159809 0.183931 0.048867
v -0.191809 0.228923 0.086771
v -0.159809 0.232137 0.098322
v -0.191809 0.237861 0.025261
v -0.159809 0.242068 0.029977
v -0.191809 0.293599 -0.002247
v -0.159809 0.303999 -0.000588
v -0.191809 0.237861 -0.029756
v -0.159809 0.242068 -0.031153
v -0.191809 0.228923 -0.091266
v -0.159809 0.232137 -0.099497
v -0.191809 0.185538 -0.046757
v -0.159809 0.183931 -0.050043
v -0.191809 0.124276 -0.057264
v -0.159809 0.115862 -0.061717
v -0.191809 0.153200 -0.002247
v -0.159809 0.148000 -0.000588
v -0.191809 0.124276 0.052769
v -0.159809 0.115862 0.060542
v -0.002247 0.008190 0.000000
v 0.042262 0.008190 -0.014462
v 0.048867 0.040190 -0.016069
v 0.086771 0.008190 0.028924
v 0.098322 0.040190 0.032138
v 0.025261 0.008190 0.037862
v 0.029977 0.040190 0.042069
v -0.002247 0.008190 0.093600
v -0.000588 0.040190 0.104000
v -0.029756 0.008190 0.037862
v -0.031153 0.040190 0.042069
v -0.091266 0.008190 0.028924
v -0.099497 0.040190 0.032138
v -0.046757 0.008190 -0.014462
v -0.050043 0.040190 -0.016069
v -0.057264 0.008190 -0.075724
v -0.061717 0.040190 -0.084138
v -0.002247 0.008190 -0.046800
v -0.000588 0.040190 -0.052000
v 0.052769 0.008190 -0.075724
v 0.060542 0.040190 -0.084138
v -0.002247 0.391809 0.000000
v 0.042262 0.391809 0.014462
v 0.048867 0.359809 0.016069
v 0.086771 0.391809 -0.028924
v 0.098322 0.359809 -0.032138
v 0.025261 0.391809 -0.037862
v 0.029977 0.359809 -0.042069
v -0.002247 0.391809 -0.093600
v -0.000588 0.359809 -0.104000
v -0.029756 0.391809 -0.037862
v -0.031153 0.359809 -0.042069
v -0.091266 0.391809 -0.028924
v -0.099497 0.359809 -0.032138
v -0.046757 0.391809 0.014462
v -0.050043 0.359809 0.016069
v -0.057264 0.391809 0.075724
v -0.061717 0.359809 0.084138
v -0.002247 0.391809 0.046800
v -0.000588 0.359809 0.052000
v 0.052769 0.391809 0.075724
v 0.060542 0.359809 0.084138
vt 0.442511 0.654537
vt 0.437233 0.656250
vt 0.443757 0.647280
vt 0.447789 0.659677
vt 0.440495 0.660735
vt 0.437233 0.667338
vt 0.433971 0.660735
vt 0.426678 0.659677
vt 0.431956 0.654537
vt 0.430710 0.647280
vt 0.437233 0.650706
vt 0.443294 0.654347
vt 0.444678 0.646283
vt 0.449158 0.660057
vt 0.447789 0.682672
vt 0.449158 0.683052
vt 0.441054 0.684229
vt 0.440495 0.683730
vt 0.437430 0.691565
vt 0.437233 0.690333
vt 0.433806 0.684229
vt 0.433971 0.683730
vt 0.425702 0.683052
vt 0.426678 0.682672
vt 0.425702 0.660057
vt 0.431566 0.654347
vt 0.430182 0.646283
vt 0.430710 0.624285
vt 0.430182 0.623288
vt 0.437430 0.627095
vt 0.437233 0.627711
vt 0.444678 0.623288
vt 0.443757 0.624285
vt 0.460243 0.654537
vt 0.460243 0.656250
vt 0.460243 0.647280
vt 0.460243 0.659677
vt 0.460243 0.660735
vt 0.460243 0.667338
vt 0.460243 0.660735
vt 0.460243 0.659677
vt 0.460243 0.654537
vt 0.460243 0.647280
vt 0.460243 0.650706
vt 0.456449 0.654347
vt 0.456449 0.646283
vt 0.456449 0.660057
vt 0.460243 0.682672
vt 0.456449 0.683052
vt 0.456449 0.684229
vt 0.460243 0.683730
vt 0.456449 0.691565
vt 0.460243 0.690333
vt 0.456449 0.684229
vt 0.460243 0.683730
vt 0.456449 0.683052
vt 0.460243 0.682672
vt 0.456449 0.660057
vt 0.456449 0.654347
vt 0.456449 0.646283
vt 0.460243 0.624285
vt 0.456449 0.623288
vt 0.456449 0.627095
vt 0.460243 0.627711
vt 0.456449 0.623288
vt 0.460243 0.624285
vt 0.432489 0.654537
vt 0.437766 0.656250
vt 0.431243 0.647280
vt 0.427211 0.659677
vt 0.434504 0.660735
vt 0.437766 0.667338
vt 0.441028 0.660735
vt 0.448321 0.659677
vt 0.443044 0.654537
vt 0.444290 0.647280
vt 0.437766 0.650706
vt 0.431705 0.654347
vt 0.430321 0.646283
vt 0.425841 0.660057
vt 0.427211 0.682672
vt 0.425841 0.683052
vt 0.433945 0.684229
vt 0.434504 0.683730
vt 0.437569 0.691565
vt 0.437766 0.690333
vt 0.441194 0.684229
vt 0.441028 0.683730
vt 0.449298 0.683052
vt 0.448321 0.682672
vt 0.449298 0.660057
vt 0.443434 0.654347
vt 0.444818 0.646283
vt 0.444290 0.624285
vt 0.444818 0.623288
vt 0.437569 0.627095
vt 0.437766 0.627711
vt 0.430321 0.623288
vt 0.431243 0.624285
vt 0.414756 0.654537
vt 0.414756 0.656250
vt 0.414756 0.647280
vt 0.414756 0.659677
vt 0.414756 0.660735
vt 0.414756 0.667338
vt 0.414756 0.660735
vt 0.414756 0.659677
vt 0.414756 0.654537
vt 0.414756 0.647280
vt 0.414756 0.650706
vt 0.418550 0.654347
vt 0.418550 0.646283
vt 0.418550 0.660057
vt 0.414756 0.682672
vt 0.418550 0.683052
vt 0.418550 0.684229
vt 0.414756 0.683730
vt 0.418550 0.691565
vt 0.414756 0.690333
vt 0.418550 0.684229
vt 0.414756 0.683730
vt 0.418550 0.683052
vt 0.414756 0.682672
vt 0.418550 0.660057
vt 0.418550 0.654347
vt 0.418550 0.646283
vt 0.414756 0.624285
vt 0.418550 0.623288
vt 0.418550 0.627095
vt 0.414756 0.627711
vt 0.418550 0.623288
vt 0.414756 0.624285
vt 0.442511 0.610534
vt 0.437233 0.610534
vt 0.443757 0.610534
vt 0.447789 0.610534
vt 0.440495 0.610534
vt 0.437233 0.610534
vt 0.433971 0.610534
vt 0.426678 0.610534
vt 0.431956 0.610534
vt 0.430710 0.610534
vt 0.437233 0.610534
vt 0.443294 0.637319
vt 0.442511 0.633529
vt 0.443757 0.633529
vt 0.444678 0.637319
vt 0.449158 0.637319
vt 0.447789 0.633529
vt 0.441054 0.637319
vt 0.440495 0.633529
vt 0.437430 0.637319
vt 0.437233 0.633529
vt 0.433806 0.637319
vt 0.433971 0.633529
vt 0.425702 0.637319
vt 0.426678 0.633529
vt 0.431566 0.637319
vt 0.431956 0.633529
vt 0.430182 0.637319
vt 0.430710 0.633529
vt 0.437430 0.637319
vt 0.437233 0.633529
vt 0.442511 0.701967
vt 0.437233 0.701967
vt 0.443757 0.701967
vt 0.447789 0.701967
vt 0.440495 0.701967
vt 0.437233 0.701967
vt 0.433971 0.701967
vt 0.426678 0.701967
vt 0.431956 0.701967
vt 0.430710 0.701967
vt 0.437233 0.701967
vt 0.443294 0.675181
vt 0.442511 0.678972
vt 0.443757 0.678972
vt 0.444678 0.675181
vt 0.449158 0.675181
vt 0.447789 0.678972
vt 0.441054 0.675181
vt 0.440495 0.678972
vt 0.437430 0.675181
vt 0.437233 0.678972
vt 0.433806 0.675181
vt 0.433971 0.678972
vt 0.425702 0.675181
vt 0.426678 0.678972
vt 0.431566 0.675181
vt 0.431956 0.678972
vt 0.430182 0.675181
vt 0.430710 0.678972
vt 0.437430 0.675181
vt 0.437233 0.678972
vt 0.422920 0.670815
vt 0.422920 0.641686
vt 0.422920 0.641686
vt 0.422920 0.670815
vt 0.452078 0.618691
vt 0.422920 0.618691
vt 0.422920 0.618691
vt 0.452078 0.618691
vt 0.452078 0.703520
vt 0.452078 0.703520
vt 0.452078 0.698665
vt 0.452078 0.698665
vt 0.413201 0.618691
vt 0.413201 0.618691
vt 0.418061 0.618691
vt 0.418061 0.618691
vt 0.452078 0.693810
vt 0.422920 0.693810
vt 0.422920 0.693810
vt 0.452078 0.693810
vt 0.418061 0.608982
vt 0.418061 0.613836
vt 0.413201 0.613836
vt 0.418061 0.698665
vt 0.418061 0.703520
vt 0.413201 0.698665
vt 0.418061 0.608982
vt 0.413201 0.613836
vt 0.418061 0.613836
vt 0.418061 0.703520
vt 0.418061 0.698665
vt 0.413201 0.698665
vt 0.456937 0.608982
vt 0.461797 0.613836
vt 0.456937 0.613836
vt 0.456937 0.703520
vt 0.456937 0.698665
vt 0.461797 0.698665
vt 0.456937 0.608982
vt 0.456937 0.613836
vt 0.461797 0.613836
vt 0.456937 0.703520
vt 0.461797 0.698665
vt 0.456937 0.698665
vt 0.418061 0.636831
vt 0.418061 0.675670
vt 0.413201 0.675670
vt 0.413201 0.636831
vt 0.418061 0.675670
vt 0.418061 0.636831
vt 0.413201 0.636831
vt 0.413201 0.675670
vt 0.461797 0.675670
vt 0.461797 0.636831
vt 0.456937 0.636831
vt 0.456937 0.675670
vt 0.456937 0.675670
vt 0.456937 0.636831
vt 0.461797 0.636831
vt 0.461797 0.675670
vt 0.422920 0.608982
vt 0.452078 0.608982
vt 0.452078 0.613836
vt 0.422920 0.613836
vt 0.422920 0.608982
vt 0.413201 0.641686
vt 0.413201 0.641686
vt 0.413201 0.670815
vt 0.422920 0.703520
vt 0.422920 0.703520
vt 0.413201 0.670815
vt 0.422920 0.670815
vt 0.422920 0.641686
vt 0.452078 0.641686
vt 0.452078 0.670815
vt 0.461797 0.670815
vt 0.461797 0.641686
vt 0.452078 0.608982
vt 0.461797 0.641686
vt 0.461797 0.670815
vt 0.452078 0.670815
vt 0.452078 0.641686
vt 0.582312 0.855208
vt 0.582312 0.894794
vt 0.542687 0.894794
vt 0.542687 0.855208
vt 0.588916 0.855208
vt 0.588916 0.894794
vt 0.588916 0.894794
vt 0.588916 0.855208
vt 0.582312 0.932642
vt 0.542687 0.932642
vt 0.542687 0.932642
vt 0.582312 0.932642
vt 0.536082 0.855208
vt 0.536082 0.894794
vt 0.536082 0.894794
vt 0.536082 0.855208
vt 0.542687 0.855208
vt 0.542687 0.894794
vt 0.582312 0.894794
vt 0.582312 0.855208
vt 0.542687 0.817360
vt 0.582312 0.817360
vt 0.582312 0.817360
vt 0.542687 0.817360
vt 0.461797 0.693810
vt 0.461797 0.693810
vt 0.456937 0.693810
vt 0.456937 0.693810
vt 0.422920 0.698665
vt 0.418061 0.670815
vt 0.418061 0.641686
vt 0.452078 0.670815
vt 0.452078 0.641686
vt 0.422920 0.693810
vt 0.452078 0.693810
vt 0.452078 0.693810
vt 0.422920 0.693810
vt 0.422920 0.698665
vt 0.456937 0.641686
vt 0.456937 0.670815
vt 0.456937 0.670815
vt 0.456937 0.641686
vt 0.413201 0.693810
vt 0.413201 0.693810
vt 0.418061 0.693810
vt 0.418061 0.693810
vt 0.422920 0.613836
vt 0.452078 0.613836
vt 0.452078 0.641686
vt 0.452078 0.670815
vt 0.422920 0.670815
vt 0.422920 0.641686
vt 0.422920 0.618691
vt 0.452078 0.618691
vt 0.452078 0.618691
vt 0.422920 0.618691
vt 0.418061 0.641686
vt 0.418061 0.670815
vt 0.461797 0.618691
vt 0.461797 0.618691
vt 0.456937 0.618691
vt 0.456937 0.618691
vn 0.0000 -0.0000 1.0000
vn 0.9674 0.1659 0.1913
vn 0.6870 -0.7048 0.1772
vn 0.1422 0.9785 0.1496
vn 0.8809 0.4348 0.1870
vn -0.8925 0.4405 0.0969
vn -0.1425 0.9805 0.1351
vn -0.6940 -0.7120 0.1070
vn -0.9814 0.1683 0.0923
vn 0.4589 -0.8729 0.1656
vn -0.4620 -0.8789 0.1189
vn 1.0000 0.0000 -0.0000
vn 0.1913 0.1659 -0.9674
vn 0.1772 -0.7048 -0.6870
vn 0.1496 0.9785 -0.1422
vn 0.1870 0.4348 -0.8809
vn 0.0969 0.4405 0.8925
vn 0.1351 0.9805 0.1425
vn 0.1070 -0.7120 0.6940
vn 0.0923 0.1683 0.9814
vn 0.1656 -0.8729 -0.4589
vn 0.1189 -0.8789 0.4620
vn 0.0000 -0.0000 -1.0000
vn -0.9674 0.1659 -0.1913
vn -0.6870 -0.7048 -0.1772
vn -0.1422 0.9785 -0.1496
vn -0.8809 0.4348 -0.1870
vn 0.8925 0.4405 -0.0969
vn 0.1425 0.9805 -0.1351
vn 0.6940 -0.7120 -0.1070
vn 0.9814 0.1683 -0.0923
vn -0.4589 -0.8729 -0.1656
vn 0.4620 -0.8789 -0.1189
vn -1.0000 0.0000 0.0000
vn -0.1913 0.1659 0.9674
vn -0.1772 -0.7048 0.6870
vn -0.1496 0.9785 0.1422
vn -0.1870 0.4348 0.8809
vn -0.0969 0.4405 -0.8925
vn -0.1351 0.9805 -0.1425
vn -0.1070 -0.7120 -0.6940
vn -0.0923 0.1683 -0.9814
vn -0.1656 -0.8729 0.4589
vn -0.1189 -0.8789 -0.4620
vn -0.0000 -1.0000 -0.0000
vn 0.9674 -0.1913 0.1659
vn 0.6870 -0.1772 -0.7048
vn 0.1422 -0.1496 0.9785
vn 0.8809 -0.1870 0.4348
vn -0.8925 -0.0969 0.4405
vn -0.1425 -0.1351 0.9805
vn -0.6940 -0.1070 -0.7120
vn -0.9814 -0.0923 0.1683
vn 0.4589 -0.1656 -0.8729
vn -0.4620 -0.1189 -0.8789
vn 0.0000 1.0000 0.0000
vn 0.9674 0.1913 -0.1659
vn 0.6870 0.1772 0.7048
vn 0.1422 0.1496 -0.9785
vn 0.8809 0.1870 -0.4348
vn -0.8925 0.0969 -0.4405
vn -0.1425 0.1351 -0.9805
vn -0.6940 0.1070 0.7120
vn -0.9814 0.0923 -0.1683
vn 0.4589 0.1656 0.8729
vn -0.4620 0.1189 0.8789
vn 0.9578 -0.0000 0.2873
vn 0.0000 0.9578 -0.2873
vn -0.9578 0.2873 0.0000
vn -0.2873 0.9578 0.0000
vn 0.0000 -0.9578 0.2873
vn -0.3416 -0.8756 0.3416
vn -0.3416 -0.3416 0.8756
vn -0.8756 -0.3416 0.3416
vn -0.3416 0.3416 0.8756
vn -0.3416 0.8756 0.3416
vn -0.8756 0.3416 0.3416
vn -0.3416 -0.8756 -0.3416
vn -0.8756 -0.3416 -0.3416
vn -0.3416 -0.3416 -0.8756
vn -0.3416 0.8756 -0.3416
vn -0.3416 0.3416 -0.8756
vn -0.8756 0.3416 -0.3416
vn 0.3416 -0.8756 0.3416
vn 0.8756 -0.3416 0.3416
vn 0.3416 -0.3416 0.8756
vn 0.3416 0.8756 0.3416
vn 0.3416 0.3416 0.8756
vn 0.8756 0.3416 0.3416
vn 0.3416 -0.8756 -0.3416
vn 0.3416 -0.3416 -0.8756
vn 0.8756 -0.3416 -0.3416
vn 0.3416 0.8756 -0.3416
vn 0.8756 0.3416 -0.3416
vn 0.3416 0.3416 -0.8756
vn 0.0000 -0.2873 0.9578
vn 0.2873 -0.9578 -0.0000
vn 0.0000 0.2873 0.9578
vn -0.2873 0.0000 -0.9578
vn -0.9578 -0.0000 0.2873
vn 0.0000 -0.9578 -0.2873
vn 0.9578 0.2873 0.0000
vn 0.2873 0.0000 -0.9578
vn 0.2873 -0.0000 0.9578
vn -0.2873 -0.9578 -0.0000
vn 0.0000 -0.2873 -0.9578
vn -0.9578 0.0000 -0.2873
vn 0.9578 0.0000 -0.2873
vn 0.0000 0.9578 0.2873
vn -0.9578 -0.2873 -0.0000
vn -0.2873 -0.0000 0.9578
vn 0.0000 0.2873 -0.9578
vn 0.9578 -0.2873 -0.0000
vn 0.2873 0.9578 0.0000
usemtl tiny_treats_1
s off
f 74/1/1 73/2/1 92/3/1
f 73/2/1 74/1/1 76/4/1
f 73/2/1 76/4/1 78/5/1
f 73/2/1 78/5/1 80/6/1
f 73/2/1 80/6/1 82/7/1
f 73/2/1 82/7/1 84/8/1
f 73/2/1 84/8/1 86/9/1
f 73/2/1 86/9/1 88/10/1
f 73/2/1 88/10/1 90/11/1
f 73/2/1 90/11/1 92/3/1
f 75/12/2 74/1/2 92/3/2 93/13/2
f 74/1/3 75/12/3 77/14/3 76/4/3
f 76/15/4 77/16/4 79/17/4 78/18/4
f 78/18/5 79/17/5 81/19/5 80/20/5
f 80/20/6 81/19/6 83/21/6 82/22/6
f 82/22/7 83/21/7 85/23/7 84/24/7
f 84/8/8 85/25/8 87/26/8 86/9/8
f 86/9/9 87/26/9 89/27/9 88/10/9
f 88/28/10 89/29/10 91/30/10 90/31/10
f 90/31/11 91/30/11 93/32/11 92/33/11
f 95/34/12 94/35/12 113/36/12
f 94/35/12 95/34/12 97/37/12
f 94/35/12 97/37/12 99/38/12
f 94/35/12 99/38/12 101/39/12
f 94/35/12 101/39/12 103/40/12
f 94/35/12 103/40/12 105/41/12
f 94/35/12 105/41/12 107/42/12
f 94/35/12 107/42/12 109/43/12
f 94/35/12 109/43/12 111/44/12
f 94/35/12 111/44/12 113/36/12
f 96/45/13 95/34/13 113/36/13 114/46/13
f 95/34/14 96/45/14 98/47/14 97/37/14
f 97/48/15 98/49/15 100/50/15 99/51/15
f 99/51/16 100/50/16 102/52/16 101/53/16
f 101/53/17 102/52/17 104/54/17 103/55/17
f 103/55/18 104/54/18 106/56/18 105/57/18
f 105/41/19 106/58/19 108/59/19 107/42/19
f 107/42/20 108/59/20 110/60/20 109/43/20
f 109/61/21 110/62/21 112/63/21 111/64/21
f 111/64/22 112/63/22 114/65/22 113/66/22
f 116/67/23 115/68/23 134/69/23
f 115/68/23 116/67/23 118/70/23
f 115/68/23 118/70/23 120/71/23
f 115/68/23 120/71/23 122/72/23
f 115/68/23 122/72/23 124/73/23
f 115/68/23 124/73/23 126/74/23
f 115/68/23 126/74/23 128/75/23
f 115/68/23 128/75/23 130/76/23
f 115/68/23 130/76/23 132/77/23
f 115/68/23 132/77/23 134/69/23
f 117/78/24 116/67/24 134/69/24 135/79/24
f 116/67/25 117/78/25 119/80/25 118/70/25
f 118/81/26 119/82/26 121/83/26 120/84/26
f 120/84/27 121/83/27 123/85/27 122/86/27
f 122/86/28 123/85/28 125/87/28 124/88/28
f 124/88/29 125/87/29 127/89/29 126/90/29
f 126/74/30 127/91/30 129/92/30 128/75/30
f 128/75/31 129/92/31 131/93/31 130/76/31
f 130/94/32 131/95/32 133/96/32 132/97/32
f 132/97/33 133/96/33 135/98/33 134/99/33
f 137/100/34 136/101/34 155/102/34
f 136/101/34 137/100/34 139/103/34
f 136/101/34 139/103/34 141/104/34
f 136/101/34 141/104/34 143/105/34
f 136/101/34 143/105/34 145/106/34
f 136/101/34 145/106/34 147/107/34
f 136/101/34 147/107/34 149/108/34
f 136/101/34 149/108/34 151/109/34
f 136/101/34 151/109/34 153/110/34
f 136/101/34 153/110/34 155/102/34
f 138/111/35 137/100/35 155/102/35 156/112/35
f 137/100/36 138/111/36 140/113/36 139/103/36
f 139/114/37 140/115/37 142/116/37 141/117/37
f 141/117/38 142/116/38 144/118/38 143/119/38
f 143/119/39 144/118/39 146/120/39 145/121/39
f 145/121/40 146/120/40 148/122/40 147/123/40
f 147/107/41 148/124/41 150/125/41 149/108/41
f 149/108/42 150/125/42 152/126/42 151/109/42
f 151/127/43 152/128/43 154/129/43 153/130/43
f 153/130/44 154/129/44 156/131/44 155/132/44
f 158/133/45 157/134/45 176/135/45
f 157/134/45 158/133/45 160/136/45
f 157/134/45 160/136/45 162/137/45
f 157/134/45 162/137/45 164/138/45
f 157/134/45 164/138/45 166/139/45
f 157/134/45 166/139/45 168/140/45
f 157/134/45 168/140/45 170/141/45
f 157/134/45 170/141/45 172/142/45
f 157/134/45 172/142/45 174/143/45
f 157/134/45 174/143/45 176/135/45
f 159/144/46 158/145/46 176/146/46 177/147/46
f 158/145/47 159/144/47 161/148/47 160/149/47
f 160/149/48 161/148/48 163/150/48 162/151/48
f 162/151/49 163/150/49 165/152/49 164/153/49
f 164/153/50 165/152/50 167/154/50 166/155/50
f 166/155/51 167/154/51 169/156/51 168/157/51
f 168/157/52 169/156/52 171/158/52 170/159/52
f 170/159/53 171/158/53 173/160/53 172/161/53
f 172/161/54 173/160/54 175/162/54 174/163/54
f 174/163/55 175/162/55 177/147/55 176/146/55
f 179/164/56 178/165/56 197/166/56
f 178/165/56 179/164/56 181/167/56
f 178/165/56 181/167/56 183/168/56
f 178/165/56 183/168/56 185/169/56
f 178/165/56 185/169/56 187/170/56
f 178/165/56 187/170/56 189/171/56
f 178/165/56 189/171/56 191/172/56
f 178/165/56 191/172/56 193/173/56
f 178/165/56 193/173/56 195/174/56
f 178/165/56 195/174/56 197/166/56
f 180/175/57 179/176/57 197/177/57 198/178/57
f 179/176/58 180/175/58 182/179/58 181/180/58
f 181/180/59 182/179/59 184/181/59 183/182/59
f 183/182/60 184/181/60 186/183/60 185/184/60
f 185/184/61 186/183/61 188/185/61 187/186/61
f 187/186/62 188/185/62 190/187/62 189/188/62
f 189/188/63 190/187/63 192/189/63 191/190/63
f 191/190/64 192/189/64 194/191/64 193/192/64
f 193/192/65 194/191/65 196/193/65 195/194/65
f 195/194/66 196/193/66 198/178/66 197/177/66
s 1
f 4/195/67 2/196/67 53/197/67 54/198/67
f 20/199/68 9/200/68 60/201/68 62/202/68
f 16/203/69 22/204/69 63/205/69 69/206/69
f 8/207/70 3/208/70 51/209/70 52/210/70
f 17/211/71 4/212/71 54/213/71 71/214/71
f 26/215/72 29/216/73 27/217/74
f 30/218/75 32/219/76 31/220/77
f 25/221/78 28/222/79 36/223/80
f 33/224/81 35/225/82 34/226/83
f 43/227/84 44/228/85 48/229/86
f 45/230/87 47/231/88 46/232/89
f 37/233/90 38/234/91 42/235/92
f 39/236/93 41/237/94 40/238/95
f 25/221/78 26/215/72 27/217/74 28/222/79
f 29/239/73 30/240/75 31/241/77 27/242/74
f 32/219/76 33/224/81 34/226/83 31/220/77
f 35/243/82 36/244/80 28/245/79 34/246/83
f 37/233/90 25/221/78 36/223/80 38/234/91
f 33/224/81 39/236/93 40/238/95 35/225/82
f 41/247/94 42/248/92 38/249/91 40/250/95
f 43/227/84 37/233/90 42/235/92 44/228/85
f 39/236/93 45/230/87 46/232/89 41/237/94
f 47/251/88 48/252/86 44/253/85 46/254/89
f 26/215/72 43/227/84 48/229/86 29/216/73
f 45/230/87 32/219/76 30/218/75 47/231/88
f 7/255/96 19/256/96 61/257/96 49/258/96
f 7/255/45 1/259/45 26/215/72 25/221/78
f 3/260/34 8/261/34 28/245/79 27/242/74
f 2/196/1 4/195/1 30/240/75 29/239/73
f 6/262/34 3/260/34 27/242/74 31/241/77
f 5/263/56 10/264/56 33/224/81 32/219/76
f 12/265/34 6/262/34 31/241/77 34/246/83
f 11/266/23 9/267/23 36/244/80 35/243/82
f 8/261/34 12/265/34 34/246/83 28/245/79
f 19/256/45 7/255/45 25/221/78 37/233/90
f 9/267/23 20/268/23 38/249/91 36/244/80
f 10/264/56 22/204/56 39/236/93 33/224/81
f 24/269/23 11/266/23 35/243/82 40/250/95
f 23/270/12 21/271/12 42/248/92 41/247/94
f 20/268/23 24/269/23 40/250/95 38/249/91
f 13/272/45 19/256/45 37/233/90 43/227/84
f 21/271/12 14/273/12 44/253/85 42/248/92
f 22/204/56 16/203/56 45/230/87 39/236/93
f 18/274/12 23/270/12 41/247/94 46/254/89
f 17/275/1 15/276/1 48/252/86 47/251/88
f 14/273/12 18/274/12 46/254/89 44/253/85
f 1/259/45 13/272/45 43/227/84 26/215/72
f 15/276/1 2/196/1 29/239/73 48/252/86
f 16/203/56 5/263/56 32/219/76 45/230/87
f 4/195/1 17/275/1 47/251/88 30/240/75
f 72/277/1 71/278/1 54/279/1 53/280/1
f 66/281/12 65/282/12 70/283/12 68/284/12
f 63/285/56 57/286/56 56/287/56 69/288/56
f 51/289/34 55/290/34 58/291/34 52/292/34
f 60/293/23 59/294/23 64/295/23 62/296/23
f 49/297/45 61/298/45 67/299/45 50/300/45
f 23/301/97 18/302/97 70/303/97 65/304/97
f 22/204/98 10/264/98 57/305/98 63/205/98
f 3/260/99 6/262/99 55/306/99 51/307/99
f 15/276/100 17/275/100 71/308/100 72/309/100
f 11/310/101 24/311/101 64/312/101 59/313/101
f 10/264/102 5/263/102 56/314/102 57/305/102
f 18/274/103 14/273/103 68/315/103 70/316/103
f 21/271/104 23/270/104 65/317/104 66/318/104
f 6/319/105 12/320/105 58/321/105 55/322/105
f 13/272/106 1/259/106 50/323/106 67/324/106
f 24/269/107 20/268/107 62/325/107 64/326/107
f 9/267/108 11/266/108 59/327/108 60/328/108
f 2/329/109 15/330/109 72/331/109 53/332/109
f 19/256/110 13/272/110 67/324/110 61/257/110
f 12/265/111 8/261/111 52/333/111 58/334/111
f 5/263/112 16/203/112 69/206/112 56/314/112
f 1/259/113 7/255/113 49/258/113 50/323/113
f 14/335/114 21/336/114 66/337/114 68/338/114
