# Blender v3.4.1 OBJ File: 'Tiny_treats_Playful_Bedroom_1.1_ASSETS_EXPORT.blend'
# www.blender.org
mtllib play_block_F.mtl
o play_block_F
v -0.128000 -0.000000 0.128000
v -0.128000 0.072000 0.200000
v -0.200000 0.072000 0.128000
v -0.128000 0.327999 0.200000
v -0.128000 0.399999 0.128000
v -0.200000 0.327999 0.128000
v -0.128000 0.000000 -0.128000
v -0.200000 0.072000 -0.128000
v -0.128000 0.072000 -0.199999
v -0.128000 0.399999 -0.128000
v -0.128000 0.327999 -0.199999
v -0.200000 0.327999 -0.128000
v 0.128000 -0.000000 0.128000
v 0.200000 0.072000 0.128000
v 0.128000 0.072000 0.200000
v 0.128000 0.399999 0.128000
v 0.128000 0.327999 0.200000
v 0.200000 0.327999 0.128000
v 0.128000 0.000000 -0.128000
v 0.128000 0.072000 -0.199999
v 0.200000 0.072000 -0.128000
v 0.128000 0.399999 -0.128000
v 0.200000 0.327999 -0.128000
v 0.128000 0.327999 -0.199999
v -0.160000 0.000000 -0.160000
v -0.160000 -0.000000 0.160000
v -0.200000 0.040000 0.160000
v -0.200000 0.040000 -0.160000
v -0.160000 0.040000 0.200000
v -0.160000 0.359999 0.200000
v -0.200000 0.359999 0.160000
v -0.160000 0.399999 0.160000
v -0.160000 0.399999 -0.160000
v -0.200000 0.359999 -0.160000
v -0.160000 0.359999 -0.199999
v -0.160000 0.040000 -0.200000
v 0.160000 0.000000 -0.160000
v 0.160000 0.040000 -0.200000
v 0.160000 0.399999 -0.160000
v 0.160000 0.359999 -0.199999
v 0.200000 0.359999 -0.160000
v 0.200000 0.040000 -0.160000
v 0.160000 -0.000000 0.160000
v 0.200000 0.040000 0.160000
v 0.160000 0.399999 0.160000
v 0.200000 0.359999 0.160000
v 0.160000 0.359999 0.200000
v 0.160000 0.040000 0.200000
v -0.116000 0.040000 -0.116000
v -0.116000 0.040000 0.116000
v -0.160000 0.084000 0.116000
v -0.160000 0.084000 -0.116000
v -0.116000 0.084000 0.160000
v -0.116000 0.315999 0.160000
v -0.160000 0.315999 0.116000
v -0.116000 0.359999 0.116000
v -0.116000 0.359999 -0.116000
v -0.160000 0.315999 -0.116000
v -0.116000 0.315999 -0.160000
v -0.116000 0.084000 -0.160000
v 0.116000 0.040000 -0.116000
v 0.116000 0.084000 -0.160000
v 0.116000 0.359999 -0.116000
v 0.116000 0.315999 -0.160000
v 0.160000 0.315999 -0.116000
v 0.160000 0.084000 -0.116000
v 0.116000 0.040000 0.116000
v 0.160000 0.084000 0.116000
v 0.116000 0.359999 0.116000
v 0.160000 0.315999 0.116000
v 0.116000 0.315999 0.160000
v 0.116000 0.084000 0.160000
v -0.040001 0.269281 0.159999
v -0.036001 0.262353 0.191999
v 0.039998 0.269281 0.159999
v 0.035998 0.262353 0.191999
v 0.079998 0.199999 0.159999
v 0.071998 0.199999 0.191999
v 0.039998 0.130718 0.159999
v 0.035998 0.137646 0.191999
v -0.040001 0.130718 0.159999
v -0.036001 0.137646 0.191999
v -0.080001 0.199999 0.159999
v -0.072001 0.199999 0.191999
v 0.160000 0.269281 0.040001
v 0.192000 0.262353 0.036001
v 0.160000 0.269281 -0.039998
v 0.192000 0.262353 -0.035998
v 0.160000 0.200000 -0.079998
v 0.192000 0.200000 -0.071998
v 0.160000 0.130718 -0.039998
v 0.192000 0.137646 -0.035998
v 0.160000 0.130718 0.040001
v 0.192000 0.137646 0.036001
v 0.160000 0.199999 0.080001
v 0.192000 0.199999 0.072001
v 0.040001 0.269281 -0.160000
v 0.036001 0.262353 -0.192000
v -0.039998 0.269281 -0.160000
v -0.035998 0.262353 -0.192000
v -0.079998 0.200000 -0.160000
v -0.071998 0.200000 -0.192000
v -0.039998 0.130718 -0.160000
v -0.035998 0.137646 -0.192000
v 0.040001 0.130718 -0.160000
v 0.036001 0.137646 -0.192000
v 0.080001 0.200000 -0.160000
v 0.072001 0.200000 -0.192000
v -0.160000 0.269281 -0.040001
v -0.192000 0.262353 -0.036001
v -0.160000 0.269281 0.039998
v -0.192000 0.262353 0.035998
v -0.160000 0.199999 0.079998
v -0.192000 0.199999 0.071998
v -0.160000 0.130718 0.039998
v -0.192000 0.137646 0.035998
v -0.160000 0.130718 -0.040001
v -0.192000 0.137646 -0.036001
v -0.160000 0.200000 -0.080001
v -0.192000 0.200000 -0.072001
v -0.040001 0.040000 0.069282
v -0.036001 0.008000 0.062354
v 0.039998 0.040000 0.069282
v 0.035998 0.008000 0.062354
v 0.079998 0.040000 0.000000
v 0.071998 0.008000 -0.000000
v 0.039998 0.040000 -0.069282
v 0.035998 0.008000 -0.062354
v -0.040001 0.040000 -0.069282
v -0.036001 0.008000 -0.062354
v -0.080001 0.040000 -0.000000
v -0.072001 0.008000 -0.000000
v -0.040001 0.359999 -0.069282
v -0.036001 0.391999 -0.062354
v 0.039998 0.359999 -0.069282
v 0.035998 0.391999 -0.062354
v 0.079998 0.359999 0.000000
v 0.071998 0.391999 0.000000
v 0.039998 0.359999 0.069282
v 0.035998 0.391999 0.062354
v -0.040001 0.359999 0.069282
v -0.036001 0.391999 0.062354
v -0.080001 0.359999 0.000000
v -0.072001 0.391999 0.000000
vt 0.299299 0.669438
vt 0.299299 0.643063
vt 0.299299 0.643063
vt 0.299299 0.669438
vt 0.325700 0.622242
vt 0.299299 0.622242
vt 0.299299 0.622242
vt 0.325700 0.622242
vt 0.325700 0.699051
vt 0.325700 0.699051
vt 0.325700 0.694655
vt 0.325700 0.694655
vt 0.290498 0.622242
vt 0.290498 0.622242
vt 0.294899 0.622242
vt 0.294899 0.622242
vt 0.325700 0.690259
vt 0.299299 0.690259
vt 0.299299 0.690259
vt 0.325700 0.690259
vt 0.294899 0.613450
vt 0.294899 0.617846
vt 0.290498 0.617846
vt 0.294899 0.694655
vt 0.294899 0.699051
vt 0.290498 0.694655
vt 0.294899 0.613450
vt 0.290498 0.617846
vt 0.294899 0.617846
vt 0.294899 0.699051
vt 0.294899 0.694655
vt 0.290498 0.694655
vt 0.330100 0.613450
vt 0.334500 0.617846
vt 0.330100 0.617846
vt 0.330100 0.699051
vt 0.330100 0.694655
vt 0.334500 0.694655
vt 0.330100 0.613450
vt 0.330100 0.617846
vt 0.334500 0.617846
vt 0.330100 0.699051
vt 0.334500 0.694655
vt 0.330100 0.694655
vt 0.294899 0.638667
vt 0.294899 0.673834
vt 0.290498 0.673834
vt 0.290498 0.638667
vt 0.294899 0.673834
vt 0.294899 0.638667
vt 0.290498 0.638667
vt 0.290498 0.673834
vt 0.334500 0.673834
vt 0.334500 0.638667
vt 0.330100 0.638667
vt 0.330100 0.673834
vt 0.330100 0.673834
vt 0.330100 0.638667
vt 0.334500 0.638667
vt 0.334500 0.673834
vt 0.299299 0.613450
vt 0.325700 0.613450
vt 0.325700 0.617846
vt 0.299299 0.617846
vt 0.299299 0.613450
vt 0.290498 0.643063
vt 0.290498 0.643063
vt 0.290498 0.669438
vt 0.299299 0.699051
vt 0.299299 0.699051
vt 0.290498 0.669438
vt 0.299299 0.669438
vt 0.299299 0.643063
vt 0.325700 0.643063
vt 0.325700 0.669438
vt 0.334500 0.669438
vt 0.334500 0.643063
vt 0.325700 0.613450
vt 0.334500 0.643063
vt 0.334500 0.669438
vt 0.325700 0.669438
vt 0.325700 0.643063
vt 0.582312 0.855208
vt 0.582312 0.894794
vt 0.542687 0.894794
vt 0.542687 0.855208
vt 0.588916 0.855208
vt 0.588916 0.894794
vt 0.588916 0.894794
vt 0.588916 0.855208
vt 0.582312 0.932642
vt 0.542687 0.932642
vt 0.542687 0.932642
vt 0.582312 0.932642
vt 0.536082 0.855208
vt 0.536082 0.894794
vt 0.536082 0.894794
vt 0.536082 0.855208
vt 0.542687 0.855208
vt 0.542687 0.894794
vt 0.582312 0.894794
vt 0.582312 0.855208
vt 0.542687 0.817360
vt 0.582312 0.817360
vt 0.582312 0.817360
vt 0.542687 0.817360
vt 0.334500 0.690259
vt 0.334500 0.690259
vt 0.330100 0.690259
vt 0.330100 0.690259
vt 0.299299 0.694655
vt 0.294899 0.669438
vt 0.294899 0.643063
vt 0.325700 0.669438
vt 0.325700 0.643063
vt 0.299299 0.690259
vt 0.325700 0.690259
vt 0.325700 0.690259
vt 0.299299 0.690259
vt 0.299299 0.694655
vt 0.330100 0.643063
vt 0.330100 0.669438
vt 0.330100 0.669438
vt 0.330100 0.643063
vt 0.290498 0.690259
vt 0.290498 0.690259
vt 0.294899 0.690259
vt 0.294899 0.690259
vt 0.299299 0.617846
vt 0.325700 0.617846
vt 0.325700 0.643063
vt 0.325700 0.669438
vt 0.299299 0.669438
vt 0.299299 0.643063
vt 0.299299 0.622242
vt 0.325700 0.622242
vt 0.325700 0.622242
vt 0.299299 0.622242
vt 0.294899 0.643063
vt 0.294899 0.669438
vt 0.334500 0.622242
vt 0.334500 0.622242
vt 0.330100 0.622242
vt 0.330100 0.622242
vt 0.306633 0.682025
vt 0.307220 0.681010
vt 0.317780 0.681010
vt 0.318366 0.682025
vt 0.323059 0.671874
vt 0.324233 0.671874
vt 0.324233 0.609374
vt 0.323059 0.609374
vt 0.317780 0.600238
vt 0.318366 0.599222
vt 0.307220 0.600238
vt 0.306633 0.599222
vt 0.323059 0.640624
vt 0.301940 0.640624
vt 0.307220 0.631488
vt 0.317780 0.631488
vt 0.301940 0.609374
vt 0.300767 0.609374
vt 0.300767 0.671874
vt 0.301940 0.671874
vt 0.317780 0.649760
vt 0.307220 0.649760
vt 0.335966 0.682025
vt 0.340660 0.681010
vt 0.340660 0.681010
vt 0.335966 0.682025
vt 0.340660 0.671874
vt 0.335966 0.671874
vt 0.335966 0.609374
vt 0.340660 0.609374
vt 0.340660 0.600238
vt 0.335966 0.599222
vt 0.340660 0.600238
vt 0.335966 0.599222
vt 0.340660 0.640624
vt 0.340660 0.640624
vt 0.340660 0.631488
vt 0.340660 0.631488
vt 0.340660 0.609374
vt 0.335966 0.609374
vt 0.335966 0.671874
vt 0.340660 0.671874
vt 0.340660 0.649760
vt 0.340660 0.649760
vt 0.318367 0.682025
vt 0.317780 0.681010
vt 0.307220 0.681010
vt 0.306634 0.682025
vt 0.301940 0.671874
vt 0.300767 0.671874
vt 0.300767 0.609374
vt 0.301940 0.609374
vt 0.307220 0.600238
vt 0.306634 0.599222
vt 0.317780 0.600238
vt 0.318367 0.599222
vt 0.301940 0.640624
vt 0.323060 0.640624
vt 0.317780 0.631488
vt 0.307220 0.631488
vt 0.323060 0.609374
vt 0.324233 0.609374
vt 0.324233 0.671874
vt 0.323060 0.671874
vt 0.307220 0.649760
vt 0.317780 0.649760
vt 0.289033 0.682025
vt 0.284340 0.681010
vt 0.284340 0.681010
vt 0.289033 0.682025
vt 0.284340 0.671874
vt 0.289033 0.671874
vt 0.289033 0.609374
vt 0.284340 0.609374
vt 0.284340 0.600238
vt 0.289033 0.599222
vt 0.284340 0.600238
vt 0.289033 0.599222
vt 0.284340 0.640624
vt 0.284340 0.640624
vt 0.284340 0.631488
vt 0.284340 0.631488
vt 0.284340 0.609374
vt 0.289033 0.609374
vt 0.289033 0.671874
vt 0.284340 0.671874
vt 0.284340 0.649760
vt 0.284340 0.649760
vt 0.306633 0.617181
vt 0.307220 0.612492
vt 0.317780 0.612492
vt 0.318366 0.617181
vt 0.323059 0.612492
vt 0.324233 0.617181
vt 0.317780 0.612492
vt 0.318366 0.617181
vt 0.307220 0.612492
vt 0.306633 0.617181
vt 0.323059 0.581242
vt 0.301940 0.581242
vt 0.307220 0.581242
vt 0.317780 0.581242
vt 0.301940 0.612492
vt 0.300767 0.617181
vt 0.317780 0.581242
vt 0.307220 0.581242
vt 0.306633 0.664067
vt 0.307220 0.668756
vt 0.317780 0.668756
vt 0.318366 0.664067
vt 0.323059 0.668756
vt 0.324233 0.664067
vt 0.317780 0.668756
vt 0.318366 0.664067
vt 0.307220 0.668756
vt 0.306633 0.664067
vt 0.323059 0.700006
vt 0.301940 0.700006
vt 0.307220 0.700006
vt 0.317780 0.700006
vt 0.301940 0.668756
vt 0.300767 0.664067
vt 0.317780 0.700006
vt 0.307220 0.700006
vn 0.9578 -0.0000 0.2873
vn 0.0000 0.9578 -0.2873
vn -0.9578 0.2873 0.0000
vn -0.2873 0.9578 0.0000
vn 0.0000 -0.9578 0.2873
vn -0.3416 -0.8756 0.3416
vn -0.3416 -0.3416 0.8756
vn -0.8756 -0.3416 0.3416
vn -0.3416 0.3416 0.8756
vn -0.3416 0.8756 0.3416
vn -0.8756 0.3416 0.3416
vn -0.3416 -0.8756 -0.3416
vn -0.8756 -0.3416 -0.3416
vn -0.3416 -0.3416 -0.8756
vn -0.3416 0.8756 -0.3416
vn -0.3416 0.3416 -0.8756
vn -0.8756 0.3416 -0.3416
vn 0.3416 -0.8756 0.3416
vn 0.8756 -0.3416 0.3416
vn 0.3416 -0.3416 0.8756
vn 0.3416 0.8756 0.3416
vn 0.3416 0.3416 0.8756
vn 0.8756 0.3416 0.3416
vn 0.3416 -0.8756 -0.3416
vn 0.3416 -0.3416 -0.8756
vn 0.8756 -0.3416 -0.3416
vn 0.3416 0.8756 -0.3416
vn 0.8756 0.3416 -0.3416
vn 0.3416 0.3416 -0.8756
vn 0.0000 -0.2873 0.9578
vn 0.0000 -1.0000 -0.0000
vn -1.0000 0.0000 0.0000
vn 0.0000 -0.0000 1.0000
vn 0.0000 1.0000 0.0000
vn -0.0000 0.0000 -1.0000
vn 1.0000 -0.0000 0.0000
vn 0.2873 -0.9578 -0.0000
vn 0.0000 0.2873 0.9578
vn -0.2873 0.0000 -0.9578
vn -0.9578 -0.0000 0.2873
vn 0.0000 -0.9578 -0.2873
vn 0.9578 0.2873 0.0000
vn 0.2873 0.0000 -0.9578
vn 0.2873 -0.0000 0.9578
vn -0.2873 -0.9578 -0.0000
vn 0.0000 -0.2873 -0.9578
vn -0.9578 0.0000 -0.2873
vn 0.9578 0.0000 -0.2873
vn 0.0000 0.9578 0.2873
vn -0.9578 -0.2873 -0.0000
vn -0.2873 -0.0000 0.9578
vn 0.0000 0.2873 -0.9578
vn 0.9578 -0.2873 -0.0000
vn 0.2873 0.9578 0.0000
vn -0.4851 0.8402 0.2425
vn 0.4851 0.8402 0.2425
vn 0.9701 -0.0000 0.2425
vn 0.4851 -0.8402 0.2425
vn -0.4851 -0.8402 0.2425
vn -0.9701 -0.0000 0.2425
vn 0.2425 0.8402 0.4851
vn 0.2425 0.8402 -0.4851
vn 0.2425 0.0000 -0.9701
vn 0.2425 -0.8402 -0.4851
vn 0.2425 -0.8402 0.4851
vn 0.2425 -0.0000 0.9701
vn 0.4851 0.8402 -0.2425
vn -0.4851 0.8402 -0.2425
vn -0.9701 -0.0000 -0.2425
vn -0.4851 -0.8402 -0.2425
vn 0.4851 -0.8402 -0.2425
vn 0.9701 -0.0000 -0.2425
vn -0.2425 0.8402 -0.4851
vn -0.2425 0.8402 0.4851
vn -0.2425 -0.0000 0.9701
vn -0.2425 -0.8402 0.4851
vn -0.2425 -0.8402 -0.4851
vn -0.2425 0.0000 -0.9701
vn -0.4851 -0.2425 0.8402
vn 0.4851 -0.2425 0.8402
vn 0.9701 -0.2425 -0.0000
vn 0.4851 -0.2425 -0.8402
vn -0.4851 -0.2425 -0.8402
vn -0.9701 -0.2425 -0.0000
vn -0.4851 0.2425 -0.8402
vn 0.4851 0.2425 -0.8402
vn 0.9701 0.2425 0.0000
vn 0.4851 0.2425 0.8402
vn -0.4851 0.2425 0.8402
vn -0.9701 0.2425 0.0000
usemtl tiny_treats_1
s 1
f 4/1/1 2/2/1 53/3/1 54/4/1
f 20/5/2 9/6/2 60/7/2 62/8/2
f 16/9/3 22/10/3 63/11/3 69/12/3
f 8/13/4 3/14/4 51/15/4 52/16/4
f 17/17/5 4/18/5 54/19/5 71/20/5
f 26/21/6 29/22/7 27/23/8
f 30/24/9 32/25/10 31/26/11
f 25/27/12 28/28/13 36/29/14
f 33/30/15 35/31/16 34/32/17
f 43/33/18 44/34/19 48/35/20
f 45/36/21 47/37/22 46/38/23
f 37/39/24 38/40/25 42/41/26
f 39/42/27 41/43/28 40/44/29
f 25/27/12 26/21/6 27/23/8 28/28/13
f 29/45/7 30/46/9 31/47/11 27/48/8
f 32/25/10 33/30/15 34/32/17 31/26/11
f 35/49/16 36/50/14 28/51/13 34/52/17
f 37/39/24 25/27/12 36/29/14 38/40/25
f 33/30/15 39/42/27 40/44/29 35/31/16
f 41/53/28 42/54/26 38/55/25 40/56/29
f 43/33/18 37/39/24 42/41/26 44/34/19
f 39/42/27 45/36/21 46/38/23 41/43/28
f 47/57/22 48/58/20 44/59/19 46/60/23
f 26/21/6 43/33/18 48/35/20 29/22/7
f 45/36/21 32/25/10 30/24/9 47/37/22
f 7/61/30 19/62/30 61/63/30 49/64/30
f 7/61/31 1/65/31 26/21/6 25/27/12
f 3/66/32 8/67/32 28/51/13 27/48/8
f 2/2/33 4/1/33 30/46/9 29/45/7
f 6/68/32 3/66/32 27/48/8 31/47/11
f 5/69/34 10/70/34 33/30/15 32/25/10
f 12/71/32 6/68/32 31/47/11 34/52/17
f 11/72/35 9/73/35 36/50/14 35/49/16
f 8/67/32 12/71/32 34/52/17 28/51/13
f 19/62/31 7/61/31 25/27/12 37/39/24
f 9/73/35 20/74/35 38/55/25 36/50/14
f 10/70/34 22/10/34 39/42/27 33/30/15
f 24/75/35 11/72/35 35/49/16 40/56/29
f 23/76/36 21/77/36 42/54/26 41/53/28
f 20/74/35 24/75/35 40/56/29 38/55/25
f 13/78/31 19/62/31 37/39/24 43/33/18
f 21/77/36 14/79/36 44/59/19 42/54/26
f 22/10/34 16/9/34 45/36/21 39/42/27
f 18/80/36 23/76/36 41/53/28 46/60/23
f 17/81/33 15/82/33 48/58/20 47/57/22
f 14/79/36 18/80/36 46/60/23 44/59/19
f 1/65/31 13/78/31 43/33/18 26/21/6
f 15/82/33 2/2/33 29/45/7 48/58/20
f 16/9/34 5/69/34 32/25/10 45/36/21
f 4/1/33 17/81/33 47/57/22 30/46/9
f 72/83/33 71/84/33 54/85/33 53/86/33
f 66/87/36 65/88/36 70/89/36 68/90/36
f 63/91/34 57/92/34 56/93/34 69/94/34
f 51/95/32 55/96/32 58/97/32 52/98/32
f 60/99/35 59/100/35 64/101/35 62/102/35
f 49/103/31 61/104/31 67/105/31 50/106/31
f 23/107/37 18/108/37 70/109/37 65/110/37
f 22/10/38 10/70/38 57/111/38 63/11/38
f 3/66/39 6/68/39 55/112/39 51/113/39
f 15/82/40 17/81/40 71/114/40 72/115/40
f 11/116/41 24/117/41 64/118/41 59/119/41
f 10/70/42 5/69/42 56/120/42 57/111/42
f 18/80/43 14/79/43 68/121/43 70/122/43
f 21/77/44 23/76/44 65/123/44 66/124/44
f 6/125/45 12/126/45 58/127/45 55/128/45
f 13/78/46 1/65/46 50/129/46 67/130/46
f 24/75/47 20/74/47 62/131/47 64/132/47
f 9/73/48 11/72/48 59/133/48 60/134/48
f 2/135/49 15/136/49 72/137/49 53/138/49
f 19/62/50 13/78/50 67/130/50 61/63/50
f 12/71/51 8/67/51 52/139/51 58/140/51
f 5/69/52 16/9/52 69/12/52 56/120/52
f 1/65/53 7/61/53 49/64/53 50/129/53
f 14/141/54 21/142/54 66/143/54 68/144/54
f 73/145/55 74/146/55 76/147/56 75/148/56
f 75/148/56 76/147/56 78/149/57 77/150/57
f 77/151/57 78/152/57 80/153/58 79/154/58
f 79/154/58 80/153/58 82/155/59 81/156/59
f 78/157/33 84/158/33 82/159/33 80/160/33
f 81/156/59 82/155/59 84/161/60 83/162/60
f 83/163/60 84/164/60 74/146/55 73/145/55
f 76/165/33 74/166/33 84/158/33 78/157/33
f 85/167/61 86/168/61 88/169/62 87/170/62
f 87/170/62 88/169/62 90/171/63 89/172/63
f 89/173/63 90/174/63 92/175/64 91/176/64
f 91/176/64 92/175/64 94/177/65 93/178/65
f 90/179/36 96/180/36 94/181/36 92/182/36
f 93/178/65 94/177/65 96/183/66 95/184/66
f 95/185/66 96/186/66 86/168/61 85/167/61
f 88/187/36 86/188/36 96/180/36 90/179/36
f 97/189/67 98/190/67 100/191/68 99/192/68
f 99/192/68 100/191/68 102/193/69 101/194/69
f 101/195/69 102/196/69 104/197/70 103/198/70
f 103/198/70 104/197/70 106/199/71 105/200/71
f 102/201/35 108/202/35 106/203/35 104/204/35
f 105/200/71 106/199/71 108/205/72 107/206/72
f 107/207/72 108/208/72 98/190/67 97/189/67
f 100/209/35 98/210/35 108/202/35 102/201/35
f 109/211/73 110/212/73 112/213/74 111/214/74
f 111/214/74 112/213/74 114/215/75 113/216/75
f 113/217/75 114/218/75 116/219/76 115/220/76
f 115/220/76 116/219/76 118/221/77 117/222/77
f 114/223/32 120/224/32 118/225/32 116/226/32
f 117/222/77 118/221/77 120/227/78 119/228/78
f 119/229/78 120/230/78 110/212/73 109/211/73
f 112/231/32 110/232/32 120/224/32 114/223/32
f 121/233/79 122/234/79 124/235/80 123/236/80
f 123/236/80 124/235/80 126/237/81 125/238/81
f 125/238/81 126/237/81 128/239/82 127/240/82
f 127/240/82 128/239/82 130/241/83 129/242/83
f 126/243/31 132/244/31 130/245/31 128/246/31
f 129/242/83 130/241/83 132/247/84 131/248/84
f 131/248/84 132/247/84 122/234/79 121/233/79
f 124/249/31 122/250/31 132/244/31 126/243/31
f 133/251/85 134/252/85 136/253/86 135/254/86
f 135/254/86 136/253/86 138/255/87 137/256/87
f 137/256/87 138/255/87 140/257/88 139/258/88
f 139/258/88 140/257/88 142/259/89 141/260/89
f 138/261/34 144/262/34 142/263/34 140/264/34
f 141/260/89 142/259/89 144/265/90 143/266/90
f 143/266/90 144/265/90 134/252/85 133/251/85
f 136/267/34 134/268/34 144/262/34 138/261/34
