# Blender v3.4.1 OBJ File: 'Tiny_treats_Playful_Bedroom_1.1_ASSETS_EXPORT.blend'
# www.blender.org
mtllib play_block_A.mtl
o play_block_A
v -0.128000 -0.000000 0.128000
v -0.128000 0.072000 0.200000
v -0.200000 0.072000 0.128000
v -0.128000 0.328000 0.200000
v -0.128000 0.400000 0.128000
v -0.200000 0.328000 0.128000
v -0.128000 0.000000 -0.128000
v -0.200000 0.072000 -0.128000
v -0.128000 0.072000 -0.200000
v -0.128000 0.400000 -0.128000
v -0.128000 0.328000 -0.200000
v -0.200000 0.328000 -0.128000
v 0.128000 -0.000000 0.128000
v 0.200000 0.072000 0.128000
v 0.128000 0.072000 0.200000
v 0.128000 0.400000 0.128000
v 0.128000 0.328000 0.200000
v 0.200000 0.328000 0.128000
v 0.128000 0.000000 -0.128000
v 0.128000 0.072000 -0.200000
v 0.200000 0.072000 -0.128000
v 0.128000 0.400000 -0.128000
v 0.200000 0.328000 -0.128000
v 0.128000 0.328000 -0.200000
v -0.160000 0.000000 -0.160000
v -0.160000 -0.000000 0.160000
v -0.200000 0.040000 0.160000
v -0.200000 0.040000 -0.160000
v -0.160000 0.040000 0.200000
v -0.160000 0.360000 0.200000
v -0.200000 0.360000 0.160000
v -0.160000 0.400000 0.160000
v -0.160000 0.400000 -0.160000
v -0.200000 0.360000 -0.160000
v -0.160000 0.360000 -0.200000
v -0.160000 0.040000 -0.200000
v 0.160000 0.000000 -0.160000
v 0.160000 0.040000 -0.200000
v 0.160000 0.400000 -0.160000
v 0.160000 0.360000 -0.200000
v 0.200000 0.360000 -0.160000
v 0.200000 0.040000 -0.160000
v 0.160000 -0.000000 0.160000
v 0.200000 0.040000 0.160000
v 0.160000 0.400000 0.160000
v 0.200000 0.360000 0.160000
v 0.160000 0.360000 0.200000
v 0.160000 0.040000 0.200000
v -0.116000 0.040000 -0.116000
v -0.116000 0.040000 0.116000
v -0.160000 0.084000 0.116000
v -0.160000 0.084000 -0.116000
v -0.116000 0.084000 0.160000
v -0.116000 0.316000 0.160000
v -0.160000 0.316000 0.116000
v -0.116000 0.360000 0.116000
v -0.116000 0.360000 -0.116000
v -0.160000 0.316000 -0.116000
v -0.116000 0.316000 -0.160000
v -0.116000 0.084000 -0.160000
v 0.116000 0.040000 -0.116000
v 0.116000 0.084000 -0.160000
v 0.116000 0.360000 -0.116000
v 0.116000 0.316000 -0.160000
v 0.160000 0.316000 -0.116000
v 0.160000 0.084000 -0.116000
v 0.116000 0.040000 0.116000
v 0.160000 0.084000 0.116000
v 0.116000 0.360000 0.116000
v 0.160000 0.316000 0.116000
v 0.116000 0.316000 0.160000
v 0.116000 0.084000 0.160000
v -0.072000 0.128000 0.192000
v -0.072000 0.272000 0.192000
v -0.080000 0.120000 0.160000
v -0.080000 0.280000 0.160000
v 0.072000 0.128000 0.192000
v 0.072000 0.272000 0.192000
v 0.080000 0.120000 0.160000
v 0.080000 0.280000 0.160000
v -0.191999 0.128000 -0.072000
v -0.191999 0.272000 -0.072000
v -0.159999 0.120000 -0.080000
v -0.159999 0.280000 -0.080000
v -0.191999 0.128000 0.072000
v -0.191999 0.272000 0.072000
v -0.159999 0.120000 0.080000
v -0.159999 0.280000 0.080000
v 0.072000 0.128000 -0.191999
v 0.072000 0.272000 -0.191999
v 0.080000 0.120000 -0.159999
v 0.080000 0.280000 -0.159999
v -0.072000 0.128000 -0.191999
v -0.072000 0.272000 -0.191999
v -0.080000 0.120000 -0.159999
v -0.080000 0.280000 -0.159999
v 0.191999 0.128000 0.072000
v 0.191999 0.272000 0.072000
v 0.159999 0.120000 0.080000
v 0.159999 0.280000 0.080000
v 0.191999 0.128000 -0.072000
v 0.191999 0.272000 -0.072000
v 0.159999 0.120000 -0.080000
v 0.159999 0.280000 -0.080000
v -0.072000 0.008000 -0.072000
v -0.072000 0.008000 0.072000
v -0.080000 0.040000 -0.080000
v -0.080000 0.040000 0.080000
v 0.072000 0.008000 -0.072000
v 0.072000 0.008000 0.072000
v 0.080000 0.040000 -0.080000
v 0.080000 0.040000 0.080000
v -0.072000 0.392000 0.072000
v -0.072000 0.392000 -0.072000
v -0.080000 0.360000 0.080000
v -0.080000 0.360000 -0.080000
v 0.072000 0.392000 0.072000
v 0.072000 0.392000 -0.072000
v 0.080000 0.360000 0.080000
v 0.080000 0.360000 -0.080000
vt 0.179209 0.397969
vt 0.179209 0.414533
vt 0.178288 0.415453
vt 0.178288 0.397049
vt 0.196710 0.397049
vt 0.196710 0.415453
vt 0.195789 0.414533
vt 0.195789 0.397969
vt 0.178288 0.375256
vt 0.196710 0.375256
vt 0.195789 0.376176
vt 0.179209 0.376176
vt 0.196710 0.437246
vt 0.178288 0.437246
vt 0.179209 0.436326
vt 0.195789 0.436326
vt 0.165393 0.397969
vt 0.165393 0.414533
vt 0.169077 0.415453
vt 0.169077 0.397049
vt 0.169077 0.397049
vt 0.169077 0.415453
vt 0.165393 0.414533
vt 0.165393 0.397969
vt 0.169077 0.375256
vt 0.169077 0.375256
vt 0.165393 0.376176
vt 0.165393 0.376176
vt 0.169077 0.437246
vt 0.169077 0.437246
vt 0.165393 0.436326
vt 0.165393 0.436326
vt 0.195789 0.397969
vt 0.195789 0.414533
vt 0.196710 0.415453
vt 0.196710 0.397049
vt 0.178288 0.397049
vt 0.178288 0.415453
vt 0.179209 0.414533
vt 0.179209 0.397969
vt 0.196710 0.375256
vt 0.178288 0.375256
vt 0.179209 0.376176
vt 0.195789 0.376176
vt 0.178288 0.437246
vt 0.196710 0.437246
vt 0.195789 0.436326
vt 0.179209 0.436326
vt 0.209606 0.397969
vt 0.209606 0.414533
vt 0.205921 0.415453
vt 0.205921 0.397049
vt 0.205921 0.397049
vt 0.205921 0.415453
vt 0.209606 0.414533
vt 0.209606 0.397969
vt 0.205921 0.375256
vt 0.205921 0.375256
vt 0.209606 0.376176
vt 0.209606 0.376176
vt 0.205921 0.437246
vt 0.205921 0.437246
vt 0.209606 0.436326
vt 0.209606 0.436326
vt 0.179209 0.384166
vt 0.179209 0.384166
vt 0.178288 0.387846
vt 0.178288 0.387847
vt 0.196710 0.387847
vt 0.196710 0.387846
vt 0.195789 0.384166
vt 0.195789 0.384166
vt 0.195789 0.362373
vt 0.195789 0.362373
vt 0.179209 0.362373
vt 0.179209 0.362373
vt 0.179209 0.428336
vt 0.179209 0.428336
vt 0.178288 0.424655
vt 0.178288 0.424655
vt 0.196710 0.424655
vt 0.196710 0.424655
vt 0.195789 0.428336
vt 0.195789 0.428336
vt 0.195789 0.450129
vt 0.195789 0.450129
vt 0.179209 0.450129
vt 0.179209 0.450129
vt 0.173683 0.420054
vt 0.173683 0.392448
vt 0.173683 0.392448
vt 0.173683 0.420054
vt 0.201316 0.370655
vt 0.173683 0.370655
vt 0.173683 0.370655
vt 0.201316 0.370655
vt 0.201316 0.451049
vt 0.201316 0.451049
vt 0.201316 0.446448
vt 0.201316 0.446448
vt 0.164471 0.370655
vt 0.164471 0.370655
vt 0.169077 0.370655
vt 0.169077 0.370655
vt 0.201316 0.441847
vt 0.173683 0.441847
vt 0.173683 0.441847
vt 0.201316 0.441847
vt 0.169077 0.361453
vt 0.169077 0.366054
vt 0.164471 0.366054
vt 0.169077 0.446448
vt 0.169077 0.451049
vt 0.164471 0.446448
vt 0.169077 0.361453
vt 0.164471 0.366054
vt 0.169077 0.366054
vt 0.169077 0.451049
vt 0.169077 0.446448
vt 0.164471 0.446448
vt 0.205921 0.361453
vt 0.210527 0.366054
vt 0.205921 0.366054
vt 0.205921 0.451049
vt 0.205921 0.446448
vt 0.210527 0.446448
vt 0.205921 0.361453
vt 0.205921 0.366054
vt 0.210527 0.366054
vt 0.205921 0.451049
vt 0.210527 0.446448
vt 0.205921 0.446448
vt 0.169077 0.387846
vt 0.169077 0.424655
vt 0.164471 0.424655
vt 0.164471 0.387846
vt 0.169077 0.424655
vt 0.169077 0.387846
vt 0.164471 0.387846
vt 0.164471 0.424655
vt 0.210527 0.424655
vt 0.210527 0.387846
vt 0.205921 0.387846
vt 0.205921 0.424655
vt 0.205921 0.424655
vt 0.205921 0.387846
vt 0.210527 0.387846
vt 0.210527 0.424655
vt 0.173683 0.361453
vt 0.201316 0.361453
vt 0.201316 0.366054
vt 0.173683 0.366054
vt 0.173683 0.361453
vt 0.164471 0.392448
vt 0.164471 0.392448
vt 0.164471 0.420054
vt 0.173683 0.451049
vt 0.173683 0.451049
vt 0.164471 0.420054
vt 0.173683 0.420054
vt 0.173683 0.392448
vt 0.201316 0.392448
vt 0.201316 0.420054
vt 0.210527 0.420054
vt 0.210527 0.392448
vt 0.201316 0.361453
vt 0.210527 0.392448
vt 0.210527 0.420054
vt 0.201316 0.420054
vt 0.201316 0.392448
vt 0.582312 0.855208
vt 0.582312 0.894794
vt 0.542687 0.894794
vt 0.542687 0.855208
vt 0.588916 0.855208
vt 0.588916 0.894794
vt 0.588916 0.894794
vt 0.588916 0.855208
vt 0.582312 0.932642
vt 0.542687 0.932642
vt 0.542687 0.932642
vt 0.582312 0.932642
vt 0.536082 0.855208
vt 0.536082 0.894794
vt 0.536082 0.894794
vt 0.536082 0.855208
vt 0.542687 0.855208
vt 0.542687 0.894794
vt 0.582312 0.894794
vt 0.582312 0.855208
vt 0.542687 0.817360
vt 0.582312 0.817360
vt 0.582312 0.817360
vt 0.542687 0.817360
vt 0.210527 0.441847
vt 0.210527 0.441847
vt 0.205921 0.441847
vt 0.205921 0.441847
vt 0.173683 0.446448
vt 0.169077 0.420054
vt 0.169077 0.392448
vt 0.201316 0.420054
vt 0.201316 0.392448
vt 0.173683 0.441847
vt 0.201316 0.441847
vt 0.201316 0.441847
vt 0.173683 0.441847
vt 0.173683 0.446448
vt 0.205921 0.392448
vt 0.205921 0.420054
vt 0.205921 0.420054
vt 0.205921 0.392448
vt 0.164471 0.441847
vt 0.164471 0.441847
vt 0.169077 0.441847
vt 0.169077 0.441847
vt 0.173683 0.366054
vt 0.201316 0.366054
vt 0.201316 0.392448
vt 0.201316 0.420054
vt 0.173683 0.420054
vt 0.173683 0.392448
vt 0.173683 0.370655
vt 0.201316 0.370655
vt 0.201316 0.370655
vt 0.173683 0.370655
vt 0.169077 0.392448
vt 0.169077 0.420054
vt 0.210527 0.370655
vt 0.210527 0.370655
vt 0.205921 0.370655
vt 0.205921 0.370655
vn -0.9701 -0.0000 0.2425
vn 0.9701 -0.0000 0.2425
vn 0.0000 -0.0000 1.0000
vn 0.0000 -0.9701 0.2425
vn 0.0000 0.9701 0.2425
vn -0.2425 0.0000 -0.9701
vn -0.2425 -0.0000 0.9701
vn -1.0000 0.0000 -0.0000
vn -0.2425 -0.9701 -0.0000
vn -0.2425 0.9701 0.0000
vn 0.9701 0.0000 -0.2425
vn -0.9701 0.0000 -0.2425
vn 0.0000 0.0000 -1.0000
vn 0.0000 -0.9701 -0.2425
vn 0.0000 0.9701 -0.2425
vn 0.2425 -0.0000 0.9701
vn 0.2425 0.0000 -0.9701
vn 1.0000 -0.0000 0.0000
vn 0.2425 -0.9701 -0.0000
vn 0.2425 0.9701 0.0000
vn -0.9701 -0.2425 -0.0000
vn 0.9701 -0.2425 -0.0000
vn 0.0000 -1.0000 -0.0000
vn 0.0000 -0.2425 -0.9701
vn 0.0000 -0.2425 0.9701
vn -0.9701 0.2425 0.0000
vn 0.9701 0.2425 0.0000
vn 0.0000 1.0000 0.0000
vn 0.0000 0.2425 0.9701
vn 0.0000 0.2425 -0.9701
vn 0.9578 -0.0000 0.2873
vn 0.0000 0.9578 -0.2873
vn -0.9578 0.2873 0.0000
vn -0.2873 0.9578 0.0000
vn 0.0000 -0.9578 0.2873
vn -0.3416 -0.8756 0.3416
vn -0.3416 -0.3416 0.8756
vn -0.8756 -0.3416 0.3416
vn -0.3416 0.3416 0.8756
vn -0.3416 0.8756 0.3416
vn -0.8756 0.3416 0.3416
vn -0.3416 -0.8756 -0.3416
vn -0.8756 -0.3416 -0.3416
vn -0.3416 -0.3416 -0.8756
vn -0.3416 0.8756 -0.3416
vn -0.3416 0.3416 -0.8756
vn -0.8756 0.3416 -0.3416
vn 0.3416 -0.8756 0.3416
vn 0.8756 -0.3416 0.3416
vn 0.3416 -0.3416 0.8756
vn 0.3416 0.8756 0.3416
vn 0.3416 0.3416 0.8756
vn 0.8756 0.3416 0.3416
vn 0.3416 -0.8756 -0.3416
vn 0.3416 -0.3416 -0.8756
vn 0.8756 -0.3416 -0.3416
vn 0.3416 0.8756 -0.3416
vn 0.8756 0.3416 -0.3416
vn 0.3416 0.3416 -0.8756
vn 0.0000 -0.2873 0.9578
vn 0.2873 -0.9578 -0.0000
vn 0.0000 0.2873 0.9578
vn -0.2873 0.0000 -0.9578
vn -0.9578 -0.0000 0.2873
vn 0.0000 -0.9578 -0.2873
vn 0.9578 0.2873 0.0000
vn 0.2873 0.0000 -0.9578
vn 0.2873 -0.0000 0.9578
vn -0.2873 -0.9578 -0.0000
vn 0.0000 -0.2873 -0.9578
vn -0.9578 0.0000 -0.2873
vn 0.9578 0.0000 -0.2873
vn 0.0000 0.9578 0.2873
vn -0.9578 -0.2873 -0.0000
vn -0.2873 -0.0000 0.9578
vn 0.0000 0.2873 -0.9578
vn 0.9578 -0.2873 -0.0000
vn 0.2873 0.9578 0.0000
usemtl tiny_treats_1
s off
f 73/1/1 74/2/1 76/3/1 75/4/1
f 79/5/2 80/6/2 78/7/2 77/8/2
f 77/8/3 78/7/3 74/2/3 73/1/3
f 75/9/4 79/10/4 77/11/4 73/12/4
f 80/13/5 76/14/5 74/15/5 78/16/5
f 81/17/6 82/18/6 84/19/6 83/20/6
f 87/21/7 88/22/7 86/23/7 85/24/7
f 85/24/8 86/23/8 82/18/8 81/17/8
f 83/25/9 87/26/9 85/27/9 81/28/9
f 88/29/10 84/30/10 82/31/10 86/32/10
f 89/33/11 90/34/11 92/35/11 91/36/11
f 95/37/12 96/38/12 94/39/12 93/40/12
f 93/40/13 94/39/13 90/34/13 89/33/13
f 91/41/14 95/42/14 93/43/14 89/44/14
f 96/45/15 92/46/15 90/47/15 94/48/15
f 97/49/16 98/50/16 100/51/16 99/52/16
f 103/53/17 104/54/17 102/55/17 101/56/17
f 101/56/18 102/55/18 98/50/18 97/49/18
f 99/57/19 103/58/19 101/59/19 97/60/19
f 104/61/20 100/62/20 98/63/20 102/64/20
f 105/65/21 106/66/21 108/67/21 107/68/21
f 111/69/22 112/70/22 110/71/22 109/72/22
f 109/73/23 110/74/23 106/75/23 105/76/23
f 107/68/24 111/69/24 109/72/24 105/65/24
f 112/70/25 108/67/25 106/66/25 110/71/25
f 113/77/26 114/78/26 116/79/26 115/80/26
f 119/81/27 120/82/27 118/83/27 117/84/27
f 117/85/28 118/86/28 114/87/28 113/88/28
f 115/80/29 119/81/29 117/84/29 113/77/29
f 120/82/30 116/79/30 114/78/30 118/83/30
s 1
f 4/89/31 2/90/31 53/91/31 54/92/31
f 20/93/32 9/94/32 60/95/32 62/96/32
f 16/97/33 22/98/33 63/99/33 69/100/33
f 8/101/34 3/102/34 51/103/34 52/104/34
f 17/105/35 4/106/35 54/107/35 71/108/35
f 26/109/36 29/110/37 27/111/38
f 30/112/39 32/113/40 31/114/41
f 25/115/42 28/116/43 36/117/44
f 33/118/45 35/119/46 34/120/47
f 43/121/48 44/122/49 48/123/50
f 45/124/51 47/125/52 46/126/53
f 37/127/54 38/128/55 42/129/56
f 39/130/57 41/131/58 40/132/59
f 25/115/42 26/109/36 27/111/38 28/116/43
f 29/133/37 30/134/39 31/135/41 27/136/38
f 32/113/40 33/118/45 34/120/47 31/114/41
f 35/137/46 36/138/44 28/139/43 34/140/47
f 37/127/54 25/115/42 36/117/44 38/128/55
f 33/118/45 39/130/57 40/132/59 35/119/46
f 41/141/58 42/142/56 38/143/55 40/144/59
f 43/121/48 37/127/54 42/129/56 44/122/49
f 39/130/57 45/124/51 46/126/53 41/131/58
f 47/145/52 48/146/50 44/147/49 46/148/53
f 26/109/36 43/121/48 48/123/50 29/110/37
f 45/124/51 32/113/40 30/112/39 47/125/52
f 7/149/60 19/150/60 61/151/60 49/152/60
f 7/149/23 1/153/23 26/109/36 25/115/42
f 3/154/8 8/155/8 28/139/43 27/136/38
f 2/90/3 4/89/3 30/134/39 29/133/37
f 6/156/8 3/154/8 27/136/38 31/135/41
f 5/157/28 10/158/28 33/118/45 32/113/40
f 12/159/8 6/156/8 31/135/41 34/140/47
f 11/160/13 9/161/13 36/138/44 35/137/46
f 8/155/8 12/159/8 34/140/47 28/139/43
f 19/150/23 7/149/23 25/115/42 37/127/54
f 9/161/13 20/162/13 38/143/55 36/138/44
f 10/158/28 22/98/28 39/130/57 33/118/45
f 24/163/13 11/160/13 35/137/46 40/144/59
f 23/164/18 21/165/18 42/142/56 41/141/58
f 20/162/13 24/163/13 40/144/59 38/143/55
f 13/166/23 19/150/23 37/127/54 43/121/48
f 21/165/18 14/167/18 44/147/49 42/142/56
f 22/98/28 16/97/28 45/124/51 39/130/57
f 18/168/18 23/164/18 41/141/58 46/148/53
f 17/169/3 15/170/3 48/146/50 47/145/52
f 14/167/18 18/168/18 46/148/53 44/147/49
f 1/153/23 13/166/23 43/121/48 26/109/36
f 15/170/3 2/90/3 29/133/37 48/146/50
f 16/97/28 5/157/28 32/113/40 45/124/51
f 4/89/3 17/169/3 47/145/52 30/134/39
f 72/171/3 71/172/3 54/173/3 53/174/3
f 66/175/18 65/176/18 70/177/18 68/178/18
f 63/179/28 57/180/28 56/181/28 69/182/28
f 51/183/8 55/184/8 58/185/8 52/186/8
f 60/187/13 59/188/13 64/189/13 62/190/13
f 49/191/23 61/192/23 67/193/23 50/194/23
f 23/195/61 18/196/61 70/197/61 65/198/61
f 22/98/62 10/158/62 57/199/62 63/99/62
f 3/154/63 6/156/63 55/200/63 51/201/63
f 15/170/64 17/169/64 71/202/64 72/203/64
f 11/204/65 24/205/65 64/206/65 59/207/65
f 10/158/66 5/157/66 56/208/66 57/199/66
f 18/168/67 14/167/67 68/209/67 70/210/67
f 21/165/68 23/164/68 65/211/68 66/212/68
f 6/213/69 12/214/69 58/215/69 55/216/69
f 13/166/70 1/153/70 50/217/70 67/218/70
f 24/163/71 20/162/71 62/219/71 64/220/71
f 9/161/72 11/160/72 59/221/72 60/222/72
f 2/223/73 15/224/73 72/225/73 53/226/73
f 19/150/74 13/166/74 67/218/74 61/151/74
f 12/159/75 8/155/75 52/227/75 58/228/75
f 5/157/76 16/97/76 69/100/76 56/208/76
f 1/153/77 7/149/77 49/152/77 50/217/77
f 14/229/78 21/230/78 66/231/78 68/232/78
