# Blender v3.4.1 OBJ File: 'Tiny_treats_Playful_Bedroom_1.1_ASSETS_EXPORT.blend'
# www.blender.org
mtllib play_block_E.mtl
o play_block_E
v -0.128000 -0.000000 0.128000
v -0.128000 0.072000 0.200000
v -0.200000 0.072000 0.128000
v -0.128000 0.327999 0.200000
v -0.128000 0.399999 0.128000
v -0.200000 0.327999 0.128000
v -0.128000 0.000000 -0.128000
v -0.200000 0.072000 -0.128000
v -0.128000 0.072000 -0.199999
v -0.128000 0.399999 -0.128000
v -0.128000 0.327999 -0.199999
v -0.200000 0.327999 -0.128000
v 0.128000 -0.000000 0.128000
v 0.200000 0.072000 0.128000
v 0.128000 0.072000 0.200000
v 0.128000 0.399999 0.128000
v 0.128000 0.327999 0.200000
v 0.200000 0.327999 0.128000
v 0.128000 0.000000 -0.128000
v 0.128000 0.072000 -0.199999
v 0.200000 0.072000 -0.128000
v 0.128000 0.399999 -0.128000
v 0.200000 0.327999 -0.128000
v 0.128000 0.327999 -0.199999
v -0.160000 0.000000 -0.160000
v -0.160000 -0.000000 0.160000
v -0.200000 0.040000 0.160000
v -0.200000 0.040000 -0.160000
v -0.160000 0.040000 0.200000
v -0.160000 0.359999 0.200000
v -0.200000 0.359999 0.160000
v -0.160000 0.399999 0.160000
v -0.160000 0.399999 -0.160000
v -0.200000 0.359999 -0.160000
v -0.160000 0.359999 -0.199999
v -0.160000 0.040000 -0.200000
v 0.160000 0.000000 -0.160000
v 0.160000 0.040000 -0.200000
v 0.160000 0.399999 -0.160000
v 0.160000 0.359999 -0.199999
v 0.200000 0.359999 -0.160000
v 0.200000 0.040000 -0.160000
v 0.160000 -0.000000 0.160000
v 0.200000 0.040000 0.160000
v 0.160000 0.399999 0.160000
v 0.200000 0.359999 0.160000
v 0.160000 0.359999 0.200000
v 0.160000 0.040000 0.200000
v -0.116000 0.040000 -0.116000
v -0.116000 0.040000 0.116000
v -0.160000 0.084000 0.116000
v -0.160000 0.084000 -0.116000
v -0.116000 0.084000 0.160000
v -0.116000 0.315999 0.160000
v -0.160000 0.315999 0.116000
v -0.116000 0.359999 0.116000
v -0.116000 0.359999 -0.116000
v -0.160000 0.315999 -0.116000
v -0.116000 0.315999 -0.160000
v -0.116000 0.084000 -0.160000
v 0.116000 0.040000 -0.116000
v 0.116000 0.084000 -0.160000
v 0.116000 0.359999 -0.116000
v 0.116000 0.315999 -0.160000
v 0.160000 0.315999 -0.116000
v 0.160000 0.084000 -0.116000
v 0.116000 0.040000 0.116000
v 0.160000 0.084000 0.116000
v 0.116000 0.359999 0.116000
v 0.160000 0.315999 0.116000
v 0.116000 0.315999 0.160000
v 0.116000 0.084000 0.160000
v 0.058562 0.258563 0.159999
v -0.000002 0.199999 0.191999
v 0.079998 0.221435 0.159999
v 0.079998 0.178564 0.159999
v 0.058562 0.141436 0.159999
v 0.021434 0.120000 0.159999
v -0.021437 0.120000 0.159999
v -0.058566 0.141436 0.159999
v -0.080001 0.178564 0.159999
v -0.080001 0.221435 0.159999
v -0.058566 0.258563 0.159999
v -0.021437 0.279999 0.159999
v 0.021434 0.279999 0.159999
v 0.071998 0.219292 0.191999
v 0.052706 0.252707 0.191999
v 0.071998 0.180707 0.191999
v 0.052706 0.147292 0.191999
v 0.019291 0.128000 0.191999
v -0.019294 0.128000 0.191999
v -0.052709 0.147292 0.191999
v -0.072001 0.180707 0.191999
v -0.072001 0.219292 0.191999
v -0.052709 0.252707 0.191999
v -0.019294 0.271999 0.191999
v 0.019291 0.271999 0.191999
v 0.159999 0.258563 -0.058562
v 0.191999 0.199999 0.000002
v 0.159999 0.221435 -0.079998
v 0.159999 0.178564 -0.079998
v 0.159999 0.141436 -0.058562
v 0.159999 0.120000 -0.021434
v 0.159999 0.120000 0.021438
v 0.159999 0.141436 0.058566
v 0.159999 0.178564 0.080001
v 0.159999 0.221435 0.080001
v 0.159999 0.258563 0.058566
v 0.159999 0.279999 0.021438
v 0.159999 0.279999 -0.021434
v 0.191999 0.219292 -0.071998
v 0.191999 0.252707 -0.052706
v 0.191999 0.180707 -0.071998
v 0.191999 0.147292 -0.052706
v 0.191999 0.128000 -0.019291
v 0.191999 0.128000 0.019294
v 0.191999 0.147292 0.052709
v 0.191999 0.180707 0.072001
v 0.191999 0.219292 0.072001
v 0.191999 0.252707 0.052709
v 0.191999 0.271999 0.019294
v 0.191999 0.271999 -0.019291
v -0.058562 0.258563 -0.159999
v 0.000002 0.200000 -0.191999
v -0.079998 0.221435 -0.159999
v -0.079998 0.178564 -0.159999
v -0.058562 0.141436 -0.159999
v -0.021434 0.120000 -0.159999
v 0.021437 0.120000 -0.159999
v 0.058566 0.141436 -0.159999
v 0.080001 0.178564 -0.159999
v 0.080001 0.221435 -0.159999
v 0.058566 0.258563 -0.159999
v 0.021437 0.279999 -0.159999
v -0.021434 0.279999 -0.159999
v -0.071998 0.219292 -0.191999
v -0.052706 0.252707 -0.191999
v -0.071998 0.180707 -0.191999
v -0.052706 0.147292 -0.191999
v -0.019291 0.128000 -0.191999
v 0.019294 0.128000 -0.191999
v 0.052709 0.147292 -0.191999
v 0.072001 0.180707 -0.191999
v 0.072001 0.219292 -0.191999
v 0.052709 0.252707 -0.191999
v 0.019294 0.271999 -0.191999
v -0.019291 0.271999 -0.191999
v -0.159999 0.258563 0.058562
v -0.191999 0.199999 -0.000002
v -0.159999 0.221435 0.079998
v -0.159999 0.178564 0.079998
v -0.159999 0.141436 0.058562
v -0.159999 0.120000 0.021434
v -0.159999 0.120000 -0.021437
v -0.159999 0.141436 -0.058566
v -0.159999 0.178564 -0.080001
v -0.159999 0.221435 -0.080001
v -0.159999 0.258563 -0.058565
v -0.159999 0.279999 -0.021437
v -0.159999 0.279999 0.021434
v -0.191999 0.219292 0.071998
v -0.191999 0.252707 0.052706
v -0.191999 0.180707 0.071998
v -0.191999 0.147292 0.052706
v -0.191999 0.128000 0.019291
v -0.191999 0.128000 -0.019294
v -0.191999 0.147292 -0.052709
v -0.191999 0.180707 -0.072001
v -0.191999 0.219292 -0.072001
v -0.191999 0.252707 -0.052709
v -0.191999 0.271999 -0.019294
v -0.191999 0.271999 0.019291
v 0.058562 0.040000 0.058564
v -0.000002 0.008000 -0.000000
v 0.079998 0.040000 0.021436
v 0.079998 0.040000 -0.021436
v 0.058562 0.040000 -0.058564
v 0.021434 0.040000 -0.080000
v -0.021437 0.040000 -0.080000
v -0.058566 0.040000 -0.058564
v -0.080001 0.040000 -0.021436
v -0.080001 0.040000 0.021436
v -0.058566 0.040000 0.058564
v -0.021437 0.040000 0.080000
v 0.021434 0.040000 0.080000
v 0.071998 0.008000 0.019292
v 0.052706 0.008000 0.052708
v 0.071998 0.008000 -0.019292
v 0.052706 0.008000 -0.052708
v 0.019291 0.008000 -0.072000
v -0.019294 0.008000 -0.072000
v -0.052709 0.008000 -0.052708
v -0.072001 0.008000 -0.019292
v -0.072001 0.008000 0.019292
v -0.052709 0.008000 0.052708
v -0.019294 0.008000 0.072000
v 0.019291 0.008000 0.072000
v 0.058562 0.359999 -0.058564
v -0.000002 0.391999 0.000000
v 0.079998 0.359999 -0.021436
v 0.079998 0.359999 0.021436
v 0.058562 0.359999 0.058564
v 0.021434 0.359999 0.080000
v -0.021437 0.359999 0.080000
v -0.058566 0.359999 0.058564
v -0.080001 0.359999 0.021436
v -0.080001 0.359999 -0.021436
v -0.058566 0.359999 -0.058564
v -0.021437 0.359999 -0.080000
v 0.021434 0.359999 -0.080000
v 0.071998 0.391999 -0.019292
v 0.052706 0.391999 -0.052707
v 0.071998 0.391999 0.019292
v 0.052706 0.391999 0.052708
v 0.019291 0.391999 0.072000
v -0.019294 0.391999 0.072000
v -0.052709 0.391999 0.052708
v -0.072001 0.391999 0.019292
v -0.072001 0.391999 -0.019292
v -0.052709 0.391999 -0.052707
v -0.019294 0.391999 -0.072000
v 0.019291 0.391999 -0.072000
vt 0.049299 0.669438
vt 0.049299 0.643063
vt 0.049299 0.643063
vt 0.049299 0.669438
vt 0.075700 0.622242
vt 0.049299 0.622242
vt 0.049299 0.622242
vt 0.075700 0.622242
vt 0.075700 0.699051
vt 0.075700 0.699051
vt 0.075700 0.694655
vt 0.075700 0.694655
vt 0.040498 0.622242
vt 0.040498 0.622242
vt 0.044899 0.622242
vt 0.044899 0.622242
vt 0.075700 0.690259
vt 0.049299 0.690259
vt 0.049299 0.690259
vt 0.075700 0.690259
vt 0.044899 0.613450
vt 0.044899 0.617846
vt 0.040498 0.617846
vt 0.044899 0.694655
vt 0.044899 0.699051
vt 0.040498 0.694655
vt 0.044899 0.613450
vt 0.040498 0.617846
vt 0.044899 0.617846
vt 0.044899 0.699051
vt 0.044899 0.694655
vt 0.040498 0.694655
vt 0.080100 0.613450
vt 0.084500 0.617846
vt 0.080100 0.617846
vt 0.080100 0.699051
vt 0.080100 0.694655
vt 0.084500 0.694655
vt 0.080100 0.613450
vt 0.080100 0.617846
vt 0.084500 0.617846
vt 0.080100 0.699051
vt 0.084500 0.694655
vt 0.080100 0.694655
vt 0.044899 0.638667
vt 0.044899 0.673834
vt 0.040498 0.673834
vt 0.040498 0.638667
vt 0.044899 0.673834
vt 0.044899 0.638667
vt 0.040498 0.638667
vt 0.040498 0.673834
vt 0.084500 0.673834
vt 0.084500 0.638667
vt 0.080100 0.638667
vt 0.080100 0.673834
vt 0.080100 0.673834
vt 0.080100 0.638667
vt 0.084500 0.638667
vt 0.084500 0.673834
vt 0.049299 0.613450
vt 0.075700 0.613450
vt 0.075700 0.617846
vt 0.049299 0.617846
vt 0.049299 0.613450
vt 0.040498 0.643063
vt 0.040498 0.643063
vt 0.040498 0.669438
vt 0.049299 0.699051
vt 0.049299 0.699051
vt 0.040498 0.669438
vt 0.049299 0.669438
vt 0.049299 0.643063
vt 0.075700 0.643063
vt 0.075700 0.669438
vt 0.084500 0.669438
vt 0.084500 0.643063
vt 0.075700 0.613450
vt 0.084500 0.643063
vt 0.084500 0.669438
vt 0.075700 0.669438
vt 0.075700 0.643063
vt 0.582312 0.855208
vt 0.582312 0.894794
vt 0.542687 0.894794
vt 0.542687 0.855208
vt 0.588916 0.855208
vt 0.588916 0.894794
vt 0.588916 0.894794
vt 0.588916 0.855208
vt 0.582312 0.932642
vt 0.542687 0.932642
vt 0.542687 0.932642
vt 0.582312 0.932642
vt 0.536082 0.855208
vt 0.536082 0.894794
vt 0.536082 0.894794
vt 0.536082 0.855208
vt 0.542687 0.855208
vt 0.542687 0.894794
vt 0.582312 0.894794
vt 0.582312 0.855208
vt 0.542687 0.817360
vt 0.582312 0.817360
vt 0.582312 0.817360
vt 0.542687 0.817360
vt 0.084500 0.690259
vt 0.084500 0.690259
vt 0.080100 0.690259
vt 0.080100 0.690259
vt 0.049299 0.694655
vt 0.044899 0.669438
vt 0.044899 0.643063
vt 0.075700 0.669438
vt 0.075700 0.643063
vt 0.049299 0.690259
vt 0.075700 0.690259
vt 0.075700 0.690259
vt 0.049299 0.690259
vt 0.049299 0.694655
vt 0.080100 0.643063
vt 0.080100 0.669438
vt 0.080100 0.669438
vt 0.080100 0.643063
vt 0.040498 0.690259
vt 0.040498 0.690259
vt 0.044899 0.690259
vt 0.044899 0.690259
vt 0.049299 0.617846
vt 0.075700 0.617846
vt 0.075700 0.643063
vt 0.075700 0.669438
vt 0.049299 0.669438
vt 0.049299 0.643063
vt 0.049299 0.622242
vt 0.075700 0.622242
vt 0.075700 0.622242
vt 0.049299 0.622242
vt 0.044899 0.643063
vt 0.044899 0.669438
vt 0.084500 0.622242
vt 0.084500 0.622242
vt 0.080100 0.622242
vt 0.080100 0.622242
vt 0.071704 0.665445
vt 0.070783 0.664525
vt 0.073815 0.659279
vt 0.075072 0.659616
vt 0.073815 0.653221
vt 0.075072 0.652884
vt 0.070783 0.647975
vt 0.071704 0.647055
vt 0.065532 0.644946
vt 0.065869 0.643689
vt 0.059468 0.644946
vt 0.059131 0.643689
vt 0.054216 0.647975
vt 0.053296 0.647055
vt 0.051184 0.653221
vt 0.049927 0.652884
vt 0.051184 0.659279
vt 0.049927 0.659616
vt 0.054216 0.664525
vt 0.053296 0.665445
vt 0.059468 0.667554
vt 0.059131 0.668810
vt 0.065532 0.667554
vt 0.065869 0.668810
vt 0.062500 0.656250
vt 0.087645 0.665445
vt 0.092674 0.664525
vt 0.092674 0.659279
vt 0.087645 0.659616
vt 0.092674 0.653221
vt 0.087645 0.652884
vt 0.092674 0.647975
vt 0.087645 0.647055
vt 0.092674 0.644946
vt 0.087645 0.643689
vt 0.092674 0.644946
vt 0.087645 0.643689
vt 0.092674 0.647975
vt 0.087645 0.647055
vt 0.092674 0.653221
vt 0.087645 0.652884
vt 0.092674 0.659279
vt 0.087645 0.659616
vt 0.092674 0.664525
vt 0.087645 0.665445
vt 0.092674 0.667554
vt 0.087645 0.668810
vt 0.092674 0.667554
vt 0.087645 0.668810
vt 0.092674 0.656250
vt 0.053296 0.665445
vt 0.054217 0.664525
vt 0.051185 0.659279
vt 0.049927 0.659616
vt 0.051185 0.653221
vt 0.049927 0.652884
vt 0.054217 0.647975
vt 0.053296 0.647055
vt 0.059468 0.644946
vt 0.059131 0.643689
vt 0.065532 0.644946
vt 0.065869 0.643689
vt 0.070784 0.647975
vt 0.071704 0.647055
vt 0.073816 0.653221
vt 0.075073 0.652884
vt 0.073816 0.659279
vt 0.075073 0.659616
vt 0.070784 0.664525
vt 0.071704 0.665445
vt 0.065532 0.667554
vt 0.065869 0.668810
vt 0.059468 0.667554
vt 0.059131 0.668810
vt 0.062500 0.656250
vt 0.037355 0.665445
vt 0.032326 0.664525
vt 0.032326 0.659279
vt 0.037355 0.659616
vt 0.032326 0.653221
vt 0.037355 0.652884
vt 0.032326 0.647975
vt 0.037355 0.647055
vt 0.032326 0.644946
vt 0.037355 0.643689
vt 0.032326 0.644946
vt 0.037355 0.643689
vt 0.032326 0.647975
vt 0.037355 0.647055
vt 0.032326 0.653221
vt 0.037355 0.652884
vt 0.032326 0.659279
vt 0.037355 0.659616
vt 0.032326 0.664525
vt 0.037355 0.665445
vt 0.032326 0.667554
vt 0.037355 0.668810
vt 0.032326 0.667554
vt 0.037355 0.668810
vt 0.032326 0.656250
vt 0.071704 0.631129
vt 0.070783 0.626105
vt 0.073815 0.626105
vt 0.075072 0.631129
vt 0.073815 0.626105
vt 0.075072 0.631129
vt 0.070783 0.626105
vt 0.071704 0.631129
vt 0.065532 0.626105
vt 0.065869 0.631129
vt 0.059468 0.626105
vt 0.059131 0.631129
vt 0.054216 0.626105
vt 0.053296 0.631129
vt 0.051184 0.626105
vt 0.049927 0.631129
vt 0.051184 0.626105
vt 0.049927 0.631129
vt 0.054216 0.626105
vt 0.053296 0.631129
vt 0.059468 0.626105
vt 0.059131 0.631129
vt 0.065532 0.626105
vt 0.065869 0.631129
vt 0.062500 0.605284
vt 0.073815 0.605284
vt 0.070783 0.605284
vt 0.073815 0.605284
vt 0.070783 0.605284
vt 0.065532 0.605284
vt 0.059468 0.605284
vt 0.054216 0.605284
vt 0.051184 0.605284
vt 0.051184 0.605284
vt 0.054216 0.605284
vt 0.059468 0.605284
vt 0.065532 0.605284
vt 0.071704 0.681371
vt 0.070783 0.686395
vt 0.073815 0.686395
vt 0.075072 0.681371
vt 0.073815 0.686395
vt 0.075072 0.681371
vt 0.070783 0.686395
vt 0.071704 0.681371
vt 0.065532 0.686395
vt 0.065869 0.681371
vt 0.059468 0.686395
vt 0.059131 0.681371
vt 0.054216 0.686395
vt 0.053296 0.681371
vt 0.051184 0.686395
vt 0.049927 0.681371
vt 0.051184 0.686395
vt 0.049927 0.681371
vt 0.054216 0.686395
vt 0.053296 0.681371
vt 0.059468 0.686395
vt 0.059131 0.681371
vt 0.065532 0.686395
vt 0.065869 0.681371
vt 0.062500 0.707216
vt 0.073815 0.707216
vt 0.070783 0.707216
vt 0.073815 0.707216
vt 0.070783 0.707216
vt 0.065532 0.707216
vt 0.059468 0.707216
vt 0.054216 0.707216
vt 0.051184 0.707216
vt 0.051184 0.707216
vt 0.054216 0.707216
vt 0.059468 0.707216
vt 0.065532 0.707216
vn 0.9578 -0.0000 0.2873
vn 0.0000 0.9578 -0.2873
vn -0.9578 0.2873 0.0000
vn -0.2873 0.9578 0.0000
vn 0.0000 -0.9578 0.2873
vn -0.3416 -0.8756 0.3416
vn -0.3416 -0.3416 0.8756
vn -0.8756 -0.3416 0.3416
vn -0.3416 0.3416 0.8756
vn -0.3416 0.8756 0.3416
vn -0.8756 0.3416 0.3416
vn -0.3416 -0.8756 -0.3416
vn -0.8756 -0.3416 -0.3416
vn -0.3416 -0.3416 -0.8756
vn -0.3416 0.8756 -0.3416
vn -0.3416 0.3416 -0.8756
vn -0.8756 0.3416 -0.3416
vn 0.3416 -0.8756 0.3416
vn 0.8756 -0.3416 0.3416
vn 0.3416 -0.3416 0.8756
vn 0.3416 0.8756 0.3416
vn 0.3416 0.3416 0.8756
vn 0.8756 0.3416 0.3416
vn 0.3416 -0.8756 -0.3416
vn 0.3416 -0.3416 -0.8756
vn 0.8756 -0.3416 -0.3416
vn 0.3416 0.8756 -0.3416
vn 0.8756 0.3416 -0.3416
vn 0.3416 0.3416 -0.8756
vn 0.0000 -0.2873 0.9578
vn 0.0000 -1.0000 -0.0000
vn -1.0000 0.0000 0.0000
vn 0.0000 -0.0000 1.0000
vn 0.0000 1.0000 0.0000
vn -0.0000 0.0000 -1.0000
vn 1.0000 -0.0000 0.0000
vn 0.2873 -0.9578 -0.0000
vn 0.0000 0.2873 0.9578
vn -0.2873 0.0000 -0.9578
vn -0.9578 -0.0000 0.2873
vn 0.0000 -0.9578 -0.2873
vn 0.9578 0.2873 0.0000
vn 0.2873 0.0000 -0.9578
vn 0.2873 -0.0000 0.9578
vn -0.2873 -0.9578 -0.0000
vn 0.0000 -0.2873 -0.9578
vn -0.9578 0.0000 -0.2873
vn 0.9578 0.0000 -0.2873
vn 0.0000 0.9578 0.2873
vn -0.9578 -0.2873 -0.0000
vn -0.2873 -0.0000 0.9578
vn 0.0000 0.2873 -0.9578
vn 0.9578 -0.2873 -0.0000
vn 0.2873 0.9578 0.0000
vn 0.6846 0.6846 0.2506
vn 0.9351 0.2506 0.2506
vn 0.9351 -0.2506 0.2506
vn 0.6846 -0.6846 0.2506
vn 0.2506 -0.9351 0.2506
vn -0.2506 -0.9351 0.2506
vn -0.6846 -0.6846 0.2506
vn -0.9351 -0.2506 0.2506
vn -0.9351 0.2506 0.2506
vn -0.6846 0.6846 0.2506
vn -0.2506 0.9351 0.2506
vn 0.2506 0.9351 0.2506
vn 0.2506 0.6846 -0.6846
vn 0.2506 0.2506 -0.9351
vn 0.2506 -0.2506 -0.9351
vn 0.2506 -0.6846 -0.6846
vn 0.2506 -0.9351 -0.2506
vn 0.2506 -0.6846 0.6846
vn 0.2506 -0.2506 0.9351
vn 0.2506 0.2506 0.9351
vn 0.2506 0.6846 0.6846
vn 0.2506 0.9351 -0.2506
vn -0.6846 0.6846 -0.2506
vn -0.6846 0.6845 -0.2506
vn -0.9351 0.2506 -0.2506
vn -0.9351 -0.2506 -0.2506
vn -0.6846 -0.6846 -0.2506
vn -0.2506 -0.9351 -0.2506
vn 0.6846 -0.6846 -0.2506
vn 0.9351 -0.2506 -0.2506
vn 0.9351 0.2506 -0.2506
vn 0.6846 0.6846 -0.2506
vn 0.6845 0.6846 -0.2506
vn -0.2506 0.9351 -0.2506
vn -0.2506 0.6845 0.6846
vn -0.2506 0.2506 0.9351
vn -0.2506 -0.2506 0.9351
vn -0.2506 -0.6846 0.6846
vn -0.2506 -0.6846 -0.6846
vn -0.2506 -0.2506 -0.9351
vn -0.2506 0.2506 -0.9351
vn -0.2506 0.6846 -0.6845
vn 0.6846 -0.2506 0.6846
vn 0.6846 -0.2506 -0.6846
vn -0.6846 -0.2506 -0.6846
vn -0.6846 -0.2506 0.6846
vn 0.6846 0.2506 -0.6846
vn 0.6846 0.2506 0.6846
vn -0.6846 0.2506 0.6846
vn -0.6846 0.2506 -0.6846
usemtl tiny_treats_1
s 1
f 4/1/1 2/2/1 53/3/1 54/4/1
f 20/5/2 9/6/2 60/7/2 62/8/2
f 16/9/3 22/10/3 63/11/3 69/12/3
f 8/13/4 3/14/4 51/15/4 52/16/4
f 17/17/5 4/18/5 54/19/5 71/20/5
f 26/21/6 29/22/7 27/23/8
f 30/24/9 32/25/10 31/26/11
f 25/27/12 28/28/13 36/29/14
f 33/30/15 35/31/16 34/32/17
f 43/33/18 44/34/19 48/35/20
f 45/36/21 47/37/22 46/38/23
f 37/39/24 38/40/25 42/41/26
f 39/42/27 41/43/28 40/44/29
f 25/27/12 26/21/6 27/23/8 28/28/13
f 29/45/7 30/46/9 31/47/11 27/48/8
f 32/25/10 33/30/15 34/32/17 31/26/11
f 35/49/16 36/50/14 28/51/13 34/52/17
f 37/39/24 25/27/12 36/29/14 38/40/25
f 33/30/15 39/42/27 40/44/29 35/31/16
f 41/53/28 42/54/26 38/55/25 40/56/29
f 43/33/18 37/39/24 42/41/26 44/34/19
f 39/42/27 45/36/21 46/38/23 41/43/28
f 47/57/22 48/58/20 44/59/19 46/60/23
f 26/21/6 43/33/18 48/35/20 29/22/7
f 45/36/21 32/25/10 30/24/9 47/37/22
f 7/61/30 19/62/30 61/63/30 49/64/30
f 7/61/31 1/65/31 26/21/6 25/27/12
f 3/66/32 8/67/32 28/51/13 27/48/8
f 2/2/33 4/1/33 30/46/9 29/45/7
f 6/68/32 3/66/32 27/48/8 31/47/11
f 5/69/34 10/70/34 33/30/15 32/25/10
f 12/71/32 6/68/32 31/47/11 34/52/17
f 11/72/35 9/73/35 36/50/14 35/49/16
f 8/67/32 12/71/32 34/52/17 28/51/13
f 19/62/31 7/61/31 25/27/12 37/39/24
f 9/73/35 20/74/35 38/55/25 36/50/14
f 10/70/34 22/10/34 39/42/27 33/30/15
f 24/75/35 11/72/35 35/49/16 40/56/29
f 23/76/36 21/77/36 42/54/26 41/53/28
f 20/74/35 24/75/35 40/56/29 38/55/25
f 13/78/31 19/62/31 37/39/24 43/33/18
f 21/77/36 14/79/36 44/59/19 42/54/26
f 22/10/34 16/9/34 45/36/21 39/42/27
f 18/80/36 23/76/36 41/53/28 46/60/23
f 17/81/33 15/82/33 48/58/20 47/57/22
f 14/79/36 18/80/36 46/60/23 44/59/19
f 1/65/31 13/78/31 43/33/18 26/21/6
f 15/82/33 2/2/33 29/45/7 48/58/20
f 16/9/34 5/69/34 32/25/10 45/36/21
f 4/1/33 17/81/33 47/57/22 30/46/9
f 72/83/33 71/84/33 54/85/33 53/86/33
f 66/87/36 65/88/36 70/89/36 68/90/36
f 63/91/34 57/92/34 56/93/34 69/94/34
f 51/95/32 55/96/32 58/97/32 52/98/32
f 60/99/35 59/100/35 64/101/35 62/102/35
f 49/103/31 61/104/31 67/105/31 50/106/31
f 23/107/37 18/108/37 70/109/37 65/110/37
f 22/10/38 10/70/38 57/111/38 63/11/38
f 3/66/39 6/68/39 55/112/39 51/113/39
f 15/82/40 17/81/40 71/114/40 72/115/40
f 11/116/41 24/117/41 64/118/41 59/119/41
f 10/70/42 5/69/42 56/120/42 57/111/42
f 18/80/43 14/79/43 68/121/43 70/122/43
f 21/77/44 23/76/44 65/123/44 66/124/44
f 6/125/45 12/126/45 58/127/45 55/128/45
f 13/78/46 1/65/46 50/129/46 67/130/46
f 24/75/47 20/74/47 62/131/47 64/132/47
f 9/73/48 11/72/48 59/133/48 60/134/48
f 2/135/49 15/136/49 72/137/49 53/138/49
f 19/62/50 13/78/50 67/130/50 61/63/50
f 12/71/51 8/67/51 52/139/51 58/140/51
f 5/69/52 16/9/52 69/12/52 56/120/52
f 1/65/53 7/61/53 49/64/53 50/129/53
f 14/141/54 21/142/54 66/143/54 68/144/54
f 73/145/55 87/146/55 86/147/56 75/148/56
f 75/148/56 86/147/56 88/149/57 76/150/57
f 76/150/57 88/149/57 89/151/58 77/152/58
f 77/152/58 89/151/58 90/153/59 78/154/59
f 78/154/59 90/153/59 91/155/60 79/156/60
f 79/156/60 91/155/60 92/157/61 80/158/61
f 80/158/61 92/157/61 93/159/62 81/160/62
f 81/160/62 93/159/62 94/161/63 82/162/63
f 82/162/63 94/161/63 95/163/64 83/164/64
f 83/164/64 95/163/64 96/165/65 84/166/65
f 84/166/65 96/165/65 97/167/66 85/168/66
f 85/168/66 97/167/66 87/146/55 73/145/55
f 74/169/33 86/147/33 87/146/33
f 74/169/33 88/149/33 86/147/33
f 74/169/33 89/151/33 88/149/33
f 74/169/33 90/153/33 89/151/33
f 74/169/33 91/155/33 90/153/33
f 74/169/33 92/157/33 91/155/33
f 74/169/33 93/159/33 92/157/33
f 74/169/33 94/161/33 93/159/33
f 74/169/33 95/163/33 94/161/33
f 74/169/33 96/165/33 95/163/33
f 74/169/33 97/167/33 96/165/33
f 74/169/33 87/146/33 97/167/33
f 98/170/67 112/171/67 111/172/68 100/173/68
f 100/173/68 111/172/68 113/174/69 101/175/69
f 101/175/69 113/174/69 114/176/70 102/177/70
f 102/177/70 114/176/70 115/178/71 103/179/71
f 103/179/71 115/178/71 116/180/59 104/181/59
f 104/181/59 116/180/59 117/182/72 105/183/72
f 105/183/72 117/182/72 118/184/73 106/185/73
f 106/185/73 118/184/73 119/186/74 107/187/74
f 107/187/74 119/186/74 120/188/75 108/189/75
f 108/189/75 120/188/75 121/190/66 109/191/66
f 109/191/66 121/190/66 122/192/76 110/193/76
f 110/193/76 122/192/76 112/171/67 98/170/67
f 99/194/36 111/172/36 112/171/36
f 99/194/36 113/174/36 111/172/36
f 99/194/36 114/176/36 113/174/36
f 99/194/36 115/178/36 114/176/36
f 99/194/36 116/180/36 115/178/36
f 99/194/36 117/182/36 116/180/36
f 99/194/36 118/184/36 117/182/36
f 99/194/36 119/186/36 118/184/36
f 99/194/36 120/188/36 119/186/36
f 99/194/36 121/190/36 120/188/36
f 99/194/36 122/192/36 121/190/36
f 99/194/36 112/171/36 122/192/36
f 123/195/77 137/196/78 136/197/79 125/198/79
f 125/198/79 136/197/79 138/199/80 126/200/80
f 126/200/80 138/199/80 139/201/81 127/202/81
f 127/202/81 139/201/81 140/203/82 128/204/82
f 128/204/82 140/203/82 141/205/71 129/206/71
f 129/206/71 141/205/71 142/207/83 130/208/83
f 130/208/83 142/207/83 143/209/84 131/210/84
f 131/210/84 143/209/84 144/211/85 132/212/85
f 132/212/85 144/211/85 145/213/86 133/214/87
f 133/214/87 145/213/86 146/215/76 134/216/76
f 134/216/76 146/215/76 147/217/88 135/218/88
f 135/218/88 147/217/88 137/196/78 123/195/77
f 124/219/35 136/197/35 137/196/35
f 124/219/35 138/199/35 136/197/35
f 124/219/35 139/201/35 138/199/35
f 124/219/35 140/203/35 139/201/35
f 124/219/35 141/205/35 140/203/35
f 124/219/35 142/207/35 141/205/35
f 124/219/35 143/209/35 142/207/35
f 124/219/35 144/211/35 143/209/35
f 124/219/35 145/213/35 144/211/35
f 124/219/35 146/215/35 145/213/35
f 124/219/35 147/217/35 146/215/35
f 124/219/35 137/196/35 147/217/35
f 148/220/89 162/221/89 161/222/90 150/223/90
f 150/223/90 161/222/90 163/224/91 151/225/91
f 151/225/91 163/224/91 164/226/92 152/227/92
f 152/227/92 164/226/92 165/228/60 153/229/60
f 153/229/60 165/228/60 166/230/82 154/231/82
f 154/231/82 166/230/82 167/232/93 155/233/93
f 155/233/93 167/232/93 168/234/94 156/235/94
f 156/235/94 168/234/94 169/236/95 157/237/95
f 157/237/95 169/236/95 170/238/96 158/239/96
f 158/239/96 170/238/96 171/240/88 159/241/88
f 159/241/88 171/240/88 172/242/65 160/243/65
f 160/243/65 172/242/65 162/221/89 148/220/89
f 149/244/32 161/222/32 162/221/32
f 149/244/32 163/224/32 161/222/32
f 149/244/32 164/226/32 163/224/32
f 149/244/32 165/228/32 164/226/32
f 149/244/32 166/230/32 165/228/32
f 149/244/32 167/232/32 166/230/32
f 149/244/32 168/234/32 167/232/32
f 149/244/32 169/236/32 168/234/32
f 149/244/32 170/238/32 169/236/32
f 149/244/32 171/240/32 170/238/32
f 149/244/32 172/242/32 171/240/32
f 149/244/32 162/221/32 172/242/32
f 173/245/97 187/246/97 186/247/57 175/248/57
f 175/248/57 186/247/57 188/249/84 176/250/84
f 176/250/84 188/249/84 189/251/98 177/252/98
f 177/252/98 189/251/98 190/253/69 178/254/69
f 178/254/69 190/253/69 191/255/94 179/256/94
f 179/256/94 191/255/94 192/257/99 180/258/99
f 180/258/99 192/257/99 193/259/80 181/260/80
f 181/260/80 193/259/80 194/261/62 182/262/62
f 182/262/62 194/261/62 195/263/100 183/264/100
f 183/264/100 195/263/100 196/265/91 184/266/91
f 184/266/91 196/265/91 197/267/73 185/268/73
f 185/268/73 197/267/73 187/246/97 173/245/97
f 174/269/31 186/270/31 187/271/31
f 174/269/31 188/272/31 186/270/31
f 174/269/31 189/273/31 188/272/31
f 174/269/31 190/274/31 189/273/31
f 174/269/31 191/275/31 190/274/31
f 174/269/31 192/276/31 191/275/31
f 174/269/31 193/277/31 192/276/31
f 174/269/31 194/278/31 193/277/31
f 174/269/31 195/279/31 194/278/31
f 174/269/31 196/280/31 195/279/31
f 174/269/31 197/281/31 196/280/31
f 174/269/31 187/271/31 197/281/31
f 198/282/101 212/283/101 211/284/85 200/285/85
f 200/285/85 211/284/85 213/286/56 201/287/56
f 201/287/56 213/286/56 214/288/102 202/289/102
f 202/289/102 214/288/102 215/290/74 203/291/74
f 203/291/74 215/290/74 216/292/90 204/293/90
f 204/293/90 216/292/90 217/294/103 205/295/103
f 205/295/103 217/294/103 218/296/63 206/297/63
f 206/297/63 218/296/63 219/298/79 207/299/79
f 207/299/79 219/298/79 220/300/104 208/301/104
f 208/301/104 220/300/104 221/302/95 209/303/95
f 209/303/95 221/302/95 222/304/68 210/305/68
f 210/305/68 222/304/68 212/283/101 198/282/101
f 199/306/34 211/307/34 212/308/34
f 199/306/34 213/309/34 211/307/34
f 199/306/34 214/310/34 213/309/34
f 199/306/34 215/311/34 214/310/34
f 199/306/34 216/312/34 215/311/34
f 199/306/34 217/313/34 216/312/34
f 199/306/34 218/314/34 217/313/34
f 199/306/34 219/315/34 218/314/34
f 199/306/34 220/316/34 219/315/34
f 199/306/34 221/317/34 220/316/34
f 199/306/34 222/318/34 221/317/34
f 199/306/34 212/308/34 222/318/34
