# Blender v3.4.1 OBJ File: 'Tiny_treats_Playful_Bedroom_1.1_ASSETS_EXPORT.blend'
# www.blender.org
mtllib poster.mtl
o poster
v -0.340869 -0.445842 0.122105
v -0.451866 0.342296 0.016277
v -0.000236 0.001845 0.024726
v -0.396367 -0.052815 0.044927
v 0.451393 -0.338607 0.033176
v 0.306334 0.415080 0.177225
v -0.055734 0.398574 0.033725
v 0.055262 -0.393267 0.053377
v 0.395895 0.058122 0.042174
v -0.424117 0.144733 0.030436
v -0.027985 0.200202 0.029059
v 0.368146 0.257421 0.068416
v -0.368618 -0.249437 0.080996
v 0.027513 -0.195718 0.038886
v 0.423644 -0.140249 0.037509
v 0.197829 0.029976 0.033284
v 0.142331 0.427646 0.064192
v 0.253328 -0.365944 0.043110
v 0.170080 0.228348 0.037949
v 0.225579 -0.168381 0.028951
v -0.198302 -0.025492 0.034661
v -0.142804 -0.419663 0.085221
v -0.253800 0.370428 0.024835
v -0.226051 0.172071 0.020501
v -0.170553 -0.223041 0.049152
v 0.207280 0.030389 -0.001741
v 0.000264 0.000987 -0.010686
v -0.442771 0.150332 -0.004718
v -0.471774 0.356822 -0.019517
v -0.028739 0.208307 -0.006157
v -0.206752 -0.027586 -0.000302
v -0.413768 -0.056143 0.010428
v 0.385292 0.268111 0.034979
v 0.414295 0.059807 0.007550
v -0.384765 -0.261650 0.048126
v 0.029267 -0.205504 0.004113
v 0.058270 -0.411979 0.019259
v 0.149273 0.446029 0.030563
v -0.057742 0.415643 -0.001281
v -0.148746 -0.439568 0.052542
v 0.443298 -0.147529 0.002674
v 0.472301 -0.354849 -0.001855
v 0.265286 -0.383422 0.008529
v -0.264758 0.386225 -0.010573
v 0.320687 0.432894 0.148704
v -0.235755 0.178905 -0.015102
v 0.178277 0.237725 0.003135
v -0.355762 -0.466930 0.091094
v -0.177749 -0.234061 0.014844
v 0.236283 -0.176931 -0.006270
v 0.427892 -0.320031 -0.018153
v 0.372108 -0.279967 -0.018153
v 0.359544 -0.415197 0.029266
v 0.351380 -0.409422 0.039331
v 0.345589 -0.417485 0.028127
v 0.311841 -0.381025 0.039331
v 0.303761 -0.375133 0.029266
v 0.306050 -0.389089 0.028127
v 0.359544 -0.415197 -0.032356
v 0.345589 -0.417485 -0.033569
v 0.306050 -0.389089 -0.033569
v 0.303761 -0.375133 -0.032356
v 0.496240 -0.224865 0.029266
v 0.493951 -0.210909 0.028127
v 0.488160 -0.218973 0.039331
v 0.440456 -0.184802 0.029266
v 0.448620 -0.190576 0.039331
v 0.454412 -0.182513 0.028127
v 0.493951 -0.210909 -0.033569
v 0.496240 -0.224865 -0.032356
v 0.440456 -0.184802 -0.032356
v 0.454412 -0.182513 -0.033569
v 0.419770 -0.314198 0.053543
v 0.427892 -0.320031 0.043470
v 0.380231 -0.285801 0.053543
v 0.372108 -0.279967 0.043470
v -0.372108 0.279967 -0.018152
v -0.427892 0.320030 -0.018152
v -0.440456 0.184801 0.029268
v -0.448620 0.190576 0.039332
v -0.454411 0.182512 0.028129
v -0.488160 0.218972 0.039332
v -0.496240 0.224865 0.029268
v -0.493951 0.210909 0.028129
v -0.440456 0.184801 -0.032355
v -0.454411 0.182512 -0.033567
v -0.493951 0.210909 -0.033567
v -0.496240 0.224865 -0.032355
v -0.303761 0.375133 0.029268
v -0.306050 0.389088 0.028129
v -0.311841 0.381025 0.039332
v -0.359544 0.415196 0.029268
v -0.351380 0.409422 0.039332
v -0.345589 0.417485 0.028129
v -0.306050 0.389088 -0.033567
v -0.303761 0.375133 -0.032355
v -0.359544 0.415196 -0.032355
v -0.345589 0.417485 -0.033567
v -0.380231 0.285800 0.053545
v -0.372108 0.279967 0.043471
v -0.419770 0.314197 0.053545
v -0.427892 0.320030 0.043471
vt 0.313218 0.967050
vt 0.321224 0.962445
vt 0.327611 0.973524
vt 0.319604 0.978131
vt 0.306831 0.955971
vt 0.314838 0.951365
vt 0.322869 0.961499
vt 0.329251 0.972571
vt 0.329251 0.972571
vt 0.322869 0.961499
vt 0.306291 0.955033
vt 0.314297 0.950427
vt 0.314297 0.950427
vt 0.306291 0.955033
vt 0.311573 0.967996
vt 0.305191 0.956924
vt 0.305191 0.956924
vt 0.311573 0.967996
vt 0.320145 0.979069
vt 0.328151 0.974463
vt 0.328151 0.974463
vt 0.320145 0.979069
vt 0.316487 0.950426
vt 0.316487 0.950426
vt 0.317955 0.979070
vt 0.317956 0.979070
vt 0.313218 0.967050
vt 0.321224 0.962445
vt 0.327611 0.973524
vt 0.319604 0.978131
vt 0.306831 0.955971
vt 0.314838 0.951365
vt 0.322869 0.961499
vt 0.329251 0.972571
vt 0.329251 0.972571
vt 0.322869 0.961499
vt 0.306291 0.955033
vt 0.314297 0.950427
vt 0.314297 0.950427
vt 0.306291 0.955033
vt 0.311573 0.967996
vt 0.305191 0.956924
vt 0.305191 0.956924
vt 0.311573 0.967996
vt 0.320145 0.979069
vt 0.328151 0.974463
vt 0.328151 0.974463
vt 0.320145 0.979069
vt 0.316487 0.950426
vt 0.316487 0.950426
vt 0.317955 0.979070
vt 0.317956 0.979070
vt 0.745974 0.008230
vt 0.991949 0.008230
vt 0.991949 0.254205
vt 0.745974 0.254205
vt 0.745974 0.500179
vt 0.991949 0.500179
vt 0.991949 0.746154
vt 0.745974 0.746154
vt 0.254025 0.500179
vt 0.500000 0.500179
vt 0.500000 0.746154
vt 0.254025 0.746154
vt 0.254025 0.254205
vt 0.500000 0.254205
vt 0.254025 0.008230
vt 0.500000 0.008230
vt 0.745974 0.992128
vt 0.500000 0.992128
vt 0.008051 0.500179
vt 0.008051 0.746154
vt 0.254025 0.992128
vt 0.008051 0.992128
vt 0.008051 0.254205
vt 0.008051 0.008230
vt 0.992156 0.006792
vt 0.992156 0.006792
vt 0.992156 0.006792
vt 0.992156 0.006792
vt 0.992156 0.006792
vt 0.992156 0.006792
vt 0.992156 0.006792
vt 0.992156 0.006792
vt 0.992156 0.006792
vt 0.992156 0.006792
vt 0.992156 0.006792
vt 0.992156 0.006792
vt 0.992156 0.006792
vt 0.992156 0.006792
vt 0.992156 0.006792
vt 0.992156 0.006792
vt 0.992156 0.006792
vt 0.992156 0.006792
vt 0.992156 0.006792
vt 0.992156 0.006792
vt 0.992156 0.006792
vt 0.992156 0.006792
vt 0.992156 0.006792
vt 0.992156 0.006792
vt 0.990926 0.004301
vt 0.990926 0.004301
vt 0.990926 0.004301
vt 0.990926 0.004301
vt 0.990926 0.004301
vt 0.990926 0.004301
vt 0.990926 0.004301
vt 0.990926 0.004301
vt 0.990926 0.004301
vt 0.990926 0.004301
vt 0.990926 0.004301
vt 0.990926 0.004301
vt 0.990926 0.004301
vt 0.990926 0.004301
vt 0.990926 0.004301
vt 0.990926 0.004301
vt 0.990926 0.004301
vt 0.990926 0.004301
vt 0.990926 0.004301
vt 0.990926 0.004301
vt 0.990926 0.004301
vt 0.990926 0.004301
vt 0.990926 0.004301
vt 0.990926 0.004301
vt 0.990926 0.004301
vt 0.990926 0.004301
vt 0.990926 0.004301
vt 0.990926 0.004301
vt 0.990926 0.004301
vt 0.990926 0.004301
vt 0.990926 0.004301
vt 0.990926 0.004301
vt 0.991949 0.992128
vt 0.992156 0.006792
vn 0.3040 -0.2183 0.9273
vn -0.3040 0.2183 0.9273
vn -0.5184 -0.1412 0.8434
vn 0.0318 -0.5363 0.8434
vn 0.5184 0.1412 0.8434
vn -0.0318 0.5363 0.8434
vn -0.8122 0.5833 -0.0000
vn 0.8436 0.5370 0.0000
vn 0.5833 0.8122 0.0000
vn 0.2426 0.9184 0.3125
vn 0.7928 0.5233 0.3125
vn 0.8122 -0.5833 0.0000
vn 0.9219 -0.2085 0.3265
vn 0.7425 -0.5332 0.4054
vn -0.2426 -0.9184 0.3125
vn -0.7928 -0.5233 0.3125
vn -0.8436 -0.5370 0.0000
vn -0.5833 -0.8122 0.0000
vn -0.5036 0.8639 -0.0000
vn -0.4921 0.8070 0.3265
vn 0.4921 -0.8070 0.3265
vn -0.8938 0.0194 0.4480
vn 0.5036 -0.8639 0.0000
vn 0.1619 -0.9868 0.0000
vn -0.9868 -0.1619 0.0000
vn 0.9868 0.1619 0.0000
vn -0.1619 0.9868 0.0000
vn -0.5764 0.4140 0.7045
vn -0.9219 0.2085 0.3265
vn -0.7425 0.5332 0.4054
vn 0.2394 0.9709 0.0000
vn -0.2394 -0.9709 -0.0000
vn 0.3039 -0.8408 0.4480
vn -0.3039 0.8408 0.4480
vn 0.1618 -0.9868 -0.0000
vn -0.1618 0.9868 0.0000
vn 0.0201 0.0514 0.9985
vn 0.0000 0.0248 0.9997
vn -0.0200 -0.0018 0.9998
vn 0.0000 0.0249 0.9997
vn -0.0415 -0.0302 0.9987
vn -0.0630 -0.0588 0.9963
vn -0.2047 -0.2480 0.9469
vn -0.1347 -0.1544 0.9788
vn 0.0416 0.0799 0.9959
vn 0.0881 0.1413 0.9860
vn 0.1136 0.1749 0.9780
vn 0.0632 0.1084 0.9921
vn -0.2049 -0.2483 0.9467
vn 0.1400 0.2098 0.9677
vn -0.0201 -0.0514 -0.9985
vn -0.0000 -0.0249 -0.9997
vn 0.0200 0.0018 -0.9998
vn -0.0000 -0.0248 -0.9997
vn 0.0415 0.0302 -0.9987
vn 0.0851 0.0883 -0.9925
vn 0.2057 0.2494 -0.9463
vn 0.0630 0.0588 -0.9963
vn -0.0416 -0.0799 -0.9959
vn -0.0881 -0.1413 -0.9860
vn -0.1136 -0.1749 -0.9780
vn -0.0632 -0.1084 -0.9921
vn 0.2066 0.2507 -0.9458
vn 0.4776 0.6181 -0.6243
vn -0.1400 -0.2098 -0.9677
vn 0.1968 -0.8528 0.4837
vn 0.1973 -0.8528 0.4836
vn 0.1663 -0.8583 0.4854
vn 0.1695 -0.8577 0.4854
vn -0.2294 0.8732 0.4300
vn -0.2112 0.8754 0.4349
vn -0.2141 0.8750 0.4341
vn -0.8856 -0.0918 0.4553
vn -0.8856 -0.0914 0.4554
vn -0.8856 -0.0913 0.4554
vn 0.8753 0.1122 0.4704
vn 0.8753 0.1118 0.4705
vn 0.8753 0.1117 0.4705
vn 0.1437 -0.8623 0.4855
vn 0.1438 -0.8623 0.4855
vn -0.8913 -0.0375 0.4518
vn -0.8915 -0.0369 0.4516
vn -0.8924 -0.0318 0.4502
vn 0.2025 -0.8523 0.4823
vn 0.1434 -0.8624 0.4855
vn -0.1722 0.8815 0.4397
vn -0.1697 0.8819 0.4398
vn -0.1452 0.8861 0.4403
vn -0.1453 0.8860 0.4403
vn -0.1449 0.8861 0.4402
vn 0.8782 0.0846 0.4708
vn 0.8779 0.0875 0.4708
vn 0.8828 0.0460 0.4674
vn 0.8834 0.0428 0.4667
vn -0.8881 -0.0682 0.4545
vn -0.8884 -0.0654 0.4544
vn 0.8859 0.0277 0.4631
vn -0.3210 -0.4045 0.8564
usemtl tiny_treats_1
s 1
f 73/1/1 75/2/2 56/3/3 54/4/4
f 65/5/5 67/6/6 75/2/2 73/1/1
f 52/7/7 62/8/7 57/9/7 76/10/7
f 69/11/8 72/12/9 68/13/10 64/14/11
f 51/15/12 70/16/12 63/17/13 74/18/14
f 55/19/15 58/20/16 61/21/17 60/22/18
f 71/23/19 52/7/7 76/10/7 66/24/20
f 53/25/21 54/4/4 55/19/15
f 56/3/3 57/9/22 58/20/16
f 63/17/13 64/14/11 65/5/5
f 66/24/20 67/6/6 68/13/10
f 59/26/23 53/25/21 55/19/15 60/22/24
f 54/4/4 56/3/3 58/20/16 55/19/15
f 57/9/22 62/8/25 61/21/17 58/20/16
f 63/17/13 70/16/26 69/11/8 64/14/11
f 71/23/19 66/24/20 68/13/10 72/12/27
f 67/6/6 65/5/5 64/14/11 68/13/10
f 74/18/14 63/17/13 65/5/5 73/1/1
f 76/10/28 57/9/22 56/3/3 75/2/2
f 53/25/21 74/18/14 73/1/1 54/4/4
f 66/24/20 76/10/28 75/2/2 67/6/6
f 59/26/23 51/15/12 74/18/14 53/25/21
f 99/27/1 101/28/2 82/29/3 80/30/4
f 91/31/5 93/32/6 101/28/2 99/27/1
f 78/33/7 88/34/7 83/35/29 102/36/30
f 95/37/8 98/38/31 94/39/10 90/40/11
f 77/41/12 96/42/12 89/43/13 100/44/14
f 81/45/15 84/46/16 87/47/17 86/48/32
f 97/49/7 78/33/7 102/36/30 92/50/7
f 79/51/33 80/30/4 81/45/15
f 82/29/3 83/35/29 84/46/16
f 89/43/13 90/40/11 91/31/5
f 92/50/34 93/32/6 94/39/10
f 85/52/35 79/51/33 81/45/15 86/48/32
f 80/30/4 82/29/3 84/46/16 81/45/15
f 83/35/29 88/34/25 87/47/17 84/46/16
f 89/43/13 96/42/26 95/37/8 90/40/11
f 97/49/36 92/50/34 94/39/10 98/38/31
f 93/32/6 91/31/5 90/40/11 94/39/10
f 100/44/14 89/43/13 91/31/5 99/27/1
f 102/36/30 83/35/29 82/29/3 101/28/2
f 79/51/33 100/44/14 99/27/1 80/30/4
f 92/50/34 102/36/30 101/28/2 93/32/6
f 85/52/12 77/41/12 100/44/14 79/51/12
usemtl tiny_treats_poster_1
f 18/53/37 5/54/38 15/55/39 20/56/40
f 16/57/41 9/58/42 12/59/43 19/60/44
f 21/61/45 3/62/40 11/63/41 24/64/40
f 25/65/46 14/66/45 3/62/40 21/61/45
f 22/67/47 8/68/48 14/66/45 25/65/46
f 20/56/40 15/55/39 9/58/42 16/57/41
f 11/63/41 19/60/44 17/69/49 7/70/42
f 4/71/48 21/61/45 24/64/40 10/72/37
f 24/64/40 11/63/41 7/70/42 23/73/39
f 10/72/37 24/64/40 23/73/39 2/74/38
f 13/75/47 25/65/46 21/61/45 4/71/48
f 1/76/50 22/67/47 25/65/46 13/75/47
f 8/68/48 18/53/37 20/56/40 14/66/45
f 14/66/45 20/56/40 16/57/41 3/62/40
f 3/62/40 16/57/41 19/60/44 11/63/41
f 43/77/51 50/78/52 41/79/53 42/80/54
f 26/81/55 47/82/56 33/83/57 34/84/58
f 31/85/59 46/86/52 30/87/55 27/88/52
f 49/89/60 31/85/59 27/88/52 36/90/59
f 40/91/61 49/89/60 36/90/59 37/92/62
f 50/78/52 26/81/55 34/84/58 41/79/53
f 30/87/55 39/93/58 38/94/63 47/82/56
f 32/95/62 28/96/51 46/86/52 31/85/59
f 46/86/52 44/97/53 39/93/58 30/87/55
f 33/83/57 38/94/63 45/98/64
f 35/99/61 32/95/62 31/85/59 49/89/60
f 48/100/65 35/99/61 49/89/60 40/91/61
f 37/92/62 36/90/59 50/78/52 43/77/51
f 36/90/59 27/88/52 26/81/55 50/78/52
f 27/88/52 30/87/55 47/82/56 26/81/55
f 47/82/56 38/94/63 33/83/57
f 22/101/66 40/102/67 37/103/68 8/104/69
f 6/105/70 45/106/70 38/107/71 17/108/72
f 2/109/73 29/110/73 28/111/74 10/112/75
f 5/113/76 42/114/76 41/115/77 15/116/78
f 8/104/69 37/103/68 43/117/79 18/118/80
f 13/119/81 35/120/82 48/121/83 1/122/83
f 1/122/84 48/121/84 40/102/67 22/101/66
f 18/118/80 43/117/79 42/114/85 5/113/85
f 7/123/86 39/124/87 44/125/88 23/126/89
f 23/126/89 44/125/88 29/110/90 2/109/90
f 9/127/91 34/128/92 33/129/93 12/130/94
f 15/116/78 41/115/77 34/128/92 9/127/91
f 10/112/75 28/111/74 32/131/95 4/132/96
f 4/132/96 32/131/95 35/120/82 13/119/81
f 12/130/94 33/129/93 45/106/97 6/105/97
f 17/108/72 38/107/71 39/124/87 7/123/86
f 19/60/44 12/59/43 6/133/98 17/69/49
f 28/96/51 29/134/54 44/97/53 46/86/52
