# Blender v3.4.1 OBJ File: 'Tiny_treats_Playful_Bedroom_1.1_ASSETS_EXPORT.blend'
# www.blender.org
mtllib rubicks_cube_A.mtl
o rubicks_cube_A
v 0.020000 -0.000000 0.180000
v 0.020000 0.020000 0.200000
v 0.000000 0.020000 0.180000
v 0.020000 0.180000 0.200000
v 0.000000 0.180000 0.180000
v 0.020000 0.000000 0.020000
v 0.000000 0.020000 0.020000
v 0.020000 0.020000 0.000000
v 0.020000 0.180000 0.000000
v 0.000000 0.180000 0.020000
v 0.180000 -0.000000 0.180000
v 0.200000 0.020000 0.180000
v 0.180000 0.020000 0.200000
v 0.180000 0.180000 0.200000
v 0.200000 0.180000 0.180000
v 0.180000 0.000000 0.020000
v 0.180000 0.020000 0.000000
v 0.200000 0.020000 0.020000
v 0.200000 0.180000 0.020000
v 0.180000 0.180000 0.000000
v -0.180000 0.200000 0.180000
v -0.180000 0.220000 0.200000
v -0.200000 0.220000 0.180000
v -0.180000 0.380000 0.200000
v -0.180000 0.400000 0.180000
v -0.200000 0.380000 0.180000
v -0.180000 0.200000 0.020000
v -0.200000 0.220000 0.020000
v -0.180000 0.220000 0.000000
v -0.180000 0.400000 0.020000
v -0.180000 0.380000 0.000000
v -0.200000 0.380000 0.020000
v -0.020000 0.200000 0.180000
v -0.020000 0.220000 0.200000
v -0.020000 0.400000 0.180000
v -0.020000 0.380000 0.200000
v -0.020000 0.200000 0.020000
v -0.020000 0.220000 0.000000
v -0.020000 0.400000 0.020000
v -0.020000 0.380000 0.000000
v 0.020000 0.200000 0.180000
v 0.020000 0.220000 0.200000
v 0.000000 0.220000 0.180000
v 0.020000 0.380000 0.200000
v 0.020000 0.400000 0.180000
v 0.000000 0.380000 0.180000
v 0.020000 0.200000 0.020000
v 0.000000 0.220000 0.020000
v 0.020000 0.220000 0.000000
v 0.020000 0.400000 0.020000
v 0.020000 0.380000 0.000000
v 0.000000 0.380000 0.020000
v 0.180000 0.200000 0.180000
v 0.200000 0.220000 0.180000
v 0.180000 0.220000 0.200000
v 0.180000 0.400000 0.180000
v 0.180000 0.380000 0.200000
v 0.200000 0.380000 0.180000
v 0.180000 0.200000 0.020000
v 0.180000 0.220000 0.000000
v 0.200000 0.220000 0.020000
v 0.180000 0.400000 0.020000
v 0.200000 0.380000 0.020000
v 0.180000 0.380000 0.000000
v -0.180000 -0.000000 0.180000
v -0.180000 0.020000 0.200000
v -0.200000 0.020000 0.180000
v -0.180000 0.180000 0.200000
v -0.200000 0.180000 0.180000
v -0.180000 0.000000 0.020000
v -0.200000 0.020000 0.020000
v -0.180000 0.020000 0.000000
v -0.180000 0.180000 0.000000
v -0.200000 0.180000 0.020000
v -0.020000 -0.000000 0.180000
v -0.020000 0.020000 0.200000
v -0.020000 0.180000 0.200000
v -0.020000 0.000000 0.020000
v -0.020000 0.020000 0.000000
v -0.020000 0.180000 0.000000
v -0.180000 0.200000 -0.020000
v -0.200000 0.220000 -0.020000
v -0.180000 0.400000 -0.020000
v -0.200000 0.380000 -0.020000
v -0.180000 0.200000 -0.180000
v -0.200000 0.220000 -0.180000
v -0.180000 0.220000 -0.200000
v -0.180000 0.400000 -0.180000
v -0.180000 0.380000 -0.200000
v -0.200000 0.380000 -0.180000
v -0.020000 0.200000 -0.020000
v -0.020000 0.400000 -0.020000
v -0.020000 0.200000 -0.180000
v -0.020000 0.220000 -0.200000
v -0.020000 0.400000 -0.180000
v -0.020000 0.380000 -0.200000
v 0.020000 0.200000 -0.020000
v 0.000000 0.220000 -0.020000
v 0.020000 0.400000 -0.020000
v 0.000000 0.380000 -0.020000
v 0.020000 0.200000 -0.180000
v 0.000000 0.220000 -0.180000
v 0.020000 0.220000 -0.200000
v 0.020000 0.400000 -0.180000
v 0.020000 0.380000 -0.200000
v 0.000000 0.380000 -0.180000
v 0.180000 0.200000 -0.020000
v 0.200000 0.220000 -0.020000
v 0.180000 0.400000 -0.020000
v 0.200000 0.380000 -0.020000
v 0.180000 0.200000 -0.180000
v 0.180000 0.220000 -0.200000
v 0.200000 0.220000 -0.180000
v 0.180000 0.400000 -0.180000
v 0.200000 0.380000 -0.180000
v 0.180000 0.380000 -0.200000
v 0.020000 0.000000 -0.020000
v 0.000000 0.020000 -0.020000
v 0.000000 0.180000 -0.020000
v 0.020000 0.000000 -0.180000
v 0.000000 0.020000 -0.180000
v 0.020000 0.020000 -0.200000
v 0.020000 0.180000 -0.200000
v 0.000000 0.180000 -0.180000
v 0.180000 0.000000 -0.020000
v 0.200000 0.020000 -0.020000
v 0.200000 0.180000 -0.020000
v 0.180000 0.000000 -0.180000
v 0.180000 0.020000 -0.200000
v 0.200000 0.020000 -0.180000
v 0.200000 0.180000 -0.180000
v 0.180000 0.180000 -0.200000
v -0.180000 0.000000 -0.020000
v -0.200000 0.020000 -0.020000
v -0.200000 0.180000 -0.020000
v -0.180000 0.000000 -0.180000
v -0.200000 0.020000 -0.180000
v -0.180000 0.020000 -0.200000
v -0.180000 0.180000 -0.200000
v -0.200000 0.180000 -0.180000
v -0.020000 0.000000 -0.020000
v -0.020000 0.000000 -0.180000
v -0.020000 0.020000 -0.200000
v -0.020000 0.180000 -0.200000
vt 0.203986 0.374155
vt 0.203986 0.407095
vt 0.171014 0.407095
vt 0.171014 0.374155
vt 0.083108 0.374155
vt 0.083108 0.407095
vt 0.083108 0.407095
vt 0.083108 0.374155
vt 0.171014 0.760662
vt 0.171014 0.764780
vt 0.166892 0.764780
vt 0.171014 0.797720
vt 0.171014 0.801838
vt 0.166892 0.797720
vt 0.171014 0.760662
vt 0.166892 0.764780
vt 0.171014 0.764780
vt 0.171014 0.801838
vt 0.171014 0.797720
vt 0.166892 0.797720
vt 0.203986 0.760662
vt 0.208108 0.764780
vt 0.203986 0.764780
vt 0.203986 0.801838
vt 0.203986 0.797720
vt 0.208108 0.797720
vt 0.203986 0.760662
vt 0.203986 0.764780
vt 0.208108 0.764780
vt 0.203986 0.801838
vt 0.208108 0.797720
vt 0.203986 0.797720
vt 0.421014 0.870037
vt 0.453986 0.870037
vt 0.453986 0.870037
vt 0.421014 0.870037
vt 0.203986 0.374155
vt 0.203986 0.407095
vt 0.171014 0.407095
vt 0.171014 0.374155
vt 0.328986 0.661213
vt 0.296014 0.661213
vt 0.296014 0.661213
vt 0.328986 0.661213
vt 0.291892 0.374155
vt 0.291892 0.407095
vt 0.291892 0.407095
vt 0.291892 0.374155
vt 0.171014 0.760662
vt 0.171014 0.764780
vt 0.166892 0.764780
vt 0.171014 0.797720
vt 0.171014 0.801838
vt 0.166892 0.797720
vt 0.171014 0.760662
vt 0.166892 0.764780
vt 0.171014 0.764780
vt 0.171014 0.801838
vt 0.171014 0.797720
vt 0.166892 0.797720
vt 0.203986 0.760662
vt 0.208108 0.764780
vt 0.203986 0.764780
vt 0.203986 0.801838
vt 0.203986 0.797720
vt 0.208108 0.797720
vt 0.203986 0.760662
vt 0.203986 0.764780
vt 0.208108 0.764780
vt 0.203986 0.801838
vt 0.208108 0.797720
vt 0.203986 0.797720
vt 0.203986 0.374155
vt 0.203986 0.407095
vt 0.171014 0.407095
vt 0.171014 0.374155
vt 0.083108 0.374155
vt 0.083108 0.407095
vt 0.083108 0.407095
vt 0.083108 0.374155
vt 0.328986 0.661213
vt 0.296014 0.661213
vt 0.296014 0.661213
vt 0.328986 0.661213
vt 0.171014 0.760662
vt 0.171014 0.764780
vt 0.166892 0.764780
vt 0.171014 0.797720
vt 0.171014 0.801838
vt 0.166892 0.797720
vt 0.171014 0.760662
vt 0.166892 0.764780
vt 0.171014 0.764780
vt 0.171014 0.801838
vt 0.171014 0.797720
vt 0.166892 0.797720
vt 0.203986 0.760662
vt 0.208108 0.764780
vt 0.203986 0.764780
vt 0.203986 0.801838
vt 0.203986 0.797720
vt 0.208108 0.797720
vt 0.203986 0.760662
vt 0.203986 0.764780
vt 0.208108 0.764780
vt 0.203986 0.801838
vt 0.208108 0.797720
vt 0.203986 0.797720
vt 0.203986 0.374155
vt 0.203986 0.407095
vt 0.171014 0.407095
vt 0.171014 0.374155
vt 0.291892 0.374155
vt 0.291892 0.407095
vt 0.291892 0.407095
vt 0.291892 0.374155
vt 0.171014 0.760662
vt 0.171014 0.764780
vt 0.166892 0.764780
vt 0.171014 0.797720
vt 0.171014 0.801838
vt 0.166892 0.797720
vt 0.171014 0.760662
vt 0.166892 0.764780
vt 0.171014 0.764780
vt 0.171014 0.801838
vt 0.171014 0.797720
vt 0.166892 0.797720
vt 0.203986 0.760662
vt 0.208108 0.764780
vt 0.203986 0.764780
vt 0.203986 0.801838
vt 0.203986 0.797720
vt 0.208108 0.797720
vt 0.203986 0.760662
vt 0.203986 0.764780
vt 0.208108 0.764780
vt 0.203986 0.801838
vt 0.208108 0.797720
vt 0.203986 0.797720
vt 0.421014 0.870037
vt 0.453986 0.870037
vt 0.453986 0.870037
vt 0.421014 0.870037
vt 0.328986 0.661213
vt 0.296014 0.661213
vt 0.296014 0.661213
vt 0.328986 0.661213
vt 0.291892 0.374155
vt 0.291892 0.407095
vt 0.291892 0.407095
vt 0.291892 0.374155
vt 0.046014 0.624155
vt 0.046014 0.657095
vt 0.078986 0.657095
vt 0.078986 0.624155
vt 0.171014 0.760662
vt 0.166892 0.764780
vt 0.171014 0.801838
vt 0.166892 0.797720
vt 0.171014 0.760662
vt 0.166892 0.764780
vt 0.171014 0.764780
vt 0.171014 0.801838
vt 0.171014 0.797720
vt 0.166892 0.797720
vt 0.203986 0.760662
vt 0.208108 0.764780
vt 0.203986 0.801838
vt 0.208108 0.797720
vt 0.203986 0.760662
vt 0.203986 0.764780
vt 0.208108 0.764780
vt 0.203986 0.801838
vt 0.208108 0.797720
vt 0.203986 0.797720
vt 0.083108 0.374155
vt 0.083108 0.407095
vt 0.083108 0.407095
vt 0.083108 0.374155
vt 0.328986 0.661213
vt 0.296014 0.661213
vt 0.296014 0.661213
vt 0.328986 0.661213
vt 0.046014 0.624155
vt 0.046014 0.657095
vt 0.078986 0.657095
vt 0.078986 0.624155
vt 0.171014 0.760662
vt 0.166892 0.764780
vt 0.171014 0.801838
vt 0.166892 0.797720
vt 0.171014 0.760662
vt 0.166892 0.764780
vt 0.171014 0.764780
vt 0.171014 0.801838
vt 0.171014 0.797720
vt 0.166892 0.797720
vt 0.203986 0.760662
vt 0.208108 0.764780
vt 0.203986 0.801838
vt 0.208108 0.797720
vt 0.203986 0.760662
vt 0.203986 0.764780
vt 0.208108 0.764780
vt 0.203986 0.801838
vt 0.208108 0.797720
vt 0.203986 0.797720
vt 0.083108 0.374155
vt 0.083108 0.407095
vt 0.083108 0.407095
vt 0.083108 0.374155
vt 0.046014 0.624155
vt 0.046014 0.657095
vt 0.078986 0.657095
vt 0.078986 0.624155
vt 0.171014 0.760662
vt 0.166892 0.764780
vt 0.171014 0.801838
vt 0.166892 0.797720
vt 0.171014 0.760662
vt 0.166892 0.764780
vt 0.171014 0.764780
vt 0.171014 0.801838
vt 0.171014 0.797720
vt 0.166892 0.797720
vt 0.203986 0.760662
vt 0.208108 0.764780
vt 0.203986 0.801838
vt 0.208108 0.797720
vt 0.203986 0.760662
vt 0.203986 0.764780
vt 0.208108 0.764780
vt 0.203986 0.801838
vt 0.208108 0.797720
vt 0.203986 0.797720
vt 0.421014 0.870037
vt 0.453986 0.870037
vt 0.453986 0.870037
vt 0.421014 0.870037
vt 0.291892 0.374155
vt 0.291892 0.407095
vt 0.291892 0.407095
vt 0.291892 0.374155
vt 0.046014 0.624155
vt 0.046014 0.657095
vt 0.078986 0.657095
vt 0.078986 0.624155
vt 0.171014 0.760662
vt 0.166892 0.764780
vt 0.171014 0.801838
vt 0.166892 0.797720
vt 0.171014 0.760662
vt 0.166892 0.764780
vt 0.171014 0.764780
vt 0.171014 0.801838
vt 0.171014 0.797720
vt 0.166892 0.797720
vt 0.203986 0.760662
vt 0.208108 0.764780
vt 0.203986 0.801838
vt 0.208108 0.797720
vt 0.203986 0.760662
vt 0.203986 0.764780
vt 0.208108 0.764780
vt 0.203986 0.801838
vt 0.208108 0.797720
vt 0.203986 0.797720
vt 0.421014 0.870037
vt 0.453986 0.870037
vt 0.453986 0.870037
vt 0.421014 0.870037
vn 0.3416 -0.3416 0.8756
vn 0.3416 0.3416 0.8756
vn -0.3416 0.3416 0.8756
vn -0.3416 -0.3416 0.8756
vn 0.8756 -0.3416 -0.3416
vn 0.8756 0.3416 -0.3416
vn 0.8756 0.3416 0.3416
vn 0.8756 -0.3416 0.3416
vn -0.3416 -0.8756 0.3416
vn -0.7588 -0.4606 0.4606
vn -0.4606 0.7588 0.4606
vn -0.7588 0.4606 0.4606
vn -0.3416 -0.8756 -0.3416
vn -0.7588 -0.4606 -0.4606
vn -0.4606 -0.4606 -0.7588
vn -0.4606 0.7588 -0.4606
vn -0.4606 0.4606 -0.7588
vn -0.7588 0.4606 -0.4606
vn 0.3416 -0.8756 0.3416
vn 0.4606 0.7588 0.4606
vn 0.3416 -0.8756 -0.3416
vn 0.4606 -0.4606 -0.7588
vn 0.4606 0.7588 -0.4606
vn 0.4606 0.4606 -0.7588
vn 0.3416 0.8756 -0.3416
vn -0.3416 0.8756 -0.3416
vn -0.3416 0.8756 0.3416
vn 0.3416 0.8756 0.3416
vn -0.8756 -0.3416 0.3416
vn -0.8756 0.3416 0.3416
vn -0.8756 0.3416 -0.3416
vn -0.8756 -0.3416 -0.3416
vn -0.4606 -0.7588 0.4606
vn -0.4606 -0.7588 -0.4606
vn 0.4606 -0.7588 0.4606
vn 0.7588 -0.4606 0.4606
vn 0.7588 0.4606 0.4606
vn 0.4606 -0.7588 -0.4606
vn 0.7588 -0.4606 -0.4606
vn 0.7588 0.4606 -0.4606
vn -0.3416 -0.3416 -0.8756
vn -0.3416 0.3416 -0.8756
vn 0.3416 0.3416 -0.8756
vn 0.3416 -0.3416 -0.8756
vn -0.4606 -0.4606 0.7588
vn -0.4606 0.4606 0.7588
vn 0.4606 -0.4606 0.7588
vn 0.4606 0.4606 0.7588
usemtl tiny_treats_1
s 1
f 13/1/1 14/2/2 4/3/3 2/4/4
f 18/5/5 19/6/6 15/7/7 12/8/8
f 1/9/9 2/10/4 3/11/10
f 4/12/3 41/13/11 5/14/12
f 6/15/13 7/16/14 8/17/15
f 47/18/16 9/19/17 10/20/18
f 11/21/19 12/22/8 13/23/1
f 53/24/20 14/25/2 15/26/7
f 16/27/21 17/28/22 18/29/5
f 59/30/23 19/31/6 20/32/24
f 6/15/13 1/9/9 3/11/10 7/16/14
f 2/10/4 4/12/3 5/14/12 3/11/10
f 41/13/11 47/18/16 10/20/18 5/14/12
f 9/19/17 8/17/15 7/16/14 10/20/18
f 16/27/21 6/15/13 8/17/15 17/28/22
f 47/18/16 59/30/23 20/32/24 9/19/17
f 19/31/6 18/29/5 17/28/22 20/32/24
f 11/21/19 16/27/21 18/29/5 12/22/8
f 59/30/23 53/24/20 15/26/7 19/31/6
f 14/25/2 13/23/1 12/22/8 15/26/7
f 1/9/9 11/21/19 13/23/1 2/10/4
f 53/24/20 41/13/11 4/12/3 14/25/2
f 6/33/13 16/34/21 11/35/19 1/36/9
f 34/37/1 36/38/2 24/39/3 22/40/4
f 39/41/25 30/42/26 25/43/27 35/44/28
f 23/45/29 26/46/30 32/47/31 28/48/32
f 21/49/33 22/50/4 23/51/29
f 24/52/3 25/53/27 26/54/30
f 27/55/34 28/56/32 29/57/15
f 30/58/26 31/59/17 32/60/31
f 33/61/35 43/62/36 34/63/1
f 35/64/28 36/65/2 46/66/37
f 37/67/38 38/68/22 48/69/39
f 39/70/25 52/71/40 40/72/24
f 27/55/34 21/49/33 23/51/29 28/56/32
f 22/50/4 24/52/3 26/54/30 23/51/29
f 25/53/27 30/58/26 32/60/31 26/54/30
f 31/59/17 29/57/15 28/56/32 32/60/31
f 37/67/38 27/55/34 29/57/15 38/68/22
f 30/58/26 39/70/25 40/72/24 31/59/17
f 52/71/40 48/69/39 38/68/22 40/72/24
f 33/61/35 37/67/38 48/69/39 43/62/36
f 39/70/25 35/64/28 46/66/37 52/71/40
f 36/65/2 34/63/1 43/62/36 46/66/37
f 21/49/33 33/61/35 34/63/1 22/50/4
f 35/64/28 25/53/27 24/52/3 36/65/2
f 55/73/1 57/74/2 44/75/3 42/76/4
f 61/77/5 63/78/6 58/79/7 54/80/8
f 62/81/25 50/82/26 45/83/27 56/84/28
f 41/85/33 42/86/4 43/87/10
f 44/88/3 45/89/27 46/90/12
f 47/91/34 48/92/14 49/93/15
f 50/94/26 51/95/17 52/96/18
f 53/97/35 54/98/8 55/99/1
f 56/100/28 57/101/2 58/102/7
f 59/103/38 60/104/22 61/105/5
f 62/106/25 63/107/6 64/108/24
f 47/91/34 41/85/33 43/87/10 48/92/14
f 42/86/4 44/88/3 46/90/12 43/87/10
f 45/89/27 50/94/26 52/96/18 46/90/12
f 51/95/17 49/93/15 48/92/14 52/96/18
f 59/103/38 47/91/34 49/93/15 60/104/22
f 50/94/26 62/106/25 64/108/24 51/95/17
f 63/107/6 61/105/5 60/104/22 64/108/24
f 53/97/35 59/103/38 61/105/5 54/98/8
f 62/106/25 56/100/28 58/102/7 63/107/6
f 57/101/2 55/99/1 54/98/8 58/102/7
f 41/85/33 53/97/35 55/99/1 42/86/4
f 56/100/28 45/89/27 44/88/3 57/101/2
f 76/109/1 77/110/2 68/111/3 66/112/4
f 67/113/29 69/114/30 74/115/31 71/116/32
f 65/117/9 66/118/4 67/119/29
f 68/120/3 21/121/11 69/122/30
f 70/123/13 71/124/32 72/125/15
f 27/126/16 73/127/17 74/128/31
f 75/129/19 3/130/36 76/131/1
f 33/132/20 77/133/2 5/134/37
f 78/135/21 79/136/22 7/137/39
f 37/138/23 10/139/40 80/140/24
f 70/123/13 65/117/9 67/119/29 71/124/32
f 66/118/4 68/120/3 69/122/30 67/119/29
f 21/121/11 27/126/16 74/128/31 69/122/30
f 73/127/17 72/125/15 71/124/32 74/128/31
f 78/135/21 70/123/13 72/125/15 79/136/22
f 27/126/16 37/138/23 80/140/24 73/127/17
f 10/139/40 7/137/39 79/136/22 80/140/24
f 75/129/19 78/135/21 7/137/39 3/130/36
f 37/138/23 33/132/20 5/134/37 10/139/40
f 77/133/2 76/131/1 3/130/36 5/134/37
f 65/117/9 75/129/19 76/131/1 66/118/4
f 33/132/20 21/121/11 68/120/3 77/133/2
f 70/141/13 78/142/21 75/143/19 65/144/9
f 95/145/25 88/146/26 83/147/27 92/148/28
f 82/149/29 84/150/30 90/151/31 86/152/32
f 87/153/41 89/154/42 96/155/43 94/156/44
f 81/157/33 29/57/45 82/158/29
f 31/59/46 83/159/27 84/160/30
f 85/161/34 86/162/32 87/163/41
f 88/164/26 89/165/42 90/166/31
f 91/167/35 98/168/36 38/68/47
f 92/169/28 40/72/48 100/170/37
f 93/171/38 94/172/44 102/173/39
f 95/174/25 106/175/40 96/176/43
f 85/161/34 81/157/33 82/158/29 86/162/32
f 29/57/45 31/59/46 84/160/30 82/158/29
f 83/159/27 88/164/26 90/166/31 84/160/30
f 89/165/42 87/163/41 86/162/32 90/166/31
f 93/171/38 85/161/34 87/163/41 94/172/44
f 88/164/26 95/174/25 96/176/43 89/165/42
f 106/175/40 102/173/39 94/172/44 96/176/43
f 91/167/35 93/171/38 102/173/39 98/168/36
f 95/174/25 92/169/28 100/170/37 106/175/40
f 40/72/48 38/68/47 98/168/36 100/170/37
f 81/157/33 91/167/35 38/68/47 29/57/45
f 92/169/28 83/159/27 31/59/46 40/72/48
f 113/177/5 115/178/6 110/179/7 108/180/8
f 114/181/25 104/182/26 99/183/27 109/184/28
f 103/185/41 105/186/42 116/187/43 112/188/44
f 97/189/33 49/93/45 98/190/10
f 51/95/46 99/191/27 100/192/12
f 101/193/34 102/194/14 103/195/41
f 104/196/26 105/197/42 106/198/18
f 107/199/35 108/200/8 60/104/47
f 109/201/28 64/108/48 110/202/7
f 111/203/38 112/204/44 113/205/5
f 114/206/25 115/207/6 116/208/43
f 101/193/34 97/189/33 98/190/10 102/194/14
f 49/93/45 51/95/46 100/192/12 98/190/10
f 99/191/27 104/196/26 106/198/18 100/192/12
f 105/197/42 103/195/41 102/194/14 106/198/18
f 111/203/38 101/193/34 103/195/41 112/204/44
f 104/196/26 114/206/25 116/208/43 105/197/42
f 115/207/6 113/205/5 112/204/44 116/208/43
f 107/199/35 111/203/38 113/205/5 108/200/8
f 114/206/25 109/201/28 110/202/7 115/207/6
f 64/108/48 60/104/47 108/200/8 110/202/7
f 97/189/33 107/199/35 60/104/47 49/93/45
f 109/201/28 99/191/27 51/95/46 64/108/48
f 130/209/5 131/210/6 127/211/7 126/212/8
f 122/213/41 123/214/42 132/215/43 129/216/44
f 117/217/9 8/17/45 118/218/10
f 9/19/46 97/219/11 119/220/12
f 120/221/13 121/222/14 122/223/41
f 101/224/16 123/225/42 124/226/18
f 125/227/19 126/228/8 17/28/47
f 107/229/20 20/32/48 127/230/7
f 128/231/21 129/232/44 130/233/5
f 111/234/23 131/235/6 132/236/43
f 120/221/13 117/217/9 118/218/10 121/222/14
f 8/17/45 9/19/46 119/220/12 118/218/10
f 97/219/11 101/224/16 124/226/18 119/220/12
f 123/225/42 122/223/41 121/222/14 124/226/18
f 128/231/21 120/221/13 122/223/41 129/232/44
f 101/224/16 111/234/23 132/236/43 123/225/42
f 131/235/6 130/233/5 129/232/44 132/236/43
f 125/227/19 128/231/21 130/233/5 126/228/8
f 111/234/23 107/229/20 127/230/7 131/235/6
f 20/32/48 17/28/47 126/228/8 127/230/7
f 117/217/9 125/227/19 17/28/47 8/17/45
f 107/229/20 97/219/11 9/19/46 20/32/48
f 120/237/13 128/238/21 125/239/19 117/240/9
f 134/241/29 135/242/30 140/243/31 137/244/32
f 138/245/41 139/246/42 144/247/43 143/248/44
f 133/249/9 72/125/45 134/250/29
f 73/127/46 81/251/11 135/252/30
f 136/253/13 137/254/32 138/255/41
f 85/256/16 139/257/42 140/258/31
f 141/259/19 118/260/36 79/136/47
f 91/261/20 80/140/48 119/262/37
f 142/263/21 143/264/44 121/265/39
f 93/266/23 124/267/40 144/268/43
f 136/253/13 133/249/9 134/250/29 137/254/32
f 72/125/45 73/127/46 135/252/30 134/250/29
f 81/251/11 85/256/16 140/258/31 135/252/30
f 139/257/42 138/255/41 137/254/32 140/258/31
f 142/263/21 136/253/13 138/255/41 143/264/44
f 85/256/16 93/266/23 144/268/43 139/257/42
f 124/267/40 121/265/39 143/264/44 144/268/43
f 141/259/19 142/263/21 121/265/39 118/260/36
f 93/266/23 91/261/20 119/262/37 124/267/40
f 80/140/48 79/136/47 118/260/36 119/262/37
f 133/249/9 141/259/19 79/136/47 72/125/45
f 91/261/20 81/251/11 73/127/46 80/140/48
f 136/269/13 142/270/21 141/271/19 133/272/9
