# Blender v3.4.1 OBJ File: 'Tiny_treats_Playful_Bedroom_1.1_ASSETS_EXPORT.blend'
# www.blender.org
mtllib wall_modular_panelled_half_corner_inner_pink_B.mtl
o wall_modular_panelled_half_corner_inner_pink_B
v -0.004659 4.000000 1.000000
v -0.004659 -0.000000 0.000000
v -0.004659 4.000000 0.000001
v 1.000000 0.000000 -0.000001
v 1.000000 4.000000 -0.000000
v 1.000000 1.500000 -0.000001
v 0.200000 -0.000000 1.000000
v 0.200000 4.000000 1.000000
v 0.200000 1.500000 1.000000
v 0.200000 1.200000 1.000000
v 0.280000 1.200000 1.000000
v 0.300000 1.220000 1.000000
v 0.300000 1.480000 1.000000
v 0.280000 1.500000 1.000000
v 0.200000 0.200000 1.000000
v 0.200000 1.200000 0.333333
v 0.266666 1.200000 0.266666
v 0.266666 0.200000 0.266666
v 0.200000 0.200000 0.333333
v 0.250000 0.200000 0.383333
v 0.250000 0.200000 0.949999
v 0.200000 1.200000 1.000000
v 0.250000 1.200000 0.950000
v 0.250000 1.200000 0.383333
v 0.200000 0.200000 1.000000
v 0.200000 -0.000000 1.000000
v 0.280000 -0.000000 1.000000
v 0.300000 0.020000 1.000000
v 0.300000 0.180000 1.000000
v 0.280000 0.200000 1.000000
v 0.200000 1.500000 1.000000
v 0.250000 4.000000 1.000000
v 0.250000 1.500000 1.000000
v 0.200000 -0.000000 0.200000
v 0.200000 4.000000 0.200000
v 1.000000 -0.000000 0.199999
v 1.000000 4.000000 0.200000
v 1.000000 1.500000 0.199999
v 0.200000 1.500000 0.200000
v 1.000000 1.200000 0.199999
v 0.200000 1.200000 0.200000
v 0.279999 1.200000 0.280000
v 0.300000 1.220000 0.300000
v 0.300000 1.480000 0.300000
v 0.279999 1.500000 0.280000
v 1.000000 1.500000 0.279999
v 1.000000 1.480000 0.299999
v 1.000000 1.220000 0.299999
v 1.000000 1.200000 0.279999
v 1.000000 0.200000 0.199999
v 0.200000 0.200000 0.200000
v 1.000000 -0.000000 0.199999
v 0.200000 -0.000000 0.200000
v 0.279999 -0.000000 0.280000
v 0.300000 0.020000 0.300000
v 0.300000 0.180000 0.300000
v 0.279999 0.200000 0.280000
v 1.000000 0.200000 0.279999
v 1.000000 0.180000 0.299999
v 1.000000 0.020000 0.299999
v 1.000000 -0.000000 0.279999
v 1.000000 1.500000 0.199999
v 0.200000 1.500000 0.200000
v 0.250000 4.000000 0.250000
v 1.000000 4.000000 0.250000
v 0.250000 1.500000 0.250000
v 1.000000 1.500000 0.249999
v 0.000000 1.500000 1.000000
v 0.000000 -0.000000 1.000000
v 1.000000 0.200000 0.199999
v 0.333333 0.200000 0.199999
v 0.333333 1.200000 0.200000
v 1.000000 1.200000 0.199999
v 0.949999 1.200000 0.249999
v 0.949999 0.200000 0.249999
v 0.383333 0.200000 0.249999
v 0.383333 1.200000 0.249999
vt 0.428075 0.366991
vt 0.445756 0.366991
vt 0.445756 0.366991
vt 0.428075 0.366991
vt 0.445756 0.349327
vt 0.445756 0.349327
vt 0.445756 0.366991
vt 0.428075 0.366991
vt 0.428075 0.366991
vt 0.445756 0.366991
vt 0.417395 0.859544
vt 0.456071 0.859544
vt 0.456071 0.859544
vt 0.417395 0.859544
vt 0.456071 0.891181
vt 0.456071 0.896204
vt 0.417395 0.896204
vt 0.417395 0.891181
vt 0.456071 0.927840
vt 0.417395 0.927840
vt 0.417395 0.927454
vt 0.456071 0.927454
vt 0.456071 0.859931
vt 0.417395 0.859931
vt 0.456071 0.927840
vt 0.417395 0.927840
vt 0.417395 0.890794
vt 0.417395 0.896590
vt 0.417395 0.890794
vt 0.417395 0.896590
vt 0.429320 0.867611
vt 0.429320 0.890988
vt 0.418362 0.890988
vt 0.418362 0.867611
vt 0.418362 0.898861
vt 0.418362 0.922238
vt 0.417395 0.922238
vt 0.417395 0.898861
vt 0.429320 0.859738
vt 0.429320 0.836361
vt 0.430287 0.836361
vt 0.430287 0.859738
vt 0.430287 0.922238
vt 0.430287 0.898861
vt 0.431254 0.898861
vt 0.431254 0.922238
vt 0.417395 0.859544
vt 0.456071 0.859544
vt 0.456071 0.859544
vt 0.417395 0.859544
vt 0.456071 0.891181
vt 0.456071 0.896204
vt 0.417395 0.896204
vt 0.417395 0.891181
vt 0.456071 0.927840
vt 0.417395 0.927840
vt 0.417395 0.927454
vt 0.456071 0.927454
vt 0.456071 0.859931
vt 0.417395 0.859931
vt 0.456071 0.927840
vt 0.417395 0.927840
vt 0.417395 0.890794
vt 0.417395 0.896590
vt 0.417395 0.890794
vt 0.417395 0.896590
vt 0.450978 0.866840
vt 0.450978 0.895303
vt 0.422488 0.895303
vt 0.422488 0.866840
vt 0.445756 0.349327
vt 0.428075 0.349327
vt 0.428075 0.349327
vt 0.445756 0.349327
vt 0.450978 0.895303
vt 0.450978 0.895303
vt 0.450978 0.866840
vt 0.450978 0.866840
vt 0.428075 0.366991
vt 0.445756 0.366991
vt 0.417395 0.859544
vt 0.456071 0.859544
vt 0.456071 0.859544
vt 0.417395 0.859544
vt 0.456071 0.891181
vt 0.456071 0.896204
vt 0.417395 0.896204
vt 0.417395 0.891181
vt 0.456071 0.927840
vt 0.417395 0.927840
vt 0.417395 0.927454
vt 0.456071 0.927454
vt 0.456071 0.859931
vt 0.417395 0.859931
vt 0.456071 0.927840
vt 0.417395 0.927840
vt 0.456071 0.896590
vt 0.456071 0.890794
vt 0.456071 0.896590
vt 0.456071 0.890794
vt 0.455104 0.867611
vt 0.455104 0.890988
vt 0.444146 0.890988
vt 0.444146 0.867611
vt 0.417395 0.859544
vt 0.456071 0.859544
vt 0.456071 0.859544
vt 0.417395 0.859544
vt 0.456071 0.891181
vt 0.456071 0.896204
vt 0.417395 0.896204
vt 0.417395 0.891181
vt 0.456071 0.927840
vt 0.417395 0.927840
vt 0.417395 0.927454
vt 0.456071 0.927454
vt 0.456071 0.859931
vt 0.417395 0.859931
vt 0.456071 0.927840
vt 0.417395 0.927840
vt 0.456071 0.896590
vt 0.456071 0.890794
vt 0.456071 0.896590
vt 0.456071 0.890794
vt 0.422488 0.895303
vt 0.422488 0.866840
vt 0.445756 0.349327
vt 0.428075 0.349327
vt 0.428075 0.349327
vt 0.428075 0.366991
vt 0.428075 0.349327
vt 0.445756 0.366991
vt 0.422488 0.866840
vt 0.422488 0.895303
vt 0.422488 0.866840
vt 0.450978 0.866840
vt 0.455104 0.859738
vt 0.455104 0.836361
vt 0.456071 0.836361
vt 0.456071 0.859738
vt 0.442212 0.859738
vt 0.442212 0.836361
vt 0.443179 0.836361
vt 0.443179 0.859738
vt 0.443179 0.922238
vt 0.443179 0.898861
vt 0.444146 0.898861
vt 0.444146 0.922238
vn -0.0000 1.0000 0.0000
vn 1.0000 0.0000 0.0000
vn 0.0000 -1.0000 -0.0000
vn 0.2175 -0.9761 -0.0000
vn 0.3827 -0.9239 -0.0000
vn 0.2175 0.9761 0.0000
vn 0.3827 0.9239 -0.0000
vn 0.7071 0.7071 -0.0000
vn 0.7071 -0.7071 -0.0000
vn 0.0000 -0.0000 1.0000
vn 0.9239 0.0000 -0.3827
vn 0.9239 -0.0000 0.3827
vn 0.7071 -0.0000 0.7071
vn 0.7071 0.0000 -0.7071
vn 0.0000 0.9239 0.3827
vn 0.0000 0.9761 0.2175
vn 0.0000 0.7071 0.7071
vn 0.0000 -0.7071 0.7071
vn 0.3827 -0.0000 0.9239
vn -0.3827 -0.0000 0.9239
vn 0.0000 -0.9239 0.3827
vn 0.0000 -0.9761 0.2175
vn -0.7071 -0.0000 0.7071
usemtl tiny_treats_1
s 1
f 35/1/1 37/2/1 5/3/1 3/4/1
f 5/3/2 37/2/2 62/5/2 6/6/2
f 35/7/1 8/8/1 32/9/1 64/10/1
f 10/11/3 41/12/3 42/13/4 11/14/5
f 43/15/2 44/16/2 13/17/2 12/18/2
f 45/19/6 14/20/7 13/21/8 44/22/8
f 43/23/9 12/24/9 11/14/5 42/13/4
f 39/25/1 9/26/1 14/20/7 45/19/6
f 11/27/10 12/18/10 13/17/10 14/28/10
f 10/29/10 11/27/10 14/28/10 9/30/10
f 20/31/11 24/32/11 23/33/12 21/34/12
f 21/35/12 23/36/12 22/37/13 15/38/13
f 24/39/11 20/40/11 19/41/14 16/42/14
f 16/43/13 19/44/13 18/45/13 17/46/13
f 26/47/3 53/48/3 54/49/4 27/50/5
f 55/51/2 56/52/2 29/53/2 28/54/2
f 57/55/6 30/56/7 29/57/8 56/58/8
f 55/59/9 28/60/9 27/50/5 54/49/4
f 51/61/1 25/62/1 30/56/7 57/55/6
f 27/63/10 28/54/10 29/53/10 30/64/10
f 26/65/10 27/63/10 30/64/10 25/66/10
f 34/67/2 63/68/2 31/69/2 7/70/2
f 66/71/2 64/10/2 32/9/2 33/72/2
f 8/8/10 31/73/10 33/72/10 32/9/10
f 31/73/3 63/74/3 66/71/3 33/72/3
f 6/75/2 62/76/2 36/77/2 4/78/2
f 37/2/1 35/1/1 64/79/1 65/80/1
f 41/81/3 40/82/3 49/83/3 42/84/3
f 48/85/10 47/86/10 44/87/10 43/88/10
f 46/89/15 45/90/16 44/91/17 47/92/17
f 48/93/18 43/94/18 42/84/18 49/83/18
f 38/95/1 39/96/1 45/90/16 46/89/15
f 46/97/2 47/86/2 48/85/2 49/98/2
f 38/99/2 46/97/2 49/98/2 40/100/2
f 75/101/19 74/102/19 77/103/20 76/104/20
f 53/105/3 52/106/3 61/107/21 54/108/22
f 60/109/10 59/110/10 56/111/10 55/112/10
f 58/113/15 57/114/16 56/115/17 59/116/17
f 60/117/18 55/118/18 54/108/22 61/107/21
f 50/119/1 51/120/1 57/114/16 58/113/15
f 58/121/2 59/110/2 60/109/2 61/122/2
f 50/123/2 58/121/2 61/122/2 52/124/2
f 36/77/10 62/76/10 63/125/10 34/126/10
f 67/127/10 65/80/10 64/79/10 66/128/10
f 63/129/3 62/5/3 67/127/3 66/128/3
f 62/5/2 37/2/2 65/80/2 67/127/2
f 31/73/10 8/8/10 1/130/10 68/131/10
f 8/8/1 35/7/1 3/132/1 1/130/1
f 36/77/3 34/126/3 2/133/3 4/78/3
f 7/70/10 31/69/10 68/134/10 69/135/10
f 34/67/3 7/70/3 69/135/3 2/136/3
f 74/137/19 75/138/19 70/139/13 73/140/13
f 17/141/13 18/142/13 71/143/13 72/144/13
f 72/145/23 71/146/23 76/147/20 77/148/20
