# Blender v3.4.1 OBJ File: 'Tiny_treats_Playful_Bedroom_1.1_ASSETS_EXPORT.blend'
# www.blender.org
mtllib wall_modular_panelled_window_blue_large_B.mtl
o wall_modular_panelled_window_blue_large_B
v 1.000000 0.000000 -0.250000
v 1.000000 4.000000 -0.249999
v -1.000000 4.000000 -0.250000
v -1.000000 0.000000 -0.250000
v 0.750000 3.500000 -0.250000
v -0.750000 3.500000 -0.250000
v 0.750000 0.500000 -0.250000
v -0.750000 0.500000 -0.250000
v 0.750000 1.500000 -0.250000
v 1.000000 1.500000 -0.250000
v -0.750000 1.500000 -0.250000
v -1.000000 1.500000 -0.250000
v 1.000000 4.000000 0.000001
v 1.000000 -0.000000 0.000000
v -1.000000 -0.000000 -0.000000
v -1.000000 4.000000 0.000000
v -0.750000 3.500000 0.000000
v 0.750000 3.500000 0.000001
v -0.750000 0.500000 0.000000
v 0.750000 0.500000 0.000000
v -0.750000 1.500000 0.000000
v -1.000000 1.500000 -0.000000
v 0.750000 1.500000 0.000000
v 1.000000 1.500000 0.000000
vt 0.446963 0.894882
vt 0.446963 0.894882
vt 0.446963 0.881071
vt 0.446963 0.881071
vt 0.455821 0.694615
vt 0.450906 0.675728
vt 0.422925 0.675728
vt 0.418009 0.694615
vt 0.426503 0.894882
vt 0.426503 0.881071
vt 0.426503 0.881071
vt 0.426503 0.894882
vt 0.418009 0.656840
vt 0.422925 0.656840
vt 0.450557 0.894882
vt 0.450557 0.867260
vt 0.450557 0.867260
vt 0.450557 0.894882
vt 0.422908 0.894882
vt 0.422908 0.894882
vt 0.422908 0.867260
vt 0.422908 0.867260
vt 0.455821 0.656840
vt 0.450906 0.656840
vt 0.455821 0.694615
vt 0.455821 0.656840
vt 0.450906 0.675728
vt 0.450906 0.656840
vt 0.418009 0.694615
vt 0.418009 0.656840
vt 0.422925 0.675728
vt 0.422925 0.656840
vn -1.0000 0.0000 -0.0000
vn 0.0000 0.0000 -1.0000
vn 1.0000 -0.0000 0.0000
vn 0.0000 1.0000 0.0000
vn 0.0000 -1.0000 -0.0000
usemtl tiny_treats_1
s 1
f 23/1/1 9/2/1 7/3/1 20/4/1
f 2/5/2 5/6/2 6/7/2 3/8/2
f 21/9/3 19/10/3 8/11/3 11/12/3
f 12/13/2 3/8/2 6/7/2 11/14/2
f 24/15/3 14/16/3 1/17/3 10/18/3
f 22/19/1 12/20/1 4/21/1 15/22/1
f 1/17/2 4/21/2 8/11/2 7/3/2
f 10/23/2 9/24/2 5/6/2 2/5/2
f 1/17/2 7/3/2 9/2/2 10/18/2
f 13/25/3 24/26/3 10/23/3 2/5/3
f 18/27/1 5/6/1 9/24/1 23/28/1
f 16/29/1 3/8/1 12/13/1 22/30/1
f 4/21/2 12/20/2 11/12/2 8/11/2
f 17/31/3 21/32/3 11/14/3 6/7/3
f 2/5/4 3/8/4 16/29/4 13/25/4
f 4/21/5 1/17/5 14/16/5 15/22/5
f 7/3/4 8/11/4 19/10/4 20/4/4
f 5/6/5 18/27/5 17/31/5 6/7/5
