# Blender v3.4.1 OBJ File: 'Tiny_treats_Playful_Bedroom_1.1_ASSETS_EXPORT.blend'
# www.blender.org
mtllib wall_modular_panelled_window_blue_full_left_B.mtl
o wall_modular_panelled_window_blue_full_left_B
v 1.000000 0.000000 -0.250000
v 1.000000 4.000000 -0.250000
v -1.000000 4.000000 -0.250000
v -1.000000 0.000000 -0.250000
v 1.000000 3.500000 -0.250000
v -0.750000 3.500000 -0.250000
v 1.000000 0.500000 -0.250000
v -0.750000 0.500000 -0.250000
v -0.750000 1.500000 -0.250000
v -1.000000 1.500000 -0.250000
v -1.000000 4.000000 -0.000000
v -1.000000 0.000000 -0.000000
v 1.000000 -0.000000 0.000000
v 1.000000 4.000000 0.000000
v 1.000000 0.500000 0.000000
v -0.750000 0.500000 -0.000000
v -0.750000 3.500000 -0.000000
v -0.750000 1.500000 -0.000000
v -1.000000 1.500000 -0.000000
v 1.000000 3.500000 0.000000
vt 0.417722 0.695099
vt 0.417722 0.695099
vt 0.417722 0.656167
vt 0.417722 0.656167
vt 0.456691 0.695099
vt 0.451625 0.675633
vt 0.422788 0.675633
vt 0.422788 0.656167
vt 0.450557 0.867260
vt 0.422908 0.867260
vt 0.426503 0.881071
vt 0.446963 0.881071
vt 0.426503 0.894882
vt 0.426503 0.881071
vt 0.426503 0.894882
vt 0.446963 0.881071
vt 0.450557 0.867260
vt 0.422908 0.894882
vt 0.422788 0.675633
vt 0.422788 0.656167
vt 0.456691 0.695099
vt 0.451625 0.675633
vt 0.422908 0.867260
vt 0.422908 0.894882
vn -1.0000 0.0000 0.0000
vn 0.0000 0.0000 -1.0000
vn 1.0000 0.0000 -0.0000
vn 0.0000 -1.0000 0.0000
vn 0.0000 1.0000 0.0000
usemtl tiny_treats_1
s 1
f 11/1/1 3/2/1 10/3/1 19/4/1
f 2/5/2 5/6/2 6/7/2 3/2/2
f 10/3/2 3/2/2 6/7/2 9/8/2
f 1/9/2 4/10/2 8/11/2 7/12/2
f 18/13/3 16/14/3 8/11/3 9/15/3
f 15/16/3 13/17/3 1/9/3 7/12/3
f 4/10/2 10/18/2 9/15/2 8/11/2
f 17/19/3 18/20/3 9/8/3 6/7/3
f 5/6/3 2/5/3 14/21/3 20/22/3
f 5/6/4 20/22/4 17/19/4 6/7/4
f 4/10/4 1/9/4 13/17/4 12/23/4
f 8/11/5 16/14/5 15/16/5 7/12/5
f 10/18/1 4/10/1 12/23/1 19/24/1
f 2/5/5 3/2/5 11/1/5 14/21/5
