# Blender v3.4.1 OBJ File: 'Tiny_treats_Playful_Bedroom_1.1_ASSETS_EXPORT.blend'
# www.blender.org
mtllib wall_modular_panelled_corner_outer_blue_B.mtl
o wall_modular_panelled_corner_outer_blue_B
v 0.250000 -0.000000 0.250001
v 2.000000 -0.000000 0.249999
v 2.000000 4.000000 0.250000
v 2.000000 1.500000 0.249999
v 0.250000 1.500000 0.250001
v 0.250001 -0.000000 2.000000
v 0.250001 4.000000 2.000001
v 0.249999 4.000000 0.250001
v 0.250001 1.500000 2.000001
v 1.999999 4.000000 0.000000
v 1.999999 1.500000 0.000000
v -0.000000 4.000000 0.000000
v 0.000000 4.000000 2.000001
v 0.000000 1.500000 2.000001
v 0.000000 -0.000000 0.000000
v 1.999999 -0.000000 0.000001
v -0.000000 -0.000000 2.000001
vt 0.418009 0.656840
vt 0.418009 0.694615
vt 0.418009 0.694615
vt 0.418009 0.656840
vt 0.455821 0.694615
vt 0.455821 0.694615
vt 0.450666 0.894990
vt 0.450666 0.867152
vt 0.422800 0.867152
vt 0.422800 0.894990
vt 0.455821 0.656840
vt 0.422800 0.867152
vt 0.422800 0.894990
vt 0.418009 0.694615
vt 0.455821 0.694615
vt 0.455821 0.694615
vt 0.418009 0.694615
vt 0.450666 0.894990
vt 0.450666 0.867152
vt 0.422800 0.867152
vt 0.422800 0.894990
vt 0.455821 0.656840
vt 0.418009 0.656840
vt 0.450666 0.867152
vt 0.436733 0.867152
vt 0.450666 0.867152
vt 0.455821 0.656840
vt 0.450666 0.894990
vn 1.0000 -0.0000 -0.0000
vn 0.0000 1.0000 0.0000
vn 0.0000 -0.0000 1.0000
vn -0.0000 -1.0000 -0.0000
usemtl tiny_treats_1
s 1
f 11/1/1 10/2/1 3/3/1 4/4/1
f 10/2/2 12/5/2 8/6/2 3/3/2
f 5/7/3 1/8/3 2/9/3 4/10/3
f 8/6/3 5/11/3 4/4/3 3/3/3
f 16/12/1 11/13/1 4/10/1 2/9/1
f 12/14/2 13/15/2 7/16/2 8/17/2
f 9/18/1 6/19/1 1/20/1 5/21/1
f 7/16/1 9/22/1 5/23/1 8/17/1
f 17/24/4 15/25/4 1/20/4 6/19/4
f 2/9/4 1/8/4 15/26/4 16/12/4
f 7/16/3 13/15/3 14/27/3 9/22/3
f 9/18/3 14/28/3 17/24/3 6/19/3
