# Blender v3.4.1 OBJ File: 'Tiny_treats_Playful_Bedroom_1.1_ASSETS_EXPORT.blend'
# www.blender.org
mtllib wall_modular_panelled_half_corner_inner_pink_A.mtl
o wall_modular_panelled_half_corner_inner_pink_A
v -0.250000 -0.000000 0.999999
v -0.250000 4.000000 1.000000
v -0.250000 1.500000 1.000000
v -0.250001 1.500000 -0.250000
v 1.000000 0.000000 -0.250001
v 1.000000 4.000000 -0.250001
v -0.250000 0.000000 -0.250000
v -0.250000 4.000000 -0.249999
v 1.000000 1.500000 -0.250001
v 1.000000 4.000000 0.000000
v 1.000000 0.000000 0.000000
v 0.000000 1.500000 1.000000
v 1.000000 1.500000 0.000000
v 0.000000 -0.000000 0.000001
v 0.000000 4.000000 0.000001
v 0.000000 -0.000000 1.000000
v 0.000000 4.000000 1.000000
vt 0.450978 0.866840
vt 0.422488 0.866840
vt 0.422488 0.866840
vt 0.450978 0.866840
vt 0.428075 0.349327
vt 0.428075 0.366991
vt 0.428075 0.366991
vt 0.428075 0.349327
vt 0.450978 0.895303
vt 0.422488 0.895303
vt 0.445756 0.366991
vt 0.445756 0.349327
vt 0.445756 0.366991
vt 0.450978 0.866840
vt 0.422488 0.866840
vt 0.422488 0.866840
vt 0.450978 0.866840
vt 0.422488 0.895303
vt 0.450978 0.895303
vt 0.422488 0.895303
vt 0.445756 0.366991
vt 0.445756 0.349327
vt 0.428075 0.349327
vt 0.428075 0.366991
vt 0.428075 0.366991
vt 0.445756 0.366991
vt 0.445756 0.349327
vt 0.450978 0.895303
vn 0.0000 -1.0000 -0.0000
vn -0.0000 -0.0000 1.0000
vn -1.0000 -0.0000 0.0000
vn -0.0000 1.0000 0.0000
vn -0.0000 0.0000 -1.0000
vn 1.0000 0.0000 0.0000
usemtl tiny_treats_1
s 1
f 14/1/1 16/2/1 1/3/1 7/4/1
f 12/5/2 17/6/2 2/7/2 3/8/2
f 4/9/3 7/4/3 1/3/3 3/10/3
f 8/11/3 4/12/3 3/8/3 2/7/3
f 17/6/4 15/13/4 8/11/4 2/7/4
f 11/14/1 14/15/1 7/16/1 5/17/1
f 16/2/2 12/18/2 3/10/2 1/3/2
f 9/19/5 5/17/5 7/16/5 4/20/5
f 6/21/5 9/22/5 4/23/5 8/24/5
f 15/25/4 10/26/4 6/21/4 8/24/4
f 6/21/6 10/26/6 13/27/6 9/22/6
f 9/19/6 13/28/6 11/14/6 5/17/6
