# Blender v3.4.1 OBJ File: 'Tiny_treats_Playful_Bedroom_1.1_ASSETS_EXPORT.blend'
# www.blender.org
mtllib wall_modular_panelled_corner_outer_pink_A.mtl
o wall_modular_panelled_corner_outer_pink_A
v 1.999999 -0.000000 -0.200000
v 1.999999 4.000000 -0.200000
v 1.999999 1.500000 -0.200000
v -0.200000 1.200000 -0.199999
v 1.999999 1.200000 -0.200000
v 1.999999 1.200000 -0.280000
v 1.999999 1.220000 -0.300000
v 1.999999 1.480000 -0.300000
v 1.999999 1.500000 -0.280000
v -0.300000 1.220000 -0.299999
v 1.999999 0.200000 -0.200000
v 0.666666 0.200000 -0.200000
v 0.716666 0.200000 -0.250000
v 0.716666 1.200000 -0.250000
v 0.666666 1.200000 -0.199999
v 0.050000 1.200000 -0.249999
v 0.050000 0.200000 -0.249999
v 1.333333 1.200000 -0.200000
v 1.283333 1.200000 -0.250000
v 1.283333 0.200000 -0.250000
v 1.333333 0.200000 -0.200000
v 0.616666 0.200000 -0.250000
v 0.616666 1.200000 -0.249999
v 1.383333 0.200000 -0.250000
v 1.949999 0.200000 -0.250000
v 1.999999 1.200000 -0.200000
v 1.949999 1.200000 -0.250000
v 1.383333 1.200000 -0.250000
v 1.999999 0.200000 -0.200000
v -0.200001 -0.000000 -0.199999
v 1.999999 -0.000000 -0.200000
v 1.999999 -0.000000 -0.280000
v 1.999999 0.020000 -0.300000
v 1.999999 0.180000 -0.300000
v 1.999999 0.200000 -0.280000
v -0.300001 0.020000 -0.299999
v 0.000001 1.200000 -0.199999
v 1.999999 1.500000 -0.200000
v 1.999999 4.000000 -0.250000
v -0.250000 4.000000 -0.249999
v 1.999999 1.500000 -0.250000
v -0.250000 1.500000 -0.249999
v -0.200001 -0.000000 -0.199999
v -0.200001 4.000000 -0.199999
v -0.200000 -0.000000 2.000000
v -0.200000 4.000000 2.000001
v -0.200000 1.500000 2.000001
v -0.200001 1.500000 -0.199999
v -0.200000 1.200000 2.000001
v -0.049999 1.200000 -0.249999
v -0.280001 1.200000 -0.279999
v -0.049999 0.200000 -0.249999
v -0.300001 1.480000 -0.299999
v -0.280001 1.500000 -0.279999
v -0.279999 1.500000 2.000001
v -0.300000 1.480000 2.000001
v -0.300000 1.220000 2.000001
v -0.279999 1.200000 2.000001
v -0.200001 0.200000 0.000001
v -0.200000 0.200000 2.000000
v -0.200000 0.200000 1.333334
v -0.250000 0.200000 1.283334
v -0.250000 1.200000 1.283334
v -0.200000 1.200000 1.333334
v -0.200000 1.200000 2.000001
v -0.250000 1.200000 1.950000
v -0.250000 0.200000 1.950000
v -0.200000 1.200000 0.666667
v -0.250000 1.200000 0.716667
v -0.250000 0.200000 0.716667
v -0.200000 0.200000 0.666667
v -0.250000 0.200000 1.383334
v -0.250000 1.200000 1.383334
v -0.250000 0.200000 0.616667
v -0.250001 0.200000 0.050001
v -0.200001 1.200000 0.000001
v -0.250001 1.200000 0.050001
v -0.250000 1.200000 0.616667
v -0.200000 0.200000 2.000000
v -0.200001 0.200000 -0.199999
v -0.200000 -0.000000 2.000000
v 0.000001 0.200000 -0.199999
v -0.280001 -0.000000 -0.279999
v -0.300001 0.180000 -0.299999
v -0.280001 0.200000 -0.279999
v -0.279999 0.200000 2.000000
v -0.300000 0.180000 2.000000
v -0.300000 0.020000 2.000000
v -0.279999 -0.000000 2.000000
v -0.200000 1.500000 2.000001
v -0.200001 1.500000 -0.199999
v -0.250000 4.000000 2.000001
v -0.250000 1.500000 2.000001
v -0.250001 0.200000 -0.050828
v -0.250001 1.200000 -0.050828
v -0.250001 1.200000 -0.249999
v -0.250001 0.200000 -0.249999
v 1.999999 4.000000 0.000000
v -0.000000 4.000000 0.000000
v 0.000000 4.000000 2.000001
v 0.000000 1.500000 2.000001
v -0.000000 0.000000 -0.000001
v -0.000000 -0.000000 2.000000
v 2.000000 1.500000 0.000001
v 1.999999 0.000000 -0.000000
vt 0.445414 0.366441
vt 0.428418 0.366441
vt 0.428418 0.366441
vt 0.445414 0.366441
vt 0.417395 0.859544
vt 0.456071 0.859544
vt 0.456071 0.859544
vt 0.417395 0.859544
vt 0.456071 0.891181
vt 0.456071 0.896204
vt 0.417395 0.896204
vt 0.417395 0.891181
vt 0.456071 0.927840
vt 0.417395 0.927840
vt 0.417395 0.927454
vt 0.456071 0.927454
vt 0.456071 0.859931
vt 0.417395 0.859931
vt 0.456071 0.927840
vt 0.417395 0.927840
vt 0.417395 0.890794
vt 0.417395 0.896590
vt 0.417395 0.890794
vt 0.417395 0.896590
vt 0.429320 0.867611
vt 0.429320 0.890988
vt 0.418362 0.890988
vt 0.418362 0.867611
vt 0.455104 0.867611
vt 0.455104 0.890988
vt 0.444146 0.890988
vt 0.444146 0.867611
vt 0.442212 0.867611
vt 0.442212 0.890988
vt 0.431254 0.890988
vt 0.431254 0.867611
vt 0.455104 0.859738
vt 0.455104 0.836361
vt 0.456071 0.836361
vt 0.456071 0.859738
vt 0.442212 0.859738
vt 0.442212 0.836361
vt 0.443179 0.836361
vt 0.443179 0.859738
vt 0.443179 0.922238
vt 0.443179 0.898861
vt 0.444146 0.898861
vt 0.444146 0.922238
vt 0.418362 0.898861
vt 0.418362 0.922238
vt 0.417395 0.922238
vt 0.417395 0.898861
vt 0.429320 0.859738
vt 0.429320 0.836361
vt 0.430287 0.836361
vt 0.430287 0.859738
vt 0.430287 0.922238
vt 0.430287 0.898861
vt 0.431254 0.898861
vt 0.431254 0.922238
vt 0.417395 0.859544
vt 0.456071 0.859544
vt 0.456071 0.859544
vt 0.417395 0.859544
vt 0.456071 0.891181
vt 0.456071 0.896204
vt 0.417395 0.896204
vt 0.417395 0.891181
vt 0.456071 0.927840
vt 0.417395 0.927840
vt 0.417395 0.927454
vt 0.456071 0.927454
vt 0.456071 0.859931
vt 0.417395 0.859931
vt 0.456071 0.927840
vt 0.417395 0.927840
vt 0.449625 0.867611
vt 0.449625 0.890988
vt 0.444146 0.890988
vt 0.444146 0.867611
vt 0.417395 0.890794
vt 0.417395 0.896590
vt 0.417395 0.890794
vt 0.417395 0.896590
vt 0.450666 0.867152
vt 0.450666 0.894990
vt 0.422800 0.894990
vt 0.422800 0.867152
vt 0.445414 0.349463
vt 0.428418 0.349463
vt 0.428418 0.349463
vt 0.445414 0.349463
vt 0.450666 0.894990
vt 0.450666 0.894990
vt 0.450666 0.867152
vt 0.450666 0.867152
vt 0.445414 0.366441
vt 0.428418 0.366441
vt 0.428418 0.366441
vt 0.445414 0.366441
vt 0.417395 0.859544
vt 0.456071 0.859544
vt 0.456071 0.859544
vt 0.417395 0.859544
vt 0.456071 0.891181
vt 0.456071 0.896204
vt 0.417395 0.896204
vt 0.417395 0.891181
vt 0.456071 0.927840
vt 0.417395 0.927840
vt 0.417395 0.927454
vt 0.456071 0.927454
vt 0.456071 0.859931
vt 0.417395 0.859931
vt 0.456071 0.927840
vt 0.417395 0.927840
vt 0.456071 0.896590
vt 0.456071 0.890794
vt 0.456071 0.896590
vt 0.456071 0.890794
vt 0.429320 0.867611
vt 0.429320 0.890988
vt 0.418362 0.890988
vt 0.418362 0.867611
vt 0.455104 0.867611
vt 0.455104 0.890988
vt 0.444146 0.890988
vt 0.444146 0.867611
vt 0.442212 0.867611
vt 0.442212 0.890988
vt 0.431254 0.890988
vt 0.431254 0.867611
vt 0.455104 0.859738
vt 0.455104 0.836361
vt 0.456071 0.836361
vt 0.456071 0.859738
vt 0.442212 0.859738
vt 0.442212 0.836361
vt 0.443179 0.836361
vt 0.443179 0.859738
vt 0.443179 0.922238
vt 0.443179 0.898861
vt 0.444146 0.898861
vt 0.444146 0.922238
vt 0.418362 0.898861
vt 0.418362 0.922238
vt 0.417395 0.922238
vt 0.417395 0.898861
vt 0.429320 0.859738
vt 0.429320 0.836361
vt 0.430287 0.836361
vt 0.430287 0.859738
vt 0.430287 0.922238
vt 0.430287 0.898861
vt 0.431254 0.898861
vt 0.431254 0.922238
vt 0.417395 0.859544
vt 0.456071 0.859544
vt 0.456071 0.859544
vt 0.417395 0.859544
vt 0.456071 0.891181
vt 0.456071 0.896204
vt 0.417395 0.896204
vt 0.417395 0.891181
vt 0.456071 0.927840
vt 0.417395 0.927840
vt 0.417395 0.927454
vt 0.456071 0.927454
vt 0.456071 0.859931
vt 0.417395 0.859931
vt 0.456071 0.927840
vt 0.417395 0.927840
vt 0.456071 0.896590
vt 0.456071 0.890794
vt 0.456071 0.896590
vt 0.456071 0.890794
vt 0.443179 0.922238
vt 0.443179 0.898861
vt 0.444146 0.898861
vt 0.444146 0.922238
vt 0.422800 0.894990
vt 0.422800 0.867152
vt 0.445414 0.366441
vt 0.445414 0.349463
vt 0.445414 0.349463
vt 0.445414 0.349463
vt 0.428418 0.349463
vt 0.428418 0.349463
vt 0.429320 0.859738
vt 0.429320 0.836361
vt 0.430287 0.836361
vt 0.430287 0.859738
vt 0.429320 0.867611
vt 0.429320 0.890988
vt 0.423841 0.890988
vt 0.423841 0.867611
vt 0.422800 0.867152
vt 0.450666 0.867152
vt 0.436733 0.867152
vt 0.428418 0.366441
vt 0.422800 0.894990
vt 0.445414 0.366441
vt 0.428418 0.366441
vt 0.428418 0.349463
vn -0.0000 1.0000 0.0000
vn 0.0000 -1.0000 0.0000
vn -0.0000 -0.0000 -1.0000
vn -0.0000 0.7071 -0.7071
vn -0.0000 -0.7071 -0.7071
vn 1.0000 0.0000 0.0000
vn -0.3827 0.0000 -0.9239
vn 0.3827 0.0000 -0.9239
vn -0.7071 0.0000 -0.7071
vn 0.7071 0.0000 -0.7071
vn -0.0000 0.8334 -0.5526
vn -0.0000 0.9239 -0.3827
vn 0.0000 -0.0000 1.0000
vn -1.0000 -0.0000 0.0000
vn -0.3827 0.9239 0.0000
vn -0.5526 0.8334 0.0000
vn -0.7071 0.7071 0.0000
vn -0.7071 -0.7071 0.0000
vn -0.9239 0.0000 -0.3827
vn -0.9239 -0.0000 0.3827
vn -0.7071 -0.0000 0.7071
vn -0.9254 -0.0000 0.3789
vn -0.7129 -0.0000 0.7013
usemtl tiny_treats_1
s 1
f 44/1/1 2/2/1 39/3/1 40/4/1
f 5/5/2 4/6/2 51/7/2 6/8/2
f 10/9/3 53/10/3 8/11/3 7/12/3
f 54/13/4 9/14/4 8/15/4 53/16/4
f 10/17/5 7/18/5 6/8/5 51/7/5
f 48/19/1 3/20/1 9/14/1 54/13/1
f 6/21/6 7/12/6 8/11/6 9/22/6
f 5/23/6 6/21/6 9/22/6 3/24/6
f 24/25/3 28/26/3 27/27/3 25/28/3
f 17/29/3 16/30/3 23/31/3 22/32/3
f 13/33/7 14/34/7 19/35/8 20/36/8
f 16/37/9 17/38/9 82/39/9 37/40/9
f 14/41/7 13/42/7 12/43/9 15/44/9
f 15/45/10 12/46/10 22/47/10 23/48/10
f 25/49/10 27/50/10 26/51/10 11/52/10
f 28/53/9 24/54/9 21/55/9 18/56/9
f 18/57/10 21/58/10 20/59/8 19/60/8
f 31/61/2 30/62/2 83/63/2 32/64/2
f 36/65/3 84/66/3 34/67/3 33/68/3
f 85/69/11 35/70/12 34/71/4 84/72/4
f 36/73/5 33/74/5 32/64/5 83/63/5
f 80/75/1 29/76/1 35/70/12 85/69/11
f 97/77/3 96/78/3 50/79/3 52/80/3
f 32/81/6 33/68/6 34/67/6 35/82/6
f 31/83/6 32/81/6 35/82/6 29/84/6
f 43/85/3 91/86/3 38/87/3 1/88/3
f 42/89/3 40/4/3 39/3/3 41/90/3
f 2/2/6 38/91/6 41/90/6 39/3/6
f 38/91/2 91/92/2 42/89/2 41/90/2
f 101/93/13 90/94/13 45/95/13 103/96/13
f 46/97/1 44/98/1 40/99/1 92/100/1
f 4/101/2 49/102/2 58/103/2 51/104/2
f 57/105/14 56/106/14 53/107/14 10/108/14
f 55/109/15 54/110/16 53/111/17 56/112/17
f 57/113/18 10/114/18 51/104/18 58/103/18
f 47/115/1 48/116/1 54/110/16 55/109/15
f 55/117/13 56/106/13 57/105/13 58/118/13
f 47/119/13 55/117/13 58/118/13 49/120/13
f 74/121/14 78/122/14 77/123/19 75/124/19
f 67/125/20 66/126/20 73/127/14 72/128/14
f 62/129/14 63/130/14 69/131/19 70/132/19
f 66/133/20 67/134/20 60/135/21 65/136/21
f 63/137/21 62/138/21 61/139/21 64/140/21
f 64/141/9 61/142/9 72/143/9 73/144/9
f 75/145/19 77/146/19 76/147/9 59/148/9
f 78/149/21 74/150/21 71/151/21 68/152/21
f 68/153/9 71/154/9 70/155/19 69/156/19
f 30/157/2 81/158/2 89/159/2 83/160/2
f 88/161/14 87/162/14 84/163/14 36/164/14
f 86/165/15 85/166/16 84/167/17 87/168/17
f 88/169/18 36/170/18 83/160/18 89/159/18
f 79/171/1 80/172/1 85/166/16 86/165/15
f 86/173/13 87/162/13 88/161/13 89/174/13
f 79/175/13 86/173/13 89/174/13 81/176/13
f 37/177/10 82/178/10 52/179/10 50/180/10
f 45/95/14 90/94/14 91/181/14 43/182/14
f 100/183/13 46/97/13 90/184/13 101/185/13
f 93/186/14 92/100/14 40/99/14 42/187/14
f 91/188/2 90/184/2 93/186/2 42/187/2
f 90/184/13 46/97/13 92/100/13 93/186/13
f 95/189/22 94/190/22 59/191/23 76/192/23
f 94/193/22 95/194/22 96/195/14 97/196/14
f 105/197/2 102/198/2 43/85/2 1/88/2
f 45/95/2 43/85/2 102/199/2 103/96/2
f 44/98/1 46/97/1 100/183/1 99/200/1
f 1/88/6 38/87/6 104/201/6 105/197/6
f 2/2/1 44/1/1 99/202/1 98/203/1
f 38/91/6 2/2/6 98/203/6 104/204/6
