# Blender v3.4.1 OBJ File: 'Tiny_treats_Playful_Bedroom_1.1_ASSETS_EXPORT.blend'
# www.blender.org
mtllib wall_panelled_window_pink_large.mtl
o wall_panelled_window_pink_large
v 1.000000 -0.000000 0.200001
v 1.000000 4.000000 0.200001
v -1.000000 -0.000000 0.200000
v -1.000000 4.000000 0.200001
v 0.750000 3.500000 0.200000
v -0.749999 3.500000 0.200000
v 0.750000 0.500000 0.200000
v -0.749999 0.500000 0.200000
v 0.750000 1.500000 0.200000
v 1.000000 1.500000 0.200000
v -0.749999 1.500000 0.200000
v -1.000000 1.500000 0.200000
v -1.000000 4.000000 0.250001
v 1.000000 4.000000 0.250001
v 0.750000 3.500000 0.250000
v -0.749999 3.500000 0.250000
v 0.750000 1.500000 0.250000
v -0.749999 1.500000 0.250000
v -1.000000 1.500000 0.250000
v 1.000000 1.500000 0.250000
v -0.750001 1.500000 0.200000
v -1.000001 1.500000 0.200001
v -0.750001 1.200000 0.200000
v -1.000001 1.200000 0.200001
v -1.000001 1.200000 0.280001
v -1.000001 1.220000 0.300001
v -1.000001 1.480000 0.300001
v -1.000001 1.500000 0.280001
v -0.750001 1.500000 0.280000
v -0.750001 1.480000 0.300000
v -0.750001 1.220000 0.300000
v -0.750001 1.200000 0.280000
v 0.333332 0.200000 0.200000
v 0.283332 0.200000 0.250000
v 0.283332 0.500000 0.250000
v 0.333332 0.500000 0.200000
v -0.333334 0.500000 0.200000
v -0.283334 0.500000 0.250000
v -0.283334 0.200000 0.250000
v -0.333334 0.200000 0.200000
v 0.383332 0.200000 0.250000
v 0.383332 0.500000 0.250000
v -0.383334 0.200000 0.250000
v 0.749999 0.500000 0.200001
v -0.750000 0.500000 0.200002
v -0.383334 0.500000 0.250000
v 0.999999 0.200000 0.200000
v -1.000001 0.200000 0.200001
v 0.999999 -0.000000 0.200000
v -1.000001 -0.000000 0.200001
v -1.000001 -0.000000 0.280001
v -1.000001 0.020000 0.300001
v -1.000001 0.180000 0.300001
v -1.000001 0.200000 0.280001
v 0.999999 0.200000 0.280000
v 0.999999 0.180000 0.300000
v 0.999999 0.020000 0.300000
v 0.999999 -0.000000 0.280000
v 0.999999 1.500000 0.200000
v 0.750000 1.500000 0.200001
v 0.999999 1.200000 0.200000
v 0.750000 1.200000 0.200001
v 0.750000 1.200000 0.280001
v 0.750000 1.220000 0.300001
v 0.750000 1.480000 0.300001
v 0.750000 1.500000 0.280001
v 0.999999 1.500000 0.280000
v 0.999999 1.480000 0.300000
v 0.999999 1.220000 0.300000
v 0.999999 1.200000 0.280000
v -0.750000 0.200000 0.250001
v -0.750000 0.500000 0.250001
v 0.749999 0.200000 0.250000
v 0.749999 0.500000 0.250000
v -1.000001 0.200000 0.200001
v 0.999999 0.200000 0.200000
v 0.999999 1.200000 0.200000
v 0.949999 1.200000 0.250000
v 0.949999 0.200000 0.250000
v -0.950001 0.200000 0.250001
v -1.000001 1.200000 0.200001
v -0.950001 1.200000 0.250001
v -0.750000 0.200000 0.250001
v -0.750000 1.200000 0.250001
v 0.749999 0.200000 0.250000
v 0.749999 1.200000 0.250000
v -0.750000 0.200000 0.200001
v -0.750000 1.200000 0.200001
v 0.749999 0.200000 0.200000
v 0.749999 1.200000 0.200000
v 1.000000 0.000000 -0.250000
v 1.000000 4.000000 -0.249999
v -1.000000 4.000000 -0.250000
v -1.000000 0.000000 -0.250000
v 0.750000 3.500000 -0.250000
v -0.750000 3.500000 -0.250000
v 0.750000 0.500000 -0.250000
v -0.750000 0.500000 -0.250000
v 0.750000 1.500000 -0.250000
v 1.000000 1.500000 -0.250000
v -0.750000 1.500000 -0.250000
v -1.000000 1.500000 -0.250000
v -0.800000 0.375000 0.450000
v -0.800000 0.425000 0.500000
v -0.850000 0.425000 0.450000
v -0.800000 0.575000 0.500000
v -0.800000 0.625000 0.450000
v -0.850000 0.575000 0.450000
v -0.800000 0.375000 -0.450000
v -0.850000 0.425000 -0.450000
v -0.800000 0.425000 -0.500000
v -0.800000 0.625000 -0.450000
v -0.800000 0.575000 -0.500000
v -0.850000 0.575000 -0.450000
v 0.800000 0.375000 0.450000
v 0.850000 0.425000 0.450000
v 0.800000 0.425000 0.500000
v 0.800000 0.625000 0.450000
v 0.800000 0.575000 0.500000
v 0.850000 0.575000 0.450000
v 0.800000 0.375000 -0.450000
v 0.800000 0.425000 -0.500000
v 0.850000 0.425000 -0.450000
v 0.800000 0.625000 -0.450000
v 0.850000 0.575000 -0.450000
v 0.800000 0.575000 -0.500000
v -0.620000 1.890320 0.070000
v -0.620000 1.920320 0.100000
v -0.620000 2.060319 0.100000
v -0.620000 2.090320 0.070000
v -0.620000 1.890320 -0.070000
v -0.620000 1.920320 -0.100000
v -0.620000 2.090320 -0.070000
v -0.620000 2.060319 -0.100000
v 0.620000 1.890320 0.070000
v 0.620000 1.920320 0.100000
v 0.620000 2.090320 0.070000
v 0.620000 2.060319 0.100000
v 0.620000 1.890320 -0.070000
v 0.620000 1.920320 -0.100000
v 0.620000 2.090320 -0.070000
v 0.620000 2.060319 -0.100000
v 0.620000 0.760319 -0.100000
v 0.620000 0.790320 -0.070000
v 0.620000 0.620319 -0.100000
v 0.620000 0.590320 -0.070000
v 0.620000 0.760319 0.100000
v 0.620000 0.790320 0.070000
v 0.620000 0.620319 0.100000
v 0.620000 0.590320 0.070000
v -0.620000 0.760319 -0.100000
v -0.620000 0.790320 -0.070000
v -0.620000 0.620319 -0.100000
v -0.620000 0.590320 -0.070000
v -0.620000 0.790320 0.070000
v -0.620000 0.760319 0.100000
v -0.620000 0.620319 0.100000
v -0.620000 0.590320 0.070000
v -0.700000 0.590320 0.000000
v 0.700000 0.590320 0.000000
v -0.700000 3.390320 0.000000
v 0.700000 3.390320 0.000000
v -0.700000 3.390320 -0.049999
v -0.700000 0.590320 -0.050000
v 0.700000 0.590320 -0.050000
v 0.700000 3.390320 -0.049999
v 0.750000 0.399999 0.150000
v -0.750000 0.399999 0.150000
v 0.750000 3.500000 0.150000
v -0.750000 3.500000 0.150000
v 0.540000 0.399999 0.150000
v -0.540000 0.399999 0.150000
v 0.540000 3.300000 0.150000
v -0.540000 3.300000 0.150000
v 0.750000 0.399999 -0.150000
v -0.750000 0.399999 -0.150000
v 0.750000 3.500000 -0.150000
v -0.750000 3.500000 -0.150000
v 0.540000 0.399999 -0.150000
v -0.540000 0.399999 -0.150000
v 0.540000 3.300000 -0.150000
v -0.540000 3.300000 -0.150000
vt 0.445414 0.366441
vt 0.428418 0.366441
vt 0.428418 0.366441
vt 0.445414 0.366441
vt 0.422908 0.867260
vt 0.450557 0.867260
vt 0.446963 0.881071
vt 0.426503 0.881071
vt 0.450557 0.894882
vt 0.446963 0.894882
vt 0.422908 0.894882
vt 0.422908 0.867260
vt 0.422908 0.894882
vt 0.428418 0.366441
vt 0.445414 0.366441
vt 0.426503 0.894882
vt 0.430628 0.357952
vt 0.443204 0.357952
vt 0.443204 0.357952
vt 0.430628 0.357952
vt 0.445414 0.349463
vt 0.445414 0.349463
vt 0.443204 0.349463
vt 0.428418 0.349463
vt 0.430628 0.349463
vt 0.428418 0.349463
vt 0.430628 0.349463
vt 0.443204 0.349463
vt 0.417395 0.859544
vt 0.456071 0.859544
vt 0.456071 0.859544
vt 0.417395 0.859544
vt 0.456071 0.891181
vt 0.456071 0.896204
vt 0.417395 0.896204
vt 0.417395 0.891181
vt 0.456071 0.927840
vt 0.417395 0.927840
vt 0.417395 0.927454
vt 0.456071 0.927454
vt 0.456071 0.859931
vt 0.417395 0.859931
vt 0.456071 0.927840
vt 0.417395 0.927840
vt 0.456071 0.896590
vt 0.456071 0.890794
vt 0.456071 0.896590
vt 0.456071 0.890794
vt 0.417395 0.890794
vt 0.417395 0.896590
vt 0.417395 0.890794
vt 0.417395 0.896590
vt 0.451237 0.867611
vt 0.451237 0.890988
vt 0.444146 0.890988
vt 0.444146 0.867611
vt 0.442212 0.867611
vt 0.442212 0.890988
vt 0.431254 0.890988
vt 0.431254 0.867611
vt 0.435547 0.882812
vt 0.423841 0.890988
vt 0.429320 0.859738
vt 0.430287 0.859738
vt 0.442212 0.859738
vt 0.442212 0.836361
vt 0.443179 0.836361
vt 0.443179 0.859738
vt 0.443179 0.922238
vt 0.443179 0.898861
vt 0.444146 0.898861
vt 0.444146 0.922238
vt 0.430287 0.922238
vt 0.429320 0.836361
vt 0.430287 0.836361
vt 0.430287 0.898861
vt 0.431254 0.898861
vt 0.431254 0.922238
vt 0.417395 0.859544
vt 0.456071 0.859544
vt 0.456071 0.859544
vt 0.417395 0.859544
vt 0.456071 0.891181
vt 0.456071 0.896204
vt 0.417395 0.896204
vt 0.417395 0.891181
vt 0.456071 0.927840
vt 0.417395 0.927840
vt 0.417395 0.927454
vt 0.456071 0.927454
vt 0.456071 0.859931
vt 0.417395 0.859931
vt 0.456071 0.927840
vt 0.417395 0.927840
vt 0.456071 0.896590
vt 0.456071 0.890794
vt 0.456071 0.896590
vt 0.456071 0.890794
vt 0.417395 0.890794
vt 0.417395 0.896590
vt 0.417395 0.890794
vt 0.417395 0.896590
vt 0.417395 0.859544
vt 0.456071 0.859544
vt 0.456071 0.859544
vt 0.417395 0.859544
vt 0.456071 0.891181
vt 0.456071 0.896204
vt 0.417395 0.896204
vt 0.417395 0.891181
vt 0.456071 0.927840
vt 0.417395 0.927840
vt 0.417395 0.927454
vt 0.456071 0.927454
vt 0.456071 0.859931
vt 0.417395 0.859931
vt 0.456071 0.927840
vt 0.417395 0.927840
vt 0.456071 0.896590
vt 0.456071 0.890794
vt 0.456071 0.896590
vt 0.456071 0.890794
vt 0.417395 0.890794
vt 0.417395 0.896590
vt 0.417395 0.890794
vt 0.417395 0.896590
vt 0.429320 0.867611
vt 0.429320 0.890988
vt 0.423841 0.867611
vt 0.435547 0.882812
vt 0.423841 0.867611
vt 0.423841 0.890988
vt 0.418362 0.890988
vt 0.418362 0.867611
vt 0.455104 0.859738
vt 0.455104 0.836361
vt 0.456071 0.836361
vt 0.456071 0.859738
vt 0.418362 0.898861
vt 0.418362 0.922238
vt 0.417395 0.922238
vt 0.417395 0.898861
vt 0.455104 0.867611
vt 0.455104 0.890988
vt 0.451237 0.890988
vt 0.451237 0.867611
vt 0.423841 0.867611
vt 0.423841 0.890988
vt 0.451237 0.890988
vt 0.451237 0.867611
vt 0.450557 0.867260
vt 0.450557 0.894882
vt 0.428418 0.349463
vt 0.445414 0.349463
vt 0.443204 0.357952
vt 0.430627 0.357952
vt 0.446963 0.894882
vt 0.446963 0.881071
vt 0.430627 0.349463
vt 0.426503 0.881071
vt 0.443204 0.349463
vt 0.426503 0.894882
vt 0.716537 0.883087
vt 0.716537 0.892853
vt 0.658463 0.892853
vt 0.658463 0.883087
vt 0.718611 0.883087
vt 0.718611 0.892853
vt 0.718611 0.892853
vt 0.718611 0.883087
vt 0.716537 0.916130
vt 0.658463 0.916130
vt 0.658463 0.916130
vt 0.716537 0.916130
vt 0.656389 0.883087
vt 0.656389 0.892853
vt 0.656389 0.892853
vt 0.656389 0.883087
vt 0.658463 0.883087
vt 0.658463 0.892853
vt 0.716537 0.892853
vt 0.716537 0.883087
vt 0.658463 0.869821
vt 0.658463 0.873076
vt 0.656389 0.873076
vt 0.658463 0.922885
vt 0.658463 0.926140
vt 0.656389 0.922885
vt 0.658463 0.869821
vt 0.656389 0.873076
vt 0.658463 0.873076
vt 0.658463 0.926140
vt 0.658463 0.922885
vt 0.656389 0.922885
vt 0.716537 0.869821
vt 0.718611 0.873076
vt 0.716537 0.873076
vt 0.716537 0.926140
vt 0.716537 0.922885
vt 0.718611 0.922885
vt 0.716537 0.869821
vt 0.716537 0.873076
vt 0.718611 0.873076
vt 0.716537 0.926140
vt 0.718611 0.922885
vt 0.716537 0.922885
vt 0.658463 0.893097
vt 0.658463 0.902864
vt 0.656389 0.902864
vt 0.656389 0.893097
vt 0.658463 0.902864
vt 0.658463 0.893097
vt 0.656389 0.893097
vt 0.656389 0.902864
vt 0.718611 0.902864
vt 0.718611 0.893097
vt 0.716537 0.893097
vt 0.716537 0.902864
vt 0.716537 0.902864
vt 0.716537 0.893097
vt 0.718611 0.893097
vt 0.718611 0.902864
vt 0.658463 0.859810
vt 0.716537 0.859810
vt 0.716537 0.859810
vt 0.658463 0.859810
vt 0.484964 0.867836
vt 0.484964 0.885395
vt 0.390036 0.885395
vt 0.390036 0.867836
vt 0.484964 0.920408
vt 0.390036 0.920408
vt 0.390036 0.920408
vt 0.484964 0.920408
vt 0.390036 0.867836
vt 0.390036 0.885395
vt 0.484964 0.885395
vt 0.484964 0.867836
vt 0.484964 0.848448
vt 0.390036 0.848448
vt 0.390036 0.852211
vt 0.484964 0.852211
vt 0.390036 0.936033
vt 0.484964 0.936033
vt 0.484964 0.932270
vt 0.390036 0.932270
vt 0.390036 0.848449
vt 0.484964 0.848449
vt 0.484964 0.852211
vt 0.390036 0.852211
vt 0.484964 0.936033
vt 0.390036 0.936033
vt 0.390036 0.932270
vt 0.484964 0.932270
vt 0.390036 0.832823
vt 0.484964 0.832823
vt 0.484964 0.832824
vt 0.390036 0.832824
vt 0.390036 0.936033
vt 0.484964 0.936033
vt 0.484964 0.932270
vt 0.390036 0.932270
vt 0.484964 0.936033
vt 0.390036 0.936033
vt 0.390036 0.932270
vt 0.484964 0.932270
vt 0.390036 0.848449
vt 0.484964 0.848449
vt 0.484964 0.852211
vt 0.390036 0.852211
vt 0.484964 0.920408
vt 0.390036 0.920408
vt 0.390036 0.920408
vt 0.484964 0.920408
vt 0.390036 0.832823
vt 0.484964 0.832823
vt 0.484964 0.832824
vt 0.390036 0.832824
vt 0.484964 0.848448
vt 0.390036 0.848448
vt 0.390036 0.852211
vt 0.484964 0.852211
vt 0.484964 0.867836
vt 0.484964 0.885395
vt 0.390036 0.885395
vt 0.390036 0.867836
vt 0.390036 0.867836
vt 0.390036 0.885395
vt 0.484964 0.885395
vt 0.484964 0.867836
vt 0.463655 0.937821
vt 0.458424 0.932595
vt 0.458424 0.890788
vt 0.463655 0.885562
vt 0.411345 0.937821
vt 0.411345 0.885562
vt 0.416576 0.890788
vt 0.416576 0.932595
vt 0.463655 0.937821
vt 0.463655 0.885562
vt 0.458424 0.890788
vt 0.458424 0.932595
vt 0.411345 0.937821
vt 0.416576 0.932595
vt 0.416576 0.890788
vt 0.411345 0.885562
vt 0.416576 0.901345
vt 0.416576 0.901345
vt 0.416576 0.859538
vt 0.416576 0.859538
vt 0.458424 0.859538
vt 0.458424 0.859538
vt 0.458424 0.901345
vt 0.458424 0.901345
vt 0.764993 0.014993
vt 0.985007 0.014993
vt 0.985007 0.235007
vt 0.764993 0.235007
vt 0.764993 0.014993
vt 0.764993 0.235007
vt 0.985007 0.235007
vt 0.985007 0.014993
vn 0.0000 1.0000 0.0000
vn -0.0000 0.0000 1.0000
vn -1.0000 -0.0000 0.0000
vn 0.0000 -1.0000 -0.0000
vn 1.0000 -0.0000 -0.0000
vn 0.0000 -0.9239 0.3827
vn 0.0000 0.9239 0.3827
vn 0.0000 0.7071 0.7071
vn 0.0000 -0.7071 0.7071
vn -0.3827 -0.0000 0.9239
vn 0.3827 -0.0000 0.9239
vn 0.7071 -0.0000 0.7071
vn -0.7071 -0.0000 0.7071
vn 0.0000 0.0000 -1.0000
vn 0.3416 -0.3416 0.8756
vn 0.3416 0.3416 0.8756
vn -0.3416 0.3416 0.8756
vn -0.3416 -0.3416 0.8756
vn 0.8756 -0.3416 -0.3416
vn 0.8756 0.3416 -0.3416
vn 0.8756 0.3416 0.3416
vn 0.8756 -0.3416 0.3416
vn -0.3416 0.8756 -0.3416
vn -0.3416 0.8756 0.3416
vn -0.3416 -0.3416 -0.8756
vn -0.3416 0.3416 -0.8756
vn 0.3416 0.3416 -0.8756
vn 0.3416 -0.3416 -0.8756
vn -0.3416 -0.8756 0.3416
vn -0.7588 -0.4606 0.4606
vn -0.7588 0.4606 0.4606
vn -0.3416 -0.8756 -0.3416
vn -0.7588 -0.4606 -0.4606
vn -0.7588 0.4606 -0.4606
vn 0.4606 -0.7588 0.4606
vn 0.4606 0.7588 0.4606
vn 0.4606 -0.7588 -0.4606
vn 0.4606 0.7588 -0.4606
vn 0.0000 0.3827 0.9239
vn 0.0000 0.3827 -0.9239
vn 0.0000 -0.9239 -0.3827
vn 0.0000 -0.7071 -0.7071
vn 0.0000 0.7071 -0.7071
usemtl tiny_treats_1
s 1
f 92/1/1 93/2/1 4/3/1 2/4/1
f 3/5/2 1/6/2 7/7/2 8/8/2
f 10/9/2 9/10/2 7/7/2 1/6/2
f 102/11/3 94/12/3 3/5/3 12/13/3
f 2/4/1 4/3/1 13/14/1 14/15/1
f 12/13/2 3/5/2 8/8/2 11/16/2
f 6/17/4 5/18/4 15/19/4 16/20/4
f 10/21/5 2/4/5 14/15/5 20/22/5
f 13/14/2 16/20/2 15/19/2 14/15/2
f 14/15/2 15/19/2 17/23/2 20/22/2
f 13/14/2 19/24/2 18/25/2 16/20/2
f 4/3/3 12/26/3 19/24/3 13/14/3
f 11/27/5 6/17/5 16/20/5 18/25/5
f 5/18/3 9/28/3 17/23/3 15/19/3
f 24/29/4 23/30/4 32/31/6 25/32/6
f 31/33/2 30/34/2 27/35/2 26/36/2
f 29/37/7 28/38/7 27/39/8 30/40/8
f 31/41/9 26/42/9 25/32/6 32/31/6
f 21/43/1 22/44/1 28/38/7 29/37/7
f 29/45/5 30/34/5 31/33/5 32/46/5
f 21/47/5 29/45/5 32/46/5 23/48/5
f 25/49/3 26/36/3 27/35/3 28/50/3
f 24/51/3 25/49/3 28/50/3 22/52/3
f 73/53/2 74/54/2 42/55/10 41/56/10
f 34/57/11 35/58/11 38/59/10 39/60/10
f 45/61/1 72/62/1 46/63/1 37/64/1
f 35/65/11 34/66/11 33/67/12 36/68/12
f 36/69/13 33/70/13 41/71/10 42/72/10
f 35/58/1 36/68/1 37/73/1 38/59/1
f 46/63/12 43/74/12 40/75/12 37/64/12
f 37/73/13 40/76/13 39/77/10 38/78/10
f 50/79/4 49/80/4 58/81/6 51/82/6
f 57/83/2 56/84/2 53/85/2 52/86/2
f 55/87/7 54/88/7 53/89/8 56/90/8
f 57/91/9 52/92/9 51/82/6 58/81/6
f 47/93/1 48/94/1 54/88/7 55/87/7
f 55/95/5 56/84/5 57/83/5 58/96/5
f 47/97/5 55/95/5 58/96/5 49/98/5
f 51/99/3 52/86/3 53/85/3 54/100/3
f 50/101/3 51/99/3 54/100/3 48/102/3
f 62/103/4 61/104/4 70/105/6 63/106/6
f 69/107/2 68/108/2 65/109/2 64/110/2
f 67/111/7 66/112/7 65/113/8 68/114/8
f 69/115/9 64/116/9 63/106/6 70/105/6
f 59/117/1 60/118/1 66/112/7 67/111/7
f 67/119/5 68/108/5 69/107/5 70/120/5
f 59/121/5 67/119/5 70/120/5 61/122/5
f 63/123/3 64/110/3 65/109/3 66/124/3
f 62/125/3 63/123/3 66/124/3 60/126/3
f 43/127/2 46/128/2 72/62/2 71/129/2
f 44/130/1 36/69/1 42/55/1 74/54/1
f 83/131/2 84/132/2 82/133/2 80/134/2
f 78/135/11 79/136/11 76/137/12 77/138/12
f 80/139/13 82/140/13 81/141/13 75/142/13
f 79/143/11 78/144/11 86/145/2 85/146/2
f 84/132/5 83/131/5 87/147/5 88/148/5
f 85/146/3 86/145/3 90/149/3 89/150/3
f 1/6/5 91/151/5 100/152/5 10/9/5
f 4/3/3 93/2/3 102/153/3 12/26/3
f 100/154/5 92/1/5 2/4/5 10/21/5
f 95/155/4 5/18/4 6/17/4 96/156/4
f 92/1/14 95/155/14 96/156/14 93/2/14
f 9/10/3 99/157/3 97/158/3 7/7/3
f 102/153/14 93/2/14 96/156/14 101/159/14
f 91/151/14 94/12/14 98/160/14 97/158/14
f 100/154/14 99/161/14 95/155/14 92/1/14
f 91/151/14 97/158/14 99/157/14 100/152/14
f 11/16/5 8/8/5 98/160/5 101/162/5
f 94/12/14 102/11/14 101/162/14 98/160/14
f 5/18/3 95/155/3 99/161/3 9/28/3
f 6/17/5 11/27/5 101/159/5 96/156/5
f 98/160/1 8/8/1 7/7/1 97/158/1
f 94/12/4 91/151/4 1/6/4 3/5/4
f 117/163/15 119/164/16 106/165/17 104/166/18
f 123/167/19 125/168/20 120/169/21 116/170/22
f 124/171/1 112/172/23 107/173/24 118/174/1
f 105/175/3 108/176/3 114/177/3 110/178/3
f 111/179/25 113/180/26 126/181/27 122/182/28
f 103/183/29 104/184/18 105/185/30
f 106/186/17 107/187/24 108/188/31
f 109/189/32 110/190/33 111/191/25
f 112/192/23 113/193/26 114/194/34
f 115/195/35 116/196/22 117/197/15
f 118/198/36 119/199/16 120/200/21
f 121/201/37 122/202/28 123/203/19
f 124/204/38 125/205/20 126/206/27
f 109/189/32 103/183/29 105/185/30 110/190/33
f 104/207/18 106/208/17 108/209/31 105/210/30
f 107/187/24 112/192/23 114/194/34 108/188/31
f 113/211/26 111/212/25 110/213/33 114/214/34
f 121/201/37 109/189/32 111/191/25 122/202/28
f 112/192/23 124/204/38 126/206/27 113/193/26
f 125/215/20 123/216/19 122/217/28 126/218/27
f 115/195/35 121/201/37 123/203/19 116/196/22
f 124/204/38 118/198/36 120/200/21 125/205/20
f 119/219/16 117/220/15 116/221/22 120/222/21
f 103/183/29 115/195/35 117/197/15 104/184/18
f 118/198/36 107/187/24 106/186/17 119/199/16
f 109/223/32 121/224/4 115/225/4 103/226/29
f 136/227/2 138/228/39 129/229/39 128/230/2
f 141/231/1 133/232/1 130/233/1 137/234/1
f 132/235/14 134/236/40 142/237/40 140/238/14
f 139/239/41 131/240/41 132/241/42 140/242/42
f 133/243/43 141/244/43 142/245/40 134/246/40
f 127/247/6 135/248/6 136/249/9 128/250/9
f 137/251/8 130/252/8 129/253/39 138/254/39
f 131/255/41 139/256/41 135/257/6 127/258/6
f 152/259/43 144/260/43 143/261/40 151/262/40
f 148/263/8 155/264/8 156/265/39 147/266/39
f 158/267/6 150/268/6 149/269/9 157/270/9
f 144/271/1 152/272/1 155/273/1 148/274/1
f 154/275/41 146/276/41 150/277/6 158/278/6
f 146/279/41 154/280/41 153/281/42 145/282/42
f 149/283/2 147/284/39 156/285/39 157/286/2
f 153/287/14 151/288/40 143/289/40 145/290/14
f 169/291/2 173/292/2 171/293/2 167/294/2
f 170/295/2 168/296/2 172/297/2 174/298/2
f 170/295/2 174/298/2 173/292/2 169/291/2
f 177/299/14 175/300/14 179/301/14 181/302/14
f 178/303/14 182/304/14 180/305/14 176/306/14
f 178/303/14 177/299/14 181/302/14 182/304/14
f 182/307/5 174/308/5 172/309/5 180/310/5
f 179/311/3 171/312/3 173/313/3 181/314/3
f 181/314/4 173/313/4 174/308/4 182/307/4
usemtl tiny_treats_1_GLASS
f 159/315/2 160/316/2 162/317/2 161/318/2
f 164/319/14 163/320/14 166/321/14 165/322/14
