# Blender v3.4.1 OBJ File: 'Tiny_treats_Playful_Bedroom_1.1_ASSETS_EXPORT.blend'
# www.blender.org
mtllib wall_panelled_corner_inner_green.mtl
o wall_panelled_corner_inner_green
v -0.250000 -0.000000 1.999999
v -0.250000 4.000000 2.000000
v 0.200000 -0.000000 2.000000
v 0.200000 4.000000 2.000000
v 0.200000 1.500000 2.000000
v 0.200000 1.200000 2.000000
v 0.280000 1.200000 2.000000
v 0.300000 1.220000 2.000000
v 0.300000 1.480000 2.000000
v 0.280000 1.500000 2.000000
v 0.200000 0.200000 2.000000
v 0.199999 0.200000 0.666666
v 0.249999 0.200000 0.716666
v 0.249999 1.200000 0.716666
v 0.199999 1.200000 0.666666
v 0.200000 1.200000 1.333333
v 0.250000 1.200000 1.283333
v 0.250000 0.200000 1.283333
v 0.200000 0.200000 1.333333
v 0.249999 0.200000 0.616666
v 0.249999 1.200000 0.616666
v 0.250000 0.200000 1.383333
v 0.250000 0.200000 1.949999
v 0.200000 1.200000 2.000000
v 0.250000 1.200000 1.950000
v 0.250000 1.200000 1.383333
v 0.200000 0.200000 2.000000
v 0.200000 -0.000000 2.000000
v 0.280000 -0.000000 2.000000
v 0.300000 0.020000 2.000000
v 0.300000 0.180000 2.000000
v 0.280000 0.200000 2.000000
v 0.250000 1.200000 0.250000
v 0.250000 0.200000 0.250000
v -0.250000 1.500000 2.000000
v -0.250001 1.500000 -0.250000
v 0.200000 1.500000 2.000000
v 0.250000 4.000000 2.000000
v 0.250000 1.500000 2.000000
v 2.000000 0.000000 -0.250001
v 2.000000 4.000000 -0.250001
v -0.250000 0.000000 -0.250000
v -0.250000 4.000000 -0.249999
v 0.200000 -0.000000 0.200000
v 0.200000 4.000000 0.200000
v 2.000000 -0.000000 0.199999
v 2.000000 4.000000 0.200000
v 2.000000 1.500000 0.199999
v 0.200000 1.500000 0.200000
v 2.000000 1.200000 0.199999
v 0.200000 1.200000 0.200000
v 0.279999 1.200000 0.280000
v 0.300000 1.220000 0.300000
v 0.300000 1.480000 0.300000
v 0.279999 1.500000 0.280000
v 2.000000 1.500000 0.279999
v 2.000000 1.480000 0.299999
v 2.000000 1.220000 0.299999
v 2.000000 1.200000 0.279999
v 2.000000 0.200000 0.199999
v 1.333333 0.200000 0.199999
v 1.283333 0.200000 0.249999
v 1.283333 1.200000 0.249999
v 1.333333 1.200000 0.200000
v 2.000000 1.200000 0.199999
v 1.949999 1.200000 0.249999
v 1.949999 0.200000 0.249999
v 0.666666 1.200000 0.200000
v 0.716666 1.200000 0.250000
v 0.716666 0.200000 0.250000
v 0.666666 0.200000 0.200000
v 1.383333 0.200000 0.249999
v 1.383333 1.200000 0.249999
v 0.616666 0.200000 0.250000
v 0.616666 1.200000 0.250000
v 2.000000 0.200000 0.199999
v 0.200000 0.200000 0.200000
v 2.000000 -0.000000 0.199999
v 0.200000 -0.000000 0.200000
v 0.279999 -0.000000 0.280000
v 0.300000 0.020000 0.300000
v 0.300000 0.180000 0.300000
v 0.279999 0.200000 0.280000
v 2.000000 0.200000 0.279999
v 2.000000 0.180000 0.299999
v 2.000000 0.020000 0.299999
v 2.000000 -0.000000 0.279999
v 2.000000 1.500000 0.199999
v 2.000000 1.500000 -0.250001
v 0.200000 1.500000 0.200000
v 0.250000 4.000000 0.250000
v 2.000000 4.000000 0.250000
v 0.250000 1.500000 0.250000
v 2.000000 1.500000 0.249999
vt 0.450978 0.866840
vt 0.422488 0.866840
vt 0.422488 0.866840
vt 0.450978 0.866840
vt 0.051015 0.710866
vt 0.051015 0.732646
vt 0.051015 0.732646
vt 0.051015 0.710866
vt 0.072816 0.710866
vt 0.072816 0.710866
vt 0.072816 0.689086
vt 0.072816 0.689086
vt 0.072816 0.732646
vt 0.072816 0.732646
vt 0.051015 0.732646
vt 0.072816 0.732646
vt 0.417395 0.859544
vt 0.456071 0.859544
vt 0.456071 0.859544
vt 0.417395 0.859544
vt 0.456071 0.891181
vt 0.456071 0.896204
vt 0.417395 0.896204
vt 0.417395 0.891181
vt 0.456071 0.927840
vt 0.417395 0.927840
vt 0.417395 0.927454
vt 0.456071 0.927454
vt 0.456071 0.859931
vt 0.417395 0.859931
vt 0.456071 0.927840
vt 0.417395 0.927840
vt 0.417395 0.890794
vt 0.417395 0.896590
vt 0.417395 0.890794
vt 0.417395 0.896590
vt 0.429320 0.867611
vt 0.429320 0.890988
vt 0.418362 0.890988
vt 0.418362 0.867611
vt 0.449625 0.867611
vt 0.449625 0.890988
vt 0.444146 0.890988
vt 0.444146 0.867611
vt 0.442212 0.867611
vt 0.442212 0.890988
vt 0.431254 0.890988
vt 0.431254 0.867611
vt 0.442212 0.859738
vt 0.442212 0.836361
vt 0.443179 0.836361
vt 0.443179 0.859738
vt 0.443179 0.922238
vt 0.443179 0.898861
vt 0.444146 0.898861
vt 0.444146 0.922238
vt 0.418362 0.898861
vt 0.418362 0.922238
vt 0.417395 0.922238
vt 0.417395 0.898861
vt 0.429320 0.859738
vt 0.429320 0.836361
vt 0.430287 0.836361
vt 0.430287 0.859738
vt 0.430287 0.922238
vt 0.430287 0.898861
vt 0.431254 0.898861
vt 0.431254 0.922238
vt 0.450978 0.895303
vt 0.422488 0.895303
vt 0.417395 0.859544
vt 0.456071 0.859544
vt 0.456071 0.859544
vt 0.417395 0.859544
vt 0.456071 0.891181
vt 0.456071 0.896204
vt 0.417395 0.896204
vt 0.417395 0.891181
vt 0.456071 0.927840
vt 0.417395 0.927840
vt 0.417395 0.927454
vt 0.456071 0.927454
vt 0.456071 0.859931
vt 0.417395 0.859931
vt 0.456071 0.927840
vt 0.417395 0.927840
vt 0.417395 0.890794
vt 0.417395 0.896590
vt 0.417395 0.890794
vt 0.417395 0.896590
vt 0.450978 0.895303
vt 0.422488 0.895303
vt 0.072816 0.710866
vt 0.051015 0.710866
vt 0.450978 0.866840
vt 0.422488 0.866840
vt 0.422488 0.866840
vt 0.450978 0.866840
vt 0.450978 0.895303
vt 0.450978 0.895303
vt 0.051015 0.732646
vt 0.072816 0.732646
vt 0.072816 0.732646
vt 0.051015 0.732646
vt 0.051015 0.732646
vt 0.072816 0.732646
vt 0.417395 0.859544
vt 0.456071 0.859544
vt 0.456071 0.859544
vt 0.417395 0.859544
vt 0.456071 0.891181
vt 0.456071 0.896204
vt 0.417395 0.896204
vt 0.417395 0.891181
vt 0.456071 0.927840
vt 0.417395 0.927840
vt 0.417395 0.927454
vt 0.456071 0.927454
vt 0.456071 0.859931
vt 0.417395 0.859931
vt 0.456071 0.927840
vt 0.417395 0.927840
vt 0.456071 0.896590
vt 0.456071 0.890794
vt 0.456071 0.896590
vt 0.456071 0.890794
vt 0.455104 0.867611
vt 0.455104 0.890988
vt 0.444146 0.890988
vt 0.444146 0.867611
vt 0.442212 0.867611
vt 0.442212 0.890988
vt 0.431254 0.890988
vt 0.431254 0.867611
vt 0.455104 0.859738
vt 0.455104 0.836361
vt 0.456071 0.836361
vt 0.456071 0.859738
vt 0.442212 0.859738
vt 0.442212 0.836361
vt 0.443179 0.836361
vt 0.443179 0.859738
vt 0.443179 0.922238
vt 0.443179 0.898861
vt 0.444146 0.898861
vt 0.444146 0.922238
vt 0.429320 0.859738
vt 0.429320 0.836361
vt 0.430287 0.836361
vt 0.430287 0.859738
vt 0.430287 0.922238
vt 0.430287 0.898861
vt 0.431254 0.898861
vt 0.431254 0.922238
vt 0.422488 0.895303
vt 0.417395 0.859544
vt 0.456071 0.859544
vt 0.456071 0.859544
vt 0.417395 0.859544
vt 0.456071 0.891181
vt 0.456071 0.896204
vt 0.417395 0.896204
vt 0.417395 0.891181
vt 0.456071 0.927840
vt 0.417395 0.927840
vt 0.417395 0.927454
vt 0.456071 0.927454
vt 0.456071 0.859931
vt 0.417395 0.859931
vt 0.456071 0.927840
vt 0.417395 0.927840
vt 0.456071 0.896590
vt 0.456071 0.890794
vt 0.456071 0.896590
vt 0.456071 0.890794
vt 0.429320 0.867611
vt 0.429320 0.890988
vt 0.423841 0.890988
vt 0.423841 0.867611
vt 0.072816 0.710866
vt 0.051015 0.710866
vt 0.422488 0.895303
vt 0.072816 0.710866
vt 0.072816 0.710866
vt 0.051015 0.710866
vt 0.051015 0.710866
vn 0.0000 -1.0000 -0.0000
vn -0.0000 -0.0000 1.0000
vn 0.7071 0.0000 -0.7071
vn -0.0000 1.0000 0.0000
vn 0.2175 -0.9761 -0.0000
vn 0.3827 -0.9239 -0.0000
vn 1.0000 0.0000 -0.0000
vn 0.2175 0.9761 0.0000
vn 0.3827 0.9239 0.0000
vn 0.7071 0.7071 -0.0000
vn 0.7071 -0.7071 -0.0000
vn 0.9239 -0.0000 0.3827
vn 0.9239 0.0000 -0.3827
vn 0.7071 -0.0000 0.7071
vn -1.0000 -0.0000 0.0000
vn 0.0000 -0.9239 0.3827
vn 0.0000 -0.9761 0.2175
vn 0.0000 0.9239 0.3827
vn 0.0000 0.9761 0.2175
vn 0.0000 0.7071 0.7071
vn 0.0000 -0.7071 0.7071
vn 0.3827 -0.0000 0.9239
vn -0.3827 -0.0000 0.9239
vn -0.7071 -0.0000 0.7071
vn -0.0000 0.0000 -1.0000
usemtl tiny_treats_1
s 1
f 44/1/1 3/2/1 1/3/1 42/4/1
f 37/5/2 4/6/2 2/7/2 35/8/2
f 36/9/3 90/10/3 44/11/3 42/12/3
f 4/6/4 45/13/4 43/14/4 2/7/4
f 45/13/4 4/6/4 38/15/4 91/16/4
f 6/17/1 51/18/1 52/19/5 7/20/6
f 53/21/7 54/22/7 9/23/7 8/24/7
f 55/25/8 10/26/9 9/27/10 54/28/10
f 53/29/11 8/30/11 7/20/6 52/19/5
f 49/31/4 5/32/4 10/26/9 55/25/8
f 7/33/2 8/24/2 9/23/2 10/34/2
f 6/35/2 7/33/2 10/34/2 5/36/2
f 22/37/7 26/38/7 25/39/12 23/40/12
f 34/41/7 33/42/7 21/43/12 20/44/12
f 13/45/13 14/46/13 17/47/12 18/48/12
f 14/49/13 13/50/13 12/51/3 15/52/3
f 15/53/14 12/54/14 20/55/12 21/56/12
f 23/57/12 25/58/12 24/59/14 11/60/14
f 26/61/3 22/62/3 19/63/3 16/64/3
f 16/65/14 19/66/14 18/67/12 17/68/12
f 36/69/15 42/4/15 1/3/15 35/70/15
f 28/71/1 79/72/1 80/73/5 29/74/6
f 81/75/7 82/76/7 31/77/7 30/78/7
f 83/79/8 32/80/9 31/81/10 82/82/10
f 81/83/11 30/84/11 29/74/6 80/73/5
f 77/85/4 27/86/4 32/80/9 83/79/8
f 29/87/2 30/78/2 31/77/2 32/88/2
f 28/89/2 29/87/2 32/88/2 27/90/2
f 43/14/15 36/9/15 35/8/15 2/7/15
f 44/1/7 90/91/7 37/92/7 3/2/7
f 3/2/2 37/92/2 35/70/2 1/3/2
f 93/93/7 91/16/7 38/15/7 39/94/7
f 4/6/2 37/5/2 39/94/2 38/15/2
f 37/5/1 90/10/1 93/93/1 39/94/1
f 46/95/1 44/96/1 42/97/1 40/98/1
f 89/99/7 88/100/7 46/95/7 40/98/7
f 45/101/4 47/102/4 41/103/4 43/104/4
f 47/102/4 45/101/4 91/105/4 92/106/4
f 51/107/1 50/108/1 59/109/16 52/110/17
f 58/111/2 57/112/2 54/113/2 53/114/2
f 56/115/18 55/116/19 54/117/20 57/118/20
f 58/119/21 53/120/21 52/110/17 59/109/16
f 48/121/4 49/122/4 55/116/19 56/115/18
f 56/123/7 57/112/7 58/111/7 59/124/7
f 48/125/7 56/123/7 59/124/7 50/126/7
f 67/127/22 66/128/22 73/129/23 72/130/23
f 62/131/22 63/132/22 69/133/23 70/134/23
f 66/135/22 67/136/22 60/137/14 65/138/14
f 63/139/22 62/140/22 61/141/14 64/142/14
f 64/143/24 61/144/24 72/145/23 73/146/23
f 75/147/22 74/148/22 71/149/14 68/150/14
f 68/151/24 71/152/24 70/153/23 69/154/23
f 89/99/25 40/98/25 42/97/25 36/155/25
f 79/156/1 78/157/1 87/158/16 80/159/17
f 86/160/2 85/161/2 82/162/2 81/163/2
f 84/164/20 83/165/20 82/166/20 85/167/20
f 86/168/21 81/169/21 80/159/17 87/158/16
f 76/170/4 77/171/4 83/165/4 84/164/4
f 84/172/7 85/161/7 86/160/7 87/173/7
f 76/174/7 84/172/7 87/173/7 78/175/7
f 74/176/22 75/177/22 33/178/2 34/179/2
f 41/103/25 89/180/25 36/181/25 43/104/25
f 46/95/2 88/100/2 90/182/2 44/96/2
f 41/103/7 47/102/7 88/183/7 89/180/7
f 94/184/2 92/106/2 91/105/2 93/185/2
f 90/186/1 88/183/1 94/184/1 93/185/1
f 88/183/7 47/102/7 92/106/7 94/184/7
