# Blender v3.4.1 OBJ File: 'Tiny_treats_Playful_Bedroom_1.1_ASSETS_EXPORT.blend'
# www.blender.org
mtllib wall_modular_panelled_half_straight_blue_A.mtl
o wall_modular_panelled_half_straight_blue_A
v -0.500000 -0.000000 0.200000
v -0.500000 4.000000 0.200001
v 0.500000 -0.000000 0.200000
v 0.500000 4.000000 0.200000
v 0.500000 1.500000 0.200000
v -0.500000 1.500000 0.200000
v 0.500000 1.200000 0.200000
v -0.500000 1.200000 0.200000
v -0.500000 1.200000 0.280000
v -0.500000 1.220000 0.300000
v -0.500000 1.480000 0.300000
v -0.500000 1.500000 0.280000
v 0.500000 1.500000 0.280000
v 0.500000 1.480000 0.300000
v 0.500000 1.220000 0.300000
v 0.500000 1.200000 0.280000
v 0.500000 0.200000 0.200000
v 0.000000 0.200000 0.200000
v -0.049667 0.200000 0.250000
v -0.049667 1.200000 0.250000
v 0.000000 1.200000 0.200000
v 0.500000 1.200000 0.200000
v 0.447000 1.200000 0.250000
v 0.447000 0.200000 0.250000
v -0.500000 1.200000 0.200000
v -0.446333 1.200000 0.250000
v -0.446333 0.200000 0.250000
v -0.500000 0.200000 0.200000
v 0.050333 0.200000 0.250000
v 0.050333 1.200000 0.250000
v 0.500000 0.200000 0.200000
v -0.500000 0.200000 0.200000
v 0.500000 -0.000000 0.200000
v -0.500000 -0.000000 0.200000
v -0.500000 -0.000000 0.280000
v -0.500000 0.020000 0.300000
v -0.500000 0.180000 0.300000
v -0.500000 0.200000 0.280000
v 0.500000 0.200000 0.280000
v 0.500000 0.180000 0.300000
v 0.500000 0.020000 0.300000
v 0.500000 -0.000000 0.280000
v 0.500000 1.500000 0.200000
v -0.500000 1.500000 0.200000
v -0.500000 4.000000 0.250001
v 0.500000 4.000000 0.250000
v -0.500000 1.500000 0.250000
v 0.500000 1.500000 0.250000
v 0.500000 0.000000 -0.000000
v -0.500000 -0.000000 0.000000
v -0.500000 4.000000 0.000001
v 0.500000 4.000000 -0.000000
v 0.500000 1.500000 -0.000000
v -0.500000 1.500000 0.000001
vt 0.449989 0.894314
vt 0.449989 0.894314
vt 0.449989 0.867828
vt 0.449989 0.867828
vt 0.455268 0.694378
vt 0.418562 0.694378
vt 0.418562 0.694378
vt 0.455268 0.694378
vt 0.417395 0.859544
vt 0.456071 0.859544
vt 0.456071 0.859544
vt 0.417395 0.859544
vt 0.456071 0.891181
vt 0.456071 0.896204
vt 0.417395 0.896204
vt 0.417395 0.891181
vt 0.456071 0.927840
vt 0.417395 0.927840
vt 0.417395 0.927454
vt 0.456071 0.927454
vt 0.456071 0.859931
vt 0.417395 0.859931
vt 0.456071 0.927840
vt 0.417395 0.927840
vt 0.456071 0.896590
vt 0.456071 0.890794
vt 0.456071 0.896590
vt 0.456071 0.890794
vt 0.417395 0.890794
vt 0.417395 0.896590
vt 0.417395 0.890794
vt 0.417395 0.896590
vt 0.455104 0.867611
vt 0.455104 0.890988
vt 0.444146 0.890988
vt 0.444146 0.867611
vt 0.442212 0.867611
vt 0.442212 0.890988
vt 0.431254 0.890988
vt 0.431254 0.867611
vt 0.455104 0.859738
vt 0.455104 0.836361
vt 0.456071 0.836361
vt 0.456071 0.859738
vt 0.442212 0.859738
vt 0.442212 0.836361
vt 0.443179 0.836361
vt 0.443179 0.859738
vt 0.443179 0.922238
vt 0.443179 0.898861
vt 0.444146 0.898861
vt 0.444146 0.922238
vt 0.430287 0.922238
vt 0.430287 0.898861
vt 0.431254 0.898861
vt 0.431254 0.922238
vt 0.417395 0.859544
vt 0.456071 0.859544
vt 0.456071 0.859544
vt 0.417395 0.859544
vt 0.456071 0.891181
vt 0.456071 0.896204
vt 0.417395 0.896204
vt 0.417395 0.891181
vt 0.456071 0.927840
vt 0.417395 0.927840
vt 0.417395 0.927454
vt 0.456071 0.927454
vt 0.456071 0.859931
vt 0.417395 0.859931
vt 0.456071 0.927840
vt 0.417395 0.927840
vt 0.456071 0.896590
vt 0.456071 0.890794
vt 0.456071 0.896590
vt 0.456071 0.890794
vt 0.417395 0.890794
vt 0.417395 0.896590
vt 0.417395 0.890794
vt 0.417395 0.896590
vt 0.423477 0.894314
vt 0.423477 0.867828
vt 0.455268 0.694378
vt 0.455268 0.657707
vt 0.455268 0.657707
vt 0.455268 0.657707
vt 0.418562 0.657707
vt 0.418562 0.657707
vt 0.423477 0.894314
vt 0.423477 0.867828
vt 0.418562 0.694378
vt 0.418562 0.657707
vn 1.0000 0.0000 0.0000
vn 0.0000 1.0000 0.0000
vn 0.0000 -1.0000 0.0000
vn 0.0000 -0.9239 0.3827
vn 0.0000 -0.0000 1.0000
vn 0.0000 0.9239 0.3827
vn 0.0000 0.7071 0.7071
vn 0.0000 -0.7071 0.7071
vn -1.0000 0.0000 0.0000
vn 0.3692 -0.0000 0.9294
vn -0.3811 -0.0000 0.9245
vn -0.3663 -0.0000 0.9305
vn 0.6862 -0.0000 0.7274
vn 0.7095 -0.0000 0.7047
vn -0.7048 -0.0000 0.7095
vn -0.6817 -0.0000 0.7317
usemtl tiny_treats_1
s 1
f 53/1/1 43/2/1 3/3/1 49/4/1
f 4/5/2 2/6/2 45/7/2 46/8/2
f 8/9/3 7/10/3 16/11/4 9/12/4
f 15/13/5 14/14/5 11/15/5 10/16/5
f 13/17/6 12/18/6 11/19/7 14/20/7
f 15/21/8 10/22/8 9/12/4 16/11/4
f 5/23/2 6/24/2 12/18/6 13/17/6
f 13/25/1 14/14/1 15/13/1 16/26/1
f 5/27/1 13/25/1 16/26/1 7/28/1
f 9/29/9 10/16/9 11/15/9 12/30/9
f 8/31/9 9/29/9 12/30/9 6/32/9
f 24/33/10 23/34/10 30/35/11 29/36/11
f 19/37/5 20/38/5 26/39/12 27/40/12
f 23/41/10 24/42/10 17/43/13 22/44/13
f 20/45/14 19/46/14 18/47/14 21/48/14
f 21/49/15 18/50/15 29/51/11 30/52/11
f 25/53/16 28/54/16 27/55/12 26/56/12
f 34/57/3 33/58/3 42/59/4 35/60/4
f 41/61/5 40/62/5 37/63/5 36/64/5
f 39/65/6 38/66/6 37/67/7 40/68/7
f 41/69/8 36/70/8 35/60/4 42/59/4
f 31/71/2 32/72/2 38/66/6 39/65/6
f 39/73/1 40/62/1 41/61/1 42/74/1
f 31/75/1 39/73/1 42/74/1 33/76/1
f 35/77/9 36/64/9 37/63/9 38/78/9
f 34/79/9 35/77/9 38/78/9 32/80/9
f 3/3/5 43/2/5 44/81/5 1/82/5
f 52/83/1 4/5/1 43/84/1 53/85/1
f 48/86/5 46/8/5 45/7/5 47/87/5
f 2/6/9 44/88/9 47/87/9 45/7/9
f 44/88/3 43/84/3 48/86/3 47/87/3
f 43/84/1 4/5/1 46/8/1 48/86/1
f 1/82/9 44/81/9 54/89/9 50/90/9
f 2/6/2 4/5/2 52/83/2 51/91/2
f 44/88/9 2/6/9 51/91/9 54/92/9
f 3/3/3 1/82/3 50/90/3 49/4/3
