# Blender v3.4.1 OBJ File: 'Tiny_treats_Playful_Bedroom_1.1_ASSETS_EXPORT.blend'
# www.blender.org
mtllib wall_modular_panelled_straight_green_A.mtl
o wall_modular_panelled_straight_green_A
v -1.000000 -0.000000 0.200000
v -1.000000 4.000000 0.200001
v 1.000000 -0.000000 0.200000
v 1.000000 4.000000 0.200000
v 1.000000 1.500000 0.200000
v -1.000000 1.500000 0.200000
v 1.000000 1.200000 0.200000
v -1.000000 1.200000 0.200000
v -1.000000 1.200000 0.280000
v -1.000000 1.220000 0.300000
v -1.000000 1.480000 0.300000
v -1.000000 1.500000 0.280000
v 1.000000 1.500000 0.280000
v 1.000000 1.480000 0.300000
v 1.000000 1.220000 0.300000
v 1.000000 1.200000 0.280000
v -1.000000 0.200000 0.200000
v 1.000000 0.200000 0.200000
v 0.333333 0.200000 0.200000
v 0.283333 0.200000 0.250000
v 0.283333 1.200000 0.250000
v 0.333333 1.200000 0.200000
v 1.000000 1.200000 0.200000
v 0.950000 1.200000 0.250000
v 0.950000 0.200000 0.250000
v -0.333333 1.200000 0.200000
v -0.283333 1.200000 0.250000
v -0.283333 0.200000 0.250000
v -0.333333 0.200000 0.200000
v 0.383333 0.200000 0.250000
v 0.383333 1.200000 0.250000
v -0.383333 0.200000 0.250000
v -0.950000 0.200000 0.250000
v -1.000000 1.200000 0.200000
v -0.950000 1.200000 0.250000
v -0.383333 1.200000 0.250000
v 1.000000 0.200000 0.200000
v -1.000000 0.200000 0.200000
v 1.000000 -0.000000 0.200000
v -1.000000 -0.000000 0.200000
v -1.000000 -0.000000 0.280000
v -1.000000 0.020000 0.300000
v -1.000000 0.180000 0.300000
v -1.000000 0.200000 0.280000
v 1.000000 0.200000 0.280000
v 1.000000 0.180000 0.300000
v 1.000000 0.020000 0.300000
v 1.000000 -0.000000 0.280000
v 1.000000 1.500000 0.200000
v -1.000000 1.500000 0.200000
v -1.000000 4.000000 0.250001
v 1.000000 4.000000 0.250000
v -1.000000 1.500000 0.250000
v 1.000000 1.500000 0.250000
v 1.000000 0.000000 -0.000000
v -1.000000 -0.000000 0.000000
v -1.000000 4.000000 0.000001
v 1.000000 4.000000 -0.000000
v 1.000000 1.500000 -0.000000
v -1.000000 1.500000 0.000001
vt 0.449989 0.894314
vt 0.449989 0.894314
vt 0.449989 0.867828
vt 0.449989 0.867828
vt 0.072816 0.732646
vt 0.051015 0.732646
vt 0.051015 0.732646
vt 0.072816 0.732646
vt 0.417395 0.859544
vt 0.456071 0.859544
vt 0.456071 0.859544
vt 0.417395 0.859544
vt 0.456071 0.891181
vt 0.456071 0.896204
vt 0.417395 0.896204
vt 0.417395 0.891181
vt 0.456071 0.927840
vt 0.417395 0.927840
vt 0.417395 0.927454
vt 0.456071 0.927454
vt 0.456071 0.859931
vt 0.417395 0.859931
vt 0.456071 0.927840
vt 0.417395 0.927840
vt 0.456071 0.896590
vt 0.456071 0.890794
vt 0.456071 0.896590
vt 0.456071 0.890794
vt 0.417395 0.890794
vt 0.417395 0.896590
vt 0.417395 0.890794
vt 0.417395 0.896590
vt 0.429320 0.867611
vt 0.429320 0.890988
vt 0.418362 0.890988
vt 0.418362 0.867611
vt 0.455104 0.867611
vt 0.455104 0.890988
vt 0.444146 0.890988
vt 0.444146 0.867611
vt 0.442212 0.867611
vt 0.442212 0.890988
vt 0.431254 0.890988
vt 0.431254 0.867611
vt 0.455104 0.859738
vt 0.455104 0.836361
vt 0.456071 0.836361
vt 0.456071 0.859738
vt 0.442212 0.859738
vt 0.442212 0.836361
vt 0.443179 0.836361
vt 0.443179 0.859738
vt 0.443179 0.922238
vt 0.443179 0.898861
vt 0.444146 0.898861
vt 0.444146 0.922238
vt 0.418362 0.898861
vt 0.418362 0.922238
vt 0.417395 0.922238
vt 0.417395 0.898861
vt 0.429320 0.859738
vt 0.429320 0.836361
vt 0.430287 0.836361
vt 0.430287 0.859738
vt 0.430287 0.922238
vt 0.430287 0.898861
vt 0.431254 0.898861
vt 0.431254 0.922238
vt 0.417395 0.859544
vt 0.456071 0.859544
vt 0.456071 0.859544
vt 0.417395 0.859544
vt 0.456071 0.891181
vt 0.456071 0.896204
vt 0.417395 0.896204
vt 0.417395 0.891181
vt 0.456071 0.927840
vt 0.417395 0.927840
vt 0.417395 0.927454
vt 0.456071 0.927454
vt 0.456071 0.859931
vt 0.417395 0.859931
vt 0.456071 0.927840
vt 0.417395 0.927840
vt 0.456071 0.896590
vt 0.456071 0.890794
vt 0.456071 0.896590
vt 0.456071 0.890794
vt 0.417395 0.890794
vt 0.417395 0.896590
vt 0.417395 0.890794
vt 0.417395 0.896590
vt 0.423477 0.894314
vt 0.423477 0.867828
vt 0.072816 0.732646
vt 0.072816 0.710866
vt 0.072816 0.710866
vt 0.072816 0.710866
vt 0.051015 0.710866
vt 0.051015 0.710866
vt 0.423477 0.894314
vt 0.423477 0.867828
vt 0.051015 0.732646
vt 0.051015 0.710866
vn 1.0000 0.0000 0.0000
vn 0.0000 1.0000 0.0000
vn 0.0000 -1.0000 0.0000
vn 0.0000 -0.9239 0.3827
vn 0.0000 -0.0000 1.0000
vn 0.0000 0.9239 0.3827
vn 0.0000 0.7071 0.7071
vn 0.0000 -0.7071 0.7071
vn -1.0000 0.0000 0.0000
vn 0.3827 -0.0000 0.9239
vn -0.3827 -0.0000 0.9239
vn 0.7071 -0.0000 0.7071
vn -0.7071 -0.0000 0.7071
usemtl tiny_treats_1
s 1
f 59/1/1 49/2/1 3/3/1 55/4/1
f 4/5/2 2/6/2 51/7/2 52/8/2
f 8/9/3 7/10/3 16/11/4 9/12/4
f 15/13/5 14/14/5 11/15/5 10/16/5
f 13/17/6 12/18/6 11/19/7 14/20/7
f 15/21/8 10/22/8 9/12/4 16/11/4
f 5/23/2 6/24/2 12/18/6 13/17/6
f 13/25/1 14/14/1 15/13/1 16/26/1
f 5/27/1 13/25/1 16/26/1 7/28/1
f 9/29/9 10/16/9 11/15/9 12/30/9
f 8/31/9 9/29/9 12/30/9 6/32/9
f 32/33/10 36/34/10 35/35/5 33/36/5
f 25/37/10 24/38/10 31/39/11 30/40/11
f 20/41/10 21/42/10 27/43/11 28/44/11
f 24/45/10 25/46/10 18/47/12 23/48/12
f 21/49/10 20/50/10 19/51/12 22/52/12
f 22/53/13 19/54/13 30/55/11 31/56/11
f 33/57/13 35/58/13 34/59/13 17/60/13
f 36/61/10 32/62/10 29/63/12 26/64/12
f 26/65/13 29/66/13 28/67/11 27/68/11
f 40/69/3 39/70/3 48/71/4 41/72/4
f 47/73/5 46/74/5 43/75/5 42/76/5
f 45/77/6 44/78/6 43/79/7 46/80/7
f 47/81/8 42/82/8 41/72/4 48/71/4
f 37/83/2 38/84/2 44/78/6 45/77/6
f 45/85/1 46/74/1 47/73/1 48/86/1
f 37/87/1 45/85/1 48/86/1 39/88/1
f 41/89/9 42/76/9 43/75/9 44/90/9
f 40/91/9 41/89/9 44/90/9 38/92/9
f 3/3/5 49/2/5 50/93/5 1/94/5
f 58/95/1 4/5/1 49/96/1 59/97/1
f 54/98/5 52/8/5 51/7/5 53/99/5
f 2/6/9 50/100/9 53/99/9 51/7/9
f 50/100/3 49/96/3 54/98/3 53/99/3
f 49/96/1 4/5/1 52/8/1 54/98/1
f 1/94/9 50/93/9 60/101/9 56/102/9
f 2/6/2 4/5/2 58/95/2 57/103/2
f 50/100/9 2/6/9 57/103/9 60/104/9
f 3/3/3 1/94/3 56/102/3 55/4/3
