# Blender v3.4.1 OBJ File: 'Tiny_treats_Playful_Bedroom_1.1_ASSETS_EXPORT.blend'
# www.blender.org
mtllib wall_modular_panelled_window_green_full_right_A.mtl
o wall_modular_panelled_window_green_full_right_A
v -1.000000 -0.000000 0.200001
v -1.000000 4.000000 0.200000
v 1.000000 0.000000 0.200000
v 1.000000 4.000000 0.200000
v -1.000000 3.500000 0.200000
v 0.749999 3.500000 0.200000
v -1.000000 0.500000 0.200000
v 0.749999 0.500000 0.200000
v 0.749999 1.500000 0.200000
v 1.000000 1.500000 0.200000
v 1.000000 4.000000 0.250000
v -1.000000 4.000000 0.250000
v -1.000000 3.500000 0.250000
v 0.749999 3.500000 0.250000
v 0.749999 1.500000 0.250000
v 1.000000 1.500000 0.250000
v 0.750001 1.500000 0.200000
v 1.000001 1.500000 0.200001
v 0.750001 1.200000 0.200000
v 1.000001 1.200000 0.200001
v 1.000001 1.200000 0.280001
v 1.000001 1.220000 0.300001
v 1.000001 1.480000 0.300001
v 1.000001 1.500000 0.280001
v 0.750001 1.500000 0.280000
v 0.750001 1.480000 0.300000
v 0.750001 1.220000 0.300000
v 0.750001 1.200000 0.280000
v -0.333332 0.200000 0.200000
v -0.283332 0.200000 0.250000
v -0.283332 0.500000 0.250000
v -0.333332 0.500000 0.200000
v 0.333334 0.500000 0.200000
v 0.283334 0.500000 0.250000
v 0.283334 0.200000 0.250000
v 0.333334 0.200000 0.200000
v -0.383332 0.200000 0.250000
v -0.383332 0.500000 0.250000
v 0.383334 0.200000 0.250000
v -0.749999 0.500000 0.200001
v 0.750000 0.500000 0.200002
v 0.383334 0.500000 0.250000
v -0.999999 0.200000 0.200000
v 1.000001 0.200000 0.200001
v -0.999999 -0.000000 0.200000
v 1.000001 -0.000000 0.200001
v 1.000001 -0.000000 0.280001
v 1.000001 0.020000 0.300001
v 1.000001 0.180000 0.300001
v 1.000001 0.200000 0.280001
v -0.999999 0.200000 0.280000
v -0.999999 0.180000 0.300000
v -0.999999 0.020000 0.300000
v -0.999999 -0.000000 0.280000
v 0.750000 0.200000 0.250001
v 0.750000 0.500000 0.250001
v -0.749999 0.200000 0.250000
v -0.749999 0.500000 0.250000
v 1.000001 0.200000 0.200001
v -0.999999 0.200000 0.200000
v -0.999999 0.500000 0.200000
v -0.949999 0.500000 0.250000
v -0.949999 0.200000 0.250000
v 0.950001 0.200000 0.250001
v 1.000001 1.200000 0.200001
v 0.950001 1.200000 0.250001
v 0.750000 0.200000 0.250001
v 0.750000 1.200000 0.250001
v -0.749999 0.200000 0.250000
v -0.749999 0.500000 0.250000
v 0.750000 0.200000 0.200001
v 0.750000 1.200000 0.200001
v -0.749999 0.200000 0.200000
v -0.749999 0.500000 0.200000
v 1.000000 4.000000 -0.000000
v 1.000000 0.000000 -0.000000
v -1.000000 -0.000000 0.000000
v -1.000000 4.000000 0.000000
v -1.000000 0.500000 0.000000
v 0.750000 0.500000 -0.000000
v 0.750000 3.500000 -0.000000
v 0.750000 1.500000 -0.000000
v 1.000000 1.500000 -0.000000
v -1.000000 3.500000 0.000000
vt 0.422908 0.867260
vt 0.426503 0.881071
vt 0.446963 0.881071
vt 0.450557 0.867260
vt 0.072051 0.732516
vt 0.072051 0.732516
vt 0.051200 0.732516
vt 0.051200 0.732516
vt 0.072051 0.732516
vt 0.051200 0.732516
vt 0.422908 0.894882
vt 0.426503 0.894882
vt 0.053910 0.722101
vt 0.053910 0.722101
vt 0.069340 0.722101
vt 0.069340 0.722101
vt 0.053910 0.711685
vt 0.051200 0.711685
vt 0.051200 0.711685
vt 0.053910 0.711685
vt 0.417395 0.859544
vt 0.417395 0.859544
vt 0.456071 0.859544
vt 0.456071 0.859544
vt 0.456071 0.891181
vt 0.417395 0.891181
vt 0.417395 0.896204
vt 0.456071 0.896204
vt 0.456071 0.927840
vt 0.456071 0.927454
vt 0.417395 0.927454
vt 0.417395 0.927840
vt 0.456071 0.859931
vt 0.417395 0.859931
vt 0.456071 0.927840
vt 0.417395 0.927840
vt 0.456071 0.896590
vt 0.456071 0.890794
vt 0.456071 0.896590
vt 0.456071 0.890794
vt 0.417395 0.890794
vt 0.417395 0.896590
vt 0.417395 0.890794
vt 0.417395 0.896590
vt 0.451237 0.867611
vt 0.444146 0.867611
vt 0.444146 0.890988
vt 0.451237 0.890988
vt 0.442212 0.867611
vt 0.431254 0.867611
vt 0.431254 0.890988
vt 0.442212 0.890988
vt 0.435547 0.882812
vt 0.430287 0.859738
vt 0.429320 0.859738
vt 0.423841 0.890988
vt 0.442212 0.859738
vt 0.443179 0.859738
vt 0.443179 0.836361
vt 0.442212 0.836361
vt 0.443179 0.922238
vt 0.444146 0.922238
vt 0.444146 0.898861
vt 0.443179 0.898861
vt 0.430287 0.922238
vt 0.430287 0.836361
vt 0.429320 0.836361
vt 0.431254 0.922238
vt 0.431254 0.898861
vt 0.430287 0.898861
vt 0.417395 0.859544
vt 0.417395 0.859544
vt 0.456071 0.859544
vt 0.456071 0.859544
vt 0.456071 0.891181
vt 0.417395 0.891181
vt 0.417395 0.896204
vt 0.456071 0.896204
vt 0.456071 0.927840
vt 0.456071 0.927454
vt 0.417395 0.927454
vt 0.417395 0.927840
vt 0.456071 0.859931
vt 0.417395 0.859931
vt 0.456071 0.927840
vt 0.417395 0.927840
vt 0.456071 0.896590
vt 0.456071 0.890794
vt 0.456071 0.896590
vt 0.456071 0.890794
vt 0.417395 0.890794
vt 0.417395 0.896590
vt 0.417395 0.890794
vt 0.417395 0.896590
vt 0.429320 0.867611
vt 0.423841 0.867611
vt 0.429320 0.890988
vt 0.435547 0.882812
vt 0.423841 0.867611
vt 0.418362 0.867611
vt 0.418362 0.890988
vt 0.423841 0.890988
vt 0.455104 0.859738
vt 0.456071 0.859738
vt 0.456071 0.836361
vt 0.455104 0.836361
vt 0.418362 0.898861
vt 0.417395 0.898861
vt 0.417395 0.922238
vt 0.418362 0.922238
vt 0.455104 0.867611
vt 0.451237 0.867611
vt 0.451237 0.890988
vt 0.455104 0.890988
vt 0.423841 0.890988
vt 0.423841 0.867611
vt 0.451237 0.867611
vt 0.451237 0.890988
vt 0.422908 0.894882
vt 0.422908 0.867260
vt 0.426503 0.881071
vt 0.446963 0.881071
vt 0.450557 0.867260
vt 0.069340 0.722101
vt 0.053910 0.722101
vt 0.053910 0.711685
vt 0.426503 0.894882
vt 0.051200 0.711685
vn 0.0000 0.0000 1.0000
vn 0.0000 1.0000 -0.0000
vn 0.0000 -1.0000 -0.0000
vn 1.0000 -0.0000 0.0000
vn -1.0000 0.0000 -0.0000
vn -0.0000 -0.9239 0.3827
vn -0.0000 0.9239 0.3827
vn -0.0000 0.7071 0.7071
vn -0.0000 -0.7071 0.7071
vn 0.3827 0.0000 0.9239
vn -0.3827 0.0000 0.9239
vn -0.7071 0.0000 0.7071
vn 0.7071 0.0000 0.7071
usemtl tiny_treats_1
s 1
f 3/1/1 8/2/1 7/3/1 1/4/1
f 78/5/2 2/6/2 4/7/2 75/8/2
f 2/6/2 12/9/2 11/10/2 4/7/2
f 10/11/1 9/12/1 8/2/1 3/1/1
f 6/13/3 14/14/3 13/15/3 5/16/3
f 11/10/1 12/9/1 13/15/1 14/14/1
f 11/10/1 14/14/1 15/17/1 16/18/1
f 4/7/4 11/10/4 16/18/4 10/19/4
f 9/20/5 15/17/5 14/14/5 6/13/5
f 20/21/3 21/22/6 28/23/6 19/24/3
f 27/25/1 22/26/1 23/27/1 26/28/1
f 25/29/7 26/30/8 23/31/8 24/32/7
f 27/33/9 28/23/6 21/22/6 22/34/9
f 17/35/2 25/29/7 24/32/7 18/36/2
f 25/37/5 28/38/5 27/25/5 26/28/5
f 17/39/5 19/40/5 28/38/5 25/37/5
f 21/41/4 24/42/4 23/27/4 22/26/4
f 20/43/4 18/44/4 24/42/4 21/41/4
f 57/45/1 37/46/10 38/47/10 58/48/1
f 30/49/11 35/50/10 34/51/10 31/52/11
f 41/53/2 33/54/2 42/55/2 56/56/2
f 31/57/11 32/58/12 29/59/12 30/60/11
f 32/61/13 38/62/10 37/63/10 29/64/13
f 31/52/2 34/51/2 33/65/2 32/58/2
f 42/55/11 33/54/12 36/66/12 39/67/11
f 33/65/13 34/68/10 35/69/10 36/70/13
f 46/71/3 47/72/6 54/73/6 45/74/3
f 53/75/1 48/76/1 49/77/1 52/78/1
f 51/79/7 52/80/8 49/81/8 50/82/7
f 53/83/9 54/73/6 47/72/6 48/84/9
f 43/85/2 51/79/7 50/82/7 44/86/2
f 51/87/5 54/88/5 53/75/5 52/78/5
f 43/89/5 45/90/5 54/88/5 51/87/5
f 47/91/4 50/92/4 49/77/4 48/76/4
f 46/93/4 44/94/4 50/92/4 47/91/4
f 39/95/11 55/96/1 56/56/1 42/97/11
f 40/98/2 58/48/2 38/47/2 32/61/2
f 67/99/1 64/100/1 66/101/1 68/102/1
f 62/103/11 61/104/12 60/105/12 63/106/11
f 64/107/13 59/108/13 65/109/13 66/110/13
f 63/111/11 69/112/1 70/113/1 62/114/11
f 68/102/5 72/115/5 71/116/5 67/99/5
f 69/112/4 73/117/4 74/118/4 70/113/4
f 83/119/4 10/11/4 3/1/4 76/120/4
f 12/9/5 2/6/5 5/16/5 13/15/5
f 80/121/2 79/122/2 7/3/2 8/2/2
f 76/120/3 3/1/3 1/4/3 77/123/3
f 84/124/3 81/125/3 6/13/3 5/16/3
f 84/124/5 5/16/5 2/6/5 78/5/5
f 6/13/5 81/125/5 82/126/5 9/20/5
f 7/3/5 79/122/5 77/123/5 1/4/5
f 9/12/5 82/127/5 80/121/5 8/2/5
f 4/7/4 10/19/4 83/128/4 75/8/4
