# Blender v3.4.1 OBJ File: 'Tiny_treats_Playful_Bedroom_1.1_ASSETS_EXPORT.blend'
# www.blender.org
mtllib wall_panelled_window_pink_full_right.mtl
o wall_panelled_window_pink_full_right
v -1.000000 -0.000000 0.200001
v -1.000000 4.000000 0.200000
v 1.000000 0.000000 0.200000
v 1.000000 4.000000 0.200000
v -1.000000 3.500000 0.200000
v 0.749999 3.500000 0.200000
v -1.000000 0.500000 0.200000
v 0.749999 0.500000 0.200000
v 0.749999 1.500000 0.200000
v 1.000000 1.500000 0.200000
v 1.000000 4.000000 0.250000
v -1.000000 4.000000 0.250000
v -1.000000 3.500000 0.250000
v 0.749999 3.500000 0.250000
v 0.749999 1.500000 0.250000
v 1.000000 1.500000 0.250000
v 0.750001 1.500000 0.200000
v 1.000001 1.500000 0.200001
v 0.750001 1.200000 0.200000
v 1.000001 1.200000 0.200001
v 1.000001 1.200000 0.280001
v 1.000001 1.220000 0.300001
v 1.000001 1.480000 0.300001
v 1.000001 1.500000 0.280001
v 0.750001 1.500000 0.280000
v 0.750001 1.480000 0.300000
v 0.750001 1.220000 0.300000
v 0.750001 1.200000 0.280000
v -0.333332 0.200000 0.200000
v -0.283332 0.200000 0.250000
v -0.283332 0.500000 0.250000
v -0.333332 0.500000 0.200000
v 0.333334 0.500000 0.200000
v 0.283334 0.500000 0.250000
v 0.283334 0.200000 0.250000
v 0.333334 0.200000 0.200000
v -0.383332 0.200000 0.250000
v -0.383332 0.500000 0.250000
v 0.383334 0.200000 0.250000
v -0.749999 0.500000 0.200001
v 0.750000 0.500000 0.200002
v 0.383334 0.500000 0.250000
v -0.999999 0.200000 0.200000
v 1.000001 0.200000 0.200001
v -0.999999 -0.000000 0.200000
v 1.000001 -0.000000 0.200001
v 1.000001 -0.000000 0.280001
v 1.000001 0.020000 0.300001
v 1.000001 0.180000 0.300001
v 1.000001 0.200000 0.280001
v -0.999999 0.200000 0.280000
v -0.999999 0.180000 0.300000
v -0.999999 0.020000 0.300000
v -0.999999 -0.000000 0.280000
v 0.750000 0.200000 0.250001
v 0.750000 0.500000 0.250001
v -0.749999 0.200000 0.250000
v -0.749999 0.500000 0.250000
v 1.000001 0.200000 0.200001
v -0.999999 0.200000 0.200000
v -0.999999 0.500000 0.200000
v -0.949999 0.500000 0.250000
v -0.949999 0.200000 0.250000
v 0.950001 0.200000 0.250001
v 1.000001 1.200000 0.200001
v 0.950001 1.200000 0.250001
v 0.750000 0.200000 0.250001
v 0.750000 1.200000 0.250001
v -0.749999 0.200000 0.250000
v -0.749999 0.500000 0.250000
v 0.750000 0.200000 0.200001
v 0.750000 1.200000 0.200001
v -0.749999 0.200000 0.200000
v -0.749999 0.500000 0.200000
v -1.000000 0.000000 -0.250000
v -1.000000 4.000000 -0.250000
v 1.000000 4.000000 -0.250000
v 1.000000 0.000000 -0.250000
v -1.000000 3.500000 -0.250000
v 0.750000 3.500000 -0.250000
v -1.000000 0.500000 -0.250000
v 0.750000 0.500000 -0.250000
v 0.750000 1.500000 -0.250000
v 1.000000 1.500000 -0.250000
v 0.800000 0.375000 0.450000
v 0.800000 0.425000 0.500000
v 0.850000 0.425000 0.450000
v 0.800000 0.575000 0.500000
v 0.800000 0.625000 0.450000
v 0.850000 0.575000 0.450000
v 0.800000 0.375000 -0.450000
v 0.850000 0.425000 -0.450000
v 0.800000 0.425000 -0.500000
v 0.800000 0.625000 -0.450000
v 0.800000 0.575000 -0.500000
v 0.850000 0.575000 -0.450000
v -1.000000 0.375000 0.450000
v -1.000000 0.425000 0.500000
v -1.000000 0.625000 0.450000
v -1.000000 0.575000 0.500000
v -1.000000 0.375000 -0.450000
v -1.000000 0.425000 -0.500000
v -1.000000 0.625000 -0.450000
v -1.000000 0.575000 -0.500000
v 0.620000 1.890320 0.070000
v 0.620000 1.920320 0.100000
v 0.620000 2.060319 0.100000
v 0.620000 2.090320 0.070000
v 0.620000 1.890320 -0.070000
v 0.620000 1.920320 -0.100000
v 0.620000 2.090320 -0.070000
v 0.620000 2.060319 -0.100000
v -1.000000 1.890320 0.070000
v -1.000000 1.920320 0.100000
v -1.000000 2.090320 0.070000
v -1.000000 2.060319 0.100000
v -1.000000 1.890320 -0.070000
v -1.000000 1.920320 -0.100000
v -1.000000 2.090320 -0.070000
v -1.000000 2.060319 -0.100000
v -1.000000 0.760319 -0.100000
v -1.000000 0.790320 -0.070000
v -1.000000 0.620319 -0.100000
v -1.000000 0.590320 -0.070000
v -1.000000 0.760319 0.100000
v -1.000000 0.790320 0.070000
v -1.000000 0.620319 0.100000
v -1.000000 0.590320 0.070000
v 0.620000 0.760319 -0.100000
v 0.620000 0.790320 -0.070000
v 0.620000 0.620319 -0.100000
v 0.620000 0.590320 -0.070000
v 0.620000 0.790320 0.070000
v 0.620000 0.760319 0.100000
v 0.620000 0.620319 0.100000
v 0.620000 0.590320 0.070000
v 0.700000 0.590320 0.000000
v -1.000000 0.590320 0.000000
v 0.700000 3.390320 0.000000
v -1.000000 3.390320 0.000000
v -1.000003 3.390320 -0.049999
v -1.000003 0.590320 -0.049999
v 0.699997 0.590320 -0.050000
v 0.699997 3.390320 -0.050000
v 0.750000 0.399999 0.150000
v -1.000000 3.500000 0.150000
v 0.750000 3.500000 0.150000
v 0.540000 0.399999 0.150000
v -1.000000 3.300000 0.150000
v 0.540000 3.300000 0.150000
v 0.750000 0.399999 -0.150000
v -1.000000 3.500000 -0.150000
v 0.750000 3.500000 -0.150000
v 0.540000 0.399999 -0.150000
v -1.000000 3.300000 -0.150000
v 0.540000 3.300000 -0.150000
v -0.900000 0.599999 0.125000
v -0.900000 3.500000 0.125000
v -1.000000 0.599999 -0.125000
v -1.000000 3.500000 -0.125000
v -0.900000 0.599999 -0.125000
v -0.900000 3.500000 -0.125000
v -1.000000 0.599999 0.125000
v -1.000000 3.500000 0.125000
vt 0.422908 0.867260
vt 0.426503 0.881071
vt 0.446963 0.881071
vt 0.450557 0.867260
vt 0.445472 0.366403
vt 0.445472 0.366403
vt 0.428941 0.366403
vt 0.428941 0.366403
vt 0.445472 0.366403
vt 0.428941 0.366403
vt 0.422908 0.894882
vt 0.426503 0.894882
vt 0.431090 0.358146
vt 0.431090 0.358146
vt 0.443323 0.358146
vt 0.443323 0.358146
vt 0.431090 0.349889
vt 0.428941 0.349889
vt 0.428941 0.349889
vt 0.431090 0.349889
vt 0.417395 0.859544
vt 0.417395 0.859544
vt 0.456071 0.859544
vt 0.456071 0.859544
vt 0.456071 0.891181
vt 0.417395 0.891181
vt 0.417395 0.896204
vt 0.456071 0.896204
vt 0.456071 0.927840
vt 0.456071 0.927454
vt 0.417395 0.927454
vt 0.417395 0.927840
vt 0.456071 0.859931
vt 0.417395 0.859931
vt 0.456071 0.927840
vt 0.417395 0.927840
vt 0.456071 0.896590
vt 0.456071 0.890794
vt 0.456071 0.896590
vt 0.456071 0.890794
vt 0.417395 0.890794
vt 0.417395 0.896590
vt 0.417395 0.890794
vt 0.417395 0.896590
vt 0.451237 0.867611
vt 0.444146 0.867611
vt 0.444146 0.890988
vt 0.451237 0.890988
vt 0.442212 0.867611
vt 0.431254 0.867611
vt 0.431254 0.890988
vt 0.442212 0.890988
vt 0.435547 0.882812
vt 0.430287 0.859738
vt 0.429320 0.859738
vt 0.423841 0.890988
vt 0.442212 0.859738
vt 0.443179 0.859738
vt 0.443179 0.836361
vt 0.442212 0.836361
vt 0.443179 0.922238
vt 0.444146 0.922238
vt 0.444146 0.898861
vt 0.443179 0.898861
vt 0.430287 0.922238
vt 0.430287 0.836361
vt 0.429320 0.836361
vt 0.431254 0.922238
vt 0.431254 0.898861
vt 0.430287 0.898861
vt 0.417395 0.859544
vt 0.417395 0.859544
vt 0.456071 0.859544
vt 0.456071 0.859544
vt 0.456071 0.891181
vt 0.417395 0.891181
vt 0.417395 0.896204
vt 0.456071 0.896204
vt 0.456071 0.927840
vt 0.456071 0.927454
vt 0.417395 0.927454
vt 0.417395 0.927840
vt 0.456071 0.859931
vt 0.417395 0.859931
vt 0.456071 0.927840
vt 0.417395 0.927840
vt 0.456071 0.896590
vt 0.456071 0.890794
vt 0.456071 0.896590
vt 0.456071 0.890794
vt 0.417395 0.890794
vt 0.417395 0.896590
vt 0.417395 0.890794
vt 0.417395 0.896590
vt 0.429320 0.867611
vt 0.423841 0.867611
vt 0.429320 0.890988
vt 0.435547 0.882812
vt 0.423841 0.867611
vt 0.418362 0.867611
vt 0.418362 0.890988
vt 0.423841 0.890988
vt 0.455104 0.859738
vt 0.456071 0.859738
vt 0.456071 0.836361
vt 0.455104 0.836361
vt 0.418362 0.898861
vt 0.417395 0.898861
vt 0.417395 0.922238
vt 0.418362 0.922238
vt 0.455104 0.867611
vt 0.451237 0.867611
vt 0.451237 0.890988
vt 0.455104 0.890988
vt 0.423841 0.890988
vt 0.423841 0.867611
vt 0.451237 0.867611
vt 0.451237 0.890988
vt 0.422908 0.894882
vt 0.422908 0.867260
vt 0.428941 0.349889
vt 0.431090 0.358146
vt 0.443323 0.358146
vt 0.431090 0.349889
vt 0.450557 0.867260
vt 0.446963 0.881071
vt 0.426503 0.881071
vt 0.426503 0.894882
vt 0.716537 0.883087
vt 0.658463 0.883087
vt 0.658463 0.892853
vt 0.716537 0.892853
vt 0.716537 0.916130
vt 0.716537 0.916130
vt 0.658463 0.916130
vt 0.658463 0.916130
vt 0.656389 0.883087
vt 0.656389 0.883087
vt 0.656389 0.892853
vt 0.656389 0.892853
vt 0.658463 0.883087
vt 0.716537 0.883087
vt 0.716537 0.892853
vt 0.658463 0.892853
vt 0.658463 0.869821
vt 0.656389 0.873076
vt 0.658463 0.873076
vt 0.658463 0.922885
vt 0.656389 0.922885
vt 0.658463 0.926140
vt 0.658463 0.869821
vt 0.658463 0.873076
vt 0.656389 0.873076
vt 0.658463 0.926140
vt 0.656389 0.922885
vt 0.658463 0.922885
vt 0.658463 0.893097
vt 0.656389 0.893097
vt 0.656389 0.902864
vt 0.658463 0.902864
vt 0.658463 0.902864
vt 0.656389 0.902864
vt 0.656389 0.893097
vt 0.658463 0.893097
vt 0.716537 0.869821
vt 0.716537 0.873076
vt 0.716537 0.922885
vt 0.716537 0.926140
vt 0.716537 0.859810
vt 0.716537 0.922885
vt 0.716537 0.873076
vt 0.716537 0.869821
vt 0.716537 0.926140
vt 0.658463 0.859810
vt 0.658463 0.859810
vt 0.716537 0.859810
vt 0.484964 0.867836
vt 0.390036 0.867836
vt 0.390036 0.885395
vt 0.484964 0.885395
vt 0.484964 0.920408
vt 0.484964 0.920408
vt 0.390036 0.920408
vt 0.390036 0.920408
vt 0.390036 0.867836
vt 0.484964 0.867836
vt 0.484964 0.885395
vt 0.390036 0.885395
vt 0.484964 0.848448
vt 0.484964 0.852211
vt 0.390036 0.852211
vt 0.390036 0.848448
vt 0.390036 0.936033
vt 0.390036 0.932270
vt 0.484964 0.932270
vt 0.484964 0.936033
vt 0.390036 0.848449
vt 0.390036 0.852211
vt 0.484964 0.852211
vt 0.484964 0.848449
vt 0.484964 0.936033
vt 0.484964 0.932270
vt 0.390036 0.932270
vt 0.390036 0.936033
vt 0.390036 0.832823
vt 0.390036 0.832824
vt 0.484964 0.832824
vt 0.484964 0.832823
vt 0.390036 0.936033
vt 0.390036 0.932270
vt 0.484964 0.932270
vt 0.484964 0.936033
vt 0.484964 0.936033
vt 0.484964 0.932270
vt 0.390036 0.932270
vt 0.390036 0.936033
vt 0.390036 0.848449
vt 0.390036 0.852211
vt 0.484964 0.852211
vt 0.484964 0.848449
vt 0.484964 0.920408
vt 0.484964 0.920408
vt 0.390036 0.920408
vt 0.390036 0.920408
vt 0.390036 0.832823
vt 0.390036 0.832824
vt 0.484964 0.832824
vt 0.484964 0.832823
vt 0.484964 0.848448
vt 0.484964 0.852211
vt 0.390036 0.852211
vt 0.390036 0.848448
vt 0.484964 0.867836
vt 0.390036 0.867836
vt 0.390036 0.885395
vt 0.484964 0.885395
vt 0.390036 0.867836
vt 0.484964 0.867836
vt 0.484964 0.885395
vt 0.390036 0.885395
vt 0.411345 0.937821
vt 0.416576 0.932595
vt 0.416576 0.890788
vt 0.411345 0.885562
vt 0.463655 0.937821
vt 0.458424 0.932595
vt 0.411345 0.937821
vt 0.411345 0.885562
vt 0.416576 0.890788
vt 0.416576 0.932595
vt 0.458424 0.932595
vt 0.463655 0.937821
vt 0.416576 0.901345
vt 0.416576 0.859538
vt 0.416576 0.859538
vt 0.416576 0.901345
vt 0.458424 0.901345
vt 0.458424 0.901345
vt 0.461039 0.935208
vt 0.461039 0.888175
vt 0.458424 0.890788
vt 0.458424 0.932595
vt 0.463655 0.937821
vt 0.458424 0.932595
vt 0.458424 0.890788
vt 0.463655 0.885562
vt 0.458424 0.859538
vt 0.458424 0.901345
vt 0.458424 0.901345
vt 0.458424 0.859538
vt 0.985007 0.014993
vt 0.985007 0.235007
vt 0.764993 0.235007
vt 0.764993 0.014993
vt 0.764993 0.014993
vt 0.764993 0.235007
vt 0.985007 0.235007
vt 0.985007 0.014993
vn 0.0000 0.0000 1.0000
vn 0.0000 1.0000 0.0000
vn 0.0000 -1.0000 0.0000
vn 1.0000 -0.0000 0.0000
vn -1.0000 0.0000 -0.0000
vn -0.0000 -0.9239 0.3827
vn -0.0000 0.9239 0.3827
vn -0.0000 0.7071 0.7071
vn -0.0000 -0.7071 0.7071
vn 0.3827 0.0000 0.9239
vn -0.3827 0.0000 0.9239
vn -0.7071 0.0000 0.7071
vn 0.7071 0.0000 0.7071
vn -0.0000 0.0000 -1.0000
vn 0.0000 -0.3827 0.9239
vn 0.3416 -0.3416 0.8756
vn 0.3416 0.3416 0.8756
vn 0.0000 0.3827 0.9239
vn 0.3416 0.8756 0.3416
vn 0.3416 0.8756 -0.3416
vn 0.3416 -0.3416 -0.8756
vn 0.0000 -0.3827 -0.9239
vn 0.0000 0.3827 -0.9239
vn 0.3416 0.3416 -0.8756
vn 0.3416 -0.8756 0.3416
vn 0.7588 -0.4606 0.4606
vn 0.7588 0.4606 0.4606
vn 0.3416 -0.8756 -0.3416
vn 0.7588 -0.4606 -0.4606
vn 0.7588 0.4606 -0.4606
vn 0.0000 -0.7071 -0.7071
vn 0.0000 0.7071 -0.7071
vn 0.0000 -0.9239 -0.3827
usemtl tiny_treats_1
s 1
f 3/1/1 8/2/1 7/3/1 1/4/1
f 76/5/2 2/6/2 4/7/2 77/8/2
f 2/6/2 12/9/2 11/10/2 4/7/2
f 10/11/1 9/12/1 8/2/1 3/1/1
f 6/13/3 14/14/3 13/15/3 5/16/3
f 11/10/1 12/9/1 13/15/1 14/14/1
f 11/10/1 14/14/1 15/17/1 16/18/1
f 4/7/4 11/10/4 16/18/4 10/19/4
f 9/20/5 15/17/5 14/14/5 6/13/5
f 20/21/3 21/22/6 28/23/6 19/24/3
f 27/25/1 22/26/1 23/27/1 26/28/1
f 25/29/7 26/30/8 23/31/8 24/32/7
f 27/33/9 28/23/6 21/22/6 22/34/9
f 17/35/2 25/29/7 24/32/7 18/36/2
f 25/37/5 28/38/5 27/25/5 26/28/5
f 17/39/5 19/40/5 28/38/5 25/37/5
f 21/41/4 24/42/4 23/27/4 22/26/4
f 20/43/4 18/44/4 24/42/4 21/41/4
f 57/45/1 37/46/10 38/47/10 58/48/1
f 30/49/11 35/50/10 34/51/10 31/52/11
f 41/53/2 33/54/2 42/55/2 56/56/2
f 31/57/11 32/58/12 29/59/12 30/60/11
f 32/61/13 38/62/10 37/63/10 29/64/13
f 31/52/2 34/51/2 33/65/2 32/58/2
f 42/55/11 33/54/12 36/66/12 39/67/11
f 33/65/13 34/68/10 35/69/10 36/70/13
f 46/71/3 47/72/6 54/73/6 45/74/3
f 53/75/1 48/76/1 49/77/1 52/78/1
f 51/79/7 52/80/8 49/81/8 50/82/7
f 53/83/9 54/73/6 47/72/6 48/84/9
f 43/85/2 51/79/7 50/82/7 44/86/2
f 51/87/5 54/88/5 53/75/5 52/78/5
f 43/89/5 45/90/5 54/88/5 51/87/5
f 47/91/4 50/92/4 49/77/4 48/76/4
f 46/93/4 44/94/4 50/92/4 47/91/4
f 39/95/11 55/96/1 56/56/1 42/97/11
f 40/98/2 58/48/2 38/47/2 32/61/2
f 67/99/1 64/100/1 66/101/1 68/102/1
f 62/103/11 61/104/12 60/105/12 63/106/11
f 64/107/13 59/108/13 65/109/13 66/110/13
f 63/111/11 69/112/1 70/113/1 62/114/11
f 68/102/5 72/115/5 71/116/5 67/99/5
f 69/112/4 73/117/4 74/118/4 70/113/4
f 84/119/4 10/11/4 3/1/4 78/120/4
f 4/7/4 10/19/4 84/121/4 77/8/4
f 76/5/14 77/8/14 80/122/14 79/123/14
f 84/121/14 83/124/14 80/122/14 77/8/14
f 75/125/14 81/126/14 82/127/14 78/120/14
f 9/12/5 83/128/5 82/127/5 8/2/5
f 12/9/5 2/6/5 5/16/5 13/15/5
f 7/3/5 81/126/5 75/125/5 1/4/5
f 78/120/14 82/127/14 83/128/14 84/119/14
f 6/13/5 80/122/5 83/124/5 9/20/5
f 82/127/2 81/126/2 7/3/2 8/2/2
f 78/120/3 3/1/3 1/4/3 75/125/3
f 79/123/3 80/122/3 6/13/3 5/16/3
f 98/129/15 86/130/16 88/131/17 100/132/18
f 103/133/2 99/134/2 89/135/19 94/136/20
f 87/137/4 92/138/4 96/139/4 90/140/4
f 93/141/21 102/142/22 104/143/23 95/144/24
f 85/145/25 87/146/26 86/147/16
f 88/148/17 90/149/27 89/150/19
f 91/151/28 93/152/21 92/153/29
f 94/154/20 96/155/30 95/156/24
f 91/151/28 92/153/29 87/146/26 85/145/25
f 86/157/16 87/158/26 90/159/27 88/160/17
f 89/150/19 90/149/27 96/155/30 94/154/20
f 95/161/24 96/162/30 92/163/29 93/164/21
f 101/165/31 102/166/22 93/152/21 91/151/28
f 94/154/20 95/156/24 104/167/23 103/168/32
f 98/129/5 102/142/5 101/165/5 97/169/5
f 102/142/5 98/129/5 100/132/5 104/167/5
f 99/134/5 103/133/5 104/167/5 100/170/5
f 85/145/25 86/147/16 98/171/15 97/172/9
f 99/173/8 100/170/18 88/148/17 89/150/19
f 91/174/28 85/175/25 97/169/3 101/176/3
f 114/177/1 106/178/1 107/179/18 116/180/18
f 119/181/2 115/182/2 108/183/2 111/184/2
f 110/185/14 118/186/14 120/187/23 112/188/23
f 117/189/33 118/190/31 110/191/31 109/192/33
f 111/193/32 112/194/23 120/195/23 119/196/32
f 105/197/6 106/198/9 114/199/9 113/200/6
f 115/201/8 116/202/18 107/203/18 108/204/8
f 109/205/33 105/206/6 113/207/6 117/208/33
f 130/209/32 129/210/23 121/211/23 122/212/32
f 126/213/8 125/214/18 134/215/18 133/216/8
f 136/217/9 135/218/15 127/219/15 128/220/9
f 122/221/2 126/222/2 133/223/2 130/224/2
f 132/225/3 136/226/3 128/227/3 124/228/3
f 124/229/31 123/230/22 131/231/22 132/232/31
f 127/233/15 135/234/15 134/235/18 125/236/18
f 131/237/22 123/238/22 121/239/23 129/240/23
f 147/241/1 150/242/1 148/243/1 145/244/1
f 147/241/1 146/245/1 149/246/1 150/242/1
f 153/247/14 151/248/14 154/249/14 156/250/14
f 153/247/14 156/250/14 155/251/14 152/252/14
f 156/253/5 154/254/5 148/255/5 150/256/5
f 155/257/3 156/253/3 150/256/3 149/258/3
f 79/123/5 5/16/5 2/6/5 76/5/5
f 146/245/5 152/252/5 155/251/5 149/258/5
f 115/182/5 119/181/5 120/195/5 116/202/5
f 118/186/5 114/177/5 116/180/5 120/195/5
f 114/177/5 118/186/5 117/189/5 113/207/5
f 126/213/5 122/212/5 121/211/5 125/214/5
f 123/238/5 127/233/5 125/236/5 121/211/5
f 128/220/5 127/219/5 123/238/5 124/229/5
f 164/259/1 163/260/1 157/261/1 158/262/1
f 160/263/14 162/264/14 161/265/14 159/266/14
f 161/267/4 162/268/4 158/269/4 157/270/4
f 159/266/5 163/260/5 164/259/5 160/263/5
usemtl tiny_treats_1_GLASS
f 137/271/1 139/272/1 140/273/1 138/274/1
f 142/275/14 141/276/14 144/277/14 143/278/14
