# Blender v3.4.1 OBJ File: 'Tiny_treats_Playful_Bedroom_1.1_ASSETS_EXPORT.blend'
# www.blender.org
mtllib wall_modular_panelled_window_pink_large_A.mtl
o wall_modular_panelled_window_pink_large_A
v 1.000000 -0.000000 0.200001
v 1.000000 4.000000 0.200001
v -1.000000 -0.000000 0.200000
v -1.000000 4.000000 0.200001
v 0.750000 3.500000 0.200000
v -0.749999 3.500000 0.200000
v 0.750000 0.500000 0.200000
v -0.749999 0.500000 0.200000
v 0.750000 1.500000 0.200000
v 1.000000 1.500000 0.200000
v -0.749999 1.500000 0.200000
v -1.000000 1.500000 0.200000
v -1.000000 4.000000 0.250001
v 1.000000 4.000000 0.250001
v 0.750000 3.500000 0.250000
v -0.749999 3.500000 0.250000
v 0.750000 1.500000 0.250000
v -0.749999 1.500000 0.250000
v -1.000000 1.500000 0.250000
v 1.000000 1.500000 0.250000
v -0.750001 1.500000 0.200000
v -1.000001 1.500000 0.200001
v -0.750001 1.200000 0.200000
v -1.000001 1.200000 0.200001
v -1.000001 1.200000 0.280001
v -1.000001 1.220000 0.300001
v -1.000001 1.480000 0.300001
v -1.000001 1.500000 0.280001
v -0.750001 1.500000 0.280000
v -0.750001 1.480000 0.300000
v -0.750001 1.220000 0.300000
v -0.750001 1.200000 0.280000
v 0.333332 0.200000 0.200000
v 0.283332 0.200000 0.250000
v 0.283332 0.500000 0.250000
v 0.333332 0.500000 0.200000
v -0.333334 0.500000 0.200000
v -0.283334 0.500000 0.250000
v -0.283334 0.200000 0.250000
v -0.333334 0.200000 0.200000
v 0.383332 0.200000 0.250000
v 0.383332 0.500000 0.250000
v -0.383334 0.200000 0.250000
v 0.749999 0.500000 0.200001
v -0.750000 0.500000 0.200002
v -0.383334 0.500000 0.250000
v 0.999999 0.200000 0.200000
v -1.000001 0.200000 0.200001
v 0.999999 -0.000000 0.200000
v -1.000001 -0.000000 0.200001
v -1.000001 -0.000000 0.280001
v -1.000001 0.020000 0.300001
v -1.000001 0.180000 0.300001
v -1.000001 0.200000 0.280001
v 0.999999 0.200000 0.280000
v 0.999999 0.180000 0.300000
v 0.999999 0.020000 0.300000
v 0.999999 -0.000000 0.280000
v 0.999999 1.500000 0.200000
v 0.750000 1.500000 0.200001
v 0.999999 1.200000 0.200000
v 0.750000 1.200000 0.200001
v 0.750000 1.200000 0.280001
v 0.750000 1.220000 0.300001
v 0.750000 1.480000 0.300001
v 0.750000 1.500000 0.280001
v 0.999999 1.500000 0.280000
v 0.999999 1.480000 0.300000
v 0.999999 1.220000 0.300000
v 0.999999 1.200000 0.280000
v -0.750000 0.200000 0.250001
v -0.750000 0.500000 0.250001
v 0.749999 0.200000 0.250000
v 0.749999 0.500000 0.250000
v -1.000001 0.200000 0.200001
v 0.999999 0.200000 0.200000
v 0.999999 1.200000 0.200000
v 0.949999 1.200000 0.250000
v 0.949999 0.200000 0.250000
v -0.950001 0.200000 0.250001
v -1.000001 1.200000 0.200001
v -0.950001 1.200000 0.250001
v -0.750000 0.200000 0.250001
v -0.750000 1.200000 0.250001
v 0.749999 0.200000 0.250000
v 0.749999 1.200000 0.250000
v -0.750000 0.200000 0.200001
v -0.750000 1.200000 0.200001
v 0.749999 0.200000 0.200000
v 0.749999 1.200000 0.200000
v 1.000000 -0.000000 0.000000
v -1.000000 0.000000 -0.000000
v -1.000000 1.500000 -0.000000
v 0.750000 3.500000 0.000000
v 0.750000 1.500000 0.000000
v -0.750000 1.500000 0.000000
v -1.000000 4.000000 0.000000
v 1.000000 4.000000 0.000001
v -0.750000 3.500000 0.000000
v 0.750000 0.500000 -0.000000
v -0.750000 0.500000 0.000000
v 1.000000 1.500000 0.000000
vt 0.422908 0.867260
vt 0.450557 0.867260
vt 0.450557 0.867260
vt 0.422908 0.867260
vt 0.446963 0.881071
vt 0.426503 0.881071
vt 0.450557 0.894882
vt 0.446963 0.894882
vt 0.445414 0.366441
vt 0.428418 0.366441
vt 0.428418 0.366441
vt 0.445414 0.366441
vt 0.428418 0.366441
vt 0.445414 0.366441
vt 0.443204 0.357952
vt 0.443204 0.357952
vt 0.430628 0.357952
vt 0.430627 0.357952
vt 0.446963 0.881071
vt 0.426503 0.881071
vt 0.422908 0.894882
vt 0.426503 0.894882
vt 0.443204 0.357952
vt 0.430628 0.357952
vt 0.445414 0.349463
vt 0.445414 0.349463
vt 0.443204 0.349463
vt 0.428418 0.349463
vt 0.430628 0.349463
vt 0.428418 0.349463
vt 0.430628 0.349463
vt 0.443204 0.349463
vt 0.417395 0.859544
vt 0.456071 0.859544
vt 0.456071 0.859544
vt 0.417395 0.859544
vt 0.456071 0.891181
vt 0.456071 0.896204
vt 0.417395 0.896204
vt 0.417395 0.891181
vt 0.456071 0.927840
vt 0.417395 0.927840
vt 0.417395 0.927454
vt 0.456071 0.927454
vt 0.456071 0.859931
vt 0.417395 0.859931
vt 0.456071 0.927840
vt 0.417395 0.927840
vt 0.456071 0.896590
vt 0.456071 0.890794
vt 0.456071 0.896590
vt 0.456071 0.890794
vt 0.417395 0.890794
vt 0.417395 0.896590
vt 0.417395 0.890794
vt 0.417395 0.896590
vt 0.451237 0.867611
vt 0.451237 0.890988
vt 0.444146 0.890988
vt 0.444146 0.867611
vt 0.442212 0.867611
vt 0.442212 0.890988
vt 0.431254 0.890988
vt 0.431254 0.867611
vt 0.435547 0.882812
vt 0.423841 0.890988
vt 0.429320 0.859738
vt 0.430287 0.859738
vt 0.442212 0.859738
vt 0.442212 0.836361
vt 0.443179 0.836361
vt 0.443179 0.859738
vt 0.443179 0.922238
vt 0.443179 0.898861
vt 0.444146 0.898861
vt 0.444146 0.922238
vt 0.430287 0.922238
vt 0.429320 0.836361
vt 0.430287 0.836361
vt 0.430287 0.898861
vt 0.431254 0.898861
vt 0.431254 0.922238
vt 0.417395 0.859544
vt 0.456071 0.859544
vt 0.456071 0.859544
vt 0.417395 0.859544
vt 0.456071 0.891181
vt 0.456071 0.896204
vt 0.417395 0.896204
vt 0.417395 0.891181
vt 0.456071 0.927840
vt 0.417395 0.927840
vt 0.417395 0.927454
vt 0.456071 0.927454
vt 0.456071 0.859931
vt 0.417395 0.859931
vt 0.456071 0.927840
vt 0.417395 0.927840
vt 0.456071 0.896590
vt 0.456071 0.890794
vt 0.456071 0.896590
vt 0.456071 0.890794
vt 0.417395 0.890794
vt 0.417395 0.896590
vt 0.417395 0.890794
vt 0.417395 0.896590
vt 0.417395 0.859544
vt 0.456071 0.859544
vt 0.456071 0.859544
vt 0.417395 0.859544
vt 0.456071 0.891181
vt 0.456071 0.896204
vt 0.417395 0.896204
vt 0.417395 0.891181
vt 0.456071 0.927840
vt 0.417395 0.927840
vt 0.417395 0.927454
vt 0.456071 0.927454
vt 0.456071 0.859931
vt 0.417395 0.859931
vt 0.456071 0.927840
vt 0.417395 0.927840
vt 0.456071 0.896590
vt 0.456071 0.890794
vt 0.456071 0.896590
vt 0.456071 0.890794
vt 0.417395 0.890794
vt 0.417395 0.896590
vt 0.417395 0.890794
vt 0.417395 0.896590
vt 0.429320 0.867611
vt 0.429320 0.890988
vt 0.423841 0.867611
vt 0.435547 0.882812
vt 0.423841 0.867611
vt 0.423841 0.890988
vt 0.418362 0.890988
vt 0.418362 0.867611
vt 0.455104 0.859738
vt 0.455104 0.836361
vt 0.456071 0.836361
vt 0.456071 0.859738
vt 0.418362 0.898861
vt 0.418362 0.922238
vt 0.417395 0.922238
vt 0.417395 0.898861
vt 0.455104 0.867611
vt 0.455104 0.890988
vt 0.451237 0.890988
vt 0.451237 0.867611
vt 0.423841 0.867611
vt 0.423841 0.890988
vt 0.451237 0.890988
vt 0.451237 0.867611
vt 0.428418 0.349463
vt 0.445414 0.349463
vt 0.422908 0.894882
vt 0.450557 0.894882
vt 0.430627 0.349463
vt 0.443204 0.349463
vt 0.426503 0.894882
vt 0.446963 0.894882
vn -0.0000 -1.0000 -0.0000
vn -0.0000 0.0000 1.0000
vn 0.0000 1.0000 -0.0000
vn 1.0000 -0.0000 -0.0000
vn -1.0000 -0.0000 0.0000
vn 0.0000 -0.9239 0.3827
vn 0.0000 0.9239 0.3827
vn 0.0000 0.7071 0.7071
vn 0.0000 -0.7071 0.7071
vn -0.3827 -0.0000 0.9239
vn 0.3827 -0.0000 0.9239
vn 0.7071 -0.0000 0.7071
vn -0.7071 -0.0000 0.7071
usemtl tiny_treats_1
s 1
f 92/1/1 91/2/1 1/3/1 3/4/1
f 3/4/2 1/3/2 7/5/2 8/6/2
f 10/7/2 9/8/2 7/5/2 1/3/2
f 98/9/3 97/10/3 4/11/3 2/12/3
f 2/12/3 4/11/3 13/13/3 14/14/3
f 94/15/1 5/16/1 6/17/1 99/18/1
f 100/19/3 101/20/3 8/6/3 7/5/3
f 12/21/2 3/4/2 8/6/2 11/22/2
f 6/17/1 5/16/1 15/23/1 16/24/1
f 10/25/4 2/12/4 14/14/4 20/26/4
f 13/13/2 16/24/2 15/23/2 14/14/2
f 14/14/2 15/23/2 17/27/2 20/26/2
f 13/13/2 19/28/2 18/29/2 16/24/2
f 4/11/5 12/30/5 19/28/5 13/13/5
f 11/31/4 6/17/4 16/24/4 18/29/4
f 5/16/5 9/32/5 17/27/5 15/23/5
f 24/33/1 23/34/1 32/35/6 25/36/6
f 31/37/2 30/38/2 27/39/2 26/40/2
f 29/41/7 28/42/7 27/43/8 30/44/8
f 31/45/9 26/46/9 25/36/6 32/35/6
f 21/47/3 22/48/3 28/42/7 29/41/7
f 29/49/4 30/38/4 31/37/4 32/50/4
f 21/51/4 29/49/4 32/50/4 23/52/4
f 25/53/5 26/40/5 27/39/5 28/54/5
f 24/55/5 25/53/5 28/54/5 22/56/5
f 73/57/2 74/58/2 42/59/10 41/60/10
f 34/61/11 35/62/11 38/63/10 39/64/10
f 45/65/3 72/66/3 46/67/3 37/68/3
f 35/69/11 34/70/11 33/71/12 36/72/12
f 36/73/13 33/74/13 41/75/10 42/76/10
f 35/62/3 36/72/3 37/77/3 38/63/3
f 46/67/12 43/78/12 40/79/12 37/68/12
f 37/77/13 40/80/13 39/81/10 38/82/10
f 50/83/1 49/84/1 58/85/6 51/86/6
f 57/87/2 56/88/2 53/89/2 52/90/2
f 55/91/7 54/92/7 53/93/8 56/94/8
f 57/95/9 52/96/9 51/86/6 58/85/6
f 47/97/3 48/98/3 54/92/7 55/91/7
f 55/99/4 56/88/4 57/87/4 58/100/4
f 47/101/4 55/99/4 58/100/4 49/102/4
f 51/103/5 52/90/5 53/89/5 54/104/5
f 50/105/5 51/103/5 54/104/5 48/106/5
f 62/107/1 61/108/1 70/109/6 63/110/6
f 69/111/2 68/112/2 65/113/2 64/114/2
f 67/115/7 66/116/7 65/117/8 68/118/8
f 69/119/9 64/120/9 63/110/6 70/109/6
f 59/121/3 60/122/3 66/116/7 67/115/7
f 67/123/4 68/112/4 69/111/4 70/124/4
f 59/125/4 67/123/4 70/124/4 61/126/4
f 63/127/5 64/114/5 65/113/5 66/128/5
f 62/129/5 63/127/5 66/128/5 60/130/5
f 43/131/2 46/132/2 72/66/2 71/133/2
f 44/134/3 36/73/3 42/59/3 74/58/3
f 83/135/2 84/136/2 82/137/2 80/138/2
f 78/139/11 79/140/11 76/141/12 77/142/12
f 80/143/13 82/144/13 81/145/13 75/146/13
f 79/147/11 78/148/11 86/149/2 85/150/2
f 84/136/4 83/135/4 87/151/4 88/152/4
f 85/150/5 86/149/5 90/153/5 89/154/5
f 4/11/5 97/10/5 93/155/5 12/30/5
f 2/12/4 10/25/4 102/156/4 98/9/4
f 12/21/5 93/157/5 92/1/5 3/4/5
f 10/7/4 1/3/4 91/2/4 102/158/4
f 6/17/4 11/31/4 96/159/4 99/18/4
f 5/16/5 94/15/5 95/160/5 9/32/5
f 11/22/4 8/6/4 101/20/4 96/161/4
f 9/8/5 95/162/5 100/19/5 7/5/5
