# Blender v3.4.1 OBJ File: 'Tiny_treats_Playful_Bedroom_1.1_ASSETS_EXPORT.blend'
# www.blender.org
mtllib wall_shelf_pink.mtl
o wall_shelf_pink
v -0.950000 -0.250000 -0.000000
v -1.000000 -0.200000 -0.000000
v -1.000000 -0.050000 -0.000000
v -0.950000 0.000000 -0.000000
v 0.950000 -0.250000 0.000000
v 1.000000 -0.200000 0.000000
v 0.950000 -0.000000 0.000000
v 1.000000 -0.050000 0.000000
v -0.950000 -0.250000 0.650000
v -0.950000 -0.200000 0.700000
v -1.000000 -0.200000 0.650000
v -0.950000 -0.000000 0.650000
v -1.000000 -0.050000 0.650000
v -0.950000 -0.050000 0.700000
v 0.950000 -0.250000 0.650000
v 1.000000 -0.200000 0.650000
v 0.950000 -0.200000 0.700000
v 0.950000 -0.000000 0.650000
v 0.950000 -0.050000 0.700000
v 1.000000 -0.050000 0.650000
v -0.870000 -0.245001 0.450000
v -0.900000 -0.245001 0.420000
v -0.900000 -0.515001 -0.000000
v -0.870000 -0.545001 -0.000000
v -0.900000 -0.245001 -0.000000
v -0.700000 -0.245001 0.420000
v -0.730000 -0.245001 0.450000
v -0.730000 -0.545001 -0.000000
v -0.700000 -0.515001 -0.000000
v -0.700000 -0.245001 -0.000000
v -0.870000 -0.415001 0.350000
v -0.900000 -0.415001 0.320000
v -0.870000 -0.445001 0.320000
v -0.730000 -0.445001 0.320000
v -0.700000 -0.415001 0.320000
v -0.730000 -0.415001 0.350000
v 0.729999 -0.245001 0.450000
v 0.699999 -0.245001 0.420000
v 0.699999 -0.515001 0.000000
v 0.729999 -0.545001 -0.000000
v 0.699999 -0.245001 0.000000
v 0.899999 -0.245001 0.420000
v 0.869999 -0.245001 0.450000
v 0.869999 -0.545001 0.000000
v 0.899999 -0.515001 0.000000
v 0.899999 -0.245001 0.000000
v 0.729999 -0.415001 0.350000
v 0.699999 -0.415001 0.320000
v 0.729999 -0.445001 0.320000
v 0.869999 -0.445001 0.320000
v 0.899999 -0.415001 0.320000
v 0.869999 -0.415001 0.350000
vt 0.452816 0.435353
vt 0.452816 0.447358
vt 0.420770 0.447358
vt 0.420770 0.435353
vt 0.456822 0.435353
vt 0.456822 0.447358
vt 0.456822 0.447358
vt 0.456822 0.435353
vt 0.452816 0.467565
vt 0.420770 0.467565
vt 0.420770 0.467565
vt 0.452816 0.467565
vt 0.420770 0.435353
vt 0.420770 0.447358
vt 0.452816 0.447358
vt 0.452816 0.435353
vt 0.452816 0.423249
vt 0.456822 0.427251
vt 0.452816 0.427251
vt 0.452816 0.475667
vt 0.452816 0.471666
vt 0.456822 0.471666
vt 0.452816 0.423249
vt 0.452816 0.427250
vt 0.456822 0.427250
vt 0.452816 0.475667
vt 0.456822 0.471666
vt 0.452816 0.471666
vt 0.420770 0.415146
vt 0.420770 0.475667
vt 0.420770 0.423249
vt 0.420770 0.471666
vt 0.420770 0.475667
vt 0.420770 0.423249
vt 0.420770 0.427250
vt 0.420770 0.471666
vt 0.456822 0.455461
vt 0.456822 0.443455
vt 0.452816 0.443455
vt 0.452816 0.455461
vt 0.452816 0.455461
vt 0.452816 0.443455
vt 0.456822 0.443455
vt 0.456822 0.455461
vt 0.420770 0.427251
vt 0.452816 0.415146
vt 0.452816 0.415146
vt 0.420770 0.415146
vt 0.426472 0.842718
vt 0.440109 0.842718
vt 0.440109 0.852449
vt 0.426472 0.852449
vt 0.423550 0.892415
vt 0.423550 0.892415
vt 0.423550 0.866140
vt 0.423550 0.875871
vt 0.443032 0.866140
vt 0.443032 0.892415
vt 0.443032 0.892415
vt 0.443032 0.875871
vt 0.426472 0.855369
vt 0.423550 0.855369
vt 0.443032 0.855369
vt 0.440109 0.855369
vt 0.426472 0.871912
vt 0.423550 0.871912
vt 0.443032 0.845637
vt 0.423550 0.845637
vt 0.440109 0.871912
vt 0.443032 0.871912
vt 0.431546 0.842718
vt 0.445183 0.842718
vt 0.445183 0.852449
vt 0.431546 0.852449
vt 0.428624 0.892415
vt 0.428624 0.892415
vt 0.428624 0.866140
vt 0.428624 0.875871
vt 0.448106 0.866140
vt 0.448106 0.892415
vt 0.448106 0.892415
vt 0.448106 0.875871
vt 0.431546 0.855369
vt 0.428624 0.855369
vt 0.448106 0.855369
vt 0.445183 0.855369
vt 0.431546 0.871912
vt 0.428624 0.871912
vt 0.448106 0.845637
vt 0.428624 0.845637
vt 0.445183 0.871912
vt 0.448106 0.871912
vn -0.8756 -0.3416 0.3416
vn -0.8756 0.3416 0.3416
vn -0.9239 0.3827 0.0000
vn -0.9239 -0.3827 -0.0000
vn 0.3416 -0.3416 0.8756
vn 0.3416 0.3416 0.8756
vn -0.3416 0.3416 0.8756
vn -0.3416 -0.3416 0.8756
vn 0.3416 0.8756 0.3416
vn 0.3827 0.9239 0.0000
vn -0.3827 0.9239 0.0000
vn -0.3416 0.8756 0.3416
vn 0.9239 -0.3827 -0.0000
vn 0.9239 0.3827 0.0000
vn 0.8756 0.3416 0.3416
vn 0.8756 -0.3416 0.3416
vn -0.3416 -0.8756 0.3416
vn 0.3416 -0.8756 0.3416
vn 0.0000 0.0000 -1.0000
vn 0.3827 -0.9239 -0.0000
vn -0.3827 -0.9239 -0.0000
vn -0.3448 -0.8960 0.2800
vn 0.3448 -0.8960 0.2800
vn 0.3367 -0.8153 0.4711
vn -0.3367 -0.8153 0.4711
vn -0.8434 -0.2724 0.4631
vn -1.0000 0.0000 0.0000
vn -0.8886 -0.4378 0.1368
vn -0.8751 -0.3706 0.3113
vn 0.8886 -0.4378 0.1368
vn 1.0000 0.0000 0.0000
vn 0.8434 -0.2724 0.4631
vn 0.8751 -0.3706 0.3113
vn -0.3260 -0.5678 0.7559
vn 0.3260 -0.5678 0.7559
vn -0.3019 -0.4834 0.8217
vn 0.3019 -0.4834 0.8217
usemtl tiny_treats_1
s 1
f 11/1/1 13/2/2 3/3/3 2/4/4
f 17/5/5 19/6/6 14/7/7 10/8/8
f 18/9/9 7/10/10 4/11/11 12/12/12
f 6/13/13 8/14/14 20/15/15 16/16/16
f 9/17/17 10/18/8 11/19/1
f 12/20/12 13/21/2 14/22/7
f 15/23/18 16/24/16 17/25/5
f 18/26/9 19/27/6 20/28/15
f 6/13/19 5/29/19 7/30/19 8/14/19
f 5/29/19 1/31/19 4/11/19 7/10/19
f 1/31/19 2/4/19 3/32/19 4/33/19
f 15/23/18 5/34/20 6/35/13 16/24/16
f 7/30/10 18/26/9 20/28/15 8/36/14
f 19/37/6 17/38/5 16/39/16 20/40/15
f 9/17/17 15/23/18 17/25/5 10/18/8
f 18/26/9 12/20/12 14/22/7 19/27/6
f 13/41/2 11/42/1 10/43/8 14/44/7
f 1/31/21 9/17/17 11/19/1 2/45/4
f 12/20/12 4/33/11 3/32/3 13/21/2
f 5/29/20 15/46/18 9/47/17 1/48/21
f 24/49/22 28/50/23 34/51/24 33/52/25
f 22/53/26 25/54/27 23/55/28 32/56/29
f 29/57/30 30/58/31 26/59/32 35/60/33
f 31/61/34 32/62/29 33/52/25
f 34/51/24 35/63/33 36/64/35
f 31/61/34 21/65/36 22/66/26 32/62/29
f 34/51/24 28/50/23 29/67/30 35/63/33
f 24/49/22 33/52/25 32/62/29 23/68/28
f 27/69/37 36/64/35 35/63/33 26/70/32
f 36/64/35 31/61/34 33/52/25 34/51/24
f 31/61/34 36/64/35 27/69/37 21/65/36
f 40/71/22 44/72/23 50/73/24 49/74/25
f 38/75/26 41/76/27 39/77/28 48/78/29
f 45/79/30 46/80/31 42/81/32 51/82/33
f 47/83/34 48/84/29 49/74/25
f 50/73/24 51/85/33 52/86/35
f 47/83/34 37/87/36 38/88/26 48/84/29
f 50/73/24 44/72/23 45/89/30 51/85/33
f 40/71/22 49/74/25 48/84/29 39/90/28
f 43/91/37 52/86/35 51/85/33 42/92/32
f 52/86/35 47/83/34 49/74/25 50/73/24
f 47/83/34 52/86/35 43/91/37 37/87/36
f 40/71/19 39/90/19 45/89/19 44/72/19
f 39/90/19 41/76/19 46/80/19 45/89/19
f 24/49/19 23/68/19 29/67/19 28/50/19
f 23/68/19 25/54/19 30/58/19 29/67/19
