# Blender v3.4.1 OBJ File: 'Tiny_treats_Playful_Bedroom_1.1_ASSETS_EXPORT.blend'
# www.blender.org
mtllib window_large_modular.mtl
o window_large_modular
v -0.800000 0.375000 0.450000
v -0.800000 0.425000 0.500000
v -0.850000 0.425000 0.450000
v -0.800000 0.575000 0.500000
v -0.800000 0.625000 0.450000
v -0.850000 0.575000 0.450000
v -0.800000 0.375000 -0.450000
v -0.850000 0.425000 -0.450000
v -0.800000 0.425000 -0.500000
v -0.800000 0.625000 -0.450000
v -0.800000 0.575000 -0.500000
v -0.850000 0.575000 -0.450000
v 0.800000 0.375000 0.450000
v 0.850000 0.425000 0.450000
v 0.800000 0.425000 0.500000
v 0.800000 0.625000 0.450000
v 0.800000 0.575000 0.500000
v 0.850000 0.575000 0.450000
v 0.800000 0.375000 -0.450000
v 0.800000 0.425000 -0.500000
v 0.850000 0.425000 -0.450000
v 0.800000 0.625000 -0.450000
v 0.850000 0.575000 -0.450000
v 0.800000 0.575000 -0.500000
v -0.620000 1.890320 0.070000
v -0.620000 1.920320 0.100000
v -0.620000 2.060319 0.100000
v -0.620000 2.090320 0.070000
v -0.620000 1.890320 -0.070000
v -0.620000 1.920320 -0.100000
v -0.620000 2.090320 -0.070000
v -0.620000 2.060319 -0.100000
v 0.620000 1.890320 0.070000
v 0.620000 1.920320 0.100000
v 0.620000 2.090320 0.070000
v 0.620000 2.060319 0.100000
v 0.620000 1.890320 -0.070000
v 0.620000 1.920320 -0.100000
v 0.620000 2.090320 -0.070000
v 0.620000 2.060319 -0.100000
v 0.620000 0.760319 -0.100000
v 0.620000 0.790320 -0.070000
v 0.620000 0.620319 -0.100000
v 0.620000 0.590320 -0.070000
v 0.620000 0.760319 0.100000
v 0.620000 0.790320 0.070000
v 0.620000 0.620319 0.100000
v 0.620000 0.590320 0.070000
v -0.620000 0.760319 -0.100000
v -0.620000 0.790320 -0.070000
v -0.620000 0.620319 -0.100000
v -0.620000 0.590320 -0.070000
v -0.620000 0.790320 0.070000
v -0.620000 0.760319 0.100000
v -0.620000 0.620319 0.100000
v -0.620000 0.590320 0.070000
v -0.700000 0.590320 0.000000
v 0.700000 0.590320 0.000000
v -0.700000 3.390320 0.000000
v 0.700000 3.390320 0.000000
v -0.700000 3.390320 -0.049999
v -0.700000 0.590320 -0.050000
v 0.700000 0.590320 -0.050000
v 0.700000 3.390320 -0.049999
v 0.750000 0.399999 0.150000
v -0.750000 0.399999 0.150000
v 0.750000 3.500000 0.150000
v -0.750000 3.500000 0.150000
v 0.540000 0.399999 0.150000
v -0.540000 0.399999 0.150000
v 0.540000 3.300000 0.150000
v -0.540000 3.300000 0.150000
v 0.750000 0.399999 -0.150000
v -0.750000 0.399999 -0.150000
v 0.750000 3.500000 -0.150000
v -0.750000 3.500000 -0.150000
v 0.540000 0.399999 -0.150000
v -0.540000 0.399999 -0.150000
v 0.540000 3.300000 -0.150000
v -0.540000 3.300000 -0.150000
vt 0.716537 0.883087
vt 0.716537 0.892853
vt 0.658463 0.892853
vt 0.658463 0.883087
vt 0.718611 0.883087
vt 0.718611 0.892853
vt 0.718611 0.892853
vt 0.718611 0.883087
vt 0.716537 0.916130
vt 0.658463 0.916130
vt 0.658463 0.916130
vt 0.716537 0.916130
vt 0.656389 0.883087
vt 0.656389 0.892853
vt 0.656389 0.892853
vt 0.656389 0.883087
vt 0.658463 0.883087
vt 0.658463 0.892853
vt 0.716537 0.892853
vt 0.716537 0.883087
vt 0.658463 0.869821
vt 0.658463 0.873076
vt 0.656389 0.873076
vt 0.658463 0.922885
vt 0.658463 0.926140
vt 0.656389 0.922885
vt 0.658463 0.869821
vt 0.656389 0.873076
vt 0.658463 0.873076
vt 0.658463 0.926140
vt 0.658463 0.922885
vt 0.656389 0.922885
vt 0.716537 0.869821
vt 0.718611 0.873076
vt 0.716537 0.873076
vt 0.716537 0.926140
vt 0.716537 0.922885
vt 0.718611 0.922885
vt 0.716537 0.869821
vt 0.716537 0.873076
vt 0.718611 0.873076
vt 0.716537 0.926140
vt 0.718611 0.922885
vt 0.716537 0.922885
vt 0.658463 0.893097
vt 0.658463 0.902864
vt 0.656389 0.902864
vt 0.656389 0.893097
vt 0.658463 0.902864
vt 0.658463 0.893097
vt 0.656389 0.893097
vt 0.656389 0.902864
vt 0.718611 0.902864
vt 0.718611 0.893097
vt 0.716537 0.893097
vt 0.716537 0.902864
vt 0.716537 0.902864
vt 0.716537 0.893097
vt 0.718611 0.893097
vt 0.718611 0.902864
vt 0.658463 0.859810
vt 0.716537 0.859810
vt 0.716537 0.859810
vt 0.658463 0.859810
vt 0.484964 0.867836
vt 0.484964 0.885395
vt 0.390036 0.885395
vt 0.390036 0.867836
vt 0.484964 0.920408
vt 0.390036 0.920408
vt 0.390036 0.920408
vt 0.484964 0.920408
vt 0.390036 0.867836
vt 0.390036 0.885395
vt 0.484964 0.885395
vt 0.484964 0.867836
vt 0.484964 0.848448
vt 0.390036 0.848448
vt 0.390036 0.852211
vt 0.484964 0.852211
vt 0.390036 0.936033
vt 0.484964 0.936033
vt 0.484964 0.932270
vt 0.390036 0.932270
vt 0.390036 0.848449
vt 0.484964 0.848449
vt 0.484964 0.852211
vt 0.390036 0.852211
vt 0.484964 0.936033
vt 0.390036 0.936033
vt 0.390036 0.932270
vt 0.484964 0.932270
vt 0.390036 0.832823
vt 0.484964 0.832823
vt 0.484964 0.832824
vt 0.390036 0.832824
vt 0.390036 0.936033
vt 0.484964 0.936033
vt 0.484964 0.932270
vt 0.390036 0.932270
vt 0.484964 0.936033
vt 0.390036 0.936033
vt 0.390036 0.932270
vt 0.484964 0.932270
vt 0.390036 0.848449
vt 0.484964 0.848449
vt 0.484964 0.852211
vt 0.390036 0.852211
vt 0.484964 0.920408
vt 0.390036 0.920408
vt 0.390036 0.920408
vt 0.484964 0.920408
vt 0.390036 0.832823
vt 0.484964 0.832823
vt 0.484964 0.832824
vt 0.390036 0.832824
vt 0.484964 0.848448
vt 0.390036 0.848448
vt 0.390036 0.852211
vt 0.484964 0.852211
vt 0.484964 0.867836
vt 0.484964 0.885395
vt 0.390036 0.885395
vt 0.390036 0.867836
vt 0.390036 0.867836
vt 0.390036 0.885395
vt 0.484964 0.885395
vt 0.484964 0.867836
vt 0.463655 0.937821
vt 0.458424 0.932595
vt 0.458424 0.890788
vt 0.463655 0.885562
vt 0.411345 0.937821
vt 0.411345 0.885562
vt 0.416576 0.890788
vt 0.416576 0.932595
vt 0.463655 0.937821
vt 0.463655 0.885562
vt 0.458424 0.890788
vt 0.458424 0.932595
vt 0.411345 0.937821
vt 0.416576 0.932595
vt 0.416576 0.890788
vt 0.411345 0.885562
vt 0.416576 0.901345
vt 0.416576 0.901345
vt 0.416576 0.859538
vt 0.416576 0.859538
vt 0.458424 0.859538
vt 0.458424 0.859538
vt 0.458424 0.901345
vt 0.458424 0.901345
vt 0.764993 0.014993
vt 0.985007 0.014993
vt 0.985007 0.235007
vt 0.764993 0.235007
vt 0.764993 0.014993
vt 0.764993 0.235007
vt 0.985007 0.235007
vt 0.985007 0.014993
vn 0.3416 -0.3416 0.8756
vn 0.3416 0.3416 0.8756
vn -0.3416 0.3416 0.8756
vn -0.3416 -0.3416 0.8756
vn 0.8756 -0.3416 -0.3416
vn 0.8756 0.3416 -0.3416
vn 0.8756 0.3416 0.3416
vn 0.8756 -0.3416 0.3416
vn 0.0000 1.0000 0.0000
vn -0.3416 0.8756 -0.3416
vn -0.3416 0.8756 0.3416
vn -1.0000 0.0000 0.0000
vn -0.3416 -0.3416 -0.8756
vn -0.3416 0.3416 -0.8756
vn 0.3416 0.3416 -0.8756
vn 0.3416 -0.3416 -0.8756
vn -0.3416 -0.8756 0.3416
vn -0.7588 -0.4606 0.4606
vn -0.7588 0.4606 0.4606
vn -0.3416 -0.8756 -0.3416
vn -0.7588 -0.4606 -0.4606
vn -0.7588 0.4606 -0.4606
vn 0.4606 -0.7588 0.4606
vn 0.4606 0.7588 0.4606
vn 0.4606 -0.7588 -0.4606
vn 0.4606 0.7588 -0.4606
vn 0.0000 -1.0000 -0.0000
vn 0.0000 -0.0000 1.0000
vn 0.0000 0.3827 0.9239
vn 0.0000 0.0000 -1.0000
vn 0.0000 0.3827 -0.9239
vn 0.0000 -0.9239 -0.3827
vn 0.0000 -0.7071 -0.7071
vn 0.0000 0.7071 -0.7071
vn 0.0000 -0.9239 0.3827
vn 0.0000 -0.7071 0.7071
vn 0.0000 0.7071 0.7071
vn 1.0000 0.0000 0.0000
usemtl tiny_treats_1
s 1
f 15/1/1 17/2/2 4/3/3 2/4/4
f 21/5/5 23/6/6 18/7/7 14/8/8
f 22/9/9 10/10/10 5/11/11 16/12/9
f 3/13/12 6/14/12 12/15/12 8/16/12
f 9/17/13 11/18/14 24/19/15 20/20/16
f 1/21/17 2/22/4 3/23/18
f 4/24/3 5/25/11 6/26/19
f 7/27/20 8/28/21 9/29/13
f 10/30/10 11/31/14 12/32/22
f 13/33/23 14/34/8 15/35/1
f 16/36/24 17/37/2 18/38/7
f 19/39/25 20/40/16 21/41/5
f 22/42/26 23/43/6 24/44/15
f 7/27/20 1/21/17 3/23/18 8/28/21
f 2/45/4 4/46/3 6/47/19 3/48/18
f 5/25/11 10/30/10 12/32/22 6/26/19
f 11/49/14 9/50/13 8/51/21 12/52/22
f 19/39/25 7/27/20 9/29/13 20/40/16
f 10/30/10 22/42/26 24/44/15 11/31/14
f 23/53/6 21/54/5 20/55/16 24/56/15
f 13/33/23 19/39/25 21/41/5 14/34/8
f 22/42/26 16/36/24 18/38/7 23/43/6
f 17/57/2 15/58/1 14/59/8 18/60/7
f 1/21/17 13/33/23 15/35/1 2/22/4
f 16/36/24 5/25/11 4/24/3 17/37/2
f 7/61/20 19/62/27 13/63/27 1/64/17
f 34/65/28 36/66/29 27/67/29 26/68/28
f 39/69/9 31/70/9 28/71/9 35/72/9
f 30/73/30 32/74/31 40/75/31 38/76/30
f 37/77/32 29/78/32 30/79/33 38/80/33
f 31/81/34 39/82/34 40/83/31 32/84/31
f 25/85/35 33/86/35 34/87/36 26/88/36
f 35/89/37 28/90/37 27/91/29 36/92/29
f 29/93/32 37/94/32 33/95/35 25/96/35
f 50/97/34 42/98/34 41/99/31 49/100/31
f 46/101/37 53/102/37 54/103/29 45/104/29
f 56/105/35 48/106/35 47/107/36 55/108/36
f 42/109/9 50/110/9 53/111/9 46/112/9
f 52/113/32 44/114/32 48/115/35 56/116/35
f 44/117/32 52/118/32 51/119/33 43/120/33
f 47/121/28 45/122/29 54/123/29 55/124/28
f 51/125/30 49/126/31 41/127/31 43/128/30
f 67/129/28 71/130/28 69/131/28 65/132/28
f 68/133/28 66/134/28 70/135/28 72/136/28
f 68/133/28 72/136/28 71/130/28 67/129/28
f 75/137/30 73/138/30 77/139/30 79/140/30
f 76/141/30 80/142/30 78/143/30 74/144/30
f 76/141/30 75/137/30 79/140/30 80/142/30
f 80/145/38 72/146/38 70/147/38 78/148/38
f 77/149/12 69/150/12 71/151/12 79/152/12
f 79/152/27 71/151/27 72/146/27 80/145/27
usemtl tiny_treats_1_GLASS
f 57/153/28 58/154/28 60/155/28 59/156/28
f 62/157/30 61/158/30 64/159/30 63/160/30
